G04*
G04 #@! TF.GenerationSoftware,Altium Limited,Altium Designer,22.1.2 (22)*
G04*
G04 Layer_Color=16711935*
%FSLAX25Y25*%
%MOIN*%
G70*
G04*
G04 #@! TF.SameCoordinates,03C845ED-AF23-4815-B137-924D907A0311*
G04*
G04*
G04 #@! TF.FilePolarity,Positive*
G04*
G01*
G75*
%ADD92C,0.00039*%
D92*
X116850Y17400D02*
Y20550D01*
Y17400D02*
X123150D01*
Y20550D01*
X116850D02*
X123150D01*
X109550Y28350D02*
Y34650D01*
X106400Y28350D02*
X109550D01*
X106400D02*
Y34650D01*
X109550D01*
X119450Y28450D02*
Y34750D01*
X122600D01*
Y28450D02*
Y34750D01*
X119450Y28450D02*
X122600D01*
X112950D02*
Y34750D01*
X116100D01*
Y28450D02*
Y34750D01*
X112950Y28450D02*
X116100D01*
X93850Y30050D02*
X100150D01*
Y26900D02*
Y30050D01*
X93850Y26900D02*
X100150D01*
X93850D02*
Y30050D01*
Y32950D02*
X100150D01*
X93850D02*
Y36100D01*
X100150D01*
Y32950D02*
Y36100D01*
X157350Y46050D02*
X163650D01*
Y42900D02*
Y46050D01*
X157350Y42900D02*
X163650D01*
X157350D02*
Y46050D01*
X147450Y45850D02*
Y52150D01*
X150600D01*
Y45850D02*
Y52150D01*
X147450Y45850D02*
X150600D01*
X134450D02*
Y52150D01*
X137600D01*
Y45850D02*
Y52150D01*
X134450Y45850D02*
X137600D01*
X144050D02*
Y52150D01*
X140900Y45850D02*
X144050D01*
X140900D02*
Y52150D01*
X144050D01*
X157350Y49450D02*
X163650D01*
X157350D02*
Y52600D01*
X163650D01*
Y49450D02*
Y52600D01*
X136850Y59450D02*
X143150D01*
X136850D02*
Y62600D01*
X143150D01*
Y59450D02*
Y62600D01*
M02*
