G04*
G04 #@! TF.GenerationSoftware,Altium Limited,Altium Designer,22.1.2 (22)*
G04*
G04 Layer_Color=16711935*
%FSLAX25Y25*%
%MOIN*%
G70*
G04*
G04 #@! TF.SameCoordinates,03C845ED-AF23-4815-B137-924D907A0311*
G04*
G04*
G04 #@! TF.FilePolarity,Negative*
G04*
G01*
G75*
G04:AMPARAMS|DCode=52|XSize=244.22mil|YSize=165.48mil|CornerRadius=82.74mil|HoleSize=0mil|Usage=FLASHONLY|Rotation=180.000|XOffset=0mil|YOffset=0mil|HoleType=Round|Shape=RoundedRectangle|*
%AMROUNDEDRECTD52*
21,1,0.24422,0.00000,0,0,180.0*
21,1,0.07874,0.16548,0,0,180.0*
1,1,0.16548,-0.03937,0.00000*
1,1,0.16548,0.03937,0.00000*
1,1,0.16548,0.03937,0.00000*
1,1,0.16548,-0.03937,0.00000*
%
%ADD52ROUNDEDRECTD52*%
%ADD53C,0.12611*%
%ADD54R,0.07887X0.07887*%
%ADD55C,0.07887*%
%ADD56R,0.06706X0.09461*%
%ADD57R,0.06706X0.06706*%
%ADD58C,0.06706*%
G36*
X152730Y9566D02*
X152650Y9428D01*
X152577Y9289D01*
X152504Y9150D01*
X152431Y9027D01*
X152380Y8910D01*
X152351Y8866D01*
X152329Y8822D01*
X152315Y8786D01*
X152300Y8764D01*
X152293Y8750D01*
Y8742D01*
X151863Y8961D01*
X151950Y9129D01*
X152038Y9282D01*
X152110Y9413D01*
X152183Y9537D01*
X152242Y9632D01*
X152285Y9705D01*
X152300Y9734D01*
X152315Y9756D01*
X152322Y9763D01*
Y9770D01*
X152730Y9566D01*
D02*
G37*
G36*
X145017Y9624D02*
X144901Y9457D01*
X144799Y9296D01*
X144704Y9150D01*
X144616Y9012D01*
X144551Y8903D01*
X144529Y8859D01*
X144507Y8815D01*
X144485Y8786D01*
X144471Y8764D01*
X144463Y8750D01*
Y8742D01*
X144062Y8997D01*
X144157Y9150D01*
X144259Y9304D01*
X144354Y9442D01*
X144441Y9573D01*
X144521Y9690D01*
X144551Y9734D01*
X144580Y9770D01*
X144609Y9807D01*
X144624Y9828D01*
X144631Y9843D01*
X144638Y9850D01*
X145017Y9624D01*
D02*
G37*
G36*
X146643Y9500D02*
X146526Y9355D01*
X146417Y9216D01*
X146308Y9070D01*
X146213Y8939D01*
X146133Y8830D01*
X146096Y8779D01*
X146067Y8742D01*
X146038Y8706D01*
X146023Y8684D01*
X146009Y8669D01*
Y8662D01*
X145622Y8932D01*
X145732Y9078D01*
X145848Y9223D01*
X145958Y9355D01*
X146067Y9479D01*
X146154Y9588D01*
X146227Y9668D01*
X146257Y9697D01*
X146278Y9719D01*
X146286Y9734D01*
X146293Y9741D01*
X146643Y9500D01*
D02*
G37*
G36*
X142838Y9624D02*
X142954Y9457D01*
X143071Y9304D01*
X143173Y9172D01*
X143260Y9063D01*
X143297Y9019D01*
X143333Y8983D01*
X143355Y8954D01*
X143377Y8932D01*
X143384Y8917D01*
X143392Y8910D01*
X143056Y8640D01*
X147153D01*
Y7379D01*
X146694D01*
Y8217D01*
X142225D01*
Y7379D01*
X141773D01*
Y8640D01*
X143020D01*
X142874Y8808D01*
X142736Y8968D01*
X142612Y9121D01*
X142502Y9253D01*
X142415Y9369D01*
X142378Y9420D01*
X142349Y9457D01*
X142320Y9493D01*
X142305Y9515D01*
X142291Y9530D01*
Y9537D01*
X142714Y9799D01*
X142838Y9624D01*
D02*
G37*
G36*
X153299Y8145D02*
X151928D01*
X152030Y7970D01*
X152132Y7802D01*
X152358Y7488D01*
X152475Y7335D01*
X152592Y7197D01*
X152708Y7066D01*
X152818Y6942D01*
X152927Y6832D01*
X153022Y6730D01*
X153109Y6643D01*
X153189Y6570D01*
X153248Y6512D01*
X153299Y6468D01*
X153328Y6439D01*
X153335Y6431D01*
X153299Y6329D01*
X153270Y6235D01*
X153248Y6154D01*
X153226Y6074D01*
X153204Y6016D01*
X153189Y5965D01*
X153182Y5936D01*
Y5928D01*
X153051Y6052D01*
X152927Y6169D01*
X152818Y6278D01*
X152716Y6380D01*
X152635Y6468D01*
X152570Y6533D01*
X152533Y6577D01*
X152519Y6584D01*
Y4069D01*
X152081D01*
Y6738D01*
X151943Y6599D01*
X151812Y6460D01*
X151695Y6337D01*
X151593Y6227D01*
X151513Y6140D01*
X151447Y6067D01*
X151411Y6023D01*
X151396Y6016D01*
Y6009D01*
X151061Y6307D01*
X151192Y6439D01*
X151330Y6570D01*
X151454Y6694D01*
X151571Y6803D01*
X151673Y6898D01*
X151753Y6971D01*
X151782Y7000D01*
X151804Y7022D01*
X151819Y7029D01*
X151826Y7036D01*
X152081Y6810D01*
Y7131D01*
X151943Y7314D01*
X151819Y7488D01*
X151702Y7663D01*
X151600Y7817D01*
X151564Y7882D01*
X151520Y7948D01*
X151491Y7999D01*
X151462Y8050D01*
X151440Y8086D01*
X151425Y8115D01*
X151411Y8130D01*
Y8137D01*
Y8567D01*
X153299D01*
Y8145D01*
D02*
G37*
G36*
X150959Y5863D02*
X150507D01*
Y9041D01*
X148487D01*
Y5863D01*
X148035D01*
Y9449D01*
X150959D01*
Y5863D01*
D02*
G37*
G36*
X146351Y5382D02*
X145892D01*
Y7153D01*
X143049D01*
Y5382D01*
X142590D01*
Y7561D01*
X146351D01*
Y5382D01*
D02*
G37*
G36*
X137479Y8225D02*
X137355Y7991D01*
X137239Y7751D01*
X136998Y7262D01*
X136882Y7015D01*
X136772Y6781D01*
X136663Y6548D01*
X136561Y6329D01*
X136473Y6125D01*
X136386Y5936D01*
X136313Y5775D01*
X136247Y5630D01*
X136225Y5571D01*
X136204Y5513D01*
X136182Y5469D01*
X136160Y5425D01*
X136145Y5396D01*
X136138Y5374D01*
X136131Y5360D01*
Y5353D01*
X135599Y5600D01*
X135861Y6147D01*
X135992Y6417D01*
X136124Y6672D01*
X136247Y6920D01*
X136364Y7153D01*
X136481Y7372D01*
X136583Y7576D01*
X136685Y7765D01*
X136772Y7933D01*
X136853Y8079D01*
X136918Y8203D01*
X136969Y8305D01*
X137005Y8378D01*
X137020Y8400D01*
X137035Y8422D01*
X137042Y8429D01*
Y8436D01*
X137479Y8225D01*
D02*
G37*
G36*
X140191Y8123D02*
X140315Y7809D01*
X140432Y7518D01*
X140549Y7241D01*
X140658Y6985D01*
X140767Y6745D01*
X140869Y6526D01*
X140964Y6329D01*
X141051Y6147D01*
X141132Y5994D01*
X141205Y5855D01*
X141263Y5746D01*
X141314Y5659D01*
X141350Y5593D01*
X141372Y5557D01*
X141379Y5542D01*
X141278Y5491D01*
X141190Y5440D01*
X141110Y5396D01*
X141037Y5360D01*
X140986Y5323D01*
X140942Y5301D01*
X140913Y5287D01*
X140906Y5280D01*
X140636Y5812D01*
X140388Y6337D01*
X140271Y6592D01*
X140162Y6840D01*
X140060Y7080D01*
X139973Y7306D01*
X139892Y7510D01*
X139812Y7700D01*
X139754Y7860D01*
X139696Y8006D01*
X139674Y8064D01*
X139659Y8123D01*
X139637Y8166D01*
X139623Y8203D01*
X139615Y8232D01*
X139608Y8261D01*
X139601Y8269D01*
Y8276D01*
X140075Y8443D01*
X140191Y8123D01*
D02*
G37*
G36*
X138689Y5017D02*
X138697Y4952D01*
X138704Y4901D01*
X138726Y4849D01*
X138755Y4806D01*
X138821Y4740D01*
X138894Y4696D01*
X138974Y4674D01*
X139040Y4660D01*
X139069Y4653D01*
X139229D01*
X139367Y4660D01*
X139506Y4674D01*
X139645Y4682D01*
X139769Y4696D01*
X139820D01*
X139863Y4704D01*
X139907D01*
X139936Y4711D01*
X139958D01*
X139936Y4602D01*
X139922Y4499D01*
X139900Y4405D01*
X139885Y4325D01*
X139878Y4259D01*
X139871Y4201D01*
X139863Y4171D01*
Y4157D01*
X139666Y4150D01*
X139346D01*
X139222Y4142D01*
X138996D01*
X138850Y4150D01*
X138726Y4171D01*
X138617Y4215D01*
X138522Y4259D01*
X138442Y4317D01*
X138376Y4383D01*
X138318Y4448D01*
X138274Y4521D01*
X138238Y4587D01*
X138216Y4653D01*
X138194Y4718D01*
X138187Y4777D01*
X138179Y4828D01*
X138172Y4864D01*
Y4886D01*
Y4893D01*
Y9719D01*
X138689D01*
Y5017D01*
D02*
G37*
G36*
X133105Y9675D02*
X133164Y9515D01*
X133222Y9362D01*
X133280Y9223D01*
X133331Y9107D01*
X133353Y9056D01*
X133368Y9019D01*
X133382Y8983D01*
X133397Y8961D01*
X133404Y8946D01*
Y8939D01*
X134928D01*
Y4135D01*
X134454D01*
Y4543D01*
X130656D01*
Y4135D01*
X130175D01*
Y8939D01*
X132901D01*
X132836Y9078D01*
X132770Y9216D01*
X132704Y9347D01*
X132653Y9464D01*
X132602Y9566D01*
X132566Y9646D01*
X132551Y9675D01*
X132544Y9697D01*
X132537Y9705D01*
Y9712D01*
X133047Y9843D01*
X133105Y9675D01*
D02*
G37*
G36*
X126078Y9551D02*
Y9384D01*
Y9231D01*
Y9092D01*
Y8961D01*
Y8844D01*
Y8735D01*
Y8640D01*
X126085Y8553D01*
Y8480D01*
Y8414D01*
Y8363D01*
Y8327D01*
Y8298D01*
Y8283D01*
Y8276D01*
X126092Y8043D01*
X126114Y7817D01*
X126136Y7598D01*
X126173Y7386D01*
X126216Y7175D01*
X126267Y6978D01*
X126326Y6789D01*
X126391Y6606D01*
X126464Y6431D01*
X126537Y6264D01*
X126610Y6103D01*
X126690Y5950D01*
X126778Y5804D01*
X126858Y5666D01*
X126945Y5535D01*
X127033Y5411D01*
X127120Y5294D01*
X127200Y5185D01*
X127288Y5083D01*
X127368Y4988D01*
X127448Y4908D01*
X127529Y4828D01*
X127594Y4755D01*
X127667Y4689D01*
X127725Y4631D01*
X127784Y4587D01*
X127827Y4543D01*
X127871Y4507D01*
X127908Y4485D01*
X127929Y4463D01*
X127944Y4456D01*
X127951Y4448D01*
X127878Y4368D01*
X127806Y4303D01*
X127747Y4237D01*
X127703Y4179D01*
X127660Y4135D01*
X127631Y4099D01*
X127616Y4077D01*
X127609Y4069D01*
X127339Y4288D01*
X127098Y4521D01*
X126880Y4762D01*
X126690Y5010D01*
X126515Y5250D01*
X126369Y5498D01*
X126238Y5731D01*
X126129Y5957D01*
X126041Y6169D01*
X125961Y6366D01*
X125903Y6541D01*
X125852Y6694D01*
X125837Y6759D01*
X125815Y6818D01*
X125808Y6861D01*
X125794Y6905D01*
X125786Y6942D01*
Y6963D01*
X125779Y6978D01*
Y6985D01*
X125691Y6643D01*
X125582Y6322D01*
X125458Y6030D01*
X125327Y5753D01*
X125189Y5498D01*
X125043Y5272D01*
X124897Y5061D01*
X124751Y4879D01*
X124613Y4711D01*
X124481Y4572D01*
X124365Y4448D01*
X124263Y4354D01*
X124175Y4273D01*
X124109Y4222D01*
X124066Y4193D01*
X124051Y4179D01*
X123920Y4339D01*
X123854Y4412D01*
X123796Y4478D01*
X123745Y4536D01*
X123701Y4587D01*
X123672Y4616D01*
X123665Y4623D01*
X123811Y4718D01*
X123956Y4820D01*
X124088Y4930D01*
X124219Y5054D01*
X124452Y5309D01*
X124656Y5586D01*
X124838Y5885D01*
X124999Y6183D01*
X125137Y6490D01*
X125254Y6789D01*
X125349Y7073D01*
X125429Y7343D01*
X125466Y7474D01*
X125495Y7591D01*
X125516Y7707D01*
X125538Y7809D01*
X125560Y7904D01*
X125575Y7984D01*
X125589Y8064D01*
X125604Y8123D01*
X125611Y8174D01*
Y8210D01*
X125619Y8232D01*
Y8239D01*
X125611Y8495D01*
Y8750D01*
X125604Y8997D01*
Y9114D01*
Y9231D01*
Y9333D01*
X125597Y9428D01*
Y9515D01*
Y9588D01*
Y9646D01*
Y9690D01*
Y9719D01*
Y9726D01*
X126078D01*
Y9551D01*
D02*
G37*
G36*
X129169Y4055D02*
X128709D01*
Y9085D01*
X127762D01*
X127849Y8808D01*
X127944Y8531D01*
X128039Y8261D01*
X128083Y8137D01*
X128126Y8021D01*
X128163Y7911D01*
X128199Y7809D01*
X128236Y7722D01*
X128258Y7649D01*
X128287Y7583D01*
X128301Y7540D01*
X128309Y7510D01*
X128316Y7503D01*
X128236Y7401D01*
X128163Y7299D01*
X128097Y7197D01*
X128039Y7102D01*
X127944Y6927D01*
X127871Y6774D01*
X127842Y6701D01*
X127820Y6643D01*
X127798Y6592D01*
X127784Y6548D01*
X127776Y6512D01*
X127769Y6482D01*
X127762Y6468D01*
Y6460D01*
X127733Y6337D01*
X127718Y6227D01*
Y6132D01*
X127733Y6052D01*
X127747Y5979D01*
X127769Y5921D01*
X127798Y5870D01*
X127835Y5826D01*
X127871Y5797D01*
X127908Y5768D01*
X127973Y5731D01*
X128002Y5724D01*
X128024Y5717D01*
X128046D01*
X128141Y5710D01*
X128236D01*
X128330Y5717D01*
X128418Y5731D01*
X128491Y5739D01*
X128556Y5753D01*
X128593Y5761D01*
X128607D01*
X128549Y5571D01*
X128527Y5484D01*
X128505Y5411D01*
X128491Y5345D01*
X128483Y5301D01*
X128476Y5272D01*
Y5258D01*
X128338Y5250D01*
X128214Y5243D01*
X128104D01*
X128017Y5250D01*
X127944D01*
X127893Y5258D01*
X127857Y5265D01*
X127849D01*
X127718Y5301D01*
X127601Y5353D01*
X127507Y5425D01*
X127434Y5506D01*
X127375Y5593D01*
X127324Y5695D01*
X127295Y5797D01*
X127273Y5899D01*
X127259Y6001D01*
X127252Y6103D01*
Y6191D01*
Y6271D01*
X127259Y6344D01*
X127266Y6395D01*
X127273Y6424D01*
Y6439D01*
X127288Y6533D01*
X127317Y6635D01*
X127383Y6832D01*
X127478Y7022D01*
X127572Y7197D01*
X127616Y7277D01*
X127667Y7350D01*
X127703Y7416D01*
X127747Y7474D01*
X127776Y7518D01*
X127798Y7547D01*
X127813Y7569D01*
X127820Y7576D01*
X127718Y7817D01*
X127623Y8072D01*
X127529Y8327D01*
X127441Y8560D01*
X127405Y8669D01*
X127368Y8771D01*
X127339Y8859D01*
X127310Y8939D01*
X127288Y8997D01*
X127273Y9048D01*
X127259Y9078D01*
Y9085D01*
Y9493D01*
X129169D01*
Y4055D01*
D02*
G37*
G36*
X144711Y6701D02*
X144726Y6533D01*
X144762Y6373D01*
X144799Y6220D01*
X144842Y6081D01*
X144886Y5957D01*
X144937Y5841D01*
X144988Y5739D01*
X145046Y5644D01*
X145090Y5564D01*
X145141Y5498D01*
X145178Y5440D01*
X145214Y5396D01*
X145243Y5367D01*
X145258Y5345D01*
X145265Y5338D01*
X145382Y5236D01*
X145520Y5141D01*
X145673Y5054D01*
X145834Y4966D01*
X146001Y4893D01*
X146176Y4820D01*
X146519Y4704D01*
X146679Y4653D01*
X146833Y4609D01*
X146971Y4572D01*
X147095Y4536D01*
X147197Y4514D01*
X147270Y4499D01*
X147299Y4492D01*
X147321Y4485D01*
X147336D01*
X147284Y4397D01*
X147241Y4310D01*
X147197Y4230D01*
X147168Y4164D01*
X147139Y4106D01*
X147117Y4062D01*
X147109Y4033D01*
X147102Y4026D01*
X146833Y4091D01*
X146577Y4164D01*
X146344Y4237D01*
X146125Y4317D01*
X145929Y4397D01*
X145754Y4478D01*
X145593Y4551D01*
X145455Y4631D01*
X145331Y4704D01*
X145221Y4769D01*
X145134Y4828D01*
X145061Y4879D01*
X145010Y4922D01*
X144966Y4952D01*
X144944Y4973D01*
X144937Y4981D01*
X144813Y5112D01*
X144711Y5250D01*
X144624Y5396D01*
X144551Y5527D01*
X144492Y5651D01*
X144471Y5702D01*
X144449Y5746D01*
X144434Y5783D01*
X144427Y5812D01*
X144420Y5826D01*
Y4849D01*
X144412Y4733D01*
X144390Y4631D01*
X144354Y4543D01*
X144303Y4463D01*
X144252Y4405D01*
X144186Y4346D01*
X144121Y4303D01*
X144055Y4266D01*
X143989Y4244D01*
X143924Y4222D01*
X143858Y4208D01*
X143807Y4193D01*
X143756D01*
X143720Y4186D01*
X142495D01*
X142371Y4193D01*
X142254Y4208D01*
X142152Y4237D01*
X142065Y4273D01*
X141992Y4310D01*
X141926Y4361D01*
X141875Y4412D01*
X141824Y4463D01*
X141788Y4514D01*
X141759Y4558D01*
X141715Y4645D01*
X141708Y4682D01*
X141700Y4711D01*
X141693Y4725D01*
Y4733D01*
X141671Y4864D01*
X141649Y4995D01*
X141627Y5119D01*
X141613Y5236D01*
X141598Y5338D01*
X141591Y5418D01*
Y5447D01*
X141584Y5469D01*
Y5484D01*
Y5491D01*
X141678Y5520D01*
X141766Y5549D01*
X141846Y5579D01*
X141919Y5608D01*
X141977Y5630D01*
X142028Y5644D01*
X142058Y5651D01*
X142065Y5659D01*
X142072Y5513D01*
X142079Y5367D01*
X142094Y5243D01*
X142109Y5134D01*
X142116Y5039D01*
X142130Y4966D01*
X142138Y4922D01*
Y4915D01*
Y4908D01*
X142152Y4849D01*
X142167Y4806D01*
X142225Y4725D01*
X142298Y4674D01*
X142371Y4631D01*
X142451Y4609D01*
X142509Y4602D01*
X142561Y4594D01*
X143603D01*
X143669Y4602D01*
X143720Y4609D01*
X143771Y4623D01*
X143814Y4645D01*
X143880Y4704D01*
X143924Y4769D01*
X143946Y4828D01*
X143960Y4886D01*
X143967Y4922D01*
Y4937D01*
Y6001D01*
X144369D01*
X144332Y6154D01*
X144303Y6307D01*
X144281Y6453D01*
X144259Y6592D01*
X144252Y6708D01*
X144245Y6759D01*
Y6803D01*
X144237Y6832D01*
Y6861D01*
Y6876D01*
Y6883D01*
X144696D01*
X144711Y6701D01*
D02*
G37*
G36*
X149756Y8429D02*
Y8261D01*
Y8108D01*
X149763Y7955D01*
Y7817D01*
X149770Y7685D01*
Y7561D01*
Y7452D01*
X149778Y7350D01*
Y7262D01*
X149785Y7190D01*
Y7124D01*
X149792Y7073D01*
Y7036D01*
Y7015D01*
Y7007D01*
X149807Y6832D01*
X149836Y6657D01*
X149865Y6497D01*
X149909Y6337D01*
X149960Y6191D01*
X150011Y6045D01*
X150142Y5783D01*
X150295Y5542D01*
X150456Y5323D01*
X150623Y5134D01*
X150798Y4966D01*
X150973Y4828D01*
X151141Y4704D01*
X151301Y4602D01*
X151440Y4521D01*
X151556Y4456D01*
X151607Y4434D01*
X151644Y4419D01*
X151680Y4405D01*
X151702Y4390D01*
X151717Y4383D01*
X151724D01*
X151600Y4237D01*
X151549Y4171D01*
X151505Y4113D01*
X151469Y4062D01*
X151440Y4026D01*
X151425Y4004D01*
X151418Y3997D01*
X151141Y4128D01*
X150886Y4281D01*
X150660Y4441D01*
X150456Y4609D01*
X150273Y4791D01*
X150113Y4966D01*
X149975Y5141D01*
X149858Y5316D01*
X149756Y5484D01*
X149668Y5637D01*
X149603Y5775D01*
X149552Y5899D01*
X149508Y6001D01*
X149486Y6074D01*
X149471Y6103D01*
Y6125D01*
X149464Y6132D01*
Y4893D01*
X149457Y4777D01*
X149435Y4667D01*
X149399Y4580D01*
X149355Y4499D01*
X149304Y4434D01*
X149246Y4383D01*
X149180Y4339D01*
X149114Y4303D01*
X149056Y4273D01*
X148990Y4252D01*
X148932Y4237D01*
X148881Y4222D01*
X148837D01*
X148801Y4215D01*
X148269D01*
X148159Y4222D01*
X148057Y4237D01*
X147970Y4266D01*
X147897Y4295D01*
X147824Y4339D01*
X147766Y4383D01*
X147722Y4434D01*
X147678Y4485D01*
X147649Y4529D01*
X147620Y4580D01*
X147583Y4667D01*
X147576Y4696D01*
X147569Y4725D01*
X147562Y4740D01*
Y4747D01*
X147547Y4871D01*
X147532Y5003D01*
X147518Y5134D01*
X147503Y5265D01*
X147489Y5382D01*
Y5433D01*
X147481Y5469D01*
Y5506D01*
X147474Y5535D01*
Y5549D01*
Y5557D01*
X147642Y5615D01*
X147715Y5644D01*
X147780Y5673D01*
X147831Y5695D01*
X147875Y5717D01*
X147904Y5724D01*
X147911Y5731D01*
X147926Y5549D01*
X147933Y5389D01*
X147948Y5250D01*
X147955Y5134D01*
X147962Y5039D01*
X147970Y4966D01*
X147977Y4922D01*
Y4915D01*
Y4908D01*
X148013Y4813D01*
X148064Y4740D01*
X148130Y4689D01*
X148196Y4653D01*
X148269Y4631D01*
X148320Y4623D01*
X148363Y4616D01*
X148691D01*
X148750Y4623D01*
X148793Y4631D01*
X148874Y4667D01*
X148932Y4725D01*
X148968Y4784D01*
X148998Y4842D01*
X149005Y4901D01*
X149012Y4937D01*
Y4952D01*
Y6548D01*
X149384D01*
X149369Y6643D01*
X149355Y6759D01*
X149347Y6891D01*
X149340Y7044D01*
X149333Y7211D01*
X149326Y7379D01*
X149311Y7729D01*
Y7904D01*
Y8064D01*
X149304Y8210D01*
Y8341D01*
Y8451D01*
Y8495D01*
Y8531D01*
Y8560D01*
Y8582D01*
Y8597D01*
Y8604D01*
X149756D01*
Y8429D01*
D02*
G37*
G36*
X103376Y8836D02*
X103573Y8807D01*
X103748Y8770D01*
X103901Y8719D01*
X103967Y8697D01*
X104025Y8668D01*
X104076Y8646D01*
X104113Y8632D01*
X104149Y8610D01*
X104171Y8602D01*
X104185Y8588D01*
X104193D01*
Y8056D01*
X104113Y8114D01*
X104032Y8158D01*
X103879Y8238D01*
X103726Y8296D01*
X103595Y8333D01*
X103478Y8355D01*
X103427Y8362D01*
X103384D01*
X103347Y8369D01*
X103303D01*
X103157Y8362D01*
X103026Y8340D01*
X102917Y8304D01*
X102822Y8253D01*
X102742Y8202D01*
X102676Y8136D01*
X102618Y8070D01*
X102574Y8005D01*
X102545Y7932D01*
X102516Y7866D01*
X102494Y7801D01*
X102487Y7750D01*
X102480Y7699D01*
X102472Y7662D01*
Y7640D01*
Y7633D01*
X102487Y7487D01*
X102516Y7363D01*
X102574Y7261D01*
X102640Y7166D01*
X102727Y7086D01*
X102815Y7021D01*
X102917Y6970D01*
X103012Y6926D01*
X103114Y6889D01*
X103216Y6867D01*
X103303Y6846D01*
X103391Y6838D01*
X103456Y6831D01*
X103515Y6824D01*
X103916D01*
Y6357D01*
X103544D01*
X103325Y6350D01*
X103136Y6321D01*
X102975Y6277D01*
X102830Y6226D01*
X102713Y6160D01*
X102611Y6087D01*
X102531Y6007D01*
X102465Y5927D01*
X102414Y5847D01*
X102377Y5767D01*
X102348Y5694D01*
X102334Y5628D01*
X102319Y5577D01*
X102312Y5533D01*
Y5504D01*
Y5497D01*
X102327Y5359D01*
X102356Y5242D01*
X102399Y5140D01*
X102450Y5052D01*
X102501Y4979D01*
X102545Y4928D01*
X102574Y4899D01*
X102589Y4885D01*
X102698Y4812D01*
X102815Y4753D01*
X102939Y4717D01*
X103056Y4688D01*
X103165Y4673D01*
X103245Y4666D01*
X103281Y4659D01*
X103325D01*
X103435Y4666D01*
X103537Y4673D01*
X103733Y4717D01*
X103908Y4775D01*
X104061Y4841D01*
X104134Y4870D01*
X104193Y4907D01*
X104244Y4936D01*
X104288Y4958D01*
X104324Y4987D01*
X104346Y5001D01*
X104360Y5009D01*
X104368Y5016D01*
Y4425D01*
X104207Y4345D01*
X104040Y4294D01*
X103872Y4250D01*
X103704Y4221D01*
X103559Y4207D01*
X103500Y4199D01*
X103442D01*
X103398Y4192D01*
X103340D01*
X103209Y4199D01*
X103077Y4207D01*
X102961Y4228D01*
X102851Y4250D01*
X102749Y4280D01*
X102647Y4309D01*
X102560Y4338D01*
X102480Y4374D01*
X102414Y4411D01*
X102348Y4440D01*
X102297Y4469D01*
X102254Y4498D01*
X102217Y4520D01*
X102195Y4542D01*
X102181Y4549D01*
X102173Y4557D01*
X102093Y4629D01*
X102028Y4702D01*
X101969Y4783D01*
X101918Y4870D01*
X101874Y4950D01*
X101845Y5030D01*
X101787Y5191D01*
X101758Y5329D01*
X101751Y5388D01*
X101743Y5439D01*
X101736Y5482D01*
Y5512D01*
Y5533D01*
Y5541D01*
X101751Y5701D01*
X101780Y5840D01*
X101823Y5964D01*
X101874Y6073D01*
X101933Y6153D01*
X101977Y6219D01*
X102006Y6255D01*
X102020Y6270D01*
X102130Y6372D01*
X102254Y6445D01*
X102385Y6503D01*
X102509Y6554D01*
X102618Y6583D01*
X102662Y6590D01*
X102706Y6598D01*
X102742Y6605D01*
X102764Y6612D01*
X102786D01*
Y6627D01*
X102625Y6685D01*
X102487Y6751D01*
X102370Y6824D01*
X102268Y6911D01*
X102181Y7006D01*
X102108Y7101D01*
X102050Y7196D01*
X101998Y7290D01*
X101962Y7385D01*
X101933Y7473D01*
X101918Y7553D01*
X101904Y7626D01*
X101896Y7684D01*
X101889Y7728D01*
Y7757D01*
Y7764D01*
X101896Y7852D01*
X101904Y7939D01*
X101940Y8092D01*
X101998Y8223D01*
X102064Y8333D01*
X102130Y8428D01*
X102181Y8493D01*
X102224Y8530D01*
X102232Y8544D01*
X102239D01*
X102377Y8646D01*
X102531Y8719D01*
X102684Y8777D01*
X102830Y8814D01*
X102961Y8836D01*
X103019Y8843D01*
X103070D01*
X103106Y8850D01*
X103165D01*
X103376Y8836D01*
D02*
G37*
G36*
X118663Y8843D02*
X118787Y8828D01*
X118904Y8814D01*
X118999Y8792D01*
X119079Y8763D01*
X119137Y8748D01*
X119174Y8734D01*
X119188Y8726D01*
X119290Y8675D01*
X119385Y8617D01*
X119465Y8559D01*
X119545Y8501D01*
X119604Y8449D01*
X119655Y8406D01*
X119684Y8377D01*
X119691Y8369D01*
Y7823D01*
X119597Y7917D01*
X119502Y7998D01*
X119414Y8063D01*
X119334Y8121D01*
X119261Y8165D01*
X119210Y8202D01*
X119174Y8216D01*
X119159Y8223D01*
X119050Y8275D01*
X118948Y8311D01*
X118853Y8333D01*
X118765Y8355D01*
X118693Y8362D01*
X118641Y8369D01*
X118590D01*
X118452Y8362D01*
X118328Y8340D01*
X118219Y8304D01*
X118131Y8267D01*
X118066Y8223D01*
X118015Y8194D01*
X117978Y8165D01*
X117971Y8158D01*
X117891Y8078D01*
X117832Y7983D01*
X117796Y7888D01*
X117767Y7801D01*
X117752Y7713D01*
X117737Y7648D01*
Y7604D01*
Y7597D01*
Y7589D01*
X117745Y7458D01*
X117767Y7341D01*
X117803Y7232D01*
X117832Y7137D01*
X117869Y7057D01*
X117905Y6999D01*
X117927Y6962D01*
X117934Y6948D01*
X117971Y6897D01*
X118022Y6838D01*
X118124Y6729D01*
X118248Y6620D01*
X118365Y6518D01*
X118474Y6430D01*
X118525Y6394D01*
X118569Y6364D01*
X118605Y6335D01*
X118634Y6313D01*
X118649Y6306D01*
X118656Y6299D01*
X118838Y6168D01*
X118991Y6051D01*
X119123Y5942D01*
X119232Y5847D01*
X119312Y5774D01*
X119378Y5716D01*
X119407Y5686D01*
X119422Y5672D01*
X119509Y5577D01*
X119575Y5482D01*
X119640Y5395D01*
X119684Y5315D01*
X119720Y5249D01*
X119750Y5191D01*
X119764Y5162D01*
X119771Y5147D01*
X119808Y5038D01*
X119830Y4928D01*
X119852Y4819D01*
X119859Y4717D01*
X119866Y4622D01*
X119873Y4549D01*
Y4520D01*
Y4498D01*
Y4491D01*
Y4484D01*
Y4265D01*
X117038D01*
Y4768D01*
X119276D01*
Y4848D01*
X119261Y4921D01*
X119254Y4979D01*
X119239Y5038D01*
X119225Y5082D01*
X119217Y5111D01*
X119203Y5133D01*
Y5140D01*
X119174Y5198D01*
X119130Y5256D01*
X119086Y5315D01*
X119042Y5366D01*
X119006Y5410D01*
X118970Y5439D01*
X118948Y5460D01*
X118940Y5468D01*
X118897Y5504D01*
X118853Y5541D01*
X118736Y5628D01*
X118612Y5723D01*
X118488Y5810D01*
X118372Y5898D01*
X118321Y5934D01*
X118270Y5964D01*
X118233Y5993D01*
X118204Y6015D01*
X118190Y6022D01*
X118182Y6029D01*
X118080Y6102D01*
X117993Y6168D01*
X117905Y6241D01*
X117825Y6306D01*
X117694Y6430D01*
X117584Y6547D01*
X117504Y6634D01*
X117446Y6707D01*
X117424Y6736D01*
X117410Y6758D01*
X117402Y6765D01*
Y6773D01*
X117322Y6911D01*
X117264Y7064D01*
X117227Y7203D01*
X117198Y7341D01*
X117183Y7458D01*
X117176Y7509D01*
X117169Y7553D01*
Y7582D01*
Y7611D01*
Y7626D01*
Y7633D01*
X117176Y7735D01*
X117183Y7830D01*
X117227Y8012D01*
X117286Y8158D01*
X117358Y8289D01*
X117431Y8391D01*
X117490Y8464D01*
X117511Y8486D01*
X117533Y8508D01*
X117541Y8522D01*
X117548D01*
X117621Y8581D01*
X117694Y8632D01*
X117854Y8712D01*
X118022Y8770D01*
X118175Y8807D01*
X118313Y8836D01*
X118372Y8843D01*
X118423D01*
X118466Y8850D01*
X118525D01*
X118663Y8843D01*
D02*
G37*
G36*
X111665D02*
X111789Y8828D01*
X111906Y8814D01*
X112000Y8792D01*
X112081Y8763D01*
X112139Y8748D01*
X112175Y8734D01*
X112190Y8726D01*
X112292Y8675D01*
X112387Y8617D01*
X112467Y8559D01*
X112547Y8501D01*
X112605Y8449D01*
X112656Y8406D01*
X112686Y8377D01*
X112693Y8369D01*
Y7823D01*
X112598Y7917D01*
X112503Y7998D01*
X112416Y8063D01*
X112336Y8121D01*
X112263Y8165D01*
X112212Y8202D01*
X112175Y8216D01*
X112161Y8223D01*
X112051Y8275D01*
X111949Y8311D01*
X111855Y8333D01*
X111767Y8355D01*
X111694Y8362D01*
X111643Y8369D01*
X111592D01*
X111453Y8362D01*
X111330Y8340D01*
X111220Y8304D01*
X111133Y8267D01*
X111067Y8223D01*
X111016Y8194D01*
X110980Y8165D01*
X110972Y8158D01*
X110892Y8078D01*
X110834Y7983D01*
X110798Y7888D01*
X110768Y7801D01*
X110754Y7713D01*
X110739Y7648D01*
Y7604D01*
Y7597D01*
Y7589D01*
X110746Y7458D01*
X110768Y7341D01*
X110805Y7232D01*
X110834Y7137D01*
X110870Y7057D01*
X110907Y6999D01*
X110929Y6962D01*
X110936Y6948D01*
X110972Y6897D01*
X111023Y6838D01*
X111126Y6729D01*
X111249Y6620D01*
X111366Y6518D01*
X111475Y6430D01*
X111526Y6394D01*
X111570Y6364D01*
X111607Y6335D01*
X111636Y6313D01*
X111650Y6306D01*
X111658Y6299D01*
X111840Y6168D01*
X111993Y6051D01*
X112124Y5942D01*
X112234Y5847D01*
X112314Y5774D01*
X112379Y5716D01*
X112408Y5686D01*
X112423Y5672D01*
X112511Y5577D01*
X112576Y5482D01*
X112642Y5395D01*
X112686Y5315D01*
X112722Y5249D01*
X112751Y5191D01*
X112766Y5162D01*
X112773Y5147D01*
X112810Y5038D01*
X112831Y4928D01*
X112853Y4819D01*
X112861Y4717D01*
X112868Y4622D01*
X112875Y4549D01*
Y4520D01*
Y4498D01*
Y4491D01*
Y4484D01*
Y4265D01*
X110039D01*
Y4768D01*
X112277D01*
Y4848D01*
X112263Y4921D01*
X112255Y4979D01*
X112241Y5038D01*
X112226Y5082D01*
X112219Y5111D01*
X112204Y5133D01*
Y5140D01*
X112175Y5198D01*
X112132Y5256D01*
X112088Y5315D01*
X112044Y5366D01*
X112008Y5410D01*
X111971Y5439D01*
X111949Y5460D01*
X111942Y5468D01*
X111898Y5504D01*
X111855Y5541D01*
X111738Y5628D01*
X111614Y5723D01*
X111490Y5810D01*
X111373Y5898D01*
X111322Y5934D01*
X111271Y5964D01*
X111235Y5993D01*
X111206Y6015D01*
X111191Y6022D01*
X111184Y6029D01*
X111082Y6102D01*
X110994Y6168D01*
X110907Y6241D01*
X110827Y6306D01*
X110695Y6430D01*
X110586Y6547D01*
X110506Y6634D01*
X110448Y6707D01*
X110426Y6736D01*
X110411Y6758D01*
X110404Y6765D01*
Y6773D01*
X110324Y6911D01*
X110265Y7064D01*
X110229Y7203D01*
X110200Y7341D01*
X110185Y7458D01*
X110178Y7509D01*
X110170Y7553D01*
Y7582D01*
Y7611D01*
Y7626D01*
Y7633D01*
X110178Y7735D01*
X110185Y7830D01*
X110229Y8012D01*
X110287Y8158D01*
X110360Y8289D01*
X110433Y8391D01*
X110491Y8464D01*
X110513Y8486D01*
X110535Y8508D01*
X110542Y8522D01*
X110550D01*
X110623Y8581D01*
X110695Y8632D01*
X110856Y8712D01*
X111023Y8770D01*
X111177Y8807D01*
X111315Y8836D01*
X111373Y8843D01*
X111424D01*
X111468Y8850D01*
X111526D01*
X111665Y8843D01*
D02*
G37*
G36*
X108166D02*
X108290Y8828D01*
X108406Y8814D01*
X108501Y8792D01*
X108581Y8763D01*
X108640Y8748D01*
X108676Y8734D01*
X108691Y8726D01*
X108793Y8675D01*
X108888Y8617D01*
X108968Y8559D01*
X109048Y8501D01*
X109106Y8449D01*
X109157Y8406D01*
X109186Y8377D01*
X109194Y8369D01*
Y7823D01*
X109099Y7917D01*
X109004Y7998D01*
X108917Y8063D01*
X108836Y8121D01*
X108764Y8165D01*
X108712Y8202D01*
X108676Y8216D01*
X108661Y8223D01*
X108552Y8275D01*
X108450Y8311D01*
X108355Y8333D01*
X108268Y8355D01*
X108195Y8362D01*
X108144Y8369D01*
X108093D01*
X107954Y8362D01*
X107830Y8340D01*
X107721Y8304D01*
X107634Y8267D01*
X107568Y8223D01*
X107517Y8194D01*
X107481Y8165D01*
X107473Y8158D01*
X107393Y8078D01*
X107335Y7983D01*
X107298Y7888D01*
X107269Y7801D01*
X107255Y7713D01*
X107240Y7648D01*
Y7604D01*
Y7597D01*
Y7589D01*
X107247Y7458D01*
X107269Y7341D01*
X107306Y7232D01*
X107335Y7137D01*
X107371Y7057D01*
X107408Y6999D01*
X107430Y6962D01*
X107437Y6948D01*
X107473Y6897D01*
X107524Y6838D01*
X107626Y6729D01*
X107750Y6620D01*
X107867Y6518D01*
X107976Y6430D01*
X108027Y6394D01*
X108071Y6364D01*
X108107Y6335D01*
X108137Y6313D01*
X108151Y6306D01*
X108159Y6299D01*
X108341Y6168D01*
X108494Y6051D01*
X108625Y5942D01*
X108734Y5847D01*
X108815Y5774D01*
X108880Y5716D01*
X108909Y5686D01*
X108924Y5672D01*
X109011Y5577D01*
X109077Y5482D01*
X109143Y5395D01*
X109186Y5315D01*
X109223Y5249D01*
X109252Y5191D01*
X109267Y5162D01*
X109274Y5147D01*
X109310Y5038D01*
X109332Y4928D01*
X109354Y4819D01*
X109361Y4717D01*
X109369Y4622D01*
X109376Y4549D01*
Y4520D01*
Y4498D01*
Y4491D01*
Y4484D01*
Y4265D01*
X106540D01*
Y4768D01*
X108778D01*
Y4848D01*
X108764Y4921D01*
X108756Y4979D01*
X108742Y5038D01*
X108727Y5082D01*
X108720Y5111D01*
X108705Y5133D01*
Y5140D01*
X108676Y5198D01*
X108632Y5256D01*
X108589Y5315D01*
X108545Y5366D01*
X108508Y5410D01*
X108472Y5439D01*
X108450Y5460D01*
X108443Y5468D01*
X108399Y5504D01*
X108355Y5541D01*
X108239Y5628D01*
X108115Y5723D01*
X107991Y5810D01*
X107874Y5898D01*
X107823Y5934D01*
X107772Y5964D01*
X107736Y5993D01*
X107706Y6015D01*
X107692Y6022D01*
X107685Y6029D01*
X107583Y6102D01*
X107495Y6168D01*
X107408Y6241D01*
X107327Y6306D01*
X107196Y6430D01*
X107087Y6547D01*
X107007Y6634D01*
X106948Y6707D01*
X106927Y6736D01*
X106912Y6758D01*
X106905Y6765D01*
Y6773D01*
X106824Y6911D01*
X106766Y7064D01*
X106730Y7203D01*
X106701Y7341D01*
X106686Y7458D01*
X106679Y7509D01*
X106671Y7553D01*
Y7582D01*
Y7611D01*
Y7626D01*
Y7633D01*
X106679Y7735D01*
X106686Y7830D01*
X106730Y8012D01*
X106788Y8158D01*
X106861Y8289D01*
X106934Y8391D01*
X106992Y8464D01*
X107014Y8486D01*
X107036Y8508D01*
X107043Y8522D01*
X107050D01*
X107123Y8581D01*
X107196Y8632D01*
X107357Y8712D01*
X107524Y8770D01*
X107677Y8807D01*
X107816Y8836D01*
X107874Y8843D01*
X107925D01*
X107969Y8850D01*
X108027D01*
X108166Y8843D01*
D02*
G37*
G36*
X98295D02*
X98419Y8828D01*
X98536Y8814D01*
X98630Y8792D01*
X98711Y8763D01*
X98769Y8748D01*
X98805Y8734D01*
X98820Y8726D01*
X98922Y8675D01*
X99017Y8617D01*
X99097Y8559D01*
X99177Y8501D01*
X99235Y8449D01*
X99287Y8406D01*
X99316Y8377D01*
X99323Y8369D01*
Y7823D01*
X99228Y7917D01*
X99133Y7998D01*
X99046Y8063D01*
X98966Y8121D01*
X98893Y8165D01*
X98842Y8202D01*
X98805Y8216D01*
X98791Y8223D01*
X98681Y8275D01*
X98579Y8311D01*
X98485Y8333D01*
X98397Y8355D01*
X98324Y8362D01*
X98273Y8369D01*
X98222D01*
X98084Y8362D01*
X97960Y8340D01*
X97850Y8304D01*
X97763Y8267D01*
X97697Y8223D01*
X97646Y8194D01*
X97610Y8165D01*
X97602Y8158D01*
X97522Y8078D01*
X97464Y7983D01*
X97428Y7888D01*
X97398Y7801D01*
X97384Y7713D01*
X97369Y7648D01*
Y7604D01*
Y7597D01*
Y7589D01*
X97377Y7458D01*
X97398Y7341D01*
X97435Y7232D01*
X97464Y7137D01*
X97500Y7057D01*
X97537Y6999D01*
X97559Y6962D01*
X97566Y6948D01*
X97602Y6897D01*
X97654Y6838D01*
X97756Y6729D01*
X97880Y6620D01*
X97996Y6518D01*
X98106Y6430D01*
X98157Y6394D01*
X98200Y6364D01*
X98237Y6335D01*
X98266Y6313D01*
X98281Y6306D01*
X98288Y6299D01*
X98470Y6168D01*
X98623Y6051D01*
X98754Y5942D01*
X98864Y5847D01*
X98944Y5774D01*
X99010Y5716D01*
X99039Y5686D01*
X99053Y5672D01*
X99141Y5577D01*
X99206Y5482D01*
X99272Y5395D01*
X99316Y5315D01*
X99352Y5249D01*
X99381Y5191D01*
X99396Y5162D01*
X99403Y5147D01*
X99440Y5038D01*
X99462Y4928D01*
X99483Y4819D01*
X99491Y4717D01*
X99498Y4622D01*
X99505Y4549D01*
Y4520D01*
Y4498D01*
Y4491D01*
Y4484D01*
Y4265D01*
X96669D01*
Y4768D01*
X98908D01*
Y4848D01*
X98893Y4921D01*
X98886Y4979D01*
X98871Y5038D01*
X98856Y5082D01*
X98849Y5111D01*
X98835Y5133D01*
Y5140D01*
X98805Y5198D01*
X98762Y5256D01*
X98718Y5315D01*
X98674Y5366D01*
X98638Y5410D01*
X98601Y5439D01*
X98579Y5460D01*
X98572Y5468D01*
X98528Y5504D01*
X98485Y5541D01*
X98368Y5628D01*
X98244Y5723D01*
X98120Y5810D01*
X98004Y5898D01*
X97953Y5934D01*
X97901Y5964D01*
X97865Y5993D01*
X97836Y6015D01*
X97821Y6022D01*
X97814Y6029D01*
X97712Y6102D01*
X97624Y6168D01*
X97537Y6241D01*
X97457Y6306D01*
X97325Y6430D01*
X97216Y6547D01*
X97136Y6634D01*
X97078Y6707D01*
X97056Y6736D01*
X97041Y6758D01*
X97034Y6765D01*
Y6773D01*
X96954Y6911D01*
X96895Y7064D01*
X96859Y7203D01*
X96830Y7341D01*
X96815Y7458D01*
X96808Y7509D01*
X96801Y7553D01*
Y7582D01*
Y7611D01*
Y7626D01*
Y7633D01*
X96808Y7735D01*
X96815Y7830D01*
X96859Y8012D01*
X96917Y8158D01*
X96990Y8289D01*
X97063Y8391D01*
X97121Y8464D01*
X97143Y8486D01*
X97165Y8508D01*
X97172Y8522D01*
X97180D01*
X97253Y8581D01*
X97325Y8632D01*
X97486Y8712D01*
X97654Y8770D01*
X97807Y8807D01*
X97945Y8836D01*
X98004Y8843D01*
X98054D01*
X98098Y8850D01*
X98157D01*
X98295Y8843D01*
D02*
G37*
G36*
X105556Y4928D02*
X105607Y4921D01*
X105651Y4899D01*
X105694Y4885D01*
X105724Y4863D01*
X105745Y4841D01*
X105760Y4834D01*
X105767Y4826D01*
X105804Y4783D01*
X105833Y4739D01*
X105848Y4695D01*
X105862Y4651D01*
X105869Y4615D01*
X105877Y4593D01*
Y4571D01*
Y4564D01*
X105869Y4506D01*
X105862Y4462D01*
X105826Y4374D01*
X105804Y4345D01*
X105789Y4323D01*
X105782Y4309D01*
X105775Y4301D01*
X105731Y4265D01*
X105687Y4243D01*
X105600Y4214D01*
X105563Y4207D01*
X105534Y4199D01*
X105505D01*
X105447Y4207D01*
X105388Y4214D01*
X105344Y4228D01*
X105308Y4250D01*
X105279Y4272D01*
X105257Y4287D01*
X105243Y4294D01*
X105235Y4301D01*
X105199Y4345D01*
X105170Y4389D01*
X105155Y4433D01*
X105140Y4476D01*
X105133Y4513D01*
X105126Y4542D01*
Y4557D01*
Y4564D01*
X105133Y4622D01*
X105140Y4673D01*
X105177Y4753D01*
X105199Y4783D01*
X105221Y4804D01*
X105228Y4819D01*
X105235Y4826D01*
X105279Y4863D01*
X105315Y4892D01*
X105366Y4907D01*
X105403Y4921D01*
X105439Y4928D01*
X105468Y4936D01*
X105498D01*
X105556Y4928D01*
D02*
G37*
G36*
X100621D02*
X100672Y4921D01*
X100715Y4899D01*
X100759Y4885D01*
X100788Y4863D01*
X100810Y4841D01*
X100825Y4834D01*
X100832Y4826D01*
X100868Y4783D01*
X100898Y4739D01*
X100912Y4695D01*
X100927Y4651D01*
X100934Y4615D01*
X100941Y4593D01*
Y4571D01*
Y4564D01*
X100934Y4506D01*
X100927Y4462D01*
X100890Y4374D01*
X100868Y4345D01*
X100854Y4323D01*
X100847Y4309D01*
X100839Y4301D01*
X100796Y4265D01*
X100752Y4243D01*
X100664Y4214D01*
X100628Y4207D01*
X100599Y4199D01*
X100570D01*
X100511Y4207D01*
X100453Y4214D01*
X100409Y4228D01*
X100373Y4250D01*
X100344Y4272D01*
X100322Y4287D01*
X100307Y4294D01*
X100300Y4301D01*
X100263Y4345D01*
X100234Y4389D01*
X100220Y4433D01*
X100205Y4476D01*
X100198Y4513D01*
X100190Y4542D01*
Y4557D01*
Y4564D01*
X100198Y4622D01*
X100205Y4673D01*
X100241Y4753D01*
X100263Y4783D01*
X100285Y4804D01*
X100293Y4819D01*
X100300Y4826D01*
X100344Y4863D01*
X100380Y4892D01*
X100431Y4907D01*
X100468Y4921D01*
X100504Y4928D01*
X100533Y4936D01*
X100562D01*
X100621Y4928D01*
D02*
G37*
G36*
X94738Y8843D02*
X94854Y8828D01*
X94964Y8799D01*
X95058Y8777D01*
X95139Y8748D01*
X95197Y8719D01*
X95233Y8705D01*
X95248Y8697D01*
X95350Y8639D01*
X95445Y8566D01*
X95518Y8493D01*
X95583Y8428D01*
X95641Y8369D01*
X95678Y8318D01*
X95700Y8289D01*
X95707Y8275D01*
X95766Y8172D01*
X95802Y8070D01*
X95831Y7976D01*
X95853Y7888D01*
X95868Y7808D01*
X95875Y7742D01*
Y7706D01*
Y7699D01*
Y7691D01*
X95868Y7582D01*
X95846Y7480D01*
X95816Y7385D01*
X95787Y7298D01*
X95758Y7232D01*
X95729Y7174D01*
X95707Y7145D01*
X95700Y7130D01*
X95627Y7035D01*
X95554Y6955D01*
X95474Y6882D01*
X95401Y6824D01*
X95335Y6773D01*
X95284Y6736D01*
X95248Y6714D01*
X95233Y6707D01*
X95364Y6649D01*
X95481Y6576D01*
X95583Y6496D01*
X95671Y6423D01*
X95736Y6350D01*
X95787Y6292D01*
X95816Y6255D01*
X95831Y6248D01*
Y6241D01*
X95911Y6117D01*
X95962Y5993D01*
X96006Y5869D01*
X96035Y5759D01*
X96050Y5657D01*
X96057Y5584D01*
X96064Y5555D01*
Y5533D01*
Y5526D01*
Y5519D01*
X96057Y5380D01*
X96035Y5249D01*
X96006Y5133D01*
X95970Y5038D01*
X95940Y4950D01*
X95911Y4885D01*
X95889Y4848D01*
X95882Y4834D01*
X95802Y4724D01*
X95722Y4629D01*
X95634Y4549D01*
X95547Y4484D01*
X95474Y4433D01*
X95416Y4389D01*
X95372Y4367D01*
X95357Y4360D01*
X95226Y4309D01*
X95095Y4265D01*
X94971Y4236D01*
X94854Y4221D01*
X94752Y4207D01*
X94679Y4199D01*
X94606D01*
X94453Y4207D01*
X94308Y4221D01*
X94183Y4250D01*
X94067Y4280D01*
X93979Y4309D01*
X93906Y4338D01*
X93863Y4352D01*
X93848Y4360D01*
X93724Y4425D01*
X93622Y4506D01*
X93535Y4578D01*
X93454Y4659D01*
X93396Y4724D01*
X93360Y4775D01*
X93331Y4812D01*
X93323Y4826D01*
X93265Y4943D01*
X93221Y5067D01*
X93185Y5184D01*
X93163Y5286D01*
X93148Y5380D01*
X93141Y5453D01*
Y5482D01*
Y5504D01*
Y5512D01*
Y5519D01*
X93148Y5657D01*
X93177Y5796D01*
X93214Y5912D01*
X93258Y6022D01*
X93301Y6109D01*
X93338Y6175D01*
X93367Y6219D01*
X93374Y6233D01*
X93462Y6350D01*
X93564Y6445D01*
X93659Y6525D01*
X93753Y6590D01*
X93841Y6641D01*
X93906Y6678D01*
X93950Y6700D01*
X93958Y6707D01*
X93965D01*
X93863Y6773D01*
X93768Y6846D01*
X93688Y6919D01*
X93622Y6984D01*
X93571Y7042D01*
X93535Y7094D01*
X93513Y7123D01*
X93506Y7137D01*
X93447Y7239D01*
X93411Y7334D01*
X93382Y7429D01*
X93360Y7516D01*
X93345Y7582D01*
X93338Y7640D01*
Y7677D01*
Y7691D01*
X93345Y7808D01*
X93360Y7925D01*
X93389Y8019D01*
X93418Y8107D01*
X93447Y8180D01*
X93476Y8238D01*
X93491Y8267D01*
X93498Y8282D01*
X93564Y8377D01*
X93637Y8457D01*
X93717Y8530D01*
X93790Y8588D01*
X93856Y8632D01*
X93906Y8668D01*
X93943Y8690D01*
X93958Y8697D01*
X94067Y8748D01*
X94183Y8785D01*
X94293Y8814D01*
X94388Y8828D01*
X94475Y8843D01*
X94548Y8850D01*
X94606D01*
X94738Y8843D01*
D02*
G37*
G36*
X115048D02*
X115179Y8821D01*
X115295Y8792D01*
X115412Y8756D01*
X115514Y8705D01*
X115609Y8654D01*
X115689Y8595D01*
X115769Y8544D01*
X115835Y8486D01*
X115893Y8428D01*
X115944Y8377D01*
X115988Y8326D01*
X116017Y8289D01*
X116039Y8260D01*
X116053Y8238D01*
X116061Y8231D01*
X116126Y8107D01*
X116192Y7976D01*
X116243Y7837D01*
X116287Y7691D01*
X116360Y7392D01*
X116403Y7101D01*
X116418Y6962D01*
X116433Y6838D01*
X116440Y6722D01*
X116447Y6627D01*
X116455Y6547D01*
Y6481D01*
Y6445D01*
Y6430D01*
X116447Y6233D01*
X116440Y6044D01*
X116418Y5869D01*
X116396Y5708D01*
X116367Y5555D01*
X116338Y5417D01*
X116301Y5293D01*
X116265Y5184D01*
X116236Y5082D01*
X116199Y5001D01*
X116170Y4928D01*
X116141Y4870D01*
X116119Y4819D01*
X116097Y4790D01*
X116090Y4768D01*
X116083Y4761D01*
X116010Y4659D01*
X115930Y4571D01*
X115842Y4498D01*
X115755Y4433D01*
X115667Y4374D01*
X115580Y4331D01*
X115492Y4294D01*
X115405Y4265D01*
X115324Y4243D01*
X115252Y4221D01*
X115186Y4207D01*
X115128Y4199D01*
X115077D01*
X115040Y4192D01*
X115011D01*
X114880Y4199D01*
X114756Y4221D01*
X114639Y4250D01*
X114530Y4287D01*
X114428Y4331D01*
X114340Y4382D01*
X114253Y4433D01*
X114180Y4491D01*
X114114Y4549D01*
X114056Y4600D01*
X114005Y4651D01*
X113961Y4695D01*
X113932Y4732D01*
X113910Y4768D01*
X113896Y4783D01*
X113888Y4790D01*
X113815Y4907D01*
X113750Y5038D01*
X113699Y5176D01*
X113655Y5315D01*
X113582Y5606D01*
X113531Y5891D01*
X113517Y6022D01*
X113502Y6138D01*
X113495Y6248D01*
X113488Y6343D01*
X113480Y6423D01*
Y6481D01*
Y6518D01*
Y6532D01*
X113488Y6744D01*
X113495Y6940D01*
X113517Y7123D01*
X113539Y7298D01*
X113575Y7458D01*
X113611Y7604D01*
X113655Y7742D01*
X113706Y7874D01*
X113757Y7990D01*
X113808Y8100D01*
X113874Y8194D01*
X113932Y8282D01*
X113998Y8362D01*
X114063Y8435D01*
X114129Y8501D01*
X114195Y8559D01*
X114326Y8654D01*
X114457Y8726D01*
X114581Y8777D01*
X114683Y8814D01*
X114778Y8836D01*
X114851Y8843D01*
X114873Y8850D01*
X114909D01*
X115048Y8843D01*
D02*
G37*
G36*
X129006Y17949D02*
X129414Y17891D01*
X129604Y17869D01*
X129793Y17847D01*
X129968Y17826D01*
X130129Y17811D01*
X130282Y17796D01*
X130420Y17782D01*
X130537Y17774D01*
X130639Y17760D01*
X130726Y17753D01*
X130785D01*
X130821Y17745D01*
X130836D01*
X130785Y17592D01*
X130763Y17519D01*
X130748Y17454D01*
X130734Y17395D01*
X130726Y17352D01*
X130719Y17323D01*
Y17315D01*
X130566Y17330D01*
X130420Y17344D01*
X130274Y17359D01*
X130143Y17366D01*
X130034Y17381D01*
X129990D01*
X129946Y17388D01*
X129917D01*
X129895Y17395D01*
X129873D01*
Y16543D01*
X130828D01*
Y16127D01*
X129910D01*
X129975Y15923D01*
X130048Y15726D01*
X130129Y15536D01*
X130209Y15354D01*
X130289Y15179D01*
X130376Y15019D01*
X130457Y14866D01*
X130537Y14727D01*
X130610Y14596D01*
X130683Y14487D01*
X130741Y14385D01*
X130799Y14297D01*
X130843Y14232D01*
X130879Y14188D01*
X130901Y14151D01*
X130909Y14144D01*
X130821Y13962D01*
X130785Y13874D01*
X130755Y13801D01*
X130726Y13736D01*
X130704Y13692D01*
X130697Y13663D01*
X130690Y13648D01*
X130515Y13896D01*
X130362Y14151D01*
X130223Y14406D01*
X130158Y14530D01*
X130107Y14647D01*
X130056Y14756D01*
X130005Y14859D01*
X129968Y14946D01*
X129932Y15019D01*
X129910Y15085D01*
X129888Y15135D01*
X129881Y15165D01*
X129873Y15172D01*
Y12548D01*
X129436D01*
Y15398D01*
X129312Y15274D01*
X129181Y15150D01*
X129064Y15026D01*
X128955Y14917D01*
X128867Y14815D01*
X128794Y14742D01*
X128765Y14713D01*
X128743Y14691D01*
X128736Y14676D01*
X128729Y14669D01*
X128401Y14997D01*
X128539Y15128D01*
X128671Y15252D01*
X128802Y15376D01*
X128926Y15485D01*
X129028Y15573D01*
X129108Y15646D01*
X129137Y15668D01*
X129159Y15689D01*
X129174Y15697D01*
X129181Y15704D01*
X129436Y15471D01*
Y16127D01*
X128510D01*
Y16543D01*
X129436D01*
Y17454D01*
X129254Y17476D01*
X129079Y17490D01*
X128911Y17512D01*
X128758Y17534D01*
X128627Y17549D01*
X128576Y17556D01*
X128525Y17563D01*
X128488D01*
X128459Y17570D01*
X128437D01*
X128590Y18008D01*
X129006Y17949D01*
D02*
G37*
G36*
X116686Y18095D02*
X116554Y17906D01*
X116438Y17731D01*
X116336Y17570D01*
X116241Y17425D01*
X116168Y17301D01*
X116139Y17257D01*
X116110Y17213D01*
X116095Y17177D01*
X116081Y17155D01*
X116066Y17140D01*
Y17133D01*
X115651Y17366D01*
X115767Y17549D01*
X115884Y17723D01*
X115993Y17884D01*
X116095Y18030D01*
X116183Y18146D01*
X116219Y18197D01*
X116248Y18241D01*
X116270Y18278D01*
X116292Y18299D01*
X116299Y18314D01*
X116307Y18321D01*
X116686Y18095D01*
D02*
G37*
G36*
X134371Y17111D02*
X134874D01*
Y17906D01*
X135246D01*
Y16776D01*
X133496D01*
Y16601D01*
X133125D01*
Y17906D01*
X133496D01*
Y17111D01*
X134000D01*
Y18248D01*
X134371D01*
Y17111D01*
D02*
G37*
G36*
X118260Y17920D02*
X118144Y17774D01*
X118020Y17629D01*
X117911Y17483D01*
X117816Y17344D01*
X117736Y17228D01*
X117699Y17177D01*
X117670Y17133D01*
X117641Y17104D01*
X117626Y17075D01*
X117612Y17060D01*
Y17053D01*
X117218Y17330D01*
X117349Y17497D01*
X117473Y17651D01*
X117590Y17796D01*
X117699Y17920D01*
X117787Y18030D01*
X117859Y18110D01*
X117881Y18139D01*
X117903Y18161D01*
X117911Y18168D01*
X117918Y18175D01*
X118260Y17920D01*
D02*
G37*
G36*
X114433Y18037D02*
X114557Y17869D01*
X114681Y17716D01*
X114798Y17585D01*
X114892Y17476D01*
X114929Y17425D01*
X114965Y17388D01*
X114995Y17359D01*
X115016Y17337D01*
X115024Y17323D01*
X115031Y17315D01*
X114688Y17002D01*
X114528Y17177D01*
X114382Y17344D01*
X114244Y17497D01*
X114120Y17629D01*
X114025Y17745D01*
X113981Y17789D01*
X113945Y17833D01*
X113916Y17862D01*
X113894Y17884D01*
X113886Y17898D01*
X113879Y17906D01*
X114302Y18212D01*
X114433Y18037D01*
D02*
G37*
G36*
X109673Y18117D02*
X109600Y18008D01*
X109527Y17906D01*
X109469Y17804D01*
X109418Y17723D01*
X109374Y17651D01*
X109345Y17592D01*
X109323Y17563D01*
X109316Y17549D01*
X110919D01*
Y16615D01*
X110482D01*
Y17147D01*
X107901D01*
Y16615D01*
X107457D01*
Y17549D01*
X109148D01*
X108885Y17702D01*
X109024Y17920D01*
X109090Y18022D01*
X109155Y18124D01*
X109213Y18205D01*
X109257Y18270D01*
X109286Y18314D01*
X109294Y18321D01*
Y18328D01*
X109673Y18117D01*
D02*
G37*
G36*
X128109Y17344D02*
X127891Y17162D01*
X127701Y16995D01*
X127526Y16834D01*
X127380Y16703D01*
X127315Y16637D01*
X127256Y16586D01*
X127213Y16543D01*
X127169Y16499D01*
X127140Y16470D01*
X127118Y16448D01*
X127103Y16433D01*
X127096Y16426D01*
X126797Y16769D01*
X126957Y16914D01*
X127132Y17060D01*
X127307Y17206D01*
X127475Y17344D01*
X127548Y17403D01*
X127621Y17461D01*
X127686Y17512D01*
X127737Y17556D01*
X127781Y17585D01*
X127818Y17614D01*
X127840Y17629D01*
X127847Y17636D01*
X128109Y17344D01*
D02*
G37*
G36*
X140407Y18088D02*
X140298Y17964D01*
X140203Y17840D01*
X140116Y17731D01*
X140043Y17629D01*
X139985Y17541D01*
X139934Y17483D01*
X139904Y17439D01*
X139897Y17432D01*
Y17425D01*
X142522D01*
Y16324D01*
X142055D01*
Y16995D01*
X137776D01*
Y16324D01*
X137302D01*
Y17425D01*
X139686D01*
X139416Y17607D01*
X139511Y17738D01*
X139613Y17876D01*
X139715Y18000D01*
X139810Y18110D01*
X139890Y18212D01*
X139955Y18285D01*
X139977Y18314D01*
X139999Y18336D01*
X140006Y18343D01*
X140014Y18350D01*
X140407Y18088D01*
D02*
G37*
G36*
X135924Y17942D02*
X136019Y17782D01*
X136121Y17636D01*
X136216Y17497D01*
X136310Y17366D01*
X136405Y17242D01*
X136493Y17133D01*
X136573Y17031D01*
X136653Y16936D01*
X136719Y16863D01*
X136777Y16798D01*
X136828Y16747D01*
X136864Y16703D01*
X136886Y16681D01*
X136894Y16674D01*
X136813Y16528D01*
X136777Y16462D01*
X136741Y16404D01*
X136719Y16353D01*
X136697Y16309D01*
X136689Y16280D01*
X136682Y16273D01*
X136551Y16411D01*
X136427Y16557D01*
X136179Y16856D01*
X135960Y17155D01*
X135858Y17301D01*
X135764Y17439D01*
X135684Y17570D01*
X135603Y17687D01*
X135538Y17796D01*
X135479Y17891D01*
X135436Y17964D01*
X135406Y18022D01*
X135385Y18052D01*
X135377Y18066D01*
X135742Y18270D01*
X135924Y17942D01*
D02*
G37*
G36*
X110679Y16018D02*
X107683D01*
Y16419D01*
X110679D01*
Y16018D01*
D02*
G37*
G36*
X118720Y15799D02*
X118260D01*
Y16550D01*
X113872D01*
Y15799D01*
X113405D01*
Y16973D01*
X118720D01*
Y15799D01*
D02*
G37*
G36*
X124092Y17111D02*
X124872D01*
Y16703D01*
X124092D01*
Y15449D01*
X124246Y15405D01*
X124399Y15361D01*
X124544Y15318D01*
X124676Y15281D01*
X124785Y15252D01*
X124829Y15238D01*
X124872Y15223D01*
X124902Y15216D01*
X124924Y15208D01*
X124938Y15201D01*
X124945D01*
X124887Y14720D01*
X124734Y14771D01*
X124595Y14822D01*
X124457Y14866D01*
X124340Y14909D01*
X124238Y14939D01*
X124158Y14968D01*
X124129Y14975D01*
X124107Y14982D01*
X124100Y14990D01*
X124092D01*
Y13357D01*
X124100Y13269D01*
X124129Y13211D01*
X124173Y13167D01*
X124216Y13131D01*
X124267Y13116D01*
X124304Y13109D01*
X124333Y13102D01*
X124420D01*
X124501Y13109D01*
X124588Y13116D01*
X124668Y13124D01*
X124749D01*
X124807Y13131D01*
X124850Y13138D01*
X124865D01*
X124836Y12956D01*
X124821Y12876D01*
X124807Y12795D01*
X124800Y12737D01*
X124792Y12686D01*
X124785Y12657D01*
Y12642D01*
X124231D01*
X124129Y12650D01*
X124041Y12672D01*
X123961Y12701D01*
X123896Y12744D01*
X123837Y12788D01*
X123786Y12846D01*
X123750Y12898D01*
X123721Y12956D01*
X123677Y13072D01*
X123662Y13124D01*
X123655Y13174D01*
X123648Y13211D01*
Y13240D01*
Y13262D01*
Y13269D01*
Y15135D01*
X123524Y15179D01*
X123400Y15216D01*
X123291Y15252D01*
X123188Y15281D01*
X123108Y15311D01*
X123043Y15332D01*
X122999Y15340D01*
X122984Y15347D01*
Y15420D01*
X122992Y15493D01*
Y15573D01*
Y15646D01*
Y15704D01*
Y15762D01*
Y15792D01*
Y15806D01*
X123232Y15726D01*
X123342Y15689D01*
X123436Y15653D01*
X123524Y15631D01*
X123589Y15609D01*
X123633Y15595D01*
X123640Y15587D01*
X123648D01*
Y16703D01*
X122962D01*
Y17111D01*
X123648D01*
Y18241D01*
X124092D01*
Y17111D01*
D02*
G37*
G36*
X135334Y16069D02*
X134656D01*
X134758Y15952D01*
X134860Y15843D01*
X134955Y15755D01*
X135035Y15675D01*
X135108Y15617D01*
X135159Y15566D01*
X135188Y15536D01*
X135202Y15529D01*
X135304Y15456D01*
X135392Y15413D01*
X135428Y15398D01*
X135458Y15383D01*
X135479Y15376D01*
X135487D01*
X135326Y15019D01*
X135261Y15033D01*
X135202Y15041D01*
X135159Y15048D01*
X135122Y15055D01*
X135100D01*
X135078Y15063D01*
X135064D01*
X134947Y15070D01*
X134838Y15085D01*
X134729Y15092D01*
X134634Y15099D01*
X134561D01*
X134495Y15106D01*
X134444D01*
X134583Y15004D01*
X134721Y14902D01*
X134852Y14807D01*
X134969Y14720D01*
X135078Y14654D01*
X135159Y14596D01*
X135188Y14581D01*
X135210Y14567D01*
X135224Y14552D01*
X135231D01*
X135268Y14530D01*
X135312Y14516D01*
X135392Y14479D01*
X135436Y14465D01*
X135465Y14450D01*
X135487Y14443D01*
X135494D01*
X135348Y14086D01*
X135283Y14100D01*
X135217Y14108D01*
X135166Y14115D01*
X135122Y14122D01*
X135086D01*
X135056Y14130D01*
X135035D01*
X134911Y14137D01*
X134787Y14144D01*
X134678Y14151D01*
X134575Y14159D01*
X134488Y14166D01*
X134422Y14173D01*
X134364D01*
Y13335D01*
X134379Y13233D01*
X134408Y13160D01*
X134451Y13109D01*
X134502Y13072D01*
X134554Y13051D01*
X134597Y13043D01*
X134626Y13036D01*
X134641D01*
X134794Y13043D01*
X134867D01*
X134940Y13051D01*
X134998Y13058D01*
X135042D01*
X135071Y13065D01*
X135086D01*
X135071Y12970D01*
X135049Y12890D01*
X135042Y12817D01*
X135027Y12766D01*
X135020Y12715D01*
Y12686D01*
X135013Y12664D01*
Y12657D01*
X134911D01*
X134816Y12650D01*
X134517D01*
X134422Y12657D01*
X134342Y12679D01*
X134269Y12708D01*
X134204Y12744D01*
X134153Y12788D01*
X134109Y12839D01*
X134072Y12890D01*
X134043Y12948D01*
X134007Y13051D01*
X133985Y13145D01*
X133978Y13189D01*
Y13218D01*
Y13233D01*
Y13240D01*
Y14195D01*
X133861Y14202D01*
X133752Y14210D01*
X133642Y14217D01*
X133547Y14224D01*
X133475D01*
X133409Y14232D01*
X133358D01*
X133300Y14137D01*
X133249Y14049D01*
X133234Y14013D01*
X133220Y13984D01*
X133205Y13969D01*
Y13962D01*
X132884Y14159D01*
X132986Y14326D01*
X133081Y14487D01*
X133176Y14633D01*
X133256Y14764D01*
X133329Y14866D01*
X133358Y14909D01*
X133380Y14946D01*
X133402Y14982D01*
X133416Y15004D01*
X133431Y15012D01*
Y15019D01*
X133737Y14851D01*
X133664Y14735D01*
X133599Y14640D01*
X133577Y14596D01*
X133555Y14567D01*
X133547Y14545D01*
X133540Y14538D01*
X133752Y14530D01*
X133963Y14516D01*
X134175Y14509D01*
X134364Y14501D01*
X134451Y14494D01*
X134532D01*
X134597Y14487D01*
X134656D01*
X134707Y14479D01*
X134772D01*
X134517Y14654D01*
X134262Y14844D01*
X134021Y15033D01*
X133905Y15128D01*
X133795Y15216D01*
X133693Y15303D01*
X133606Y15376D01*
X133526Y15449D01*
X133453Y15507D01*
X133394Y15558D01*
X133358Y15595D01*
X133329Y15617D01*
X133321Y15624D01*
X133664Y15857D01*
X133810Y15689D01*
X133883Y15617D01*
X133949Y15551D01*
X134000Y15493D01*
X134051Y15449D01*
X134080Y15420D01*
X134087Y15413D01*
X134276Y15405D01*
X134575D01*
X134692Y15398D01*
X134889D01*
X134765Y15500D01*
X134641Y15609D01*
X134517Y15726D01*
X134400Y15828D01*
X134306Y15923D01*
X134225Y16003D01*
X134196Y16032D01*
X134175Y16054D01*
X134160Y16061D01*
X134153Y16069D01*
X133117D01*
Y16404D01*
X135334D01*
Y16069D01*
D02*
G37*
G36*
X132469Y17986D02*
X132527Y17723D01*
X132585Y17468D01*
X132644Y17228D01*
X132709Y17002D01*
X132775Y16798D01*
X132840Y16601D01*
X132899Y16426D01*
X132964Y16273D01*
X133023Y16134D01*
X133074Y16018D01*
X133117Y15923D01*
X133154Y15843D01*
X133183Y15784D01*
X133198Y15755D01*
X133205Y15741D01*
X133117Y15609D01*
X133074Y15551D01*
X133045Y15493D01*
X133015Y15449D01*
X132993Y15405D01*
X132979Y15383D01*
X132972Y15376D01*
X132870Y15573D01*
X132818Y15668D01*
X132775Y15755D01*
X132746Y15821D01*
X132717Y15879D01*
X132702Y15915D01*
X132695Y15930D01*
X132658Y15566D01*
X132636Y15391D01*
X132607Y15223D01*
X132571Y15070D01*
X132542Y14917D01*
X132505Y14778D01*
X132476Y14647D01*
X132439Y14530D01*
X132410Y14428D01*
X132381Y14334D01*
X132352Y14261D01*
X132330Y14195D01*
X132316Y14151D01*
X132301Y14122D01*
Y14115D01*
X132439Y13882D01*
X132600Y13656D01*
X132760Y13452D01*
X132840Y13357D01*
X132913Y13262D01*
X132986Y13182D01*
X133052Y13109D01*
X133117Y13043D01*
X133168Y12992D01*
X133212Y12948D01*
X133241Y12919D01*
X133263Y12898D01*
X133271Y12890D01*
X133161Y12752D01*
X133117Y12686D01*
X133081Y12635D01*
X133045Y12591D01*
X133023Y12555D01*
X133008Y12533D01*
X133001Y12526D01*
X132804Y12737D01*
X132622Y12934D01*
X132469Y13131D01*
X132337Y13306D01*
X132286Y13379D01*
X132235Y13452D01*
X132192Y13510D01*
X132162Y13561D01*
X132133Y13605D01*
X132111Y13634D01*
X132104Y13656D01*
X132097Y13663D01*
X131973Y13444D01*
X131834Y13240D01*
X131703Y13058D01*
X131572Y12890D01*
X131514Y12825D01*
X131463Y12759D01*
X131419Y12701D01*
X131375Y12657D01*
X131339Y12620D01*
X131317Y12591D01*
X131302Y12577D01*
X131295Y12569D01*
X131207Y12708D01*
X131164Y12781D01*
X131120Y12846D01*
X131084Y12905D01*
X131054Y12948D01*
X131040Y12978D01*
X131033Y12985D01*
X131215Y13160D01*
X131382Y13349D01*
X131528Y13532D01*
X131652Y13707D01*
X131703Y13787D01*
X131747Y13860D01*
X131783Y13925D01*
X131820Y13984D01*
X131842Y14027D01*
X131863Y14064D01*
X131871Y14086D01*
X131878Y14093D01*
X131805Y14283D01*
X131732Y14487D01*
X131674Y14698D01*
X131616Y14924D01*
X131521Y15369D01*
X131484Y15587D01*
X131448Y15806D01*
X131419Y16003D01*
X131397Y16193D01*
X131375Y16360D01*
X131360Y16506D01*
Y16564D01*
X131353Y16623D01*
X131346Y16674D01*
Y16717D01*
X131339Y16747D01*
Y16769D01*
Y16783D01*
Y16790D01*
X131062D01*
Y17169D01*
X132264D01*
X132213Y17359D01*
X132177Y17541D01*
X132133Y17716D01*
X132104Y17876D01*
X132089Y17949D01*
X132075Y18015D01*
X132068Y18073D01*
X132053Y18117D01*
X132046Y18161D01*
Y18190D01*
X132038Y18205D01*
Y18212D01*
X132425Y18270D01*
X132469Y17986D01*
D02*
G37*
G36*
X128459Y15952D02*
X128328Y15843D01*
X128211Y15741D01*
X128102Y15646D01*
X128007Y15558D01*
X127920Y15478D01*
X127840Y15405D01*
X127767Y15340D01*
X127701Y15281D01*
X127650Y15230D01*
X127599Y15187D01*
X127562Y15150D01*
X127526Y15114D01*
X127504Y15092D01*
X127489Y15077D01*
X127475Y15063D01*
X127176Y15420D01*
X127242Y15478D01*
X127315Y15544D01*
X127475Y15675D01*
X127643Y15813D01*
X127803Y15945D01*
X127949Y16061D01*
X128007Y16112D01*
X128065Y16156D01*
X128109Y16193D01*
X128146Y16222D01*
X128167Y16236D01*
X128175Y16244D01*
X128459Y15952D01*
D02*
G37*
G36*
X126520Y14654D02*
X128809Y14450D01*
X128758Y14035D01*
X126520Y14239D01*
Y12548D01*
X126075D01*
Y14275D01*
X125120Y14363D01*
X125157Y14786D01*
X126075Y14698D01*
Y18256D01*
X126520D01*
Y14654D01*
D02*
G37*
G36*
X135844Y16513D02*
X135953Y16309D01*
X136055Y16120D01*
X136157Y15937D01*
X136252Y15777D01*
X136347Y15624D01*
X136442Y15485D01*
X136522Y15354D01*
X136602Y15245D01*
X136675Y15150D01*
X136741Y15063D01*
X136792Y14997D01*
X136835Y14946D01*
X136864Y14902D01*
X136886Y14880D01*
X136894Y14873D01*
X136821Y14698D01*
X136792Y14618D01*
X136762Y14552D01*
X136741Y14494D01*
X136726Y14443D01*
X136711Y14414D01*
Y14406D01*
X136624Y14509D01*
X136536Y14618D01*
X136456Y14727D01*
X136383Y14829D01*
X136325Y14917D01*
X136281Y14982D01*
X136259Y15012D01*
X136245Y15033D01*
X136238Y15041D01*
Y12555D01*
X135844D01*
Y15704D01*
X135684Y16003D01*
X135603Y16141D01*
X135538Y16273D01*
X135479Y16382D01*
X135450Y16433D01*
X135428Y16470D01*
X135414Y16506D01*
X135399Y16528D01*
X135392Y16543D01*
Y16550D01*
X135742Y16732D01*
X135844Y16513D01*
D02*
G37*
G36*
X133759Y13787D02*
X133671Y13685D01*
X133584Y13583D01*
X133504Y13473D01*
X133424Y13371D01*
X133358Y13284D01*
X133307Y13211D01*
X133292Y13182D01*
X133278Y13160D01*
X133263Y13153D01*
Y13145D01*
X132957Y13371D01*
X133052Y13495D01*
X133147Y13612D01*
X133227Y13721D01*
X133307Y13816D01*
X133373Y13896D01*
X133424Y13954D01*
X133453Y13991D01*
X133467Y14006D01*
X133759Y13787D01*
D02*
G37*
G36*
X135224Y13809D02*
X135312Y13656D01*
X135399Y13510D01*
X135479Y13386D01*
X135552Y13284D01*
X135603Y13211D01*
X135625Y13182D01*
X135640Y13160D01*
X135654Y13153D01*
Y13145D01*
X135589Y13102D01*
X135523Y13065D01*
X135472Y13029D01*
X135428Y13000D01*
X135392Y12970D01*
X135363Y12948D01*
X135348Y12941D01*
X135341Y12934D01*
X135239Y13087D01*
X135137Y13240D01*
X135042Y13386D01*
X134962Y13524D01*
X134889Y13641D01*
X134867Y13685D01*
X134838Y13728D01*
X134823Y13765D01*
X134809Y13787D01*
X134794Y13801D01*
Y13809D01*
X135129Y13984D01*
X135224Y13809D01*
D02*
G37*
G36*
X117816Y15551D02*
X115082D01*
X116190Y14924D01*
Y14596D01*
X118916D01*
Y14173D01*
X116190D01*
Y13379D01*
Y13320D01*
X116205Y13277D01*
X116241Y13196D01*
X116285Y13145D01*
X116343Y13102D01*
X116401Y13080D01*
X116445Y13072D01*
X116482Y13065D01*
X116496D01*
X116657Y13072D01*
X116810Y13080D01*
X116963Y13087D01*
X117101Y13094D01*
X117218Y13109D01*
X117262D01*
X117305Y13116D01*
X117342D01*
X117364Y13124D01*
X117386D01*
X117371Y13014D01*
X117349Y12919D01*
X117342Y12832D01*
X117327Y12766D01*
X117320Y12708D01*
Y12664D01*
X117313Y12635D01*
Y12628D01*
X117123Y12620D01*
X116802D01*
X116671Y12613D01*
X116416D01*
X116292Y12620D01*
X116190Y12642D01*
X116095Y12679D01*
X116015Y12722D01*
X115949Y12774D01*
X115891Y12832D01*
X115847Y12890D01*
X115811Y12956D01*
X115782Y13021D01*
X115760Y13080D01*
X115745Y13138D01*
X115731Y13189D01*
Y13233D01*
X115724Y13269D01*
Y13291D01*
Y13298D01*
Y14173D01*
X113216D01*
Y14596D01*
X115724D01*
Y14727D01*
X114397Y15485D01*
Y15981D01*
X117816D01*
Y15551D01*
D02*
G37*
G36*
X112713Y12577D02*
X112290D01*
Y14049D01*
X112239Y13874D01*
X112217Y13794D01*
X112195Y13728D01*
X112180Y13663D01*
X112173Y13619D01*
X112166Y13590D01*
Y13575D01*
X112049Y13568D01*
X111845D01*
X111765Y13575D01*
X111692D01*
X111648Y13583D01*
X111612Y13590D01*
X111605D01*
X111481Y13626D01*
X111379Y13685D01*
X111291Y13758D01*
X111218Y13845D01*
X111167Y13947D01*
X111124Y14049D01*
X111094Y14159D01*
X111073Y14275D01*
X111058Y14385D01*
X111051Y14487D01*
Y14589D01*
Y14676D01*
Y14749D01*
X111058Y14800D01*
X111065Y14837D01*
Y14851D01*
X111080Y14946D01*
X111102Y15041D01*
X111167Y15230D01*
X111247Y15413D01*
X111335Y15587D01*
X111379Y15660D01*
X111415Y15733D01*
X111459Y15799D01*
X111488Y15850D01*
X111517Y15894D01*
X111539Y15923D01*
X111554Y15945D01*
X111561Y15952D01*
X111473Y16214D01*
X111386Y16484D01*
X111306Y16747D01*
X111269Y16878D01*
X111233Y17002D01*
X111204Y17111D01*
X111174Y17213D01*
X111153Y17308D01*
X111131Y17388D01*
X111109Y17454D01*
X111094Y17497D01*
X111087Y17534D01*
Y17541D01*
Y17949D01*
X112713D01*
Y12577D01*
D02*
G37*
G36*
X140553Y16674D02*
X140655Y16477D01*
X140750Y16295D01*
X140838Y16134D01*
X140874Y16061D01*
X140910Y15996D01*
X140947Y15945D01*
X140969Y15894D01*
X140991Y15857D01*
X141005Y15828D01*
X141020Y15813D01*
Y15806D01*
X142806D01*
Y15369D01*
X141275D01*
X141377Y15201D01*
X141472Y15048D01*
X141567Y14902D01*
X141647Y14771D01*
X141720Y14662D01*
X141749Y14618D01*
X141771Y14581D01*
X141793Y14552D01*
X141807Y14530D01*
X141822Y14516D01*
Y14509D01*
X141508Y14370D01*
X141209Y14232D01*
X141071Y14173D01*
X140940Y14115D01*
X140816Y14057D01*
X140699Y14006D01*
X140590Y13954D01*
X140495Y13911D01*
X140415Y13874D01*
X140342Y13838D01*
X140284Y13816D01*
X140247Y13794D01*
X140218Y13787D01*
X140211Y13780D01*
X140393Y13685D01*
X140582Y13597D01*
X140976Y13444D01*
X141377Y13320D01*
X141567Y13262D01*
X141756Y13211D01*
X141931Y13174D01*
X142091Y13138D01*
X142230Y13102D01*
X142361Y13080D01*
X142463Y13058D01*
X142536Y13051D01*
X142565Y13043D01*
X142587Y13036D01*
X142602D01*
X142551Y12941D01*
X142507Y12854D01*
X142463Y12774D01*
X142427Y12701D01*
X142398Y12642D01*
X142376Y12599D01*
X142361Y12569D01*
X142354Y12562D01*
X142055Y12620D01*
X141771Y12693D01*
X141501Y12766D01*
X141253Y12839D01*
X141020Y12919D01*
X140801Y13000D01*
X140597Y13080D01*
X140415Y13160D01*
X140254Y13233D01*
X140116Y13306D01*
X139992Y13364D01*
X139890Y13422D01*
X139810Y13466D01*
X139751Y13502D01*
X139722Y13524D01*
X139708Y13532D01*
X139314Y13349D01*
X139124Y13262D01*
X138942Y13174D01*
X138775Y13087D01*
X138607Y13007D01*
X138461Y12934D01*
X138315Y12868D01*
X138191Y12803D01*
X138075Y12744D01*
X137980Y12693D01*
X137892Y12650D01*
X137827Y12613D01*
X137776Y12591D01*
X137747Y12577D01*
X137739Y12569D01*
X137455Y13036D01*
X137798Y13189D01*
X138126Y13342D01*
X138286Y13415D01*
X138432Y13481D01*
X138578Y13546D01*
X138709Y13605D01*
X138833Y13663D01*
X138949Y13714D01*
X139044Y13758D01*
X139124Y13794D01*
X139197Y13823D01*
X139241Y13845D01*
X139278Y13860D01*
X139285Y13867D01*
X139154Y13984D01*
X139037Y14108D01*
X138927Y14239D01*
X138826Y14363D01*
X138738Y14487D01*
X138651Y14618D01*
X138578Y14735D01*
X138512Y14851D01*
X138454Y14961D01*
X138410Y15055D01*
X138366Y15143D01*
X138337Y15223D01*
X138308Y15281D01*
X138293Y15332D01*
X138279Y15361D01*
Y15369D01*
X137025D01*
Y15806D01*
X140488D01*
X140393Y15967D01*
X140305Y16120D01*
X140218Y16265D01*
X140138Y16404D01*
X140072Y16513D01*
X140043Y16564D01*
X140021Y16601D01*
X140006Y16637D01*
X139992Y16659D01*
X139977Y16674D01*
Y16681D01*
X140444Y16878D01*
X140553Y16674D01*
D02*
G37*
G36*
X110949Y14888D02*
X110066D01*
Y14749D01*
X110074Y14618D01*
X110088Y14494D01*
X110103Y14385D01*
X110125Y14275D01*
X110147Y14180D01*
X110176Y14093D01*
X110198Y14020D01*
X110227Y13947D01*
X110249Y13889D01*
X110271Y13838D01*
X110292Y13794D01*
X110307Y13765D01*
X110322Y13743D01*
X110336Y13728D01*
Y13721D01*
X110402Y13641D01*
X110482Y13561D01*
X110657Y13408D01*
X110839Y13284D01*
X111029Y13167D01*
X111116Y13124D01*
X111196Y13080D01*
X111269Y13043D01*
X111335Y13014D01*
X111386Y12985D01*
X111422Y12970D01*
X111451Y12963D01*
X111459Y12956D01*
X111415Y12912D01*
X111371Y12854D01*
X111313Y12788D01*
X111262Y12722D01*
X111211Y12664D01*
X111174Y12613D01*
X111145Y12577D01*
X111138Y12562D01*
X110970Y12650D01*
X110825Y12730D01*
X110686Y12817D01*
X110562Y12898D01*
X110453Y12978D01*
X110351Y13058D01*
X110263Y13131D01*
X110190Y13196D01*
X110125Y13262D01*
X110066Y13320D01*
X110023Y13371D01*
X109979Y13415D01*
X109957Y13452D01*
X109935Y13481D01*
X109921Y13495D01*
Y13502D01*
X109870Y13590D01*
X109826Y13685D01*
X109789Y13794D01*
X109753Y13904D01*
X109702Y14137D01*
X109666Y14363D01*
X109658Y14465D01*
X109644Y14567D01*
X109636Y14654D01*
Y14735D01*
X109629Y14800D01*
Y14844D01*
Y14880D01*
Y14888D01*
X108995D01*
Y13284D01*
X108987Y13182D01*
X108973Y13102D01*
X108951Y13021D01*
X108915Y12963D01*
X108878Y12905D01*
X108842Y12861D01*
X108798Y12825D01*
X108747Y12795D01*
X108660Y12752D01*
X108579Y12730D01*
X108550D01*
X108528Y12722D01*
X107901D01*
X107807Y12730D01*
X107719Y12744D01*
X107646Y12766D01*
X107580Y12803D01*
X107529Y12839D01*
X107478Y12883D01*
X107435Y12927D01*
X107406Y12978D01*
X107354Y13065D01*
X107325Y13145D01*
X107311Y13182D01*
X107304Y13204D01*
Y13218D01*
Y13226D01*
X107282Y13349D01*
X107267Y13481D01*
X107253Y13612D01*
X107238Y13728D01*
X107223Y13831D01*
X107216Y13918D01*
Y13947D01*
X107209Y13969D01*
Y13984D01*
Y13991D01*
X107304Y14027D01*
X107391Y14064D01*
X107471Y14093D01*
X107537Y14122D01*
X107595Y14144D01*
X107632Y14159D01*
X107661Y14173D01*
X107668D01*
X107675Y13998D01*
X107683Y13838D01*
X107697Y13707D01*
X107704Y13597D01*
X107712Y13510D01*
X107719Y13452D01*
X107726Y13415D01*
Y13400D01*
X107748Y13313D01*
X107777Y13247D01*
X107821Y13196D01*
X107858Y13167D01*
X107901Y13145D01*
X107938Y13138D01*
X107960Y13131D01*
X108361D01*
X108426Y13145D01*
X108477Y13174D01*
X108506Y13218D01*
X108536Y13269D01*
X108550Y13313D01*
X108557Y13357D01*
Y13386D01*
Y13400D01*
Y14888D01*
X107391D01*
Y15289D01*
X110949D01*
Y14888D01*
D02*
G37*
G36*
X121286Y17337D02*
X122809D01*
Y16907D01*
X121286D01*
Y16018D01*
X122787D01*
Y15631D01*
X122394D01*
X122328Y15420D01*
X122263Y15223D01*
X122182Y15041D01*
X122109Y14866D01*
X122029Y14698D01*
X121949Y14545D01*
X121869Y14406D01*
X121789Y14283D01*
X121716Y14173D01*
X121643Y14071D01*
X121585Y13984D01*
X121534Y13918D01*
X121483Y13860D01*
X121453Y13823D01*
X121432Y13794D01*
X121424Y13787D01*
X121709Y13597D01*
X122015Y13430D01*
X122314Y13284D01*
X122452Y13218D01*
X122591Y13160D01*
X122715Y13102D01*
X122831Y13058D01*
X122941Y13014D01*
X123028Y12985D01*
X123101Y12956D01*
X123159Y12934D01*
X123188Y12927D01*
X123203Y12919D01*
X123137Y12839D01*
X123072Y12759D01*
X123021Y12693D01*
X122977Y12628D01*
X122941Y12584D01*
X122919Y12540D01*
X122904Y12518D01*
X122897Y12511D01*
X122707Y12591D01*
X122525Y12672D01*
X122350Y12752D01*
X122182Y12832D01*
X122022Y12912D01*
X121876Y12992D01*
X121738Y13072D01*
X121614Y13145D01*
X121497Y13218D01*
X121402Y13277D01*
X121315Y13335D01*
X121242Y13386D01*
X121184Y13422D01*
X121140Y13459D01*
X121111Y13473D01*
X121104Y13481D01*
X120848Y13284D01*
X120579Y13109D01*
X120309Y12948D01*
X120178Y12883D01*
X120054Y12817D01*
X119937Y12759D01*
X119835Y12708D01*
X119740Y12664D01*
X119660Y12620D01*
X119595Y12591D01*
X119543Y12569D01*
X119507Y12562D01*
X119500Y12555D01*
X119376Y12708D01*
X119317Y12781D01*
X119259Y12854D01*
X119208Y12912D01*
X119164Y12963D01*
X119135Y12992D01*
X119128Y13007D01*
X119303Y13058D01*
X119471Y13116D01*
X119631Y13182D01*
X119784Y13240D01*
X119930Y13306D01*
X120061Y13371D01*
X120185Y13437D01*
X120294Y13495D01*
X120396Y13554D01*
X120491Y13605D01*
X120564Y13656D01*
X120630Y13699D01*
X120681Y13728D01*
X120717Y13758D01*
X120739Y13772D01*
X120746Y13780D01*
X120608Y13918D01*
X120484Y14071D01*
X120360Y14224D01*
X120251Y14377D01*
X120141Y14538D01*
X120046Y14691D01*
X119959Y14844D01*
X119879Y14997D01*
X119813Y15135D01*
X119748Y15259D01*
X119696Y15376D01*
X119653Y15471D01*
X119624Y15558D01*
X119602Y15617D01*
X119587Y15653D01*
X119580Y15668D01*
Y16018D01*
X120819D01*
Y16907D01*
X119237D01*
Y17337D01*
X120819D01*
Y18270D01*
X121286D01*
Y17337D01*
D02*
G37*
%LPC*%
G36*
X134454Y8509D02*
X130656D01*
Y6985D01*
X134454D01*
Y8509D01*
D02*
G37*
G36*
Y6563D02*
X130656D01*
Y4966D01*
X134454D01*
Y6563D01*
D02*
G37*
G36*
X94650Y8377D02*
X94599D01*
X94482Y8369D01*
X94380Y8347D01*
X94293Y8311D01*
X94213Y8275D01*
X94147Y8231D01*
X94103Y8202D01*
X94074Y8172D01*
X94067Y8165D01*
X93994Y8085D01*
X93943Y7998D01*
X93899Y7910D01*
X93877Y7830D01*
X93863Y7757D01*
X93848Y7699D01*
Y7662D01*
Y7648D01*
X93856Y7538D01*
X93885Y7443D01*
X93921Y7356D01*
X93958Y7276D01*
X94001Y7217D01*
X94038Y7166D01*
X94067Y7137D01*
X94074Y7130D01*
X94162Y7057D01*
X94249Y7006D01*
X94337Y6962D01*
X94424Y6940D01*
X94490Y6926D01*
X94548Y6919D01*
X94585Y6911D01*
X94599D01*
X94708Y6919D01*
X94818Y6948D01*
X94905Y6977D01*
X94985Y7021D01*
X95044Y7057D01*
X95095Y7094D01*
X95124Y7115D01*
X95131Y7123D01*
X95204Y7210D01*
X95255Y7298D01*
X95292Y7385D01*
X95314Y7465D01*
X95328Y7538D01*
X95343Y7597D01*
Y7633D01*
Y7648D01*
X95335Y7757D01*
X95306Y7859D01*
X95277Y7946D01*
X95233Y8027D01*
X95197Y8085D01*
X95160Y8129D01*
X95139Y8158D01*
X95131Y8165D01*
X95051Y8238D01*
X94956Y8289D01*
X94869Y8326D01*
X94789Y8347D01*
X94708Y8369D01*
X94650Y8377D01*
D02*
G37*
G36*
X94635Y6430D02*
X94599D01*
X94461Y6423D01*
X94329Y6394D01*
X94220Y6350D01*
X94125Y6306D01*
X94052Y6255D01*
X93994Y6219D01*
X93965Y6190D01*
X93950Y6175D01*
X93863Y6073D01*
X93797Y5971D01*
X93753Y5861D01*
X93717Y5767D01*
X93702Y5679D01*
X93695Y5614D01*
X93688Y5563D01*
Y5555D01*
Y5548D01*
X93695Y5410D01*
X93724Y5286D01*
X93768Y5169D01*
X93812Y5082D01*
X93863Y5009D01*
X93899Y4950D01*
X93928Y4921D01*
X93943Y4907D01*
X94045Y4826D01*
X94154Y4761D01*
X94264Y4717D01*
X94366Y4688D01*
X94461Y4673D01*
X94533Y4666D01*
X94563Y4659D01*
X94599D01*
X94745Y4666D01*
X94876Y4695D01*
X94993Y4732D01*
X95087Y4783D01*
X95160Y4826D01*
X95219Y4863D01*
X95248Y4892D01*
X95262Y4899D01*
X95343Y5001D01*
X95408Y5103D01*
X95452Y5213D01*
X95481Y5315D01*
X95496Y5410D01*
X95503Y5482D01*
X95510Y5512D01*
Y5533D01*
Y5541D01*
Y5548D01*
X95496Y5686D01*
X95467Y5803D01*
X95430Y5912D01*
X95379Y6007D01*
X95335Y6080D01*
X95292Y6131D01*
X95262Y6160D01*
X95255Y6175D01*
X95153Y6262D01*
X95044Y6321D01*
X94934Y6364D01*
X94825Y6401D01*
X94738Y6415D01*
X94665Y6423D01*
X94635Y6430D01*
D02*
G37*
G36*
X114982Y8369D02*
X114945D01*
X114865Y8362D01*
X114792Y8347D01*
X114719Y8326D01*
X114654Y8289D01*
X114595Y8245D01*
X114537Y8194D01*
X114435Y8078D01*
X114348Y7932D01*
X114282Y7772D01*
X114224Y7604D01*
X114173Y7429D01*
X114136Y7247D01*
X114107Y7079D01*
X114093Y6919D01*
X114078Y6780D01*
X114071Y6656D01*
X114063Y6605D01*
Y6561D01*
Y6525D01*
Y6503D01*
Y6488D01*
Y6481D01*
Y6313D01*
X114071Y6160D01*
X114085Y6015D01*
X114100Y5883D01*
X114122Y5752D01*
X114144Y5635D01*
X114173Y5526D01*
X114202Y5431D01*
X114238Y5337D01*
X114268Y5249D01*
X114311Y5176D01*
X114348Y5103D01*
X114428Y4987D01*
X114508Y4885D01*
X114595Y4812D01*
X114676Y4753D01*
X114749Y4717D01*
X114822Y4688D01*
X114880Y4673D01*
X114924Y4666D01*
X114953Y4659D01*
X114960D01*
X115040Y4666D01*
X115120Y4681D01*
X115193Y4702D01*
X115259Y4739D01*
X115324Y4775D01*
X115383Y4826D01*
X115485Y4936D01*
X115572Y5074D01*
X115645Y5227D01*
X115711Y5388D01*
X115755Y5555D01*
X115798Y5723D01*
X115820Y5883D01*
X115842Y6036D01*
X115857Y6175D01*
X115864Y6284D01*
Y6335D01*
X115871Y6372D01*
Y6408D01*
Y6430D01*
Y6445D01*
Y6452D01*
Y6627D01*
X115864Y6787D01*
X115849Y6940D01*
X115835Y7086D01*
X115813Y7217D01*
X115784Y7341D01*
X115755Y7458D01*
X115726Y7560D01*
X115689Y7655D01*
X115660Y7750D01*
X115616Y7830D01*
X115580Y7903D01*
X115492Y8027D01*
X115405Y8129D01*
X115324Y8209D01*
X115237Y8267D01*
X115157Y8311D01*
X115091Y8340D01*
X115033Y8355D01*
X114982Y8369D01*
D02*
G37*
G36*
X132374Y16790D02*
X131718D01*
X131740Y16535D01*
X131762Y16287D01*
X131791Y16061D01*
X131820Y15850D01*
X131849Y15653D01*
X131878Y15471D01*
X131915Y15311D01*
X131944Y15165D01*
X131973Y15033D01*
X132002Y14924D01*
X132024Y14822D01*
X132046Y14742D01*
X132060Y14683D01*
X132075Y14640D01*
X132089Y14611D01*
Y14603D01*
X132192Y14939D01*
X132264Y15281D01*
X132330Y15624D01*
X132352Y15784D01*
X132367Y15937D01*
X132388Y16076D01*
X132396Y16207D01*
X132410Y16324D01*
X132418Y16426D01*
Y16506D01*
X132425Y16564D01*
Y16601D01*
Y16615D01*
X132403Y16681D01*
X132388Y16739D01*
X132374Y16776D01*
Y16783D01*
Y16790D01*
D02*
G37*
G36*
X112290Y17541D02*
X111554D01*
X111583Y17432D01*
X111612Y17315D01*
X111648Y17191D01*
X111685Y17053D01*
X111765Y16776D01*
X111838Y16506D01*
X111874Y16382D01*
X111911Y16265D01*
X111940Y16156D01*
X111969Y16061D01*
X111991Y15988D01*
X112006Y15930D01*
X112013Y15894D01*
X112020Y15879D01*
X111940Y15770D01*
X111867Y15660D01*
X111809Y15566D01*
X111750Y15464D01*
X111663Y15289D01*
X111597Y15143D01*
X111575Y15077D01*
X111554Y15019D01*
X111539Y14968D01*
X111524Y14931D01*
X111517Y14895D01*
X111510Y14873D01*
Y14859D01*
Y14851D01*
X111488Y14720D01*
X111481Y14603D01*
X111488Y14494D01*
X111495Y14406D01*
X111510Y14326D01*
X111532Y14261D01*
X111561Y14202D01*
X111590Y14151D01*
X111619Y14115D01*
X111648Y14086D01*
X111707Y14042D01*
X111750Y14027D01*
X111758Y14020D01*
X111765D01*
X111853Y14013D01*
X111940D01*
X112027Y14020D01*
X112115Y14035D01*
X112180Y14049D01*
X112239Y14057D01*
X112275Y14071D01*
X112290D01*
Y17541D01*
D02*
G37*
G36*
X140735Y15369D02*
X138782D01*
X138840Y15230D01*
X138906Y15092D01*
X138979Y14968D01*
X139051Y14844D01*
X139132Y14727D01*
X139219Y14625D01*
X139299Y14523D01*
X139380Y14436D01*
X139452Y14356D01*
X139525Y14283D01*
X139591Y14224D01*
X139649Y14173D01*
X139693Y14130D01*
X139729Y14100D01*
X139751Y14086D01*
X139759Y14078D01*
X140014Y14195D01*
X140269Y14304D01*
X140502Y14406D01*
X140612Y14450D01*
X140714Y14494D01*
X140808Y14538D01*
X140896Y14574D01*
X140969Y14603D01*
X141027Y14633D01*
X141078Y14654D01*
X141122Y14669D01*
X141144Y14683D01*
X141151D01*
X140998Y14931D01*
X140932Y15048D01*
X140867Y15150D01*
X140816Y15238D01*
X140772Y15311D01*
X140743Y15354D01*
X140735Y15361D01*
Y15369D01*
D02*
G37*
G36*
X121949Y15631D02*
X120090D01*
X120149Y15464D01*
X120221Y15311D01*
X120294Y15157D01*
X120367Y15012D01*
X120447Y14873D01*
X120535Y14749D01*
X120615Y14625D01*
X120695Y14516D01*
X120768Y14421D01*
X120841Y14334D01*
X120907Y14261D01*
X120965Y14195D01*
X121009Y14144D01*
X121045Y14108D01*
X121067Y14086D01*
X121074Y14078D01*
X121184Y14202D01*
X121286Y14326D01*
X121380Y14457D01*
X121468Y14589D01*
X121548Y14720D01*
X121621Y14851D01*
X121687Y14975D01*
X121738Y15092D01*
X121789Y15201D01*
X121833Y15311D01*
X121869Y15398D01*
X121898Y15478D01*
X121920Y15544D01*
X121934Y15587D01*
X121949Y15624D01*
Y15631D01*
D02*
G37*
%LPD*%
D52*
X242500Y13478D02*
D03*
X242000Y100000D02*
D03*
X17500Y100500D02*
D03*
X18500Y12500D02*
D03*
D53*
X12500Y54343D02*
D03*
Y34657D02*
D03*
X247000Y36524D02*
D03*
Y56209D02*
D03*
X97685Y99000D02*
D03*
X78000D02*
D03*
D54*
X48000Y87110D02*
D03*
D55*
Y100890D02*
D03*
D56*
X198500Y97500D02*
D03*
X217004D02*
D03*
X179996D02*
D03*
D57*
X132000Y95500D02*
D03*
D58*
Y105500D02*
D03*
X142000Y95500D02*
D03*
Y105500D02*
D03*
X152000Y95500D02*
D03*
Y105500D02*
D03*
M02*
