G04*
G04 #@! TF.GenerationSoftware,Altium Limited,Altium Designer,22.1.2 (22)*
G04*
G04 Layer_Color=8388736*
%FSLAX25Y25*%
%MOIN*%
G70*
G04*
G04 #@! TF.SameCoordinates,03C845ED-AF23-4815-B137-924D907A0311*
G04*
G04*
G04 #@! TF.FilePolarity,Negative*
G04*
G01*
G75*
%ADD10C,0.01000*%
%ADD33C,0.00709*%
%ADD34R,0.13600X0.17750*%
%ADD35R,0.04740X0.02760*%
%ADD36R,0.05800X0.04300*%
G04:AMPARAMS|DCode=37|XSize=58mil|YSize=43mil|CornerRadius=0mil|HoleSize=0mil|Usage=FLASHONLY|Rotation=0.000|XOffset=0mil|YOffset=0mil|HoleType=Round|Shape=Octagon|*
%AMOCTAGOND37*
4,1,8,0.02900,-0.01075,0.02900,0.01075,0.01825,0.02150,-0.01825,0.02150,-0.02900,0.01075,-0.02900,-0.01075,-0.01825,-0.02150,0.01825,-0.02150,0.02900,-0.01075,0.0*
%
%ADD37OCTAGOND37*%

%ADD38R,0.04800X0.03950*%
G04:AMPARAMS|DCode=39|XSize=63mil|YSize=58mil|CornerRadius=0mil|HoleSize=0mil|Usage=FLASHONLY|Rotation=0.000|XOffset=0mil|YOffset=0mil|HoleType=Round|Shape=Octagon|*
%AMOCTAGOND39*
4,1,8,0.03150,-0.01450,0.03150,0.01450,0.01700,0.02900,-0.01700,0.02900,-0.03150,0.01450,-0.03150,-0.01450,-0.01700,-0.02900,0.01700,-0.02900,0.03150,-0.01450,0.0*
%
%ADD39OCTAGOND39*%

%ADD40R,0.06300X0.05800*%
%ADD41R,0.04300X0.03800*%
%ADD42R,0.17750X0.13600*%
%ADD43R,0.02760X0.04740*%
%ADD44R,0.03950X0.01981*%
%ADD45R,0.01981X0.03950*%
%ADD46R,0.11036X0.11036*%
%ADD47R,0.03800X0.04300*%
G04:AMPARAMS|DCode=48|XSize=63mil|YSize=58mil|CornerRadius=0mil|HoleSize=0mil|Usage=FLASHONLY|Rotation=90.000|XOffset=0mil|YOffset=0mil|HoleType=Round|Shape=Octagon|*
%AMOCTAGOND48*
4,1,8,0.01450,0.03150,-0.01450,0.03150,-0.02900,0.01700,-0.02900,-0.01700,-0.01450,-0.03150,0.01450,-0.03150,0.02900,-0.01700,0.02900,0.01700,0.01450,0.03150,0.0*
%
%ADD48OCTAGOND48*%

%ADD49R,0.05800X0.06300*%
%ADD50R,0.05524X0.02060*%
%ADD51O,0.05524X0.02060*%
G04:AMPARAMS|DCode=52|XSize=244.22mil|YSize=165.48mil|CornerRadius=82.74mil|HoleSize=0mil|Usage=FLASHONLY|Rotation=180.000|XOffset=0mil|YOffset=0mil|HoleType=Round|Shape=RoundedRectangle|*
%AMROUNDEDRECTD52*
21,1,0.24422,0.00000,0,0,180.0*
21,1,0.07874,0.16548,0,0,180.0*
1,1,0.16548,-0.03937,0.00000*
1,1,0.16548,0.03937,0.00000*
1,1,0.16548,0.03937,0.00000*
1,1,0.16548,-0.03937,0.00000*
%
%ADD52ROUNDEDRECTD52*%
%ADD53C,0.12611*%
%ADD54R,0.07887X0.07887*%
%ADD55C,0.07887*%
%ADD56R,0.06706X0.09461*%
%ADD57R,0.06706X0.06706*%
%ADD58C,0.06706*%
G36*
X250445Y87138D02*
X250642D01*
Y87006D01*
X250664D01*
Y86853D01*
X250642D01*
Y86831D01*
X250620D01*
Y86809D01*
X250598D01*
Y86831D01*
X250248D01*
Y86853D01*
X250205D01*
Y86831D01*
X249898D01*
Y86853D01*
X249877D01*
Y86831D01*
X249789D01*
Y86853D01*
X249745D01*
Y86831D01*
X249330D01*
Y86809D01*
X249308D01*
Y86831D01*
X249067D01*
Y86809D01*
X249045D01*
Y86831D01*
X248477D01*
Y86809D01*
X248433D01*
Y86831D01*
X247623D01*
Y86853D01*
X247580D01*
Y86831D01*
X247470D01*
Y86809D01*
X247448D01*
Y86831D01*
X247339D01*
Y86853D01*
X247317D01*
Y86831D01*
X247164D01*
Y86853D01*
X247142D01*
Y86831D01*
X246727D01*
Y86853D01*
X246683D01*
Y86831D01*
X245808D01*
Y86853D01*
X245786D01*
Y86831D01*
X245130D01*
Y86809D01*
X245086D01*
Y86831D01*
X244955D01*
Y86853D01*
X244933D01*
Y86831D01*
X244670D01*
Y86809D01*
X244648D01*
Y86831D01*
X244583D01*
Y86809D01*
X244539D01*
Y86831D01*
X244473D01*
Y86853D01*
X244452D01*
Y86831D01*
X244145D01*
Y86787D01*
X244167D01*
Y86766D01*
X244145D01*
Y86744D01*
X244167D01*
Y86678D01*
X244145D01*
Y86525D01*
X243883D01*
Y86503D01*
X243839D01*
Y86219D01*
X243861D01*
Y86197D01*
X243839D01*
Y84972D01*
X243861D01*
Y84950D01*
X243839D01*
Y81756D01*
X243861D01*
Y81734D01*
X243839D01*
Y80903D01*
X243861D01*
Y80881D01*
X243839D01*
Y80706D01*
X243817D01*
Y80684D01*
X243839D01*
Y80597D01*
X243861D01*
Y80575D01*
X243839D01*
Y78803D01*
X243817D01*
Y78781D01*
X243620D01*
Y78759D01*
X243598D01*
Y78781D01*
X243533D01*
Y79394D01*
X243511D01*
Y79416D01*
X243533D01*
Y83331D01*
Y83353D01*
Y84075D01*
X243511D01*
Y84119D01*
X243533D01*
Y85541D01*
X243511D01*
Y85562D01*
X243533D01*
Y86503D01*
X243598D01*
Y86525D01*
X243839D01*
Y86547D01*
X243861D01*
Y86591D01*
X243839D01*
Y86809D01*
X243861D01*
Y86831D01*
X244123D01*
Y86853D01*
X244167D01*
Y86875D01*
X244145D01*
Y87072D01*
X244167D01*
Y87094D01*
X244145D01*
Y87116D01*
X244167D01*
Y87138D01*
X244277D01*
Y87159D01*
X244298D01*
Y87138D01*
X245589D01*
Y87159D01*
X245611D01*
Y87138D01*
X246114D01*
Y87159D01*
X246136D01*
Y87138D01*
X246267D01*
Y87159D01*
X246311D01*
Y87138D01*
X246377D01*
Y87159D01*
X246398D01*
Y87138D01*
X246464D01*
Y87159D01*
X246486D01*
Y87138D01*
X246792D01*
Y87159D01*
X246836D01*
Y87138D01*
X247602D01*
Y87159D01*
X247623D01*
Y87138D01*
X249264D01*
Y87159D01*
X249286D01*
Y87138D01*
X249461D01*
Y87159D01*
X249505D01*
Y87138D01*
X249745D01*
Y87159D01*
X249811D01*
Y87138D01*
X250161D01*
Y87159D01*
X250183D01*
Y87138D01*
X250292D01*
Y87159D01*
X250336D01*
Y87138D01*
X250423D01*
Y87159D01*
X250445D01*
Y87138D01*
D02*
G37*
G36*
X250970Y86809D02*
X250948D01*
Y86766D01*
X250970D01*
Y86700D01*
X250948D01*
Y86678D01*
X250970D01*
Y86547D01*
X250948D01*
Y86525D01*
X250686D01*
Y86547D01*
X250664D01*
Y86634D01*
X250642D01*
Y86678D01*
X250664D01*
Y86831D01*
X250970D01*
Y86809D01*
D02*
G37*
G36*
X251277Y85475D02*
X251298D01*
Y85453D01*
X251277D01*
Y78781D01*
X251255D01*
Y78759D01*
X251233D01*
Y78781D01*
X250970D01*
Y80006D01*
X250948D01*
Y80028D01*
X250970D01*
Y81362D01*
X250948D01*
Y81384D01*
X250970D01*
Y82281D01*
X250948D01*
Y82303D01*
X250970D01*
Y83484D01*
X250948D01*
Y83506D01*
X250970D01*
Y85191D01*
X250948D01*
Y85212D01*
X250970D01*
Y85366D01*
X250948D01*
Y85409D01*
X250970D01*
Y86525D01*
X251014D01*
Y86503D01*
X251036D01*
Y86525D01*
X251277D01*
Y85475D01*
D02*
G37*
G36*
X250030Y86000D02*
X250052D01*
Y85978D01*
X250030D01*
Y85891D01*
X250183D01*
Y85913D01*
X250314D01*
Y85891D01*
X250336D01*
Y85803D01*
X250358D01*
Y85738D01*
X250336D01*
Y85497D01*
X250358D01*
Y85409D01*
X250336D01*
Y85366D01*
X250358D01*
Y85234D01*
X250336D01*
Y85169D01*
X250358D01*
Y85103D01*
X250336D01*
Y84753D01*
X250358D01*
Y84709D01*
X250336D01*
Y84491D01*
X250358D01*
Y84469D01*
X250336D01*
Y84425D01*
X250358D01*
Y84294D01*
X250336D01*
Y84228D01*
X250358D01*
Y84206D01*
X250336D01*
Y83900D01*
X250358D01*
Y83878D01*
X250336D01*
Y83791D01*
X250358D01*
Y83747D01*
X250336D01*
Y83594D01*
X250358D01*
Y83572D01*
X250336D01*
Y83484D01*
X250358D01*
Y83463D01*
X250380D01*
Y83419D01*
X250358D01*
Y83397D01*
X250336D01*
Y83222D01*
X250358D01*
Y83178D01*
X250336D01*
Y83091D01*
X250358D01*
Y83069D01*
Y83047D01*
Y83003D01*
X250336D01*
Y82959D01*
X250358D01*
Y82872D01*
X250336D01*
Y82697D01*
X250358D01*
Y82675D01*
X250336D01*
Y82631D01*
X250358D01*
Y82434D01*
X250336D01*
Y82369D01*
X250358D01*
Y82303D01*
X250336D01*
Y82194D01*
X250358D01*
Y82041D01*
X250336D01*
Y81866D01*
X250270D01*
Y81888D01*
X250248D01*
Y81866D01*
X250161D01*
Y81888D01*
X250139D01*
Y81866D01*
X250095D01*
Y81888D01*
X250052D01*
Y81931D01*
X250030D01*
Y82041D01*
X250052D01*
Y82084D01*
X250030D01*
Y82128D01*
X250052D01*
Y82172D01*
X250030D01*
Y82281D01*
X250052D01*
Y82325D01*
X250030D01*
Y82478D01*
X250052D01*
Y82566D01*
X250030D01*
Y82609D01*
X250052D01*
Y82653D01*
X250030D01*
Y82697D01*
X250052D01*
Y82806D01*
X250030D01*
Y82828D01*
X250052D01*
Y82894D01*
X250030D01*
Y82938D01*
X250052D01*
Y83003D01*
X250030D01*
Y83156D01*
X250052D01*
Y83266D01*
X250030D01*
Y83419D01*
X250052D01*
Y83594D01*
X250030D01*
Y83659D01*
X250052D01*
Y83747D01*
X250030D01*
Y83900D01*
X250052D01*
Y83987D01*
X250030D01*
Y84075D01*
X250052D01*
Y84097D01*
X250030D01*
Y84119D01*
X250052D01*
Y84162D01*
X250030D01*
Y84250D01*
X250052D01*
Y84425D01*
X250030D01*
Y84447D01*
X250052D01*
Y84491D01*
X250030D01*
Y84600D01*
X250052D01*
Y84731D01*
X250030D01*
Y84753D01*
X250052D01*
Y84819D01*
X250030D01*
Y85081D01*
X250052D01*
Y85147D01*
X250030D01*
Y85256D01*
X250052D01*
Y85322D01*
X250030D01*
Y85366D01*
X250052D01*
Y85453D01*
X250030D01*
Y85650D01*
X250052D01*
Y85694D01*
X250030D01*
Y85891D01*
X249986D01*
Y85913D01*
X249920D01*
Y85891D01*
X249898D01*
Y85913D01*
X249855D01*
Y85891D01*
X249789D01*
Y85913D01*
X249767D01*
Y85891D01*
X249636D01*
Y85913D01*
X249330D01*
Y85891D01*
X249264D01*
Y85913D01*
X249067D01*
Y85891D01*
X249023D01*
Y85913D01*
X249002D01*
Y85891D01*
X248914D01*
Y85913D01*
X248848D01*
Y85891D01*
X248783D01*
Y85913D01*
X248717D01*
Y85891D01*
X248673D01*
Y85913D01*
X248542D01*
Y85891D01*
X248520D01*
Y85913D01*
X248498D01*
Y85891D01*
X248477D01*
Y85913D01*
X248105D01*
Y85891D01*
X247952D01*
Y85913D01*
X247470D01*
Y85891D01*
X247427D01*
Y85913D01*
X247405D01*
Y85891D01*
X247383D01*
Y85913D01*
X247033D01*
Y85891D01*
X246989D01*
Y85913D01*
X246945D01*
Y85891D01*
X246880D01*
Y85913D01*
X246770D01*
Y85891D01*
X246727D01*
Y85913D01*
X246661D01*
Y85891D01*
X246530D01*
Y85913D01*
X246486D01*
Y85891D01*
X246442D01*
Y85913D01*
X246355D01*
Y85891D01*
X246311D01*
Y85913D01*
X246245D01*
Y85891D01*
X246180D01*
Y85913D01*
X245873D01*
Y85891D01*
X245852D01*
Y85913D01*
X245786D01*
Y85891D01*
X245742D01*
Y85913D01*
X245677D01*
Y85891D01*
X245589D01*
Y85913D01*
X245567D01*
Y85891D01*
X245502D01*
Y85913D01*
X245283D01*
Y85891D01*
X245152D01*
Y85913D01*
X245086D01*
Y85891D01*
X245042D01*
Y85913D01*
X244758D01*
Y85934D01*
X244780D01*
Y86219D01*
X244889D01*
Y86197D01*
X244911D01*
Y86219D01*
X244977D01*
Y86197D01*
X244998D01*
Y86219D01*
X245086D01*
Y86197D01*
X245173D01*
Y86219D01*
X245195D01*
Y86197D01*
X245261D01*
Y86219D01*
X245305D01*
Y86197D01*
X245414D01*
Y86219D01*
X245480D01*
Y86197D01*
X245545D01*
Y86219D01*
X245567D01*
Y86197D01*
X245611D01*
Y86219D01*
X246136D01*
Y86197D01*
X246333D01*
Y86219D01*
X246377D01*
Y86197D01*
X246420D01*
Y86219D01*
X246486D01*
Y86197D01*
X246552D01*
Y86219D01*
X246705D01*
Y86197D01*
X246770D01*
Y86219D01*
X246858D01*
Y86197D01*
X246989D01*
Y86219D01*
X247120D01*
Y86197D01*
X247273D01*
Y86219D01*
X247317D01*
Y86197D01*
X247361D01*
Y86219D01*
X247470D01*
Y86197D01*
X247602D01*
Y86219D01*
X247733D01*
Y86197D01*
X247777D01*
Y86219D01*
X248039D01*
Y86197D01*
X248083D01*
Y86219D01*
X248323D01*
Y86197D01*
X248433D01*
Y86219D01*
X248630D01*
Y86197D01*
X248673D01*
Y86219D01*
X248761D01*
Y86197D01*
X248783D01*
Y86219D01*
X248892D01*
Y86197D01*
X248914D01*
Y86219D01*
X249002D01*
Y86197D01*
X249045D01*
Y86219D01*
X249461D01*
Y86197D01*
X249483D01*
Y86219D01*
X249570D01*
Y86197D01*
X249614D01*
Y86219D01*
X249833D01*
Y86197D01*
X249898D01*
Y86219D01*
X250030D01*
Y86000D01*
D02*
G37*
G36*
X248477Y84906D02*
X248498D01*
Y84841D01*
X248477D01*
Y84819D01*
X248498D01*
Y84731D01*
X248477D01*
Y84688D01*
X248498D01*
Y84578D01*
X248477D01*
Y84513D01*
X248498D01*
Y84403D01*
X248477D01*
Y84359D01*
X248170D01*
Y84928D01*
X248192D01*
Y84972D01*
X248302D01*
Y84994D01*
X248323D01*
Y84972D01*
X248455D01*
Y84994D01*
X248477D01*
Y84906D01*
D02*
G37*
G36*
X246311Y84884D02*
X246333D01*
Y84863D01*
X246311D01*
Y84819D01*
X246333D01*
Y84753D01*
X246311D01*
Y84709D01*
Y84688D01*
Y84534D01*
X246333D01*
Y84469D01*
X246311D01*
Y84447D01*
X246333D01*
Y84403D01*
X246311D01*
Y84359D01*
X246289D01*
Y84338D01*
X246245D01*
Y84359D01*
X246005D01*
Y84950D01*
X246027D01*
Y84972D01*
X246311D01*
Y84884D01*
D02*
G37*
G36*
X247558Y83419D02*
X247208D01*
Y83441D01*
X247186D01*
Y83419D01*
X247120D01*
Y83441D01*
X247098D01*
Y83419D01*
X247033D01*
Y83441D01*
X247011D01*
Y83419D01*
X246989D01*
Y83441D01*
X246923D01*
Y83463D01*
X246945D01*
Y83550D01*
X246923D01*
Y83594D01*
X246945D01*
Y83725D01*
X247186D01*
Y83747D01*
X247208D01*
Y83725D01*
X247230D01*
Y83747D01*
X247252D01*
Y83812D01*
X247230D01*
Y83834D01*
X247252D01*
Y84556D01*
X247230D01*
Y84600D01*
X247252D01*
Y84884D01*
X247230D01*
Y84928D01*
X247252D01*
Y84972D01*
X247558D01*
Y83419D01*
D02*
G37*
G36*
X248170Y82806D02*
X247864D01*
Y82894D01*
X247886D01*
Y82916D01*
X247864D01*
Y83113D01*
X248170D01*
Y82806D01*
D02*
G37*
G36*
X246617Y83091D02*
X246639D01*
Y82981D01*
X246617D01*
Y82938D01*
X246639D01*
Y82894D01*
X246617D01*
Y82828D01*
X246639D01*
Y82806D01*
X247186D01*
Y82784D01*
X247208D01*
Y82806D01*
X247864D01*
Y82500D01*
X247842D01*
Y82478D01*
X247798D01*
Y82500D01*
X247339D01*
Y82478D01*
X247317D01*
Y82500D01*
X246683D01*
Y82478D01*
X246661D01*
Y82500D01*
X246639D01*
Y82587D01*
X246617D01*
Y82631D01*
X246639D01*
Y82697D01*
X246617D01*
Y82784D01*
X246595D01*
Y82806D01*
X246377D01*
Y82784D01*
X246333D01*
Y82806D01*
X246311D01*
Y83003D01*
X246333D01*
Y83113D01*
X246617D01*
Y83091D01*
D02*
G37*
G36*
X244517Y85891D02*
X244758D01*
Y85869D01*
X244780D01*
Y85453D01*
X244758D01*
Y85409D01*
X244780D01*
Y85278D01*
X244758D01*
Y85147D01*
X244780D01*
Y85059D01*
X244758D01*
Y85016D01*
X244780D01*
Y84753D01*
X244758D01*
Y84731D01*
X244780D01*
Y84666D01*
X244758D01*
Y84600D01*
X244780D01*
Y84469D01*
X244758D01*
Y84425D01*
X244780D01*
Y84272D01*
X244758D01*
Y84228D01*
X244780D01*
Y84184D01*
X244758D01*
Y84141D01*
X244780D01*
Y84053D01*
X244758D01*
Y83987D01*
X244780D01*
Y83944D01*
X244758D01*
Y83922D01*
X244780D01*
Y83834D01*
X244758D01*
Y83791D01*
X244780D01*
Y83769D01*
X244758D01*
Y83725D01*
X244780D01*
Y83616D01*
X244758D01*
Y83594D01*
X244780D01*
Y83528D01*
X244758D01*
Y83463D01*
X244780D01*
Y83309D01*
X244758D01*
Y83222D01*
X244780D01*
Y83113D01*
X244758D01*
Y83025D01*
X244780D01*
Y82916D01*
X244758D01*
Y82850D01*
X244780D01*
Y82828D01*
X244758D01*
Y82806D01*
X244780D01*
Y82719D01*
X244758D01*
Y82697D01*
X244780D01*
Y82587D01*
X244758D01*
Y82544D01*
X244780D01*
Y82281D01*
X244758D01*
Y82216D01*
X244780D01*
Y82128D01*
X244758D01*
Y82106D01*
X244780D01*
Y82041D01*
X244758D01*
Y81997D01*
X244780D01*
Y81866D01*
X244802D01*
Y81888D01*
X244823D01*
Y81866D01*
X244933D01*
Y81888D01*
X244955D01*
Y81866D01*
X245195D01*
Y81888D01*
X245217D01*
Y81866D01*
X245261D01*
Y81888D01*
X245348D01*
Y81866D01*
X245392D01*
Y81888D01*
X245458D01*
Y81866D01*
X245545D01*
Y81888D01*
X245655D01*
Y81866D01*
X245698D01*
Y81888D01*
X245808D01*
Y81866D01*
X245939D01*
Y81888D01*
X246027D01*
Y81866D01*
X246070D01*
Y81888D01*
X246158D01*
Y81866D01*
X246245D01*
Y81888D01*
X246311D01*
Y81866D01*
X246377D01*
Y81888D01*
X246420D01*
Y81866D01*
X246486D01*
Y81888D01*
X246573D01*
Y81866D01*
X246595D01*
Y81888D01*
X246617D01*
Y81866D01*
X246639D01*
Y81888D01*
X246683D01*
Y81866D01*
X247011D01*
Y81888D01*
X247098D01*
Y81866D01*
X247317D01*
Y81888D01*
X247361D01*
Y81866D01*
X247448D01*
Y81888D01*
X247470D01*
Y81866D01*
X247536D01*
Y81888D01*
X247558D01*
Y81866D01*
X247711D01*
Y81888D01*
X247755D01*
Y81866D01*
X247798D01*
Y81888D01*
X247864D01*
Y81866D01*
X248039D01*
Y81888D01*
X248148D01*
Y81866D01*
X248214D01*
Y81888D01*
X248258D01*
Y81866D01*
X248564D01*
Y81888D01*
X248608D01*
Y81866D01*
X248673D01*
Y81888D01*
X248848D01*
Y81866D01*
X248936D01*
Y81888D01*
X249002D01*
Y81866D01*
X249155D01*
Y81888D01*
X249220D01*
Y81866D01*
X249330D01*
Y81888D01*
X249439D01*
Y81866D01*
X249483D01*
Y81888D01*
X249505D01*
Y81866D01*
X249548D01*
Y81888D01*
X249636D01*
Y81866D01*
X249658D01*
Y81888D01*
X249702D01*
Y81866D01*
X249877D01*
Y81888D01*
X249898D01*
Y81866D01*
X249942D01*
Y81888D01*
X249986D01*
Y81866D01*
X250030D01*
Y81734D01*
X250052D01*
Y81647D01*
X250030D01*
Y81559D01*
X245983D01*
Y81581D01*
X245961D01*
Y81559D01*
X245611D01*
Y81581D01*
X245589D01*
Y81559D01*
X244780D01*
Y81581D01*
X244758D01*
Y81647D01*
X244780D01*
Y81844D01*
X244758D01*
Y81866D01*
X244605D01*
Y81888D01*
X244473D01*
Y81931D01*
X244452D01*
Y81975D01*
X244473D01*
Y82019D01*
X244452D01*
Y82303D01*
X244473D01*
Y82325D01*
X244452D01*
Y82391D01*
X244473D01*
Y82631D01*
X244452D01*
Y82653D01*
X244473D01*
Y82719D01*
X244452D01*
Y82959D01*
X244473D01*
Y82981D01*
X244452D01*
Y83091D01*
X244473D01*
Y83244D01*
X244452D01*
Y83703D01*
X244473D01*
Y83834D01*
X244452D01*
Y83900D01*
X244473D01*
Y83944D01*
X244452D01*
Y84009D01*
X244473D01*
Y84162D01*
X244452D01*
Y84228D01*
X244473D01*
Y84294D01*
X244452D01*
Y84338D01*
X244473D01*
Y84381D01*
X244452D01*
Y84469D01*
X244473D01*
Y84513D01*
X244452D01*
Y84578D01*
X244473D01*
Y84600D01*
X244452D01*
Y84644D01*
X244473D01*
Y84688D01*
X244452D01*
Y84731D01*
X244473D01*
Y84753D01*
X244452D01*
Y84775D01*
X244473D01*
Y84863D01*
X244452D01*
Y84906D01*
X244473D01*
Y84972D01*
X244452D01*
Y84994D01*
X244473D01*
Y85037D01*
X244452D01*
Y85103D01*
X244473D01*
Y85147D01*
X244452D01*
Y85234D01*
X244473D01*
Y85344D01*
X244452D01*
Y85431D01*
X244473D01*
Y85475D01*
X244452D01*
Y85562D01*
X244473D01*
Y85694D01*
X244452D01*
Y85847D01*
X244473D01*
Y85913D01*
X244517D01*
Y85891D01*
D02*
G37*
G36*
X250030Y80028D02*
X250008D01*
Y80006D01*
X249964D01*
Y80028D01*
X249942D01*
Y80006D01*
X249877D01*
Y80028D01*
X249855D01*
Y80006D01*
X249811D01*
Y80028D01*
X249767D01*
Y80006D01*
X249702D01*
Y80028D01*
X249614D01*
Y80006D01*
X249461D01*
Y80028D01*
X249373D01*
Y80006D01*
X249286D01*
Y80028D01*
X249264D01*
Y80006D01*
X249002D01*
Y80028D01*
X248936D01*
Y80006D01*
X248870D01*
Y80028D01*
X248848D01*
Y80006D01*
X248717D01*
Y80028D01*
X248652D01*
Y80006D01*
X248608D01*
Y80028D01*
X248586D01*
Y80006D01*
X248477D01*
Y80028D01*
X248411D01*
Y80006D01*
X248192D01*
Y80028D01*
X248170D01*
Y80313D01*
X248345D01*
Y80334D01*
X248367D01*
Y80313D01*
X248695D01*
Y80334D01*
X248783D01*
Y80313D01*
X248848D01*
Y80334D01*
X248870D01*
Y80313D01*
X248980D01*
Y80334D01*
X249045D01*
Y80313D01*
X249177D01*
Y80334D01*
X249198D01*
Y80313D01*
X249286D01*
Y80334D01*
X249395D01*
Y80313D01*
X249439D01*
Y80334D01*
X249483D01*
Y80313D01*
X249592D01*
Y80334D01*
X249658D01*
Y80313D01*
X249723D01*
Y80334D01*
X249833D01*
Y80313D01*
X249920D01*
Y80334D01*
X250030D01*
Y80028D01*
D02*
G37*
G36*
X244998Y80006D02*
X245086D01*
Y79744D01*
X245064D01*
Y79700D01*
X244473D01*
Y79744D01*
X244452D01*
Y79897D01*
X244473D01*
Y79919D01*
X244452D01*
Y79962D01*
X244473D01*
Y80006D01*
X244605D01*
Y80028D01*
X244627D01*
Y80006D01*
X244648D01*
Y80028D01*
X244714D01*
Y80006D01*
X244977D01*
Y80028D01*
X244998D01*
Y80006D01*
D02*
G37*
G36*
X250927Y78759D02*
X250948D01*
Y78737D01*
X250970D01*
Y78541D01*
X250948D01*
Y78519D01*
X250970D01*
Y78169D01*
X250948D01*
Y78125D01*
X250970D01*
Y77906D01*
X250948D01*
Y77884D01*
X250970D01*
Y77556D01*
X250948D01*
Y77491D01*
X250970D01*
Y77228D01*
X249198D01*
Y77206D01*
X249177D01*
Y77228D01*
X246420D01*
Y77206D01*
X246398D01*
Y77228D01*
X245348D01*
Y77206D01*
X245327D01*
Y77228D01*
X245130D01*
Y77206D01*
X245086D01*
Y77228D01*
X243861D01*
Y77250D01*
X243839D01*
Y77425D01*
X243861D01*
Y77469D01*
X243839D01*
Y77556D01*
X243861D01*
Y77622D01*
X243839D01*
Y77884D01*
X243861D01*
Y77906D01*
X243839D01*
Y78081D01*
X243861D01*
Y78103D01*
X243839D01*
Y78169D01*
X243861D01*
Y78191D01*
X243839D01*
Y78737D01*
X243861D01*
Y78759D01*
X243905D01*
Y78781D01*
X243948D01*
Y78759D01*
X244014D01*
Y78781D01*
X244080D01*
Y78759D01*
X244255D01*
Y78781D01*
X244364D01*
Y78759D01*
X244408D01*
Y78781D01*
X244495D01*
Y78759D01*
X244583D01*
Y78781D01*
X244627D01*
Y78759D01*
X244648D01*
Y78781D01*
X244692D01*
Y78759D01*
X244758D01*
Y78781D01*
X244889D01*
Y78759D01*
X244911D01*
Y78781D01*
X245020D01*
Y78759D01*
X245064D01*
Y78781D01*
X245173D01*
Y78759D01*
X245195D01*
Y78781D01*
X245370D01*
Y78759D01*
X245589D01*
Y78781D01*
X245633D01*
Y78759D01*
X245698D01*
Y78781D01*
X245961D01*
Y78759D01*
X246005D01*
Y78781D01*
X246092D01*
Y78759D01*
X246136D01*
Y78781D01*
X246377D01*
Y78759D01*
X246420D01*
Y78781D01*
X246530D01*
Y78759D01*
X246573D01*
Y78781D01*
X246814D01*
Y78759D01*
X246923D01*
Y78781D01*
X246989D01*
Y78759D01*
X247033D01*
Y78781D01*
X247470D01*
Y78759D01*
X247536D01*
Y78781D01*
X247558D01*
Y78759D01*
X247602D01*
Y78781D01*
X247711D01*
Y78759D01*
X247733D01*
Y78781D01*
X247952D01*
Y78759D01*
X247973D01*
Y78781D01*
X248127D01*
Y78759D01*
X248148D01*
Y78781D01*
X248214D01*
Y78759D01*
X248236D01*
Y78781D01*
X248280D01*
Y78759D01*
X248302D01*
Y78781D01*
X248323D01*
Y78759D01*
X248367D01*
Y78781D01*
X248564D01*
Y78759D01*
X248630D01*
Y78781D01*
X248673D01*
Y78759D01*
X248761D01*
Y78781D01*
X248848D01*
Y78759D01*
X248892D01*
Y78781D01*
X248958D01*
Y78759D01*
X249133D01*
Y78781D01*
X249198D01*
Y78759D01*
X249242D01*
Y78781D01*
X249264D01*
Y78759D01*
X249330D01*
Y78781D01*
X249527D01*
Y78759D01*
X249570D01*
Y78781D01*
X250139D01*
Y78759D01*
X250183D01*
Y78781D01*
X250358D01*
Y78759D01*
X250423D01*
Y78781D01*
X250927D01*
Y78759D01*
D02*
G37*
G36*
X136160Y7844D02*
X136213Y7837D01*
X136265Y7818D01*
X136272D01*
X136278Y7811D01*
X136311Y7791D01*
X136351Y7765D01*
X136390Y7726D01*
X136403Y7719D01*
X136423Y7693D01*
X136455Y7654D01*
X136482Y7601D01*
X136488Y7588D01*
X136501Y7555D01*
X136508Y7503D01*
X136514Y7444D01*
Y7437D01*
Y7430D01*
X136508Y7391D01*
X136501Y7339D01*
X136482Y7286D01*
X136475Y7273D01*
X136455Y7240D01*
X136429Y7201D01*
X136390Y7155D01*
X136383Y7148D01*
X136357Y7122D01*
X136318Y7096D01*
X136265Y7070D01*
X136252Y7063D01*
X136219Y7057D01*
X136167Y7050D01*
X136108Y7044D01*
X136095D01*
X136055Y7050D01*
X136003Y7057D01*
X135950Y7070D01*
X135937Y7076D01*
X135904Y7096D01*
X135865Y7122D01*
X135819Y7155D01*
X135813Y7168D01*
X135786Y7194D01*
X135760Y7234D01*
X135734Y7286D01*
Y7293D01*
X135727Y7299D01*
X135721Y7332D01*
X135714Y7385D01*
X135708Y7444D01*
Y7450D01*
Y7457D01*
X135714Y7496D01*
X135721Y7549D01*
X135734Y7601D01*
Y7608D01*
X135740Y7614D01*
X135760Y7647D01*
X135786Y7686D01*
X135819Y7726D01*
X135832Y7739D01*
X135859Y7758D01*
X135898Y7791D01*
X135950Y7818D01*
X135957D01*
X135963Y7824D01*
X135996Y7837D01*
X136049Y7844D01*
X136108Y7850D01*
X136121D01*
X136160Y7844D01*
D02*
G37*
G36*
X122857D02*
X122909Y7837D01*
X122961Y7818D01*
X122968D01*
X122975Y7811D01*
X123007Y7791D01*
X123047Y7765D01*
X123086Y7726D01*
X123099Y7719D01*
X123119Y7693D01*
X123152Y7654D01*
X123178Y7601D01*
X123185Y7588D01*
X123198Y7555D01*
X123204Y7503D01*
X123211Y7444D01*
Y7437D01*
Y7430D01*
X123204Y7391D01*
X123198Y7339D01*
X123178Y7286D01*
X123171Y7273D01*
X123152Y7240D01*
X123126Y7201D01*
X123086Y7155D01*
X123080Y7148D01*
X123053Y7122D01*
X123014Y7096D01*
X122961Y7070D01*
X122948Y7063D01*
X122916Y7057D01*
X122863Y7050D01*
X122804Y7044D01*
X122791D01*
X122752Y7050D01*
X122699Y7057D01*
X122647Y7070D01*
X122634Y7076D01*
X122601Y7096D01*
X122561Y7122D01*
X122515Y7155D01*
X122509Y7168D01*
X122483Y7194D01*
X122456Y7234D01*
X122430Y7286D01*
Y7293D01*
X122424Y7299D01*
X122417Y7332D01*
X122411Y7385D01*
X122404Y7444D01*
Y7450D01*
Y7457D01*
X122411Y7496D01*
X122417Y7549D01*
X122430Y7601D01*
Y7608D01*
X122437Y7614D01*
X122456Y7647D01*
X122483Y7686D01*
X122515Y7726D01*
X122529Y7739D01*
X122555Y7758D01*
X122594Y7791D01*
X122647Y7818D01*
X122653D01*
X122660Y7824D01*
X122693Y7837D01*
X122745Y7844D01*
X122804Y7850D01*
X122817D01*
X122857Y7844D01*
D02*
G37*
G36*
X126478Y6656D02*
X126511D01*
X126556Y6650D01*
X126661Y6630D01*
X126773Y6597D01*
X126884Y6545D01*
X126996Y6479D01*
X127094Y6387D01*
X127107Y6374D01*
X127134Y6335D01*
X127166Y6276D01*
X127212Y6184D01*
X127258Y6073D01*
X127291Y5928D01*
X127317Y5764D01*
X127331Y5574D01*
Y3645D01*
X126819D01*
Y5535D01*
Y5541D01*
Y5548D01*
Y5567D01*
Y5594D01*
X126812Y5653D01*
X126806Y5731D01*
X126786Y5810D01*
X126766Y5895D01*
X126734Y5981D01*
X126688Y6046D01*
X126681Y6053D01*
X126661Y6073D01*
X126635Y6099D01*
X126589Y6132D01*
X126537Y6165D01*
X126471Y6191D01*
X126392Y6210D01*
X126301Y6217D01*
X126268D01*
X126242Y6210D01*
X126176Y6204D01*
X126110Y6184D01*
X126104D01*
X126097Y6178D01*
X126058Y6165D01*
X125999Y6132D01*
X125927Y6086D01*
X125920D01*
X125907Y6073D01*
X125887Y6059D01*
X125861Y6040D01*
X125795Y5981D01*
X125710Y5902D01*
X125704Y5895D01*
X125690Y5882D01*
X125671Y5856D01*
X125638Y5823D01*
X125599Y5777D01*
X125559Y5725D01*
X125513Y5672D01*
X125461Y5607D01*
Y3645D01*
X124949D01*
Y6611D01*
X125402D01*
X125422Y6132D01*
X125428Y6138D01*
X125441Y6158D01*
X125467Y6184D01*
X125500Y6217D01*
X125585Y6302D01*
X125671Y6381D01*
X125677Y6387D01*
X125690Y6401D01*
X125717Y6420D01*
X125750Y6440D01*
X125822Y6493D01*
X125907Y6545D01*
X125914D01*
X125927Y6558D01*
X125953Y6565D01*
X125979Y6584D01*
X126058Y6611D01*
X126143Y6637D01*
X126150D01*
X126163Y6643D01*
X126189D01*
X126222Y6650D01*
X126307Y6656D01*
X126399Y6663D01*
X126445D01*
X126478Y6656D01*
D02*
G37*
G36*
X139742D02*
X139808D01*
X139959Y6643D01*
X139965D01*
X139998Y6637D01*
X140037D01*
X140096Y6630D01*
X140162Y6617D01*
X140234Y6611D01*
X140319Y6591D01*
X140405Y6578D01*
Y6118D01*
X140391D01*
X140365Y6132D01*
X140319Y6138D01*
X140254Y6151D01*
X140188Y6165D01*
X140109Y6178D01*
X139945Y6204D01*
X139939D01*
X139906Y6210D01*
X139867Y6217D01*
X139814Y6224D01*
X139755D01*
X139696Y6230D01*
X139565Y6237D01*
X139499D01*
X139453Y6230D01*
X139348Y6224D01*
X139243Y6204D01*
X139237D01*
X139224Y6197D01*
X139198Y6191D01*
X139165Y6184D01*
X139099Y6151D01*
X139027Y6118D01*
X139014Y6112D01*
X138981Y6086D01*
X138948Y6046D01*
X138915Y6001D01*
X138909Y5987D01*
X138902Y5954D01*
X138889Y5909D01*
X138883Y5850D01*
Y5843D01*
Y5836D01*
X138889Y5804D01*
X138896Y5758D01*
X138909Y5705D01*
X138915Y5692D01*
X138935Y5666D01*
X138974Y5627D01*
X139027Y5581D01*
X139033D01*
X139040Y5567D01*
X139060Y5561D01*
X139086Y5541D01*
X139125Y5522D01*
X139165Y5502D01*
X139211Y5482D01*
X139263Y5456D01*
X139270D01*
X139289Y5443D01*
X139322Y5436D01*
X139368Y5417D01*
X139427Y5397D01*
X139493Y5377D01*
X139565Y5358D01*
X139650Y5331D01*
X139663Y5325D01*
X139696Y5318D01*
X139742Y5305D01*
X139808Y5279D01*
X139880Y5259D01*
X139952Y5226D01*
X140024Y5200D01*
X140096Y5167D01*
X140103Y5161D01*
X140129Y5154D01*
X140155Y5135D01*
X140201Y5115D01*
X140293Y5049D01*
X140385Y4977D01*
X140391Y4971D01*
X140405Y4957D01*
X140424Y4938D01*
X140451Y4911D01*
X140503Y4839D01*
X140529Y4793D01*
X140549Y4747D01*
Y4741D01*
X140555Y4728D01*
X140569Y4695D01*
X140575Y4662D01*
X140588Y4616D01*
X140595Y4570D01*
X140601Y4452D01*
Y4446D01*
Y4426D01*
Y4393D01*
X140595Y4360D01*
X140575Y4269D01*
X140542Y4170D01*
Y4164D01*
X140536Y4151D01*
X140523Y4124D01*
X140503Y4098D01*
X140457Y4026D01*
X140398Y3947D01*
X140391Y3941D01*
X140385Y3934D01*
X140365Y3914D01*
X140339Y3895D01*
X140267Y3842D01*
X140182Y3783D01*
X140175D01*
X140162Y3770D01*
X140136Y3763D01*
X140103Y3744D01*
X140024Y3711D01*
X139926Y3678D01*
X139919D01*
X139906Y3672D01*
X139873Y3665D01*
X139840Y3659D01*
X139801Y3645D01*
X139749Y3639D01*
X139644Y3619D01*
X139637D01*
X139617Y3613D01*
X139591D01*
X139552Y3606D01*
X139467Y3599D01*
X139362Y3593D01*
X139250D01*
X139178Y3599D01*
X139093D01*
X139001Y3606D01*
X138804Y3619D01*
X138791D01*
X138765Y3626D01*
X138712Y3632D01*
X138653Y3639D01*
X138574Y3652D01*
X138496Y3665D01*
X138319Y3704D01*
Y4177D01*
X138332D01*
X138364Y4164D01*
X138410Y4151D01*
X138476Y4131D01*
X138555Y4111D01*
X138640Y4092D01*
X138830Y4059D01*
X138843D01*
X138876Y4052D01*
X138922Y4046D01*
X138988D01*
X139066Y4039D01*
X139152Y4033D01*
X139342Y4026D01*
X139401D01*
X139467Y4033D01*
X139545Y4039D01*
X139637Y4052D01*
X139729Y4065D01*
X139814Y4092D01*
X139886Y4124D01*
X139893Y4131D01*
X139913Y4144D01*
X139945Y4164D01*
X139978Y4197D01*
X140011Y4236D01*
X140044Y4288D01*
X140063Y4347D01*
X140070Y4413D01*
Y4420D01*
Y4426D01*
X140063Y4459D01*
X140057Y4505D01*
X140037Y4551D01*
X140031Y4564D01*
X140017Y4590D01*
X139985Y4629D01*
X139932Y4675D01*
X139919Y4688D01*
X139899Y4695D01*
X139880Y4715D01*
X139847Y4728D01*
X139808Y4747D01*
X139755Y4774D01*
X139703Y4793D01*
X139696D01*
X139676Y4807D01*
X139644Y4820D01*
X139591Y4839D01*
X139532Y4859D01*
X139460Y4885D01*
X139381Y4911D01*
X139283Y4938D01*
X139276D01*
X139250Y4951D01*
X139211Y4957D01*
X139165Y4977D01*
X139106Y4997D01*
X139047Y5017D01*
X138915Y5069D01*
X138909Y5076D01*
X138889Y5082D01*
X138856Y5102D01*
X138817Y5121D01*
X138719Y5174D01*
X138620Y5246D01*
X138614Y5253D01*
X138601Y5266D01*
X138574Y5285D01*
X138548Y5318D01*
X138482Y5390D01*
X138423Y5489D01*
Y5495D01*
X138410Y5515D01*
X138404Y5541D01*
X138391Y5581D01*
X138377Y5627D01*
X138371Y5686D01*
X138358Y5751D01*
Y5817D01*
Y5823D01*
Y5836D01*
Y5863D01*
X138364Y5895D01*
X138371Y5935D01*
X138377Y5981D01*
X138410Y6086D01*
Y6092D01*
X138423Y6112D01*
X138437Y6138D01*
X138456Y6178D01*
X138482Y6217D01*
X138515Y6263D01*
X138561Y6315D01*
X138607Y6361D01*
X138614Y6368D01*
X138633Y6381D01*
X138666Y6407D01*
X138706Y6440D01*
X138758Y6473D01*
X138824Y6506D01*
X138896Y6545D01*
X138981Y6578D01*
X138994Y6584D01*
X139027Y6591D01*
X139073Y6604D01*
X139145Y6624D01*
X139230Y6637D01*
X139329Y6650D01*
X139447Y6656D01*
X139571Y6663D01*
X139690D01*
X139742Y6656D01*
D02*
G37*
G36*
X110032D02*
X110065D01*
X110110Y6650D01*
X110215Y6624D01*
X110327Y6591D01*
X110439Y6538D01*
X110550Y6460D01*
X110602Y6414D01*
X110648Y6361D01*
X110661Y6348D01*
X110668Y6329D01*
X110688Y6309D01*
X110701Y6276D01*
X110721Y6237D01*
X110747Y6191D01*
X110766Y6138D01*
X110786Y6079D01*
X110806Y6020D01*
X110826Y5948D01*
X110845Y5869D01*
X110858Y5777D01*
X110865Y5686D01*
X110871Y5587D01*
Y5482D01*
X110353D01*
Y5489D01*
Y5502D01*
Y5522D01*
Y5548D01*
X110347Y5613D01*
X110340Y5692D01*
X110327Y5784D01*
X110307Y5876D01*
X110275Y5968D01*
X110235Y6040D01*
X110229Y6046D01*
X110215Y6066D01*
X110183Y6099D01*
X110143Y6132D01*
X110091Y6158D01*
X110032Y6191D01*
X109960Y6210D01*
X109874Y6217D01*
X109835D01*
X109815Y6210D01*
X109750Y6204D01*
X109671Y6178D01*
X109664D01*
X109651Y6171D01*
X109632Y6165D01*
X109605Y6151D01*
X109533Y6112D01*
X109455Y6059D01*
X109448Y6053D01*
X109435Y6046D01*
X109415Y6027D01*
X109382Y6007D01*
X109310Y5935D01*
X109218Y5850D01*
X109212Y5843D01*
X109199Y5830D01*
X109172Y5804D01*
X109140Y5764D01*
X109100Y5718D01*
X109054Y5672D01*
X109008Y5613D01*
X108956Y5548D01*
Y3645D01*
X108438D01*
Y6611D01*
X108903D01*
X108917Y6059D01*
Y6066D01*
X108930Y6073D01*
X108963Y6112D01*
X109015Y6165D01*
X109081Y6237D01*
X109159Y6309D01*
X109245Y6387D01*
X109336Y6460D01*
X109435Y6519D01*
X109448Y6525D01*
X109481Y6538D01*
X109527Y6565D01*
X109599Y6591D01*
X109671Y6617D01*
X109763Y6643D01*
X109855Y6656D01*
X109953Y6663D01*
X109999D01*
X110032Y6656D01*
D02*
G37*
G36*
X159619Y4780D02*
X159166D01*
X159081Y7818D01*
X159704D01*
X159619Y4780D01*
D02*
G37*
G36*
X156293D02*
X155840D01*
X155755Y7818D01*
X156378D01*
X156293Y4780D01*
D02*
G37*
G36*
X129554Y6656D02*
X129627Y6643D01*
X129646D01*
X129685Y6637D01*
X129745Y6624D01*
X129804Y6611D01*
X130879D01*
Y6191D01*
X130401D01*
X130407Y6184D01*
X130414Y6171D01*
X130433Y6151D01*
X130447Y6118D01*
X130492Y6046D01*
X130532Y5948D01*
Y5941D01*
X130538Y5922D01*
X130545Y5895D01*
X130558Y5863D01*
X130565Y5817D01*
X130571Y5764D01*
X130578Y5653D01*
Y5640D01*
Y5613D01*
X130571Y5567D01*
X130565Y5515D01*
X130558Y5449D01*
X130545Y5377D01*
X130519Y5305D01*
X130492Y5233D01*
X130486Y5226D01*
X130479Y5200D01*
X130460Y5167D01*
X130433Y5121D01*
X130394Y5069D01*
X130355Y5017D01*
X130309Y4957D01*
X130250Y4905D01*
X130243Y4898D01*
X130223Y4885D01*
X130191Y4859D01*
X130145Y4826D01*
X130092Y4793D01*
X130033Y4761D01*
X129961Y4728D01*
X129882Y4695D01*
X129876D01*
X129843Y4682D01*
X129804Y4675D01*
X129745Y4662D01*
X129679Y4649D01*
X129600Y4636D01*
X129508Y4629D01*
X129417Y4623D01*
X129351D01*
X129305Y4629D01*
X129253D01*
X129193Y4642D01*
X129069Y4662D01*
X129062D01*
X129043Y4669D01*
X129010Y4675D01*
X128977Y4688D01*
X128892Y4721D01*
X128852Y4741D01*
X128813Y4761D01*
Y4754D01*
X128806Y4747D01*
X128780Y4708D01*
X128754Y4656D01*
X128721Y4603D01*
X128715Y4590D01*
X128708Y4557D01*
X128695Y4505D01*
X128688Y4439D01*
Y4433D01*
Y4420D01*
X128695Y4400D01*
X128701Y4374D01*
X128715Y4341D01*
X128734Y4308D01*
X128761Y4275D01*
X128793Y4249D01*
X128800D01*
X128813Y4236D01*
X128839Y4223D01*
X128866Y4210D01*
X128911Y4197D01*
X128957Y4183D01*
X129010Y4177D01*
X129075Y4170D01*
X129856Y4137D01*
X129935D01*
X129994Y4131D01*
X130053Y4124D01*
X130125Y4118D01*
X130263Y4085D01*
X130269D01*
X130296Y4078D01*
X130328Y4065D01*
X130374Y4046D01*
X130479Y4000D01*
X130584Y3934D01*
X130591Y3928D01*
X130604Y3921D01*
X130630Y3895D01*
X130663Y3869D01*
X130729Y3796D01*
X130794Y3704D01*
X130801Y3698D01*
X130807Y3678D01*
X130820Y3652D01*
X130833Y3619D01*
X130847Y3573D01*
X130860Y3514D01*
X130873Y3455D01*
Y3390D01*
Y3383D01*
Y3357D01*
X130866Y3317D01*
X130860Y3272D01*
X130853Y3212D01*
X130833Y3147D01*
X130814Y3081D01*
X130781Y3016D01*
X130774Y3009D01*
X130768Y2989D01*
X130742Y2950D01*
X130715Y2911D01*
X130683Y2865D01*
X130637Y2812D01*
X130584Y2760D01*
X130519Y2707D01*
X130512Y2701D01*
X130486Y2688D01*
X130447Y2661D01*
X130394Y2629D01*
X130328Y2596D01*
X130256Y2557D01*
X130164Y2524D01*
X130066Y2491D01*
X130053Y2484D01*
X130020Y2478D01*
X129961Y2465D01*
X129882Y2451D01*
X129784Y2432D01*
X129679Y2419D01*
X129554Y2412D01*
X129417Y2406D01*
X129358D01*
X129292Y2412D01*
X129207D01*
X129108Y2419D01*
X129003Y2432D01*
X128898Y2445D01*
X128800Y2465D01*
X128787D01*
X128761Y2478D01*
X128715Y2491D01*
X128656Y2510D01*
X128590Y2530D01*
X128518Y2557D01*
X128452Y2589D01*
X128387Y2629D01*
X128380Y2635D01*
X128360Y2648D01*
X128334Y2668D01*
X128295Y2694D01*
X128255Y2734D01*
X128216Y2773D01*
X128183Y2819D01*
X128150Y2871D01*
Y2878D01*
X128137Y2898D01*
X128131Y2924D01*
X128118Y2963D01*
X128105Y3009D01*
X128091Y3062D01*
X128085Y3121D01*
X128078Y3180D01*
Y3186D01*
Y3212D01*
X128085Y3252D01*
X128091Y3304D01*
X128105Y3363D01*
X128118Y3429D01*
X128144Y3488D01*
X128177Y3554D01*
X128183Y3560D01*
X128196Y3580D01*
X128216Y3613D01*
X128255Y3652D01*
X128295Y3698D01*
X128347Y3750D01*
X128413Y3803D01*
X128485Y3862D01*
X128472Y3869D01*
X128439Y3888D01*
X128400Y3914D01*
X128354Y3947D01*
X128347Y3960D01*
X128321Y3986D01*
X128295Y4019D01*
X128262Y4065D01*
X128255Y4078D01*
X128242Y4105D01*
X128229Y4151D01*
X128209Y4203D01*
Y4210D01*
Y4216D01*
X128203Y4249D01*
X128196Y4295D01*
Y4341D01*
Y4347D01*
Y4374D01*
X128203Y4406D01*
X128209Y4459D01*
X128216Y4511D01*
X128236Y4570D01*
X128255Y4629D01*
X128282Y4688D01*
X128288Y4695D01*
X128301Y4715D01*
X128314Y4747D01*
X128341Y4787D01*
X128374Y4833D01*
X128406Y4885D01*
X128492Y4997D01*
X128485Y5010D01*
X128459Y5036D01*
X128426Y5082D01*
X128393Y5128D01*
X128387Y5141D01*
X128367Y5167D01*
X128347Y5213D01*
X128321Y5266D01*
Y5272D01*
X128314Y5279D01*
X128301Y5318D01*
X128288Y5371D01*
X128275Y5430D01*
Y5436D01*
Y5443D01*
X128269Y5463D01*
Y5489D01*
X128262Y5548D01*
Y5627D01*
Y5640D01*
Y5666D01*
X128269Y5712D01*
X128275Y5764D01*
X128282Y5830D01*
X128295Y5902D01*
X128314Y5974D01*
X128341Y6046D01*
X128347Y6053D01*
X128354Y6079D01*
X128374Y6112D01*
X128400Y6158D01*
X128439Y6210D01*
X128479Y6263D01*
X128524Y6322D01*
X128577Y6374D01*
X128583Y6381D01*
X128603Y6394D01*
X128636Y6420D01*
X128682Y6453D01*
X128734Y6486D01*
X128793Y6519D01*
X128866Y6551D01*
X128944Y6584D01*
X128957Y6591D01*
X128984Y6597D01*
X129030Y6611D01*
X129082Y6624D01*
X129154Y6637D01*
X129233Y6650D01*
X129325Y6663D01*
X129482D01*
X129554Y6656D01*
D02*
G37*
G36*
X113272Y3960D02*
Y3954D01*
X113266Y3941D01*
X113259Y3921D01*
X113246Y3895D01*
X113213Y3816D01*
X113174Y3724D01*
X113121Y3619D01*
X113069Y3501D01*
X113010Y3383D01*
X112944Y3272D01*
X112938Y3258D01*
X112918Y3226D01*
X112885Y3167D01*
X112839Y3101D01*
X112787Y3022D01*
X112721Y2943D01*
X112656Y2865D01*
X112584Y2786D01*
X112577Y2780D01*
X112551Y2753D01*
X112511Y2720D01*
X112459Y2681D01*
X112393Y2635D01*
X112321Y2589D01*
X112236Y2550D01*
X112151Y2510D01*
X112137Y2504D01*
X112111Y2497D01*
X112059Y2484D01*
X111993Y2465D01*
X111915Y2445D01*
X111829Y2432D01*
X111724Y2425D01*
X111619Y2419D01*
X111527D01*
X111475Y2425D01*
X111396D01*
X111344Y2432D01*
Y2898D01*
X111357D01*
X111383Y2891D01*
X111429D01*
X111481Y2884D01*
X111495D01*
X111534Y2878D01*
X111586Y2871D01*
X111698D01*
X111731Y2878D01*
X111823Y2891D01*
X111915Y2917D01*
X111921D01*
X111934Y2924D01*
X111960Y2937D01*
X111993Y2950D01*
X112065Y2989D01*
X112144Y3049D01*
X112151Y3055D01*
X112164Y3068D01*
X112183Y3088D01*
X112210Y3114D01*
X112242Y3147D01*
X112282Y3193D01*
X112354Y3291D01*
X112361Y3298D01*
X112374Y3317D01*
X112393Y3350D01*
X112420Y3390D01*
X112446Y3442D01*
X112479Y3508D01*
X112518Y3573D01*
X112551Y3645D01*
X111370Y6611D01*
X111954D01*
X112702Y4642D01*
X112853Y4183D01*
X113023Y4656D01*
X113718Y6611D01*
X114283D01*
X113272Y3960D01*
D02*
G37*
G36*
X103137Y3645D02*
X102547D01*
X101386Y6611D01*
X101970D01*
X102698Y4642D01*
X102855Y4164D01*
X103019Y4656D01*
X103741Y6611D01*
X104305D01*
X103137Y3645D01*
D02*
G37*
G36*
X152134Y5253D02*
X153465Y6611D01*
X154148D01*
X152757Y5240D01*
X154227Y3645D01*
X153518D01*
X152134Y5233D01*
Y3645D01*
X151622D01*
Y7818D01*
X152134D01*
Y5253D01*
D02*
G37*
G36*
X148808D02*
X150140Y6611D01*
X150822D01*
X149431Y5240D01*
X150901Y3645D01*
X150192D01*
X148808Y5233D01*
Y3645D01*
X148296D01*
Y7818D01*
X148808D01*
Y5253D01*
D02*
G37*
G36*
X136449Y4072D02*
X137335D01*
Y3645D01*
X134960D01*
Y4072D01*
X135931D01*
Y6184D01*
X135058D01*
Y6611D01*
X136449D01*
Y4072D01*
D02*
G37*
G36*
X123145D02*
X124031D01*
Y3645D01*
X121656D01*
Y4072D01*
X122627D01*
Y6184D01*
X121755D01*
Y6611D01*
X123145D01*
Y4072D01*
D02*
G37*
G36*
X118809Y6604D02*
X118789Y6138D01*
X118796Y6145D01*
X118809Y6165D01*
X118835Y6191D01*
X118861Y6224D01*
X118940Y6302D01*
X119026Y6381D01*
X119032Y6387D01*
X119045Y6401D01*
X119071Y6420D01*
X119098Y6440D01*
X119170Y6493D01*
X119255Y6545D01*
X119262D01*
X119275Y6558D01*
X119301Y6565D01*
X119327Y6578D01*
X119406Y6604D01*
X119491Y6630D01*
X119498D01*
X119511Y6637D01*
X119537Y6643D01*
X119570Y6650D01*
X119655Y6656D01*
X119747Y6663D01*
X119793D01*
X119819Y6656D01*
X119859D01*
X119898Y6650D01*
X120003Y6630D01*
X120115Y6597D01*
X120226Y6545D01*
X120337Y6479D01*
X120436Y6387D01*
X120449Y6374D01*
X120475Y6335D01*
X120515Y6276D01*
X120561Y6184D01*
X120600Y6073D01*
X120639Y5928D01*
X120666Y5764D01*
X120679Y5574D01*
Y3645D01*
X120167D01*
Y5535D01*
Y5541D01*
Y5548D01*
Y5594D01*
X120160Y5653D01*
X120154Y5725D01*
X120134Y5810D01*
X120115Y5895D01*
X120082Y5974D01*
X120036Y6046D01*
X120029Y6053D01*
X120010Y6073D01*
X119983Y6099D01*
X119944Y6132D01*
X119891Y6165D01*
X119826Y6191D01*
X119754Y6210D01*
X119668Y6217D01*
X119629D01*
X119603Y6210D01*
X119544Y6204D01*
X119472Y6184D01*
X119465D01*
X119458Y6178D01*
X119439Y6171D01*
X119413Y6165D01*
X119353Y6132D01*
X119281Y6086D01*
X119275D01*
X119268Y6073D01*
X119249Y6059D01*
X119222Y6040D01*
X119157Y5981D01*
X119071Y5902D01*
X119065Y5895D01*
X119052Y5882D01*
X119026Y5856D01*
X118999Y5823D01*
X118960Y5777D01*
X118914Y5725D01*
X118861Y5672D01*
X118809Y5607D01*
Y3645D01*
X118297D01*
Y7818D01*
X118809D01*
Y6604D01*
D02*
G37*
G36*
X116021Y6611D02*
X117359D01*
Y6178D01*
X116021D01*
Y4669D01*
Y4662D01*
Y4656D01*
Y4616D01*
X116028Y4564D01*
X116041Y4492D01*
X116060Y4413D01*
X116093Y4334D01*
X116133Y4262D01*
X116192Y4197D01*
X116198Y4190D01*
X116224Y4170D01*
X116264Y4144D01*
X116316Y4118D01*
X116388Y4092D01*
X116474Y4065D01*
X116572Y4046D01*
X116690Y4039D01*
X116782D01*
X116828Y4046D01*
X116887D01*
X117005Y4059D01*
X117012D01*
X117038Y4065D01*
X117071D01*
X117117Y4078D01*
X117169Y4085D01*
X117228Y4098D01*
X117359Y4131D01*
Y3685D01*
X117353D01*
X117326Y3678D01*
X117294Y3672D01*
X117248Y3665D01*
X117189Y3652D01*
X117130Y3645D01*
X116992Y3626D01*
X116959D01*
X116926Y3619D01*
X116874D01*
X116821Y3613D01*
X116756D01*
X116618Y3606D01*
X116566D01*
X116526Y3613D01*
X116480D01*
X116428Y3619D01*
X116303Y3639D01*
X116172Y3665D01*
X116034Y3711D01*
X115903Y3770D01*
X115837Y3809D01*
X115785Y3855D01*
X115772Y3869D01*
X115739Y3901D01*
X115700Y3960D01*
X115647Y4046D01*
X115595Y4157D01*
X115555Y4288D01*
X115523Y4446D01*
X115509Y4629D01*
Y6178D01*
X114683D01*
Y6611D01*
X115509D01*
Y7424D01*
X116021Y7562D01*
Y6611D01*
D02*
G37*
G36*
X159442Y4367D02*
X159488Y4360D01*
X159540Y4341D01*
X159547D01*
X159553Y4334D01*
X159586Y4321D01*
X159625Y4288D01*
X159665Y4256D01*
X159671Y4249D01*
X159697Y4223D01*
X159724Y4183D01*
X159750Y4131D01*
X159757Y4118D01*
X159770Y4085D01*
X159776Y4039D01*
X159783Y3980D01*
Y3973D01*
Y3967D01*
X159776Y3928D01*
X159770Y3875D01*
X159750Y3822D01*
X159743Y3809D01*
X159730Y3783D01*
X159697Y3744D01*
X159665Y3704D01*
X159658Y3698D01*
X159632Y3678D01*
X159593Y3652D01*
X159540Y3626D01*
X159527Y3619D01*
X159494Y3613D01*
X159448Y3599D01*
X159389Y3593D01*
X159376D01*
X159343Y3599D01*
X159291Y3606D01*
X159238Y3626D01*
X159225Y3632D01*
X159199Y3645D01*
X159153Y3672D01*
X159114Y3704D01*
X159107Y3711D01*
X159081Y3737D01*
X159055Y3777D01*
X159028Y3822D01*
Y3829D01*
X159022Y3836D01*
X159015Y3869D01*
X159009Y3921D01*
X159002Y3980D01*
Y3986D01*
Y3993D01*
X159009Y4026D01*
X159015Y4078D01*
X159028Y4131D01*
Y4137D01*
X159035Y4144D01*
X159055Y4177D01*
X159081Y4216D01*
X159114Y4256D01*
X159120Y4262D01*
X159146Y4288D01*
X159186Y4315D01*
X159238Y4341D01*
X159245D01*
X159251Y4347D01*
X159284Y4360D01*
X159330Y4367D01*
X159389Y4374D01*
X159402D01*
X159442Y4367D01*
D02*
G37*
G36*
X156116D02*
X156162Y4360D01*
X156214Y4341D01*
X156221D01*
X156227Y4334D01*
X156260Y4321D01*
X156299Y4288D01*
X156339Y4256D01*
X156345Y4249D01*
X156372Y4223D01*
X156398Y4183D01*
X156424Y4131D01*
X156431Y4118D01*
X156444Y4085D01*
X156450Y4039D01*
X156457Y3980D01*
Y3973D01*
Y3967D01*
X156450Y3928D01*
X156444Y3875D01*
X156424Y3822D01*
X156418Y3809D01*
X156404Y3783D01*
X156372Y3744D01*
X156339Y3704D01*
X156332Y3698D01*
X156306Y3678D01*
X156267Y3652D01*
X156214Y3626D01*
X156201Y3619D01*
X156168Y3613D01*
X156122Y3599D01*
X156063Y3593D01*
X156050D01*
X156017Y3599D01*
X155965Y3606D01*
X155912Y3626D01*
X155899Y3632D01*
X155873Y3645D01*
X155827Y3672D01*
X155788Y3704D01*
X155781Y3711D01*
X155755Y3737D01*
X155729Y3777D01*
X155702Y3822D01*
Y3829D01*
X155696Y3836D01*
X155689Y3869D01*
X155683Y3921D01*
X155676Y3980D01*
Y3986D01*
Y3993D01*
X155683Y4026D01*
X155689Y4078D01*
X155702Y4131D01*
Y4137D01*
X155709Y4144D01*
X155729Y4177D01*
X155755Y4216D01*
X155788Y4256D01*
X155794Y4262D01*
X155821Y4288D01*
X155860Y4315D01*
X155912Y4341D01*
X155919D01*
X155926Y4347D01*
X155958Y4360D01*
X156004Y4367D01*
X156063Y4374D01*
X156076D01*
X156116Y4367D01*
D02*
G37*
G36*
X146236Y6656D02*
X146309Y6650D01*
X146400Y6637D01*
X146492Y6617D01*
X146591Y6591D01*
X146689Y6558D01*
X146702Y6551D01*
X146735Y6538D01*
X146781Y6519D01*
X146840Y6486D01*
X146906Y6447D01*
X146978Y6394D01*
X147050Y6335D01*
X147115Y6269D01*
X147122Y6263D01*
X147142Y6237D01*
X147175Y6197D01*
X147214Y6138D01*
X147260Y6073D01*
X147306Y5987D01*
X147345Y5895D01*
X147384Y5797D01*
X147391Y5784D01*
X147397Y5745D01*
X147417Y5686D01*
X147437Y5613D01*
X147450Y5515D01*
X147470Y5404D01*
X147476Y5279D01*
X147483Y5148D01*
Y5141D01*
Y5135D01*
Y5115D01*
Y5089D01*
X147476Y5023D01*
X147470Y4938D01*
X147457Y4839D01*
X147443Y4734D01*
X147417Y4623D01*
X147384Y4511D01*
X147378Y4498D01*
X147365Y4465D01*
X147345Y4413D01*
X147312Y4347D01*
X147273Y4269D01*
X147227Y4183D01*
X147168Y4098D01*
X147102Y4019D01*
X147096Y4013D01*
X147070Y3986D01*
X147030Y3947D01*
X146978Y3901D01*
X146912Y3855D01*
X146840Y3803D01*
X146748Y3750D01*
X146656Y3704D01*
X146643Y3698D01*
X146610Y3685D01*
X146558Y3672D01*
X146486Y3652D01*
X146394Y3626D01*
X146295Y3613D01*
X146184Y3599D01*
X146059Y3593D01*
X146007D01*
X145941Y3599D01*
X145869Y3606D01*
X145777Y3619D01*
X145679Y3632D01*
X145580Y3659D01*
X145482Y3691D01*
X145469Y3698D01*
X145443Y3711D01*
X145397Y3731D01*
X145338Y3763D01*
X145265Y3803D01*
X145200Y3855D01*
X145128Y3914D01*
X145056Y3980D01*
X145049Y3986D01*
X145029Y4013D01*
X144997Y4052D01*
X144957Y4111D01*
X144918Y4177D01*
X144872Y4262D01*
X144833Y4354D01*
X144793Y4452D01*
Y4459D01*
X144787Y4465D01*
X144780Y4505D01*
X144767Y4564D01*
X144747Y4642D01*
X144728Y4741D01*
X144714Y4853D01*
X144708Y4977D01*
X144701Y5108D01*
Y5115D01*
Y5121D01*
Y5141D01*
Y5167D01*
X144708Y5233D01*
X144714Y5312D01*
X144721Y5410D01*
X144741Y5515D01*
X144760Y5627D01*
X144793Y5731D01*
Y5738D01*
X144800Y5745D01*
X144813Y5777D01*
X144833Y5836D01*
X144865Y5902D01*
X144905Y5981D01*
X144957Y6059D01*
X145010Y6145D01*
X145075Y6224D01*
X145082Y6230D01*
X145108Y6256D01*
X145147Y6296D01*
X145200Y6342D01*
X145265Y6394D01*
X145344Y6447D01*
X145430Y6499D01*
X145521Y6545D01*
X145535Y6551D01*
X145567Y6565D01*
X145620Y6584D01*
X145692Y6604D01*
X145784Y6624D01*
X145882Y6643D01*
X145994Y6656D01*
X146118Y6663D01*
X146171D01*
X146236Y6656D01*
D02*
G37*
G36*
X106325D02*
X106397Y6650D01*
X106483Y6637D01*
X106575Y6624D01*
X106667Y6597D01*
X106758Y6565D01*
X106771Y6558D01*
X106798Y6545D01*
X106844Y6525D01*
X106903Y6493D01*
X106962Y6453D01*
X107034Y6407D01*
X107099Y6348D01*
X107165Y6283D01*
X107172Y6276D01*
X107191Y6250D01*
X107224Y6210D01*
X107257Y6165D01*
X107296Y6099D01*
X107342Y6027D01*
X107381Y5941D01*
X107414Y5850D01*
X107421Y5836D01*
X107427Y5804D01*
X107441Y5751D01*
X107460Y5686D01*
X107473Y5600D01*
X107486Y5508D01*
X107493Y5404D01*
X107500Y5285D01*
Y5279D01*
Y5266D01*
Y5246D01*
Y5220D01*
Y5161D01*
X107493Y5095D01*
Y5082D01*
Y5049D01*
Y5010D01*
X107486Y4964D01*
X105407D01*
Y4957D01*
Y4944D01*
Y4918D01*
X105413Y4892D01*
Y4853D01*
X105420Y4807D01*
X105440Y4702D01*
X105466Y4590D01*
X105512Y4472D01*
X105571Y4360D01*
X105656Y4262D01*
X105669Y4249D01*
X105702Y4223D01*
X105761Y4183D01*
X105847Y4144D01*
X105951Y4098D01*
X106076Y4059D01*
X106220Y4033D01*
X106391Y4019D01*
X106555D01*
X106647Y4026D01*
X106667D01*
X106693Y4033D01*
X106726D01*
X106811Y4046D01*
X106896Y4052D01*
X106903D01*
X106916Y4059D01*
X106942D01*
X106975Y4065D01*
X107047Y4078D01*
X107132Y4092D01*
X107139D01*
X107152Y4098D01*
X107172Y4105D01*
X107198Y4111D01*
X107270Y4124D01*
X107342Y4144D01*
Y3724D01*
X107336D01*
X107303Y3718D01*
X107263Y3704D01*
X107204Y3691D01*
X107132Y3678D01*
X107053Y3659D01*
X106962Y3645D01*
X106863Y3632D01*
X106850D01*
X106817Y3626D01*
X106765Y3619D01*
X106699Y3613D01*
X106614Y3606D01*
X106522Y3599D01*
X106424Y3593D01*
X106253D01*
X106181Y3599D01*
X106096Y3606D01*
X105991Y3619D01*
X105879Y3632D01*
X105768Y3659D01*
X105663Y3691D01*
X105650Y3698D01*
X105617Y3711D01*
X105564Y3737D01*
X105505Y3770D01*
X105433Y3809D01*
X105354Y3862D01*
X105282Y3921D01*
X105210Y3993D01*
X105204Y4000D01*
X105184Y4026D01*
X105151Y4072D01*
X105112Y4124D01*
X105066Y4197D01*
X105026Y4275D01*
X104981Y4374D01*
X104948Y4472D01*
Y4479D01*
Y4485D01*
X104935Y4524D01*
X104921Y4583D01*
X104908Y4662D01*
X104895Y4761D01*
X104882Y4866D01*
X104876Y4990D01*
X104869Y5121D01*
Y5128D01*
Y5135D01*
Y5174D01*
X104876Y5233D01*
X104882Y5312D01*
X104889Y5397D01*
X104908Y5495D01*
X104928Y5600D01*
X104954Y5705D01*
Y5712D01*
X104961Y5718D01*
X104974Y5751D01*
X104994Y5804D01*
X105020Y5876D01*
X105059Y5948D01*
X105105Y6033D01*
X105158Y6118D01*
X105217Y6197D01*
X105223Y6204D01*
X105250Y6230D01*
X105289Y6269D01*
X105335Y6322D01*
X105400Y6374D01*
X105473Y6433D01*
X105551Y6486D01*
X105643Y6538D01*
X105656Y6545D01*
X105689Y6558D01*
X105742Y6578D01*
X105807Y6604D01*
X105892Y6624D01*
X105991Y6643D01*
X106096Y6656D01*
X106214Y6663D01*
X106266D01*
X106325Y6656D01*
D02*
G37*
G36*
X99673D02*
X99746Y6650D01*
X99831Y6637D01*
X99923Y6624D01*
X100015Y6597D01*
X100107Y6565D01*
X100120Y6558D01*
X100146Y6545D01*
X100192Y6525D01*
X100251Y6493D01*
X100310Y6453D01*
X100382Y6407D01*
X100448Y6348D01*
X100513Y6283D01*
X100520Y6276D01*
X100539Y6250D01*
X100572Y6210D01*
X100605Y6165D01*
X100644Y6099D01*
X100690Y6027D01*
X100730Y5941D01*
X100762Y5850D01*
X100769Y5836D01*
X100776Y5804D01*
X100789Y5751D01*
X100808Y5686D01*
X100821Y5600D01*
X100835Y5508D01*
X100841Y5404D01*
X100848Y5285D01*
Y5279D01*
Y5266D01*
Y5246D01*
Y5220D01*
Y5161D01*
X100841Y5095D01*
Y5082D01*
Y5049D01*
Y5010D01*
X100835Y4964D01*
X98755D01*
Y4957D01*
Y4944D01*
Y4918D01*
X98762Y4892D01*
Y4853D01*
X98768Y4807D01*
X98788Y4702D01*
X98814Y4590D01*
X98860Y4472D01*
X98919Y4360D01*
X99004Y4262D01*
X99018Y4249D01*
X99050Y4223D01*
X99109Y4183D01*
X99195Y4144D01*
X99300Y4098D01*
X99424Y4059D01*
X99569Y4033D01*
X99739Y4019D01*
X99903D01*
X99995Y4026D01*
X100015D01*
X100041Y4033D01*
X100074D01*
X100159Y4046D01*
X100244Y4052D01*
X100251D01*
X100264Y4059D01*
X100290D01*
X100323Y4065D01*
X100395Y4078D01*
X100480Y4092D01*
X100487D01*
X100500Y4098D01*
X100520Y4105D01*
X100546Y4111D01*
X100618Y4124D01*
X100690Y4144D01*
Y3724D01*
X100684D01*
X100651Y3718D01*
X100612Y3704D01*
X100553Y3691D01*
X100480Y3678D01*
X100402Y3659D01*
X100310Y3645D01*
X100211Y3632D01*
X100198D01*
X100165Y3626D01*
X100113Y3619D01*
X100047Y3613D01*
X99962Y3606D01*
X99870Y3599D01*
X99772Y3593D01*
X99601D01*
X99529Y3599D01*
X99444Y3606D01*
X99339Y3619D01*
X99227Y3632D01*
X99116Y3659D01*
X99011Y3691D01*
X98998Y3698D01*
X98965Y3711D01*
X98913Y3737D01*
X98853Y3770D01*
X98781Y3809D01*
X98703Y3862D01*
X98630Y3921D01*
X98558Y3993D01*
X98552Y4000D01*
X98532Y4026D01*
X98499Y4072D01*
X98460Y4124D01*
X98414Y4197D01*
X98375Y4275D01*
X98329Y4374D01*
X98296Y4472D01*
Y4479D01*
Y4485D01*
X98283Y4524D01*
X98270Y4583D01*
X98257Y4662D01*
X98243Y4761D01*
X98230Y4866D01*
X98224Y4990D01*
X98217Y5121D01*
Y5128D01*
Y5135D01*
Y5174D01*
X98224Y5233D01*
X98230Y5312D01*
X98237Y5397D01*
X98257Y5495D01*
X98276Y5600D01*
X98303Y5705D01*
Y5712D01*
X98309Y5718D01*
X98322Y5751D01*
X98342Y5804D01*
X98368Y5876D01*
X98407Y5948D01*
X98453Y6033D01*
X98506Y6118D01*
X98565Y6197D01*
X98571Y6204D01*
X98598Y6230D01*
X98637Y6269D01*
X98683Y6322D01*
X98749Y6374D01*
X98821Y6433D01*
X98899Y6486D01*
X98991Y6538D01*
X99004Y6545D01*
X99037Y6558D01*
X99090Y6578D01*
X99155Y6604D01*
X99241Y6624D01*
X99339Y6643D01*
X99444Y6656D01*
X99562Y6663D01*
X99615D01*
X99673Y6656D01*
D02*
G37*
G36*
X3582Y74989D02*
X3588Y74972D01*
X3604Y74950D01*
X3627Y74922D01*
X3654Y74884D01*
X3682Y74839D01*
X3754Y74734D01*
X3838Y74612D01*
X3921Y74484D01*
X4010Y74351D01*
X4093Y74223D01*
X4087Y74217D01*
X4065Y74201D01*
X4026Y74179D01*
X3982Y74145D01*
X3921Y74101D01*
X3849Y74057D01*
X3765Y74001D01*
X3671Y73940D01*
Y73946D01*
X3660Y73957D01*
X3654Y73979D01*
X3638Y74012D01*
X3621Y74051D01*
X3599Y74095D01*
X3571Y74145D01*
X3543Y74201D01*
X3477Y74323D01*
X3393Y74456D01*
X3305Y74595D01*
X3205Y74739D01*
X3216Y74745D01*
X3238Y74761D01*
X3283Y74784D01*
X3333Y74817D01*
X3388Y74850D01*
X3449Y74895D01*
X3577Y74994D01*
X3582Y74989D01*
D02*
G37*
G36*
X11163Y74895D02*
X11169Y74884D01*
X11180Y74856D01*
X11191Y74828D01*
X11208Y74789D01*
X11225Y74745D01*
X11241Y74689D01*
X11264Y74634D01*
X11313Y74501D01*
X11363Y74345D01*
X11413Y74184D01*
X11469Y74012D01*
X11458Y74007D01*
X11430Y74001D01*
X11391Y73984D01*
X11330Y73968D01*
X11264Y73940D01*
X11186Y73912D01*
X11097Y73884D01*
X11003Y73851D01*
Y73857D01*
X10997Y73873D01*
X10992Y73901D01*
X10980Y73935D01*
X10969Y73979D01*
X10958Y74034D01*
X10942Y74090D01*
X10925Y74156D01*
X10886Y74295D01*
X10842Y74440D01*
X10797Y74595D01*
X10742Y74739D01*
X10747Y74745D01*
X10769Y74750D01*
X10808Y74767D01*
X10858Y74784D01*
X10919Y74806D01*
X10992Y74834D01*
X11075Y74867D01*
X11163Y74900D01*
Y74895D01*
D02*
G37*
G36*
X9626Y74756D02*
X9632Y74745D01*
X9648Y74728D01*
X9671Y74700D01*
X9693Y74667D01*
X9726Y74628D01*
X9759Y74584D01*
X9793Y74534D01*
X9882Y74412D01*
X9976Y74278D01*
X10076Y74129D01*
X10181Y73968D01*
X10170Y73962D01*
X10148Y73951D01*
X10109Y73935D01*
X10059Y73907D01*
X9998Y73873D01*
X9926Y73829D01*
X9843Y73773D01*
X9759Y73707D01*
X9754Y73712D01*
X9748Y73729D01*
X9732Y73757D01*
X9709Y73790D01*
X9687Y73829D01*
X9659Y73879D01*
X9587Y73990D01*
X9510Y74112D01*
X9421Y74240D01*
X9332Y74367D01*
X9243Y74478D01*
X9621Y74761D01*
X9626Y74756D01*
D02*
G37*
G36*
X12673Y74922D02*
X12701Y74906D01*
X12751Y74872D01*
X12817Y74839D01*
X12895Y74795D01*
X12990Y74750D01*
X13089Y74695D01*
X13200Y74645D01*
X13189Y74634D01*
X13167Y74606D01*
X13128Y74556D01*
X13078Y74495D01*
X13017Y74423D01*
X12956Y74345D01*
X12895Y74256D01*
X12834Y74162D01*
X12829Y74151D01*
X12806Y74118D01*
X12779Y74068D01*
X12740Y74007D01*
X12690Y73929D01*
X12640Y73840D01*
X12584Y73740D01*
X12523Y73640D01*
X13833D01*
Y73629D01*
X13827Y73601D01*
Y73551D01*
X13822Y73485D01*
X13816Y73407D01*
Y73324D01*
X13811Y73224D01*
Y73124D01*
Y73119D01*
Y73113D01*
Y73080D01*
Y73024D01*
X13816Y72963D01*
Y72891D01*
X13822Y72819D01*
X13827Y72747D01*
X13833Y72680D01*
X13389D01*
Y73285D01*
X9221D01*
Y72586D01*
X8777D01*
Y72597D01*
X8783Y72625D01*
Y72675D01*
X8788Y72736D01*
X8794Y72813D01*
Y72902D01*
X8799Y72996D01*
Y73102D01*
Y73107D01*
Y73113D01*
Y73130D01*
Y73152D01*
Y73207D01*
Y73280D01*
X8794Y73363D01*
X8788Y73457D01*
X8783Y73551D01*
X8777Y73640D01*
X12057D01*
X12063Y73651D01*
X12079Y73679D01*
X12101Y73724D01*
X12135Y73785D01*
X12174Y73857D01*
X12224Y73940D01*
X12279Y74034D01*
X12335Y74140D01*
Y74145D01*
X12340Y74151D01*
X12351Y74173D01*
X12362Y74195D01*
X12379Y74223D01*
X12396Y74256D01*
X12418Y74301D01*
X12440Y74351D01*
X12462Y74401D01*
X12490Y74462D01*
X12546Y74595D01*
X12601Y74750D01*
X12662Y74928D01*
X12673Y74922D01*
D02*
G37*
G36*
X7489Y74661D02*
Y74650D01*
Y74628D01*
X7484Y74600D01*
Y74567D01*
Y74523D01*
X7478Y74473D01*
Y74417D01*
Y74356D01*
X7473Y74290D01*
Y74134D01*
X7467Y73968D01*
Y73779D01*
Y72491D01*
Y72486D01*
Y72475D01*
Y72447D01*
Y72419D01*
Y72380D01*
Y72336D01*
Y72281D01*
X7473Y72225D01*
Y72097D01*
X7478Y71948D01*
X7484Y71792D01*
X7489Y71626D01*
X7045D01*
Y74295D01*
X5380D01*
Y71603D01*
X4936D01*
Y71609D01*
Y71620D01*
Y71642D01*
X4942Y71670D01*
Y71709D01*
Y71753D01*
X4947Y71803D01*
Y71859D01*
X4953Y71986D01*
Y72136D01*
X4959Y72297D01*
Y72469D01*
Y73757D01*
Y73762D01*
Y73779D01*
Y73807D01*
Y73840D01*
Y73884D01*
Y73935D01*
Y73990D01*
Y74057D01*
X4953Y74195D01*
X4947Y74345D01*
X4942Y74506D01*
X4936Y74667D01*
X7489D01*
Y74661D01*
D02*
G37*
G36*
X4215Y72436D02*
X4220Y72425D01*
X4237Y72403D01*
X4259Y72375D01*
X4282Y72336D01*
X4309Y72297D01*
X4343Y72247D01*
X4376Y72197D01*
X4454Y72081D01*
X4537Y71948D01*
X4620Y71814D01*
X4703Y71670D01*
X4698Y71665D01*
X4670Y71653D01*
X4631Y71631D01*
X4587Y71598D01*
X4526Y71559D01*
X4465Y71515D01*
X4398Y71459D01*
X4326Y71393D01*
Y71398D01*
X4315Y71409D01*
X4304Y71431D01*
X4287Y71465D01*
X4270Y71504D01*
X4248Y71542D01*
X4220Y71592D01*
X4193Y71648D01*
X4126Y71770D01*
X4048Y71903D01*
X3971Y72042D01*
X3882Y72186D01*
X3887Y72192D01*
X3910Y72208D01*
X3943Y72231D01*
X3987Y72264D01*
X4037Y72297D01*
X4093Y72342D01*
X4209Y72442D01*
X4215Y72436D01*
D02*
G37*
G36*
X18684Y73468D02*
X18689Y73457D01*
X18700Y73429D01*
X18717Y73402D01*
X18739Y73363D01*
X18767Y73313D01*
X18795Y73263D01*
X18828Y73202D01*
X18861Y73135D01*
X18900Y73063D01*
X18983Y72908D01*
X19078Y72736D01*
X19172Y72553D01*
X19267Y72364D01*
X19366Y72175D01*
X19461Y71981D01*
X19550Y71798D01*
X19633Y71620D01*
X19705Y71454D01*
X19760Y71309D01*
X19783Y71243D01*
X19805Y71182D01*
X19794D01*
X19766Y71171D01*
X19722Y71159D01*
X19661Y71137D01*
X19589Y71109D01*
X19511Y71071D01*
X19428Y71026D01*
X19339Y70971D01*
Y70976D01*
X19333Y70982D01*
X19328Y70999D01*
X19322Y71015D01*
X19300Y71071D01*
X19272Y71148D01*
X19233Y71243D01*
X19189Y71354D01*
X19133Y71481D01*
X19072Y71631D01*
X19000Y71787D01*
X18917Y71959D01*
X18828Y72147D01*
X18734Y72342D01*
X18628Y72547D01*
X18512Y72763D01*
X18390Y72991D01*
X18257Y73219D01*
X18268Y73224D01*
X18290Y73235D01*
X18329Y73257D01*
X18379Y73285D01*
X18445Y73318D01*
X18512Y73363D01*
X18595Y73413D01*
X18678Y73474D01*
X18684Y73468D01*
D02*
G37*
G36*
X12945Y72641D02*
X12939Y72614D01*
Y72564D01*
X12934Y72497D01*
X12928Y72419D01*
Y72325D01*
X12923Y72225D01*
Y72114D01*
Y71481D01*
Y71476D01*
Y71470D01*
Y71454D01*
Y71437D01*
Y71381D01*
X12928Y71309D01*
Y71215D01*
X12934Y71109D01*
X12939Y70987D01*
X12945Y70854D01*
X12501D01*
Y72303D01*
X10042D01*
Y70782D01*
X9598D01*
Y70788D01*
Y70799D01*
Y70815D01*
X9604Y70837D01*
Y70865D01*
Y70904D01*
X9610Y70982D01*
X9615Y71082D01*
Y71187D01*
X9621Y71298D01*
Y71415D01*
Y72048D01*
Y72053D01*
Y72064D01*
Y72075D01*
Y72097D01*
Y72158D01*
Y72236D01*
X9615Y72330D01*
X9610Y72430D01*
X9604Y72541D01*
X9598Y72652D01*
X12945D01*
Y72641D01*
D02*
G37*
G36*
X15720Y73446D02*
X15737Y73440D01*
X15759Y73429D01*
X15809Y73407D01*
X15881Y73379D01*
X15964Y73346D01*
X16053Y73318D01*
X16148Y73296D01*
X16247Y73285D01*
Y73280D01*
X16236Y73257D01*
X16225Y73224D01*
X16208Y73180D01*
X16192Y73124D01*
X16164Y73063D01*
X16136Y72985D01*
X16109Y72897D01*
X16070Y72802D01*
X16036Y72702D01*
X15992Y72591D01*
X15948Y72475D01*
X15903Y72347D01*
X15853Y72220D01*
X15753Y71942D01*
X15748Y71931D01*
X15742Y71909D01*
X15726Y71870D01*
X15703Y71820D01*
X15681Y71753D01*
X15653Y71681D01*
X15620Y71603D01*
X15587Y71515D01*
X15509Y71332D01*
X15426Y71143D01*
X15382Y71048D01*
X15343Y70960D01*
X15298Y70882D01*
X15259Y70804D01*
X15248Y70815D01*
X15221Y70832D01*
X15171Y70865D01*
X15110Y70904D01*
X15037Y70943D01*
X14954Y70982D01*
X14865Y71015D01*
X14771Y71037D01*
X14777Y71043D01*
X14788Y71071D01*
X14810Y71109D01*
X14838Y71159D01*
X14871Y71220D01*
X14910Y71298D01*
X14954Y71381D01*
X14999Y71476D01*
X15049Y71576D01*
X15104Y71687D01*
X15154Y71803D01*
X15210Y71925D01*
X15309Y72175D01*
X15404Y72430D01*
X15409Y72436D01*
X15415Y72464D01*
X15426Y72497D01*
X15443Y72541D01*
X15459Y72602D01*
X15482Y72669D01*
X15504Y72741D01*
X15531Y72819D01*
X15581Y72985D01*
X15631Y73152D01*
X15676Y73313D01*
X15692Y73385D01*
X15709Y73452D01*
X15714D01*
X15720Y73446D01*
D02*
G37*
G36*
X28868Y74639D02*
X28857Y74612D01*
X28846Y74578D01*
X28835Y74528D01*
X28818Y74473D01*
X28796Y74406D01*
X28774Y74329D01*
X28746Y74251D01*
X28696Y74079D01*
X28640Y73907D01*
X28585Y73746D01*
X28557Y73668D01*
X28535Y73601D01*
Y73596D01*
X28530Y73585D01*
X28524Y73568D01*
X28513Y73540D01*
X28502Y73507D01*
X28491Y73474D01*
X28474Y73429D01*
X28457Y73379D01*
X28418Y73263D01*
X28368Y73130D01*
X28319Y72980D01*
X28258Y72819D01*
X28263Y72813D01*
X28274Y72797D01*
X28291Y72769D01*
X28313Y72736D01*
X28341Y72697D01*
X28374Y72647D01*
X28407Y72591D01*
X28446Y72530D01*
X28524Y72403D01*
X28602Y72269D01*
X28668Y72136D01*
X28724Y72009D01*
Y72003D01*
X28729Y71992D01*
X28735Y71975D01*
X28740Y71953D01*
X28757Y71892D01*
X28779Y71814D01*
X28796Y71720D01*
X28813Y71620D01*
X28818Y71509D01*
Y71398D01*
Y71393D01*
Y71387D01*
X28813Y71370D01*
Y71348D01*
X28801Y71293D01*
X28785Y71226D01*
X28757Y71143D01*
X28718Y71054D01*
X28668Y70965D01*
X28607Y70876D01*
X28596Y70865D01*
X28585Y70854D01*
X28568Y70837D01*
X28541Y70821D01*
X28513Y70799D01*
X28474Y70771D01*
X28424Y70743D01*
X28368Y70715D01*
X28308Y70688D01*
X28235Y70660D01*
X28152Y70627D01*
X28063Y70599D01*
X27958Y70571D01*
X27847Y70543D01*
X27719Y70521D01*
Y70527D01*
X27714Y70532D01*
Y70549D01*
X27708Y70571D01*
X27691Y70632D01*
X27664Y70704D01*
X27636Y70788D01*
X27603Y70876D01*
X27558Y70971D01*
X27508Y71060D01*
X27614D01*
X27653Y71065D01*
X27741Y71071D01*
X27841Y71076D01*
X27941Y71093D01*
X28036Y71109D01*
X28074Y71121D01*
X28113Y71132D01*
X28124Y71137D01*
X28141Y71148D01*
X28174Y71165D01*
X28213Y71198D01*
X28252Y71243D01*
X28285Y71298D01*
X28319Y71365D01*
X28335Y71448D01*
Y71454D01*
Y71459D01*
X28341Y71492D01*
Y71542D01*
X28335Y71614D01*
X28319Y71698D01*
X28291Y71803D01*
X28252Y71914D01*
X28196Y72042D01*
Y72048D01*
X28191Y72059D01*
X28180Y72075D01*
X28163Y72103D01*
X28147Y72136D01*
X28130Y72175D01*
X28102Y72220D01*
X28080Y72269D01*
X28013Y72380D01*
X27941Y72508D01*
X27858Y72652D01*
X27764Y72797D01*
Y72802D01*
X27775Y72813D01*
X27786Y72836D01*
X27797Y72874D01*
X27819Y72913D01*
X27841Y72969D01*
X27863Y73041D01*
X27897Y73119D01*
X27930Y73207D01*
X27969Y73313D01*
X28008Y73435D01*
X28052Y73563D01*
X28097Y73712D01*
X28147Y73873D01*
X28202Y74051D01*
X28258Y74245D01*
X27275D01*
Y69522D01*
X26803D01*
Y69528D01*
Y69544D01*
Y69578D01*
X26809Y69611D01*
Y69661D01*
X26815Y69716D01*
Y69778D01*
X26820Y69844D01*
Y69999D01*
X26826Y70161D01*
X26831Y70332D01*
Y70499D01*
Y73546D01*
Y73551D01*
Y73568D01*
Y73596D01*
Y73629D01*
Y73674D01*
Y73729D01*
Y73790D01*
X26826Y73857D01*
Y73935D01*
Y74018D01*
X26820Y74112D01*
Y74206D01*
X26815Y74306D01*
Y74417D01*
X26803Y74645D01*
X28868D01*
Y74639D01*
D02*
G37*
G36*
X5969Y73818D02*
X5991D01*
X6047Y73807D01*
X6119Y73796D01*
X6207Y73779D01*
X6307Y73762D01*
X6418Y73746D01*
X6529Y73729D01*
X6524Y73724D01*
X6513Y73696D01*
X6496Y73651D01*
X6490Y73624D01*
X6479Y73590D01*
X6468Y73546D01*
X6457Y73501D01*
X6452Y73446D01*
X6441Y73391D01*
X6429Y73324D01*
X6424Y73252D01*
X6418Y73174D01*
X6413Y73085D01*
Y73080D01*
Y73063D01*
Y73035D01*
X6407Y72996D01*
X6402Y72947D01*
Y72891D01*
X6396Y72819D01*
X6385Y72741D01*
X6379Y72647D01*
X6368Y72547D01*
X6357Y72436D01*
X6341Y72319D01*
X6329Y72186D01*
X6307Y72048D01*
X6291Y71898D01*
X6268Y71742D01*
X6690D01*
Y71731D01*
X6685Y71698D01*
Y71648D01*
X6679Y71576D01*
X6674Y71487D01*
Y71376D01*
X6668Y71254D01*
Y71109D01*
Y70477D01*
Y70471D01*
Y70460D01*
Y70443D01*
Y70421D01*
X6679Y70366D01*
X6690Y70299D01*
X6707Y70233D01*
X6735Y70177D01*
X6757Y70155D01*
X6774Y70133D01*
X6801Y70122D01*
X6829Y70116D01*
X6857D01*
X6896Y70110D01*
X6995D01*
X7057Y70105D01*
X7245D01*
X7284Y70110D01*
X7328Y70116D01*
X7378Y70127D01*
X7428Y70144D01*
X7473Y70166D01*
X7501Y70194D01*
X7506Y70199D01*
X7512Y70216D01*
X7523Y70249D01*
X7528Y70271D01*
X7539Y70305D01*
X7545Y70338D01*
X7556Y70377D01*
X7562Y70427D01*
X7573Y70482D01*
X7578Y70543D01*
X7589Y70616D01*
X7595Y70693D01*
X7606Y70782D01*
X7611D01*
X7617Y70776D01*
X7650Y70754D01*
X7700Y70727D01*
X7761Y70693D01*
X7839Y70660D01*
X7922Y70621D01*
X8011Y70593D01*
X8100Y70571D01*
Y70560D01*
X8094Y70532D01*
X8083Y70493D01*
X8067Y70438D01*
X8050Y70371D01*
X8028Y70299D01*
X7972Y70144D01*
X7895Y69983D01*
X7850Y69911D01*
X7800Y69844D01*
X7750Y69789D01*
X7689Y69750D01*
X7628Y69722D01*
X7562Y69711D01*
X6607D01*
X6590Y69716D01*
X6563Y69722D01*
X6507Y69744D01*
X6435Y69778D01*
X6402Y69805D01*
X6368Y69839D01*
X6335Y69877D01*
X6307Y69922D01*
X6279Y69977D01*
X6263Y70038D01*
X6252Y70110D01*
X6246Y70194D01*
Y71603D01*
X6241Y71592D01*
X6235Y71570D01*
X6219Y71531D01*
X6196Y71481D01*
X6168Y71415D01*
X6141Y71343D01*
X6102Y71259D01*
X6063Y71176D01*
X5969Y70982D01*
X5863Y70782D01*
X5741Y70588D01*
X5680Y70499D01*
X5614Y70410D01*
X5608Y70405D01*
X5597Y70388D01*
X5575Y70366D01*
X5547Y70332D01*
X5514Y70294D01*
X5469Y70244D01*
X5419Y70188D01*
X5364Y70133D01*
X5297Y70066D01*
X5225Y69994D01*
X5147Y69916D01*
X5059Y69839D01*
X4970Y69755D01*
X4870Y69672D01*
X4764Y69589D01*
X4653Y69500D01*
X4648Y69511D01*
X4620Y69533D01*
X4581Y69572D01*
X4531Y69617D01*
X4470Y69666D01*
X4398Y69716D01*
X4320Y69766D01*
X4232Y69805D01*
X4237Y69811D01*
X4259Y69822D01*
X4293Y69844D01*
X4343Y69872D01*
X4398Y69911D01*
X4459Y69955D01*
X4531Y70005D01*
X4609Y70061D01*
X4692Y70122D01*
X4775Y70194D01*
X4947Y70344D01*
X5114Y70510D01*
X5192Y70599D01*
X5264Y70688D01*
X5269Y70693D01*
X5281Y70710D01*
X5297Y70738D01*
X5325Y70771D01*
X5358Y70821D01*
X5392Y70871D01*
X5430Y70932D01*
X5469Y71004D01*
X5514Y71076D01*
X5558Y71159D01*
X5647Y71332D01*
X5725Y71520D01*
X5791Y71720D01*
Y71725D01*
X5797Y71742D01*
X5808Y71776D01*
X5813Y71814D01*
X5824Y71859D01*
X5841Y71920D01*
X5852Y71986D01*
X5869Y72059D01*
X5886Y72136D01*
X5897Y72220D01*
X5930Y72403D01*
X5952Y72597D01*
X5963Y72797D01*
Y72802D01*
Y72819D01*
Y72852D01*
X5969Y72891D01*
Y72935D01*
Y72991D01*
Y73058D01*
Y73130D01*
Y73202D01*
Y73285D01*
X5963Y73457D01*
X5958Y73640D01*
X5941Y73823D01*
X5952D01*
X5969Y73818D01*
D02*
G37*
G36*
X11868Y71148D02*
X11863Y71126D01*
Y71087D01*
X11857Y71043D01*
X11852Y70982D01*
Y70910D01*
X11846Y70826D01*
Y70732D01*
Y70360D01*
Y70355D01*
Y70349D01*
Y70332D01*
X11852Y70310D01*
X11863Y70260D01*
X11885Y70199D01*
X11924Y70138D01*
X11952Y70110D01*
X11985Y70088D01*
X12024Y70066D01*
X12068Y70055D01*
X12118Y70044D01*
X12174Y70038D01*
X13001D01*
X13056Y70044D01*
X13123Y70055D01*
X13195Y70083D01*
X13267Y70122D01*
X13328Y70177D01*
X13356Y70216D01*
X13378Y70255D01*
Y70260D01*
X13384Y70266D01*
X13395Y70299D01*
X13411Y70344D01*
X13433Y70410D01*
X13456Y70488D01*
X13478Y70571D01*
X13495Y70666D01*
X13506Y70760D01*
X13517Y70754D01*
X13544Y70738D01*
X13589Y70710D01*
X13650Y70677D01*
X13722Y70638D01*
X13811Y70599D01*
X13911Y70560D01*
X14022Y70521D01*
Y70516D01*
X14016Y70499D01*
X14005Y70471D01*
X13988Y70438D01*
X13972Y70394D01*
X13955Y70344D01*
X13911Y70233D01*
X13855Y70116D01*
X13800Y70005D01*
X13767Y69950D01*
X13739Y69905D01*
X13705Y69861D01*
X13678Y69827D01*
X13672Y69822D01*
X13650Y69800D01*
X13611Y69778D01*
X13556Y69744D01*
X13478Y69716D01*
X13384Y69689D01*
X13273Y69666D01*
X13206Y69661D01*
X11891D01*
X11868Y69666D01*
X11835D01*
X11802Y69678D01*
X11757Y69689D01*
X11713Y69705D01*
X11669Y69727D01*
X11624Y69750D01*
X11580Y69783D01*
X11535Y69827D01*
X11502Y69877D01*
X11469Y69933D01*
X11447Y70005D01*
X11430Y70083D01*
X11424Y70172D01*
Y70688D01*
Y70693D01*
Y70699D01*
Y70732D01*
Y70782D01*
X11419Y70843D01*
Y70915D01*
X11413Y70993D01*
X11397Y71154D01*
X11868D01*
Y71148D01*
D02*
G37*
G36*
X22719Y75011D02*
X22752Y74994D01*
X22802Y74967D01*
X22874Y74933D01*
X22957Y74895D01*
X23052Y74850D01*
X23157Y74806D01*
X23268Y74761D01*
X23262Y74756D01*
X23246Y74739D01*
X23224Y74712D01*
X23196Y74678D01*
X23163Y74634D01*
X23118Y74578D01*
X23079Y74517D01*
X23035Y74445D01*
X23029Y74434D01*
X23013Y74412D01*
X22991Y74367D01*
X22963Y74317D01*
X22930Y74251D01*
X22885Y74179D01*
X22846Y74095D01*
X22802Y74012D01*
X25494D01*
Y74007D01*
Y73990D01*
Y73962D01*
X25488Y73929D01*
Y73884D01*
Y73829D01*
X25483Y73768D01*
Y73696D01*
Y73612D01*
X25477Y73529D01*
Y73435D01*
Y73330D01*
X25471Y73224D01*
Y73107D01*
Y72991D01*
Y72863D01*
Y70782D01*
Y70776D01*
Y70760D01*
Y70732D01*
Y70693D01*
Y70643D01*
Y70588D01*
Y70521D01*
X25477Y70443D01*
Y70366D01*
Y70277D01*
Y70183D01*
X25483Y70083D01*
X25488Y69866D01*
X25494Y69639D01*
X25000D01*
Y70222D01*
X21675D01*
Y69594D01*
X21187D01*
Y69600D01*
Y69628D01*
Y69661D01*
X21192Y69711D01*
Y69772D01*
Y69839D01*
X21198Y69916D01*
Y69999D01*
X21204Y70183D01*
Y70377D01*
X21209Y70577D01*
Y70760D01*
Y72863D01*
Y72869D01*
Y72891D01*
Y72924D01*
Y72969D01*
Y73024D01*
Y73091D01*
Y73163D01*
Y73246D01*
X21204Y73330D01*
Y73424D01*
X21198Y73612D01*
X21192Y73812D01*
X21187Y74012D01*
X22358D01*
X22364Y74018D01*
X22369Y74034D01*
X22380Y74062D01*
X22397Y74101D01*
X22413Y74145D01*
X22436Y74201D01*
X22463Y74262D01*
X22491Y74334D01*
X22519Y74406D01*
X22547Y74484D01*
X22602Y74656D01*
X22658Y74834D01*
X22708Y75017D01*
X22713D01*
X22719Y75011D01*
D02*
G37*
G36*
X29773Y74895D02*
X29801D01*
X29834Y74889D01*
X29867D01*
X29956Y74878D01*
X30050Y74872D01*
X30145Y74861D01*
X30239Y74856D01*
X30317D01*
Y74850D01*
Y74845D01*
X30311Y74828D01*
Y74800D01*
X30305Y74773D01*
X30300Y74739D01*
X30294Y74661D01*
X30283Y74562D01*
X30272Y74451D01*
X30261Y74329D01*
X30255Y74201D01*
Y74195D01*
Y74184D01*
Y74168D01*
Y74140D01*
Y74101D01*
Y74062D01*
Y74012D01*
Y73957D01*
Y73896D01*
X30261Y73823D01*
Y73746D01*
X30267Y73668D01*
X30272Y73579D01*
Y73485D01*
X30289Y73285D01*
Y73280D01*
X30294Y73257D01*
Y73230D01*
X30300Y73191D01*
X30305Y73135D01*
X30317Y73074D01*
X30328Y73008D01*
X30344Y72930D01*
X30361Y72847D01*
X30378Y72758D01*
X30428Y72558D01*
X30494Y72347D01*
X30572Y72125D01*
X30577Y72120D01*
X30583Y72097D01*
X30594Y72070D01*
X30616Y72025D01*
X30633Y71975D01*
X30661Y71914D01*
X30694Y71848D01*
X30727Y71776D01*
X30799Y71614D01*
X30888Y71443D01*
X30977Y71265D01*
X31077Y71098D01*
X31082Y71093D01*
X31088Y71082D01*
X31105Y71060D01*
X31121Y71026D01*
X31149Y70993D01*
X31177Y70949D01*
X31244Y70849D01*
X31321Y70738D01*
X31410Y70621D01*
X31499Y70510D01*
X31593Y70405D01*
X31599D01*
X31604Y70394D01*
X31637Y70360D01*
X31682Y70316D01*
X31743Y70255D01*
X31821Y70194D01*
X31898Y70122D01*
X31987Y70055D01*
X32076Y69988D01*
X32065Y69983D01*
X32037Y69955D01*
X31993Y69922D01*
X31937Y69872D01*
X31882Y69811D01*
X31815Y69744D01*
X31754Y69672D01*
X31699Y69594D01*
X31693Y69600D01*
X31682Y69611D01*
X31660Y69633D01*
X31632Y69661D01*
X31593Y69694D01*
X31549Y69739D01*
X31499Y69789D01*
X31443Y69850D01*
X31382Y69916D01*
X31321Y69988D01*
X31249Y70072D01*
X31177Y70161D01*
X31105Y70255D01*
X31027Y70355D01*
X30949Y70466D01*
X30866Y70582D01*
X30860Y70588D01*
X30849Y70610D01*
X30822Y70649D01*
X30794Y70699D01*
X30755Y70765D01*
X30711Y70843D01*
X30661Y70938D01*
X30605Y71043D01*
X30550Y71165D01*
X30483Y71298D01*
X30422Y71443D01*
X30356Y71603D01*
X30283Y71770D01*
X30217Y71953D01*
X30150Y72147D01*
X30084Y72353D01*
Y72342D01*
X30078Y72319D01*
X30067Y72275D01*
X30056Y72220D01*
X30039Y72153D01*
X30022Y72081D01*
X30000Y71997D01*
X29978Y71903D01*
X29928Y71714D01*
X29867Y71515D01*
X29839Y71420D01*
X29806Y71326D01*
X29773Y71243D01*
X29739Y71165D01*
Y71159D01*
X29734Y71148D01*
X29723Y71126D01*
X29706Y71098D01*
X29689Y71065D01*
X29667Y71021D01*
X29645Y70971D01*
X29612Y70921D01*
X29545Y70793D01*
X29462Y70654D01*
X29362Y70499D01*
X29251Y70338D01*
X29245Y70332D01*
X29234Y70321D01*
X29218Y70294D01*
X29195Y70266D01*
X29162Y70227D01*
X29129Y70177D01*
X29085Y70127D01*
X29040Y70072D01*
X28929Y69944D01*
X28796Y69811D01*
X28652Y69666D01*
X28491Y69522D01*
X28485Y69533D01*
X28463Y69561D01*
X28435Y69605D01*
X28391Y69655D01*
X28330Y69716D01*
X28263Y69778D01*
X28185Y69844D01*
X28091Y69900D01*
X28097Y69905D01*
X28119Y69916D01*
X28147Y69938D01*
X28191Y69966D01*
X28235Y69999D01*
X28296Y70044D01*
X28357Y70088D01*
X28430Y70144D01*
X28502Y70205D01*
X28574Y70271D01*
X28729Y70416D01*
X28879Y70577D01*
X28951Y70666D01*
X29018Y70754D01*
X29024Y70760D01*
X29035Y70776D01*
X29051Y70804D01*
X29073Y70843D01*
X29101Y70888D01*
X29134Y70943D01*
X29168Y71004D01*
X29207Y71071D01*
X29245Y71148D01*
X29290Y71232D01*
X29373Y71409D01*
X29451Y71603D01*
X29517Y71809D01*
Y71814D01*
X29523Y71837D01*
X29534Y71864D01*
X29545Y71903D01*
X29556Y71959D01*
X29573Y72014D01*
X29590Y72086D01*
X29606Y72158D01*
X29623Y72242D01*
X29640Y72325D01*
X29678Y72514D01*
X29706Y72714D01*
X29728Y72913D01*
Y72919D01*
Y72935D01*
X29734Y72969D01*
Y73002D01*
X29739Y73052D01*
X29745Y73107D01*
X29750Y73169D01*
X29756Y73241D01*
X29762Y73391D01*
X29773Y73557D01*
X29778Y73724D01*
Y73896D01*
Y73901D01*
Y73918D01*
Y73940D01*
Y73979D01*
Y74018D01*
Y74073D01*
X29773Y74129D01*
Y74195D01*
Y74267D01*
X29767Y74345D01*
X29762Y74517D01*
X29750Y74700D01*
X29734Y74900D01*
X29750D01*
X29773Y74895D01*
D02*
G37*
G36*
X17579Y74922D02*
Y74911D01*
Y74895D01*
X17574Y74867D01*
Y74834D01*
Y74795D01*
X17568Y74745D01*
Y74695D01*
Y74634D01*
X17563Y74567D01*
Y74495D01*
Y74412D01*
X17557Y74329D01*
Y74234D01*
Y74140D01*
Y74034D01*
Y70266D01*
Y70260D01*
Y70249D01*
Y70227D01*
X17552Y70194D01*
Y70161D01*
X17546Y70122D01*
X17529Y70033D01*
X17502Y69938D01*
X17457Y69850D01*
X17402Y69766D01*
X17363Y69739D01*
X17324Y69711D01*
X17313Y69705D01*
X17296Y69700D01*
X17280Y69694D01*
X17252Y69683D01*
X17219Y69672D01*
X17180Y69661D01*
X17135Y69644D01*
X17085Y69633D01*
X17024Y69617D01*
X16963Y69605D01*
X16891Y69594D01*
X16808Y69578D01*
X16725Y69567D01*
X16625Y69555D01*
X16525Y69544D01*
Y69550D01*
Y69555D01*
X16519Y69572D01*
X16514Y69594D01*
X16503Y69650D01*
X16480Y69716D01*
X16453Y69800D01*
X16419Y69889D01*
X16369Y69988D01*
X16314Y70083D01*
X16486D01*
X16586Y70088D01*
X16697D01*
X16802Y70094D01*
X16852D01*
X16891Y70099D01*
X16930D01*
X16958Y70105D01*
X16963D01*
X16980Y70110D01*
X17002Y70127D01*
X17024Y70149D01*
X17047Y70183D01*
X17069Y70233D01*
X17085Y70299D01*
X17091Y70382D01*
Y74034D01*
Y74040D01*
Y74051D01*
Y74079D01*
Y74107D01*
Y74145D01*
Y74195D01*
Y74245D01*
X17085Y74306D01*
Y74440D01*
X17080Y74589D01*
X17074Y74756D01*
X17063Y74928D01*
X17579D01*
Y74922D01*
D02*
G37*
G36*
X10942Y71992D02*
X10975Y71986D01*
X11025Y71970D01*
X11097Y71948D01*
X11180Y71920D01*
X11275Y71892D01*
X11380Y71853D01*
X11491Y71809D01*
X11485Y71803D01*
X11469Y71776D01*
X11441Y71737D01*
X11413Y71681D01*
X11380Y71603D01*
X11341Y71509D01*
X11308Y71393D01*
X11280Y71259D01*
Y71254D01*
X11275Y71243D01*
Y71220D01*
X11269Y71193D01*
X11258Y71159D01*
X11247Y71121D01*
X11219Y71026D01*
X11180Y70915D01*
X11130Y70799D01*
X11064Y70671D01*
X10986Y70549D01*
Y70543D01*
X10975Y70532D01*
X10964Y70516D01*
X10947Y70493D01*
X10892Y70432D01*
X10819Y70355D01*
X10725Y70260D01*
X10614Y70161D01*
X10475Y70055D01*
X10320Y69955D01*
X10314Y69950D01*
X10298Y69944D01*
X10276Y69927D01*
X10237Y69911D01*
X10192Y69889D01*
X10131Y69861D01*
X10065Y69833D01*
X9987Y69805D01*
X9898Y69772D01*
X9798Y69739D01*
X9693Y69705D01*
X9571Y69672D01*
X9443Y69639D01*
X9299Y69605D01*
X9149Y69572D01*
X8988Y69544D01*
Y69550D01*
X8982Y69555D01*
X8971Y69589D01*
X8949Y69633D01*
X8921Y69694D01*
X8883Y69761D01*
X8838Y69833D01*
X8788Y69900D01*
X8727Y69966D01*
X8738D01*
X8766Y69972D01*
X8816D01*
X8877Y69977D01*
X8955Y69988D01*
X9043Y69999D01*
X9143Y70016D01*
X9249Y70033D01*
X9360Y70055D01*
X9471Y70077D01*
X9704Y70144D01*
X9820Y70183D01*
X9931Y70233D01*
X10037Y70283D01*
X10131Y70338D01*
X10137Y70344D01*
X10153Y70355D01*
X10176Y70371D01*
X10209Y70394D01*
X10248Y70427D01*
X10298Y70460D01*
X10398Y70549D01*
X10503Y70654D01*
X10609Y70776D01*
X10653Y70843D01*
X10697Y70910D01*
X10736Y70976D01*
X10764Y71048D01*
Y71054D01*
X10769Y71065D01*
X10775Y71087D01*
X10786Y71121D01*
X10797Y71154D01*
X10808Y71204D01*
X10825Y71254D01*
X10842Y71315D01*
X10853Y71381D01*
X10869Y71454D01*
X10881Y71531D01*
X10897Y71614D01*
X10919Y71798D01*
X10931Y71997D01*
X10936D01*
X10942Y71992D01*
D02*
G37*
G36*
X2705Y73773D02*
X2772D01*
X2855Y73768D01*
X2950Y73762D01*
X3055D01*
X3166Y73757D01*
X4442D01*
X4437Y73746D01*
X4431Y73712D01*
X4415Y73663D01*
X4392Y73596D01*
X4365Y73513D01*
X4332Y73413D01*
X4287Y73302D01*
X4243Y73180D01*
Y73174D01*
X4237Y73163D01*
X4232Y73146D01*
X4220Y73119D01*
X4204Y73091D01*
X4187Y73052D01*
X4171Y73008D01*
X4148Y72958D01*
X4093Y72847D01*
X4026Y72719D01*
X3949Y72575D01*
X3860Y72419D01*
Y70549D01*
Y70543D01*
Y70532D01*
Y70504D01*
Y70471D01*
Y70432D01*
Y70382D01*
Y70327D01*
X3865Y70260D01*
Y70194D01*
Y70110D01*
Y70027D01*
X3871Y69938D01*
Y69844D01*
X3876Y69739D01*
X3882Y69522D01*
X3416D01*
Y69528D01*
Y69550D01*
Y69583D01*
X3421Y69628D01*
Y69683D01*
Y69750D01*
X3427Y69822D01*
Y69900D01*
X3432Y70066D01*
Y70238D01*
X3438Y70410D01*
Y70493D01*
Y70571D01*
Y71853D01*
X3427Y71842D01*
X3416Y71825D01*
X3393Y71803D01*
X3371Y71770D01*
X3344Y71737D01*
X3272Y71648D01*
X3177Y71542D01*
X3066Y71426D01*
X2933Y71293D01*
X2783Y71154D01*
Y71159D01*
X2778Y71165D01*
X2761Y71193D01*
X2733Y71237D01*
X2694Y71293D01*
X2655Y71354D01*
X2606Y71415D01*
X2555Y71476D01*
X2500Y71531D01*
X2506Y71537D01*
X2522Y71548D01*
X2550Y71570D01*
X2583Y71598D01*
X2628Y71631D01*
X2678Y71676D01*
X2733Y71725D01*
X2789Y71781D01*
X2855Y71842D01*
X2922Y71914D01*
X3066Y72064D01*
X3205Y72231D01*
X3344Y72419D01*
X3349Y72425D01*
X3360Y72442D01*
X3377Y72469D01*
X3399Y72508D01*
X3432Y72553D01*
X3466Y72608D01*
X3499Y72669D01*
X3538Y72736D01*
X3621Y72880D01*
X3710Y73041D01*
X3788Y73213D01*
X3860Y73379D01*
X3060D01*
X2966Y73374D01*
X2861Y73368D01*
X2750Y73363D01*
X2644Y73357D01*
Y73779D01*
X2678D01*
X2705Y73773D01*
D02*
G37*
%LPC*%
G36*
X250642Y78475D02*
X250620D01*
Y78453D01*
X250555D01*
Y78475D01*
X250380D01*
Y78453D01*
X250336D01*
Y78475D01*
X250292D01*
Y78453D01*
X250248D01*
Y78475D01*
X250161D01*
Y78453D01*
X250117D01*
Y78475D01*
X250008D01*
Y78453D01*
X249942D01*
Y78475D01*
X249614D01*
Y78453D01*
X249592D01*
Y78475D01*
X249461D01*
Y78453D01*
X249395D01*
Y78475D01*
X249089D01*
Y78453D01*
X249045D01*
Y78475D01*
X248958D01*
Y78453D01*
X248936D01*
Y78475D01*
X248608D01*
Y78453D01*
X248564D01*
Y78475D01*
X248170D01*
Y78453D01*
X248148D01*
Y78475D01*
X248105D01*
Y78453D01*
X248061D01*
Y78475D01*
X248017D01*
Y78453D01*
X247973D01*
Y78475D01*
X247930D01*
Y78453D01*
X247798D01*
Y78475D01*
X247777D01*
Y78453D01*
X247733D01*
Y78475D01*
X247514D01*
Y78453D01*
X247470D01*
Y78475D01*
X247186D01*
Y78453D01*
X247142D01*
Y78475D01*
X247033D01*
Y78453D01*
X246945D01*
Y78475D01*
X246617D01*
Y78453D01*
X246530D01*
Y78475D01*
X246442D01*
Y78453D01*
X246398D01*
Y78475D01*
X246355D01*
Y78453D01*
X246311D01*
Y78475D01*
X246267D01*
Y78453D01*
X246202D01*
Y78475D01*
X246180D01*
Y78453D01*
X246136D01*
Y78475D01*
X245852D01*
Y78453D01*
X245830D01*
Y78475D01*
X245567D01*
Y78453D01*
X245502D01*
Y78475D01*
X245239D01*
Y78453D01*
X245195D01*
Y78475D01*
X245042D01*
Y78453D01*
X244911D01*
Y78475D01*
X244845D01*
Y78453D01*
X244780D01*
Y78475D01*
X244430D01*
Y78453D01*
X244364D01*
Y78475D01*
X244211D01*
Y78453D01*
X244145D01*
Y78300D01*
X244167D01*
Y78212D01*
X244145D01*
Y78038D01*
X244167D01*
Y77972D01*
X244145D01*
Y77906D01*
Y77884D01*
Y77841D01*
X244167D01*
Y77797D01*
X244145D01*
Y77578D01*
X244167D01*
Y77534D01*
X244320D01*
Y77556D01*
X244342D01*
Y77534D01*
X244955D01*
Y77513D01*
X244998D01*
Y77534D01*
X245895D01*
Y77556D01*
X245939D01*
Y77534D01*
X247820D01*
Y77513D01*
X247842D01*
Y77534D01*
X248192D01*
Y77556D01*
X248236D01*
Y77534D01*
X248477D01*
Y77513D01*
X248498D01*
Y77534D01*
X248870D01*
Y77513D01*
X248914D01*
Y77534D01*
X249067D01*
Y77513D01*
X249089D01*
Y77534D01*
X250511D01*
Y77513D01*
X250555D01*
Y77534D01*
X250664D01*
Y78059D01*
X250642D01*
Y78081D01*
X250664D01*
Y78278D01*
X250642D01*
Y78300D01*
X250664D01*
Y78453D01*
X250642D01*
Y78475D01*
D02*
G37*
G36*
X129417Y6276D02*
X129364D01*
X129325Y6269D01*
X129239Y6250D01*
X129141Y6217D01*
X129135D01*
X129121Y6210D01*
X129102Y6197D01*
X129075Y6178D01*
X129010Y6138D01*
X128944Y6079D01*
Y6073D01*
X128931Y6066D01*
X128918Y6046D01*
X128898Y6020D01*
X128859Y5954D01*
X128820Y5876D01*
Y5869D01*
X128813Y5856D01*
X128806Y5836D01*
X128800Y5804D01*
X128787Y5731D01*
X128780Y5640D01*
Y5633D01*
Y5613D01*
Y5587D01*
X128787Y5554D01*
X128800Y5469D01*
X128826Y5377D01*
Y5371D01*
X128833Y5358D01*
X128846Y5338D01*
X128859Y5312D01*
X128898Y5246D01*
X128957Y5181D01*
X128964Y5174D01*
X128971Y5167D01*
X128990Y5154D01*
X129016Y5135D01*
X129075Y5089D01*
X129154Y5049D01*
X129161D01*
X129174Y5043D01*
X129200Y5036D01*
X129233Y5030D01*
X129272Y5023D01*
X129318Y5017D01*
X129417Y5010D01*
X129469D01*
X129508Y5017D01*
X129594Y5030D01*
X129685Y5056D01*
X129692D01*
X129705Y5062D01*
X129731Y5076D01*
X129758Y5095D01*
X129823Y5135D01*
X129889Y5194D01*
X129895Y5200D01*
X129902Y5207D01*
X129915Y5226D01*
X129935Y5253D01*
X129974Y5318D01*
X130014Y5397D01*
Y5404D01*
X130020Y5417D01*
X130027Y5443D01*
X130040Y5469D01*
X130053Y5548D01*
X130059Y5640D01*
Y5646D01*
Y5666D01*
Y5692D01*
X130053Y5725D01*
X130040Y5810D01*
X130007Y5895D01*
Y5902D01*
X130000Y5915D01*
X129987Y5935D01*
X129974Y5968D01*
X129935Y6033D01*
X129876Y6099D01*
X129869Y6105D01*
X129863Y6112D01*
X129843Y6132D01*
X129817Y6145D01*
X129751Y6191D01*
X129672Y6230D01*
X129666D01*
X129653Y6237D01*
X129627Y6243D01*
X129600Y6256D01*
X129561Y6263D01*
X129515Y6269D01*
X129417Y6276D01*
D02*
G37*
G36*
X128944Y3724D02*
X128938D01*
X128931Y3711D01*
X128885Y3685D01*
X128833Y3645D01*
X128780Y3599D01*
X128774Y3586D01*
X128747Y3560D01*
X128715Y3527D01*
X128682Y3481D01*
X128675Y3468D01*
X128662Y3442D01*
X128649Y3396D01*
X128636Y3350D01*
Y3337D01*
X128629Y3311D01*
X128623Y3272D01*
Y3226D01*
Y3219D01*
X128629Y3193D01*
X128636Y3153D01*
X128649Y3108D01*
X128675Y3055D01*
X128715Y3009D01*
X128767Y2957D01*
X128839Y2917D01*
X128852Y2911D01*
X128879Y2904D01*
X128931Y2884D01*
X128997Y2871D01*
X129082Y2852D01*
X129187Y2832D01*
X129312Y2825D01*
X129449Y2819D01*
X129535D01*
X129594Y2825D01*
X129653Y2832D01*
X129725Y2839D01*
X129790Y2852D01*
X129856Y2865D01*
X129863D01*
X129882Y2871D01*
X129915Y2884D01*
X129955Y2898D01*
X130040Y2937D01*
X130086Y2957D01*
X130125Y2983D01*
X130132Y2989D01*
X130145Y2996D01*
X130184Y3029D01*
X130230Y3081D01*
X130276Y3147D01*
Y3153D01*
X130282Y3160D01*
X130289Y3180D01*
X130302Y3206D01*
X130315Y3265D01*
X130322Y3337D01*
Y3344D01*
Y3363D01*
X130315Y3396D01*
X130302Y3435D01*
X130282Y3481D01*
X130256Y3521D01*
X130223Y3567D01*
X130171Y3599D01*
X130164Y3606D01*
X130145Y3613D01*
X130105Y3626D01*
X130059Y3645D01*
X129994Y3659D01*
X129915Y3678D01*
X129823Y3691D01*
X129718Y3698D01*
X128944Y3724D01*
D02*
G37*
G36*
X146164Y6224D02*
X146053D01*
X146007Y6217D01*
X145954Y6210D01*
X145889Y6204D01*
X145823Y6184D01*
X145757Y6165D01*
X145692Y6132D01*
X145685Y6125D01*
X145666Y6112D01*
X145633Y6092D01*
X145600Y6066D01*
X145554Y6033D01*
X145508Y5994D01*
X145423Y5889D01*
X145416Y5882D01*
X145403Y5863D01*
X145390Y5830D01*
X145364Y5791D01*
X145338Y5738D01*
X145318Y5679D01*
X145292Y5613D01*
X145272Y5541D01*
Y5535D01*
X145265Y5508D01*
X145259Y5469D01*
X145252Y5417D01*
X145239Y5351D01*
X145233Y5279D01*
X145226Y5121D01*
Y5108D01*
Y5076D01*
X145233Y5023D01*
Y4957D01*
X145239Y4885D01*
X145252Y4800D01*
X145285Y4636D01*
Y4629D01*
X145298Y4603D01*
X145311Y4564D01*
X145331Y4518D01*
X145384Y4406D01*
X145456Y4295D01*
X145462Y4288D01*
X145475Y4275D01*
X145502Y4249D01*
X145535Y4223D01*
X145574Y4190D01*
X145620Y4157D01*
X145725Y4092D01*
X145731D01*
X145751Y4078D01*
X145790Y4072D01*
X145830Y4059D01*
X145889Y4046D01*
X145948Y4039D01*
X146020Y4026D01*
X146131D01*
X146171Y4033D01*
X146230Y4039D01*
X146289Y4046D01*
X146354Y4065D01*
X146420Y4085D01*
X146486Y4111D01*
X146492Y4118D01*
X146512Y4131D01*
X146545Y4151D01*
X146584Y4177D01*
X146623Y4210D01*
X146669Y4256D01*
X146755Y4354D01*
X146761Y4360D01*
X146774Y4380D01*
X146787Y4413D01*
X146814Y4452D01*
X146840Y4505D01*
X146860Y4564D01*
X146886Y4629D01*
X146906Y4702D01*
Y4708D01*
X146912Y4734D01*
X146925Y4780D01*
X146932Y4833D01*
X146945Y4892D01*
X146951Y4964D01*
X146958Y5121D01*
Y5135D01*
Y5167D01*
Y5220D01*
X146951Y5285D01*
X146945Y5358D01*
X146932Y5443D01*
X146912Y5522D01*
X146892Y5600D01*
Y5607D01*
X146879Y5633D01*
X146866Y5672D01*
X146846Y5725D01*
X146794Y5830D01*
X146761Y5889D01*
X146722Y5941D01*
X146715Y5948D01*
X146702Y5961D01*
X146676Y5987D01*
X146643Y6020D01*
X146604Y6053D01*
X146558Y6086D01*
X146446Y6151D01*
X146440Y6158D01*
X146420Y6165D01*
X146387Y6178D01*
X146341Y6191D01*
X146289Y6204D01*
X146230Y6210D01*
X146164Y6224D01*
D02*
G37*
G36*
X106260Y6250D02*
X106129D01*
X106089Y6243D01*
X106043Y6237D01*
X105991Y6224D01*
X105879Y6184D01*
X105873D01*
X105860Y6171D01*
X105833Y6158D01*
X105801Y6138D01*
X105722Y6079D01*
X105643Y6001D01*
X105637Y5994D01*
X105630Y5981D01*
X105610Y5954D01*
X105584Y5922D01*
X105558Y5882D01*
X105532Y5830D01*
X105479Y5718D01*
Y5712D01*
X105473Y5692D01*
X105459Y5659D01*
X105446Y5613D01*
X105433Y5561D01*
X105427Y5495D01*
X105407Y5358D01*
X106968D01*
Y5364D01*
Y5390D01*
Y5430D01*
Y5476D01*
X106962Y5528D01*
X106955Y5587D01*
X106922Y5712D01*
Y5718D01*
X106916Y5738D01*
X106903Y5771D01*
X106889Y5810D01*
X106844Y5902D01*
X106778Y5994D01*
X106771Y6001D01*
X106758Y6014D01*
X106739Y6033D01*
X106712Y6059D01*
X106673Y6092D01*
X106634Y6118D01*
X106529Y6178D01*
X106522Y6184D01*
X106502Y6191D01*
X106470Y6204D01*
X106430Y6217D01*
X106384Y6230D01*
X106325Y6237D01*
X106260Y6250D01*
D02*
G37*
G36*
X99608D02*
X99477D01*
X99437Y6243D01*
X99391Y6237D01*
X99339Y6224D01*
X99227Y6184D01*
X99221D01*
X99208Y6171D01*
X99181Y6158D01*
X99149Y6138D01*
X99070Y6079D01*
X98991Y6001D01*
X98985Y5994D01*
X98978Y5981D01*
X98958Y5954D01*
X98932Y5922D01*
X98906Y5882D01*
X98880Y5830D01*
X98827Y5718D01*
Y5712D01*
X98821Y5692D01*
X98808Y5659D01*
X98795Y5613D01*
X98781Y5561D01*
X98775Y5495D01*
X98755Y5358D01*
X100316D01*
Y5364D01*
Y5390D01*
Y5430D01*
Y5476D01*
X100310Y5528D01*
X100303Y5587D01*
X100270Y5712D01*
Y5718D01*
X100264Y5738D01*
X100251Y5771D01*
X100238Y5810D01*
X100192Y5902D01*
X100126Y5994D01*
X100120Y6001D01*
X100107Y6014D01*
X100087Y6033D01*
X100061Y6059D01*
X100021Y6092D01*
X99982Y6118D01*
X99877Y6178D01*
X99870Y6184D01*
X99851Y6191D01*
X99818Y6204D01*
X99778Y6217D01*
X99733Y6230D01*
X99673Y6237D01*
X99608Y6250D01*
D02*
G37*
G36*
X25000Y73612D02*
X21675D01*
Y72375D01*
X25000D01*
Y73612D01*
D02*
G37*
G36*
Y71953D02*
X21675D01*
Y70643D01*
X25000D01*
Y71953D01*
D02*
G37*
%LPD*%
D10*
X3500Y83500D02*
Y87499D01*
X5499Y89498D01*
X7499Y87499D01*
Y83500D01*
Y86499D01*
X3500D01*
X9498Y89498D02*
Y83500D01*
Y86499D01*
X13497D01*
Y89498D01*
Y83500D01*
X19495Y88498D02*
X18495Y89498D01*
X16496D01*
X15496Y88498D01*
Y87499D01*
X16496Y86499D01*
X18495D01*
X19495Y85499D01*
Y84500D01*
X18495Y83500D01*
X16496D01*
X15496Y84500D01*
X21494Y89498D02*
X25493D01*
X23494D01*
Y83500D01*
X27492Y89498D02*
Y84500D01*
X28492Y83500D01*
X30491D01*
X31491Y84500D01*
Y89498D01*
D33*
X5624Y77000D02*
X3000D01*
X5624Y79624D01*
Y80280D01*
X4968Y80936D01*
X3656D01*
X3000Y80280D01*
X6936D02*
X7592Y80936D01*
X8904D01*
X9560Y80280D01*
Y77656D01*
X8904Y77000D01*
X7592D01*
X6936Y77656D01*
Y80280D01*
X13495Y77000D02*
X10871D01*
X13495Y79624D01*
Y80280D01*
X12839Y80936D01*
X11527D01*
X10871Y80280D01*
X17431Y77000D02*
X14807D01*
X17431Y79624D01*
Y80280D01*
X16775Y80936D01*
X15463D01*
X14807Y80280D01*
X18743Y77000D02*
Y77656D01*
X19399D01*
Y77000D01*
X18743D01*
X22023Y80280D02*
X22679Y80936D01*
X23991D01*
X24647Y80280D01*
Y79624D01*
X23991Y78968D01*
X23335D01*
X23991D01*
X24647Y78312D01*
Y77656D01*
X23991Y77000D01*
X22679D01*
X22023Y77656D01*
X25958Y77000D02*
Y77656D01*
X26614D01*
Y77000D01*
X25958D01*
X31862D02*
X29238D01*
X31862Y79624D01*
Y80280D01*
X31206Y80936D01*
X29894D01*
X29238Y80280D01*
X33174D02*
X33830Y80936D01*
X35142D01*
X35798Y80280D01*
Y79624D01*
X35142Y78968D01*
X35798Y78312D01*
Y77656D01*
X35142Y77000D01*
X33830D01*
X33174Y77656D01*
Y78312D01*
X33830Y78968D01*
X33174Y79624D01*
Y80280D01*
X33830Y78968D02*
X35142D01*
D34*
X187629Y56500D02*
D03*
X69000Y33500D02*
D03*
X187629D02*
D03*
X69000Y57500D02*
D03*
D35*
X173500Y49000D02*
D03*
Y54000D02*
D03*
Y59000D02*
D03*
Y64000D02*
D03*
X194720D02*
D03*
Y59000D02*
D03*
Y54000D02*
D03*
Y49000D02*
D03*
X61909Y41000D02*
D03*
Y36000D02*
D03*
Y31000D02*
D03*
Y26000D02*
D03*
X83129D02*
D03*
Y31000D02*
D03*
Y36000D02*
D03*
Y41000D02*
D03*
X173500Y26000D02*
D03*
Y31000D02*
D03*
Y36000D02*
D03*
Y41000D02*
D03*
X194720D02*
D03*
Y36000D02*
D03*
Y31000D02*
D03*
Y26000D02*
D03*
X61909Y65000D02*
D03*
Y60000D02*
D03*
Y55000D02*
D03*
Y50000D02*
D03*
X83129D02*
D03*
Y55000D02*
D03*
Y60000D02*
D03*
Y65000D02*
D03*
D36*
X187500Y6000D02*
D03*
X70000D02*
D03*
D37*
X194500D02*
D03*
X63000D02*
D03*
D38*
X176650D02*
D03*
X169350D02*
D03*
X87650Y6200D02*
D03*
X80350D02*
D03*
X125150Y69000D02*
D03*
X117850D02*
D03*
X169650Y73000D02*
D03*
X162350D02*
D03*
X125150Y75500D02*
D03*
X117850D02*
D03*
X169650Y80500D02*
D03*
X162350D02*
D03*
X125000Y83000D02*
D03*
X117700D02*
D03*
D39*
X107250Y19000D02*
D03*
X152250Y61500D02*
D03*
D40*
X93750Y19000D02*
D03*
X165750Y61500D02*
D03*
D41*
X116500Y19000D02*
D03*
X123400D02*
D03*
X100400Y28500D02*
D03*
X93500D02*
D03*
X93600Y34500D02*
D03*
X100500D02*
D03*
X163900Y44500D02*
D03*
X157000D02*
D03*
X157100Y51000D02*
D03*
X164000D02*
D03*
X136600Y61000D02*
D03*
X143500D02*
D03*
D42*
X214000Y33500D02*
D03*
X45500D02*
D03*
X45264Y54871D02*
D03*
X213764D02*
D03*
D43*
X221500Y19371D02*
D03*
X216500D02*
D03*
X211500D02*
D03*
X206500D02*
D03*
Y40591D02*
D03*
X211500D02*
D03*
X216500D02*
D03*
X221500D02*
D03*
X53000D02*
D03*
X48000D02*
D03*
X43000D02*
D03*
X38000D02*
D03*
Y19371D02*
D03*
X43000D02*
D03*
X48000D02*
D03*
X53000D02*
D03*
X37764Y47780D02*
D03*
X42764D02*
D03*
X47764D02*
D03*
X52764D02*
D03*
Y69000D02*
D03*
X47764D02*
D03*
X42764D02*
D03*
X37764D02*
D03*
X206264D02*
D03*
X211264D02*
D03*
X216264D02*
D03*
X221264D02*
D03*
Y47780D02*
D03*
X216264D02*
D03*
X211264D02*
D03*
X206264D02*
D03*
D44*
X158874Y25079D02*
D03*
Y27047D02*
D03*
Y32953D02*
D03*
Y34921D02*
D03*
X143126Y32953D02*
D03*
Y34921D02*
D03*
Y30984D02*
D03*
X158874D02*
D03*
X143126Y29016D02*
D03*
X158874D02*
D03*
X143126Y25079D02*
D03*
Y27047D02*
D03*
X111373Y52434D02*
D03*
Y54403D02*
D03*
X95625Y50466D02*
D03*
X111373D02*
D03*
X95625Y48498D02*
D03*
X111373D02*
D03*
Y44561D02*
D03*
Y46529D02*
D03*
X95625Y44561D02*
D03*
Y46529D02*
D03*
Y52434D02*
D03*
Y54403D02*
D03*
D45*
X148047Y37874D02*
D03*
X146079Y22126D02*
D03*
X148047D02*
D03*
X150016D02*
D03*
X155921Y37874D02*
D03*
X153953D02*
D03*
X151984D02*
D03*
X150016D02*
D03*
X153953Y22126D02*
D03*
X146079Y37874D02*
D03*
X151984Y22126D02*
D03*
X155921D02*
D03*
X98578Y57356D02*
D03*
X102515D02*
D03*
X108421Y41608D02*
D03*
X100547Y57356D02*
D03*
X104484Y41608D02*
D03*
X102515D02*
D03*
X100547D02*
D03*
X98578D02*
D03*
X104484Y57356D02*
D03*
X106452D02*
D03*
X108421D02*
D03*
X106452Y41608D02*
D03*
D46*
X150999Y29982D02*
D03*
X103500Y49500D02*
D03*
D47*
X108000Y28100D02*
D03*
Y35000D02*
D03*
X121000D02*
D03*
Y28100D02*
D03*
X114500Y35000D02*
D03*
Y28100D02*
D03*
X149000Y52400D02*
D03*
Y45500D02*
D03*
X136000Y52400D02*
D03*
Y45500D02*
D03*
X142500Y45600D02*
D03*
Y52500D02*
D03*
D48*
X125000Y57250D02*
D03*
D49*
Y43750D02*
D03*
D50*
X131303Y85618D02*
D03*
D51*
Y83059D02*
D03*
Y80500D02*
D03*
Y77941D02*
D03*
Y75382D02*
D03*
Y72823D02*
D03*
Y70264D02*
D03*
X156500Y85618D02*
D03*
Y83059D02*
D03*
Y80500D02*
D03*
Y77941D02*
D03*
Y75382D02*
D03*
Y72823D02*
D03*
Y70264D02*
D03*
D52*
X242500Y13478D02*
D03*
X242000Y100000D02*
D03*
X17500Y100500D02*
D03*
X18500Y12500D02*
D03*
D53*
X12500Y54343D02*
D03*
Y34657D02*
D03*
X247000Y36524D02*
D03*
Y56209D02*
D03*
X97685Y99000D02*
D03*
X78000D02*
D03*
D54*
X48000Y87110D02*
D03*
D55*
Y100890D02*
D03*
D56*
X198500Y97500D02*
D03*
X217004D02*
D03*
X179996D02*
D03*
D57*
X132000Y95500D02*
D03*
D58*
Y105500D02*
D03*
X142000Y95500D02*
D03*
Y105500D02*
D03*
X152000Y95500D02*
D03*
Y105500D02*
D03*
M02*
