G04*
G04 #@! TF.GenerationSoftware,Altium Limited,Altium Designer,22.1.2 (22)*
G04*
G04 Layer_Color=65535*
%FSLAX25Y25*%
%MOIN*%
G70*
G04*
G04 #@! TF.SameCoordinates,03C845ED-AF23-4815-B137-924D907A0311*
G04*
G04*
G04 #@! TF.FilePolarity,Positive*
G04*
G01*
G75*
%ADD10C,0.01000*%
%ADD11C,0.00787*%
%ADD12C,0.01984*%
%ADD13C,0.00800*%
%ADD14C,0.00591*%
G36*
X242909Y70205D02*
X242391D01*
Y72887D01*
Y72894D01*
Y72901D01*
Y72920D01*
Y72947D01*
Y72979D01*
Y73019D01*
X242398Y73111D01*
Y73229D01*
X242411Y73366D01*
X242417Y73517D01*
X242431Y73688D01*
X242417D01*
Y73675D01*
X242404Y73642D01*
X242391Y73589D01*
X242378Y73524D01*
X242339Y73393D01*
X242319Y73334D01*
X242299Y73281D01*
X240955Y70205D01*
X240666D01*
X239328Y73255D01*
Y73261D01*
X239321Y73274D01*
X239308Y73307D01*
X239295Y73347D01*
X239282Y73406D01*
X239255Y73484D01*
X239236Y73576D01*
X239210Y73688D01*
X239196D01*
Y73675D01*
X239203Y73635D01*
Y73570D01*
X239210Y73478D01*
X239216Y73366D01*
Y73222D01*
X239223Y73058D01*
Y72868D01*
Y70205D01*
X238718D01*
Y74259D01*
X239433D01*
X240627Y71477D01*
Y71471D01*
X240633Y71464D01*
X240646Y71425D01*
X240672Y71366D01*
X240699Y71293D01*
X240732Y71215D01*
X240764Y71129D01*
X240791Y71051D01*
X240810Y70978D01*
X240830D01*
Y70985D01*
X240837Y70998D01*
X240843Y71011D01*
X240850Y71038D01*
X240876Y71103D01*
X240902Y71182D01*
X240935Y71267D01*
X240968Y71352D01*
X240994Y71431D01*
X241020Y71490D01*
X242234Y74259D01*
X242909D01*
Y70205D01*
D02*
G37*
G36*
X257269D02*
X256758D01*
Y73675D01*
X256751Y73668D01*
X256738Y73655D01*
X256705Y73629D01*
X256666Y73596D01*
X256607Y73550D01*
X256535Y73504D01*
X256449Y73452D01*
X256351Y73399D01*
X256338Y73393D01*
X256305Y73373D01*
X256246Y73353D01*
X256174Y73321D01*
X256095Y73288D01*
X256003Y73255D01*
X255911Y73222D01*
X255820Y73196D01*
Y73694D01*
X255826D01*
X255833Y73701D01*
X255852Y73707D01*
X255879Y73714D01*
X255938Y73734D01*
X256029Y73766D01*
X256128Y73806D01*
X256246Y73852D01*
X256371Y73911D01*
X256508Y73976D01*
X256515D01*
X256521Y73983D01*
X256541Y73996D01*
X256567Y74009D01*
X256633Y74049D01*
X256718Y74095D01*
X256810Y74154D01*
X256902Y74219D01*
X256994Y74285D01*
X257072Y74350D01*
X257269D01*
Y70205D01*
D02*
G37*
G36*
X250788Y73793D02*
X249620D01*
Y70205D01*
X249089D01*
Y73793D01*
X247928D01*
Y74259D01*
X250788D01*
Y73793D01*
D02*
G37*
G36*
X253202Y74324D02*
X253261D01*
X253333Y74311D01*
X253419Y74298D01*
X253510Y74285D01*
X253609Y74259D01*
X253720Y74232D01*
X253832Y74193D01*
X253943Y74147D01*
X254055Y74088D01*
X254173Y74022D01*
X254278Y73950D01*
X254389Y73858D01*
X254488Y73760D01*
X254494Y73753D01*
X254507Y73734D01*
X254534Y73701D01*
X254567Y73655D01*
X254606Y73602D01*
X254652Y73530D01*
X254698Y73452D01*
X254750Y73360D01*
X254796Y73261D01*
X254842Y73150D01*
X254888Y73025D01*
X254927Y72894D01*
X254960Y72756D01*
X254986Y72605D01*
X254999Y72441D01*
X255006Y72277D01*
Y72264D01*
Y72232D01*
X254999Y72186D01*
Y72113D01*
X254993Y72035D01*
X254980Y71936D01*
X254960Y71831D01*
X254941Y71713D01*
X254914Y71589D01*
X254875Y71464D01*
X254836Y71333D01*
X254783Y71202D01*
X254724Y71077D01*
X254652Y70952D01*
X254567Y70828D01*
X254475Y70716D01*
X254468Y70710D01*
X254449Y70690D01*
X254422Y70664D01*
X254376Y70624D01*
X254324Y70585D01*
X254258Y70533D01*
X254186Y70480D01*
X254101Y70428D01*
X254002Y70375D01*
X253897Y70323D01*
X253779Y70270D01*
X253655Y70231D01*
X253517Y70191D01*
X253373Y70165D01*
X253222Y70145D01*
X253058Y70139D01*
X253018D01*
X252973Y70145D01*
X252913D01*
X252841Y70159D01*
X252756Y70172D01*
X252664Y70185D01*
X252559Y70211D01*
X252448Y70237D01*
X252336Y70277D01*
X252225Y70323D01*
X252107Y70375D01*
X251989Y70441D01*
X251877Y70519D01*
X251772Y70605D01*
X251667Y70703D01*
X251660Y70710D01*
X251647Y70729D01*
X251621Y70762D01*
X251588Y70808D01*
X251549Y70860D01*
X251503Y70933D01*
X251457Y71011D01*
X251411Y71097D01*
X251359Y71202D01*
X251313Y71313D01*
X251267Y71431D01*
X251227Y71562D01*
X251195Y71707D01*
X251168Y71851D01*
X251155Y72015D01*
X251149Y72179D01*
Y72192D01*
Y72225D01*
X251155Y72271D01*
Y72343D01*
X251168Y72428D01*
X251175Y72520D01*
X251195Y72625D01*
X251214Y72743D01*
X251241Y72868D01*
X251280Y72992D01*
X251319Y73124D01*
X251372Y73255D01*
X251431Y73386D01*
X251503Y73511D01*
X251588Y73635D01*
X251680Y73747D01*
X251687Y73753D01*
X251706Y73773D01*
X251739Y73799D01*
X251779Y73839D01*
X251831Y73885D01*
X251897Y73931D01*
X251975Y73983D01*
X252061Y74042D01*
X252159Y74095D01*
X252271Y74147D01*
X252389Y74193D01*
X252513Y74239D01*
X252651Y74278D01*
X252802Y74304D01*
X252959Y74324D01*
X253123Y74331D01*
X253163D01*
X253202Y74324D01*
D02*
G37*
G36*
X245750D02*
X245809D01*
X245881Y74311D01*
X245966Y74298D01*
X246058Y74285D01*
X246157Y74259D01*
X246268Y74232D01*
X246380Y74193D01*
X246491Y74147D01*
X246603Y74088D01*
X246721Y74022D01*
X246826Y73950D01*
X246937Y73858D01*
X247036Y73760D01*
X247042Y73753D01*
X247055Y73734D01*
X247082Y73701D01*
X247114Y73655D01*
X247154Y73602D01*
X247200Y73530D01*
X247246Y73452D01*
X247298Y73360D01*
X247344Y73261D01*
X247390Y73150D01*
X247436Y73025D01*
X247475Y72894D01*
X247508Y72756D01*
X247534Y72605D01*
X247547Y72441D01*
X247554Y72277D01*
Y72264D01*
Y72232D01*
X247547Y72186D01*
Y72113D01*
X247541Y72035D01*
X247528Y71936D01*
X247508Y71831D01*
X247488Y71713D01*
X247462Y71589D01*
X247423Y71464D01*
X247383Y71333D01*
X247331Y71202D01*
X247272Y71077D01*
X247200Y70952D01*
X247114Y70828D01*
X247023Y70716D01*
X247016Y70710D01*
X246996Y70690D01*
X246970Y70664D01*
X246924Y70624D01*
X246872Y70585D01*
X246806Y70533D01*
X246734Y70480D01*
X246649Y70428D01*
X246550Y70375D01*
X246445Y70323D01*
X246327Y70270D01*
X246203Y70231D01*
X246065Y70191D01*
X245920Y70165D01*
X245770Y70145D01*
X245606Y70139D01*
X245566D01*
X245520Y70145D01*
X245461D01*
X245389Y70159D01*
X245304Y70172D01*
X245212Y70185D01*
X245107Y70211D01*
X244995Y70237D01*
X244884Y70277D01*
X244773Y70323D01*
X244654Y70375D01*
X244536Y70441D01*
X244425Y70519D01*
X244320Y70605D01*
X244215Y70703D01*
X244208Y70710D01*
X244195Y70729D01*
X244169Y70762D01*
X244136Y70808D01*
X244097Y70860D01*
X244051Y70933D01*
X244005Y71011D01*
X243959Y71097D01*
X243907Y71202D01*
X243861Y71313D01*
X243815Y71431D01*
X243775Y71562D01*
X243743Y71707D01*
X243716Y71851D01*
X243703Y72015D01*
X243697Y72179D01*
Y72192D01*
Y72225D01*
X243703Y72271D01*
Y72343D01*
X243716Y72428D01*
X243723Y72520D01*
X243743Y72625D01*
X243762Y72743D01*
X243789Y72868D01*
X243828Y72992D01*
X243867Y73124D01*
X243920Y73255D01*
X243979Y73386D01*
X244051Y73511D01*
X244136Y73635D01*
X244228Y73747D01*
X244235Y73753D01*
X244254Y73773D01*
X244287Y73799D01*
X244326Y73839D01*
X244379Y73885D01*
X244444Y73931D01*
X244523Y73983D01*
X244608Y74042D01*
X244707Y74095D01*
X244818Y74147D01*
X244936Y74193D01*
X245061Y74239D01*
X245199Y74278D01*
X245350Y74304D01*
X245507Y74324D01*
X245671Y74331D01*
X245711D01*
X245750Y74324D01*
D02*
G37*
G36*
X124704Y104190D02*
X123582Y103514D01*
X123575D01*
X123569Y103508D01*
X123530Y103481D01*
X123470Y103442D01*
X123398Y103390D01*
X123320Y103331D01*
X123241Y103272D01*
X123175Y103206D01*
X123123Y103140D01*
X123116Y103134D01*
X123103Y103114D01*
X123083Y103075D01*
X123057Y103029D01*
X123038Y102970D01*
X123018Y102904D01*
X123005Y102832D01*
X122998Y102747D01*
Y102366D01*
X124704D01*
Y101841D01*
X120650D01*
Y103140D01*
X120656Y103180D01*
Y103226D01*
X120663Y103285D01*
X120682Y103416D01*
X120722Y103567D01*
X120774Y103718D01*
X120840Y103869D01*
X120886Y103941D01*
X120938Y104006D01*
Y104013D01*
X120951Y104019D01*
X120991Y104059D01*
X121056Y104111D01*
X121142Y104177D01*
X121253Y104236D01*
X121391Y104288D01*
X121548Y104328D01*
X121640Y104334D01*
X121732Y104341D01*
X121739D01*
X121771D01*
X121811Y104334D01*
X121870Y104328D01*
X121935Y104315D01*
X122014Y104295D01*
X122099Y104269D01*
X122185Y104229D01*
X122276Y104183D01*
X122368Y104124D01*
X122460Y104052D01*
X122552Y103960D01*
X122631Y103862D01*
X122710Y103737D01*
X122775Y103600D01*
X122827Y103442D01*
X122841D01*
Y103449D01*
X122854Y103468D01*
X122873Y103501D01*
X122893Y103541D01*
X122959Y103639D01*
X123044Y103731D01*
X123051Y103737D01*
X123070Y103751D01*
X123103Y103783D01*
X123149Y103816D01*
X123208Y103862D01*
X123287Y103914D01*
X123379Y103980D01*
X123490Y104046D01*
X124704Y104807D01*
Y104190D01*
D02*
G37*
G36*
Y100267D02*
X120650D01*
Y100792D01*
X124704D01*
Y100267D01*
D02*
G37*
G36*
X122716Y99480D02*
X122782D01*
X122860Y99467D01*
X122952Y99454D01*
X123057Y99434D01*
X123169Y99408D01*
X123287Y99375D01*
X123411Y99336D01*
X123536Y99290D01*
X123661Y99231D01*
X123785Y99159D01*
X123910Y99080D01*
X124028Y98981D01*
X124140Y98876D01*
X124146Y98870D01*
X124166Y98850D01*
X124192Y98811D01*
X124225Y98765D01*
X124271Y98706D01*
X124317Y98634D01*
X124369Y98548D01*
X124422Y98450D01*
X124474Y98345D01*
X124527Y98227D01*
X124573Y98096D01*
X124618Y97958D01*
X124651Y97807D01*
X124678Y97650D01*
X124697Y97479D01*
X124704Y97302D01*
Y96180D01*
X120650D01*
Y97381D01*
X120656Y97433D01*
Y97499D01*
X120663Y97578D01*
X120676Y97669D01*
X120696Y97768D01*
X120715Y97879D01*
X120748Y97997D01*
X120781Y98122D01*
X120827Y98253D01*
X120879Y98378D01*
X120938Y98509D01*
X121010Y98634D01*
X121096Y98758D01*
X121188Y98876D01*
X121194Y98883D01*
X121214Y98903D01*
X121240Y98935D01*
X121286Y98975D01*
X121338Y99021D01*
X121404Y99067D01*
X121483Y99126D01*
X121568Y99185D01*
X121666Y99237D01*
X121771Y99296D01*
X121889Y99342D01*
X122021Y99395D01*
X122158Y99427D01*
X122303Y99460D01*
X122460Y99480D01*
X122624Y99487D01*
X122637D01*
X122664D01*
X122716Y99480D01*
D02*
G37*
G36*
X221638Y75157D02*
X176362D01*
Y85000D01*
X221638D01*
Y75157D01*
D02*
G37*
G36*
X163252Y104779D02*
X160868D01*
X160862D01*
X160856D01*
X160839D01*
X160816D01*
X160786D01*
X160751D01*
X160670Y104785D01*
X160565D01*
X160442Y104797D01*
X160308Y104802D01*
X160157Y104814D01*
Y104802D01*
X160169D01*
X160198Y104791D01*
X160244Y104779D01*
X160302Y104767D01*
X160419Y104732D01*
X160472Y104715D01*
X160518Y104698D01*
X163252Y103502D01*
Y103246D01*
X160542Y102057D01*
X160536D01*
X160524Y102051D01*
X160495Y102039D01*
X160460Y102027D01*
X160407Y102016D01*
X160337Y101992D01*
X160256Y101975D01*
X160157Y101952D01*
Y101940D01*
X160169D01*
X160203Y101946D01*
X160262D01*
X160343Y101952D01*
X160442Y101957D01*
X160571D01*
X160716Y101963D01*
X160886D01*
X163252D01*
Y101514D01*
X159650D01*
Y102150D01*
X162121Y103211D01*
X162127D01*
X162133Y103217D01*
X162168Y103228D01*
X162221Y103252D01*
X162285Y103275D01*
X162355Y103304D01*
X162431Y103333D01*
X162501Y103357D01*
X162565Y103374D01*
Y103392D01*
X162559D01*
X162547Y103397D01*
X162535Y103403D01*
X162512Y103409D01*
X162454Y103432D01*
X162384Y103456D01*
X162308Y103485D01*
X162232Y103514D01*
X162162Y103537D01*
X162110Y103561D01*
X159650Y104639D01*
Y105240D01*
X163252D01*
Y104779D01*
D02*
G37*
G36*
Y99981D02*
Y99439D01*
X160658Y98710D01*
X160652D01*
X160629Y98704D01*
X160588Y98693D01*
X160542Y98687D01*
X160489Y98675D01*
X160425Y98663D01*
X160285Y98652D01*
Y98646D01*
X160291D01*
X160320Y98640D01*
X160355D01*
X160402Y98634D01*
X160460Y98623D01*
X160518Y98611D01*
X160652Y98582D01*
X163252Y97847D01*
Y97311D01*
X159650Y96262D01*
Y96780D01*
X162372Y97515D01*
X162378D01*
X162401Y97521D01*
X162442Y97532D01*
X162489Y97538D01*
X162547Y97550D01*
X162605Y97562D01*
X162745Y97573D01*
Y97585D01*
X162740D01*
X162722Y97591D01*
X162687D01*
X162646Y97597D01*
X162594Y97608D01*
X162530Y97620D01*
X162454Y97637D01*
X162372Y97661D01*
X159650Y98442D01*
Y98902D01*
X162396Y99649D01*
X162401D01*
X162419Y99655D01*
X162448Y99660D01*
X162489Y99672D01*
X162535Y99678D01*
X162600Y99690D01*
X162664Y99695D01*
X162740Y99707D01*
Y99719D01*
X162734D01*
X162710D01*
X162681Y99725D01*
X162640Y99730D01*
X162588Y99742D01*
X162524Y99754D01*
X162460Y99765D01*
X162384Y99783D01*
X159650Y100494D01*
Y100995D01*
X163252Y99981D01*
D02*
G37*
G36*
X160821Y95999D02*
X160868Y95993D01*
X160921Y95987D01*
X160979Y95976D01*
X161043Y95958D01*
X161177Y95912D01*
X161247Y95882D01*
X161323Y95847D01*
X161393Y95801D01*
X161463Y95748D01*
X161533Y95690D01*
X161597Y95626D01*
X161603Y95620D01*
X161609Y95609D01*
X161626Y95585D01*
X161649Y95562D01*
X161673Y95521D01*
X161702Y95480D01*
X161725Y95428D01*
X161760Y95369D01*
X161789Y95305D01*
X161818Y95235D01*
X161842Y95154D01*
X161865Y95072D01*
X161882Y94985D01*
X161900Y94891D01*
X161906Y94792D01*
Y94215D01*
X163252D01*
Y93749D01*
X159650D01*
Y94833D01*
X159655Y94874D01*
Y94921D01*
X159661Y94979D01*
X159673Y95037D01*
X159685Y95107D01*
X159720Y95253D01*
X159766Y95404D01*
X159836Y95550D01*
X159883Y95614D01*
X159929Y95679D01*
X159935Y95684D01*
X159941Y95690D01*
X159959Y95708D01*
X159982Y95731D01*
X160011Y95754D01*
X160046Y95783D01*
X160087Y95812D01*
X160134Y95842D01*
X160186Y95871D01*
X160250Y95900D01*
X160314Y95929D01*
X160384Y95952D01*
X160466Y95976D01*
X160547Y95993D01*
X160641Y95999D01*
X160734Y96005D01*
X160740D01*
X160757D01*
X160786D01*
X160821Y95999D01*
D02*
G37*
G36*
X57028Y13786D02*
X57026Y13785D01*
X57025Y13784D01*
Y13785D01*
X57025D01*
X57024Y13786D01*
Y13787D01*
X57025D01*
X57025Y13786D01*
X57026D01*
X57028Y13787D01*
Y13786D01*
D02*
G37*
G36*
X57023D02*
X57021Y13785D01*
X57024Y13779D01*
X57023D01*
X57021Y13782D01*
X57020Y13780D01*
X57020Y13782D01*
Y13785D01*
X57020D01*
X57019Y13786D01*
Y13787D01*
X57020D01*
X57020Y13786D01*
X57021D01*
X57023Y13787D01*
Y13786D01*
D02*
G37*
G36*
X57003D02*
X57003Y13785D01*
Y13783D01*
Y13782D01*
X57003Y13781D01*
Y13783D01*
Y13784D01*
X57002Y13785D01*
X57000Y13786D01*
X56998D01*
X56998Y13787D01*
X57002D01*
X57003Y13786D01*
D02*
G37*
G36*
X57012Y13785D02*
X57013Y13784D01*
Y13782D01*
Y13781D01*
X57011Y13780D01*
X57011D01*
Y13779D01*
X57010D01*
X57009Y13779D01*
X57008Y13779D01*
X57007D01*
X57006Y13780D01*
Y13781D01*
X57004Y13782D01*
Y13783D01*
X57006Y13785D01*
X57007Y13786D01*
X57008D01*
X57007Y13785D01*
Y13784D01*
Y13782D01*
Y13781D01*
Y13780D01*
X57007D01*
X57009Y13779D01*
X57011Y13780D01*
X57011Y13781D01*
Y13782D01*
Y13783D01*
X57011Y13785D01*
Y13786D01*
X57012Y13785D01*
D02*
G37*
G36*
X57039Y13786D02*
Y13785D01*
X57041Y13786D01*
X57042D01*
Y13785D01*
X57041D01*
X57039Y13784D01*
Y13783D01*
Y13780D01*
Y13779D01*
X57038D01*
Y13780D01*
Y13784D01*
X57038D01*
Y13785D01*
X57038Y13786D01*
Y13787D01*
X57039Y13786D01*
D02*
G37*
G36*
X57033D02*
X57034Y13785D01*
X57035Y13784D01*
X57029D01*
Y13783D01*
Y13782D01*
Y13780D01*
X57030D01*
X57032Y13779D01*
X57033Y13780D01*
X57034D01*
X57033Y13779D01*
X57033D01*
X57032Y13779D01*
X57032Y13779D01*
X57030D01*
X57029Y13780D01*
Y13781D01*
Y13782D01*
Y13783D01*
X57029Y13785D01*
Y13786D01*
X57030Y13787D01*
X57033D01*
Y13786D01*
D02*
G37*
G36*
X57020Y13779D02*
X57019Y13779D01*
X57020Y13780D01*
X57020Y13779D01*
D02*
G37*
G36*
X57017Y13786D02*
X57016Y13785D01*
X57019Y13779D01*
X57019Y13779D01*
X57016Y13785D01*
X57015Y13786D01*
Y13787D01*
X57017D01*
Y13786D01*
D02*
G37*
G36*
X56998D02*
Y13781D01*
Y13780D01*
X57000D01*
X56999Y13779D01*
X56998D01*
Y13776D01*
Y13775D01*
X56999D01*
Y13774D01*
X56994D01*
Y13775D01*
X56997D01*
Y13776D01*
Y13785D01*
Y13786D01*
X56994D01*
X56995Y13787D01*
X56997D01*
Y13788D01*
X56998D01*
Y13786D01*
D02*
G37*
G36*
X103866Y73960D02*
X96663D01*
Y75228D01*
X103866D01*
Y73960D01*
D02*
G37*
G36*
X77301Y75228D02*
X80261D01*
Y73960D01*
X77301D01*
Y71000D01*
X75960D01*
Y73960D01*
X73000D01*
Y75228D01*
X75960D01*
Y78188D01*
X77301D01*
Y75228D01*
D02*
G37*
G36*
X142019Y78264D02*
X142020Y78263D01*
Y78262D01*
X142021D01*
Y78261D01*
Y78260D01*
X142020Y78259D01*
X142019Y78258D01*
X142020Y78257D01*
X142021Y78256D01*
X142022D01*
Y78254D01*
Y78253D01*
X142020Y78251D01*
X142019D01*
X142017Y78250D01*
X142016D01*
X142014Y78251D01*
Y78252D01*
X142013Y78254D01*
X142015D01*
Y78253D01*
Y78252D01*
X142019D01*
X142020Y78253D01*
Y78254D01*
Y78255D01*
X142019Y78256D01*
X142018Y78257D01*
X142016D01*
Y78258D01*
X142017D01*
X142018Y78259D01*
X142019Y78260D01*
Y78261D01*
X142018Y78262D01*
Y78263D01*
X142016D01*
X142015Y78262D01*
Y78261D01*
X142013D01*
Y78262D01*
X142014Y78263D01*
X142015Y78264D01*
X142017Y78265D01*
X142018D01*
X142019Y78264D01*
D02*
G37*
G36*
X142011Y78256D02*
Y78255D01*
X142010Y78252D01*
Y78251D01*
X142008Y78250D01*
X142002D01*
X142001Y78251D01*
X142000Y78252D01*
Y78253D01*
Y78256D01*
Y78265D01*
X142002D01*
Y78256D01*
Y78255D01*
Y78253D01*
X142003Y78252D01*
X142008D01*
X142009Y78253D01*
Y78256D01*
Y78265D01*
X142011D01*
Y78256D01*
D02*
G37*
G36*
X161511Y38256D02*
Y38255D01*
X161510Y38252D01*
Y38251D01*
X161508Y38250D01*
X161502D01*
X161501Y38251D01*
X161500Y38252D01*
Y38253D01*
Y38256D01*
Y38265D01*
X161502D01*
Y38256D01*
Y38255D01*
Y38253D01*
X161503Y38252D01*
X161508D01*
X161509Y38253D01*
Y38256D01*
Y38265D01*
X161511D01*
Y38256D01*
D02*
G37*
G36*
X161520Y38263D02*
X161521Y38262D01*
X161522Y38260D01*
Y38259D01*
X161521Y38258D01*
X161520Y38257D01*
X161519Y38256D01*
X161518Y38254D01*
X161517Y38253D01*
X161515Y38252D01*
X161522D01*
Y38250D01*
X161513D01*
Y38251D01*
Y38252D01*
X161514Y38253D01*
X161516Y38254D01*
Y38255D01*
X161517Y38256D01*
X161519Y38258D01*
X161520Y38259D01*
Y38260D01*
Y38261D01*
X161519Y38262D01*
X161518Y38263D01*
X161516D01*
X161515Y38262D01*
Y38261D01*
X161513D01*
Y38262D01*
X161514Y38263D01*
X161515Y38264D01*
X161517Y38265D01*
X161518D01*
X161520Y38263D01*
D02*
G37*
G36*
X90511Y41256D02*
Y41255D01*
X90510Y41252D01*
Y41251D01*
X90508Y41250D01*
X90502D01*
X90501Y41251D01*
X90500Y41252D01*
Y41253D01*
Y41256D01*
Y41265D01*
X90502D01*
Y41256D01*
Y41255D01*
Y41253D01*
X90503Y41252D01*
X90508D01*
X90509Y41253D01*
Y41256D01*
Y41265D01*
X90511D01*
Y41256D01*
D02*
G37*
G36*
X90519Y41250D02*
X90517D01*
Y41261D01*
X90516D01*
X90515Y41260D01*
X90514Y41259D01*
Y41261D01*
X90515D01*
X90516Y41262D01*
X90517Y41263D01*
Y41265D01*
X90519D01*
Y41250D01*
D02*
G37*
G36*
X174021Y73757D02*
X174015D01*
Y73752D01*
X174016Y73753D01*
X174017Y73754D01*
X174018D01*
X174020Y73752D01*
X174021Y73751D01*
X174022Y73749D01*
Y73748D01*
X174020Y73745D01*
X174019D01*
X174017Y73744D01*
X174016D01*
X174014Y73745D01*
Y73746D01*
X174013Y73748D01*
X174015D01*
Y73747D01*
Y73746D01*
X174019D01*
X174020Y73747D01*
Y73749D01*
Y73750D01*
X174019Y73751D01*
Y73752D01*
X174016D01*
X174015Y73751D01*
X174013D01*
X174014Y73759D01*
X174021D01*
Y73757D01*
D02*
G37*
G36*
X174008Y73758D02*
X174009D01*
Y73757D01*
X174010Y73756D01*
Y73755D01*
Y73754D01*
X174009Y73752D01*
X174008D01*
X174006Y73751D01*
X174007D01*
Y73750D01*
X174008Y73749D01*
Y73748D01*
X174011Y73744D01*
X174008D01*
X174006Y73747D01*
Y73748D01*
X174005Y73749D01*
Y73750D01*
X174004D01*
Y73751D01*
X174002D01*
Y73744D01*
X174000D01*
Y73759D01*
X174006D01*
X174008Y73758D01*
D02*
G37*
G36*
X110520Y76249D02*
X110522D01*
Y76247D01*
X110520D01*
Y76244D01*
X110518D01*
Y76247D01*
X110512D01*
Y76249D01*
X110519Y76259D01*
X110520D01*
Y76249D01*
D02*
G37*
G36*
X110508Y76258D02*
X110509D01*
Y76257D01*
X110510Y76256D01*
Y76255D01*
Y76254D01*
X110509Y76252D01*
X110508D01*
X110506Y76251D01*
X110507D01*
Y76250D01*
X110508Y76249D01*
Y76248D01*
X110511Y76244D01*
X110508D01*
X110506Y76247D01*
Y76248D01*
X110505Y76249D01*
Y76250D01*
X110504D01*
Y76251D01*
X110502D01*
Y76244D01*
X110500D01*
Y76259D01*
X110506D01*
X110508Y76258D01*
D02*
G37*
G36*
X174019Y80764D02*
X174020Y80763D01*
Y80762D01*
X174021D01*
Y80761D01*
Y80760D01*
X174020Y80759D01*
X174019Y80758D01*
X174020Y80757D01*
X174021Y80756D01*
X174022D01*
Y80754D01*
Y80753D01*
X174020Y80751D01*
X174019D01*
X174017Y80750D01*
X174016D01*
X174014Y80751D01*
Y80752D01*
X174013Y80754D01*
X174015D01*
Y80753D01*
Y80752D01*
X174019D01*
X174020Y80753D01*
Y80754D01*
Y80755D01*
X174019Y80756D01*
X174018Y80757D01*
X174016D01*
Y80758D01*
X174017D01*
X174018Y80759D01*
X174019Y80760D01*
Y80761D01*
X174018Y80762D01*
Y80763D01*
X174016D01*
X174015Y80762D01*
Y80761D01*
X174013D01*
Y80762D01*
X174014Y80763D01*
X174015Y80764D01*
X174017Y80765D01*
X174018D01*
X174019Y80764D01*
D02*
G37*
G36*
X174008D02*
X174009D01*
Y80763D01*
X174010Y80762D01*
Y80761D01*
Y80760D01*
X174009Y80758D01*
X174008D01*
X174006Y80757D01*
X174007D01*
Y80756D01*
X174008Y80755D01*
Y80754D01*
X174011Y80750D01*
X174008D01*
X174006Y80753D01*
Y80754D01*
X174005Y80755D01*
Y80756D01*
X174004D01*
Y80757D01*
X174002D01*
Y80750D01*
X174000D01*
Y80765D01*
X174006D01*
X174008Y80764D01*
D02*
G37*
G36*
X110520Y82763D02*
X110521Y82762D01*
X110522Y82760D01*
Y82759D01*
X110521Y82758D01*
X110520Y82757D01*
X110519Y82756D01*
X110518Y82754D01*
X110517Y82753D01*
X110515Y82752D01*
X110522D01*
Y82750D01*
X110513D01*
Y82751D01*
Y82752D01*
X110514Y82753D01*
X110516Y82754D01*
Y82755D01*
X110517Y82756D01*
X110519Y82758D01*
X110520Y82759D01*
Y82760D01*
Y82761D01*
X110519Y82762D01*
X110518Y82763D01*
X110516D01*
X110515Y82762D01*
Y82761D01*
X110513D01*
Y82762D01*
X110514Y82763D01*
X110515Y82764D01*
X110517Y82765D01*
X110518D01*
X110520Y82763D01*
D02*
G37*
G36*
X110508Y82764D02*
X110509D01*
Y82763D01*
X110510Y82762D01*
Y82761D01*
Y82760D01*
X110509Y82758D01*
X110508D01*
X110506Y82757D01*
X110507D01*
Y82756D01*
X110508Y82755D01*
Y82754D01*
X110511Y82750D01*
X110508D01*
X110506Y82753D01*
Y82754D01*
X110505Y82755D01*
Y82756D01*
X110504D01*
Y82757D01*
X110502D01*
Y82750D01*
X110500D01*
Y82765D01*
X110506D01*
X110508Y82764D01*
D02*
G37*
G36*
X111019Y69250D02*
X111017D01*
Y69261D01*
X111016D01*
X111015Y69260D01*
X111014Y69259D01*
Y69261D01*
X111015D01*
X111016Y69262D01*
X111017Y69263D01*
Y69265D01*
X111019D01*
Y69250D01*
D02*
G37*
G36*
X111008Y69264D02*
X111009D01*
Y69263D01*
X111010Y69262D01*
Y69261D01*
Y69260D01*
X111009Y69258D01*
X111008D01*
X111006Y69257D01*
X111007D01*
Y69256D01*
X111008Y69255D01*
Y69254D01*
X111011Y69250D01*
X111008D01*
X111006Y69253D01*
Y69254D01*
X111005Y69255D01*
Y69256D01*
X111004D01*
Y69257D01*
X111002D01*
Y69250D01*
X111000D01*
Y69265D01*
X111006D01*
X111008Y69264D01*
D02*
G37*
G36*
X225965Y28523D02*
Y28522D01*
X225966Y28520D01*
Y28519D01*
X225965Y28517D01*
X225964D01*
X225962Y28516D01*
X225961D01*
X225960D01*
X225959Y28517D01*
X225958Y28518D01*
Y28517D01*
X225957Y28516D01*
X225956D01*
X225955D01*
X225954D01*
X225953Y28517D01*
X225952Y28518D01*
X225951Y28520D01*
Y28521D01*
X225953Y28523D01*
X225954Y28524D01*
X225955Y28525D01*
X225956D01*
X225957Y28524D01*
Y28523D01*
X225958Y28522D01*
X225959Y28523D01*
X225960Y28524D01*
X225961Y28525D01*
X225962D01*
X225963D01*
X225965Y28523D01*
D02*
G37*
G36*
X225966Y28502D02*
X225965Y28501D01*
X225963Y28500D01*
X225962D01*
X225959D01*
X225958D01*
X225955D01*
X225954Y28501D01*
X225952Y28503D01*
X225951Y28504D01*
Y28508D01*
X225952Y28510D01*
X225953Y28511D01*
X225955Y28513D01*
X225956Y28514D01*
X225959D01*
X225960D01*
X225962Y28513D01*
X225963Y28512D01*
X225964Y28511D01*
X225965Y28512D01*
X225966Y28514D01*
Y28502D01*
D02*
G37*
G36*
X225954Y54524D02*
X225958Y54522D01*
X225959Y54521D01*
X225962Y54520D01*
X225963D01*
X225966D01*
Y54518D01*
X225965D01*
X225963D01*
X225962D01*
X225961Y54519D01*
X225958Y54520D01*
X225957D01*
X225956Y54521D01*
X225953Y54523D01*
Y54516D01*
X225951D01*
Y54525D01*
X225953D01*
X225954Y54524D01*
D02*
G37*
G36*
X225966Y54502D02*
X225965Y54501D01*
X225963Y54500D01*
X225962D01*
X225959D01*
X225958D01*
X225955D01*
X225954Y54501D01*
X225952Y54503D01*
X225951Y54504D01*
Y54508D01*
X225952Y54510D01*
X225953Y54511D01*
X225955Y54513D01*
X225956Y54514D01*
X225959D01*
X225960D01*
X225962Y54513D01*
X225963Y54512D01*
X225964Y54511D01*
X225965Y54512D01*
X225966Y54514D01*
Y54502D01*
D02*
G37*
G36*
X196964Y31524D02*
X196965Y31523D01*
X196966Y31522D01*
Y31519D01*
X196965Y31517D01*
X196963D01*
X196959Y31516D01*
X196958D01*
X196957D01*
X196953Y31517D01*
X196952Y31518D01*
X196951Y31521D01*
Y31522D01*
X196953Y31523D01*
X196954Y31524D01*
X196955Y31525D01*
Y31523D01*
X196954Y31522D01*
X196953Y31521D01*
Y31520D01*
X196954Y31519D01*
X196955Y31518D01*
X196956D01*
X196957D01*
Y31519D01*
X196956Y31520D01*
Y31522D01*
X196958Y31523D01*
X196959Y31524D01*
X196961Y31525D01*
X196962D01*
X196964Y31524D01*
D02*
G37*
G36*
X196966Y31502D02*
X196965Y31501D01*
X196963Y31500D01*
X196962D01*
X196959D01*
X196958D01*
X196955D01*
X196954Y31501D01*
X196952Y31503D01*
X196951Y31504D01*
Y31508D01*
X196952Y31510D01*
X196953Y31511D01*
X196955Y31513D01*
X196956Y31514D01*
X196959D01*
X196960D01*
X196962Y31513D01*
X196963Y31512D01*
X196964Y31511D01*
X196965Y31512D01*
X196966Y31514D01*
Y31502D01*
D02*
G37*
G36*
X196965Y54523D02*
Y54522D01*
X196966Y54520D01*
Y54519D01*
X196965Y54517D01*
X196964D01*
X196962Y54516D01*
Y54518D01*
X196963D01*
X196964D01*
Y54522D01*
X196963Y54523D01*
X196961D01*
X196960D01*
X196959Y54522D01*
X196958D01*
Y54519D01*
X196959Y54518D01*
Y54516D01*
X196951Y54517D01*
Y54524D01*
X196953D01*
Y54518D01*
X196958D01*
X196957Y54519D01*
X196956Y54520D01*
Y54521D01*
X196958Y54523D01*
X196959Y54524D01*
X196961Y54525D01*
X196962D01*
X196965Y54523D01*
D02*
G37*
G36*
X196966Y54502D02*
X196965Y54501D01*
X196963Y54500D01*
X196962D01*
X196959D01*
X196958D01*
X196955D01*
X196954Y54501D01*
X196952Y54503D01*
X196951Y54504D01*
Y54508D01*
X196952Y54510D01*
X196953Y54511D01*
X196955Y54513D01*
X196956Y54514D01*
X196959D01*
X196960D01*
X196962Y54513D01*
X196963Y54512D01*
X196964Y54511D01*
X196965Y54512D01*
X196966Y54514D01*
Y54502D01*
D02*
G37*
G36*
X33046Y57999D02*
X33048Y57997D01*
X33049Y57996D01*
Y57992D01*
X33048Y57990D01*
X33047Y57989D01*
X33045Y57987D01*
X33044Y57986D01*
X33041D01*
X33040D01*
X33038Y57987D01*
X33037Y57988D01*
X33036Y57989D01*
X33035Y57988D01*
X33034Y57986D01*
Y57998D01*
X33035Y57999D01*
X33037Y58000D01*
X33038D01*
X33041D01*
X33042D01*
X33045D01*
X33046Y57999D01*
D02*
G37*
G36*
X33049Y57978D02*
Y57977D01*
X33039D01*
Y57975D01*
X33037D01*
Y57977D01*
X33034D01*
Y57979D01*
X33037D01*
Y57985D01*
X33039D01*
X33049Y57978D01*
D02*
G37*
G36*
X33046Y34999D02*
X33048Y34997D01*
X33049Y34996D01*
Y34992D01*
X33048Y34990D01*
X33047Y34989D01*
X33045Y34987D01*
X33044Y34986D01*
X33041D01*
X33040D01*
X33038Y34987D01*
X33037Y34988D01*
X33036Y34989D01*
X33035Y34988D01*
X33034Y34986D01*
Y34998D01*
X33035Y34999D01*
X33037Y35000D01*
X33038D01*
X33041D01*
X33042D01*
X33045D01*
X33046Y34999D01*
D02*
G37*
G36*
X33047Y34983D02*
X33048Y34982D01*
X33049Y34980D01*
Y34979D01*
X33048Y34978D01*
X33047Y34977D01*
X33046D01*
Y34976D01*
X33045D01*
X33044D01*
X33043Y34977D01*
X33042Y34978D01*
X33041Y34977D01*
X33040Y34976D01*
Y34975D01*
X33038D01*
X33037D01*
X33035Y34977D01*
Y34978D01*
X33034Y34980D01*
Y34981D01*
X33035Y34983D01*
X33036D01*
X33038Y34984D01*
Y34982D01*
X33037D01*
X33036D01*
Y34978D01*
X33037Y34977D01*
X33038D01*
X33039D01*
X33040Y34978D01*
X33041Y34979D01*
Y34981D01*
X33042D01*
Y34980D01*
X33043Y34979D01*
X33044Y34978D01*
X33045D01*
X33046Y34979D01*
X33047D01*
Y34981D01*
X33046Y34982D01*
X33045D01*
Y34984D01*
X33046D01*
X33047Y34983D01*
D02*
G37*
G36*
X59046Y59999D02*
X59048Y59997D01*
X59049Y59996D01*
Y59992D01*
X59048Y59990D01*
X59047Y59989D01*
X59045Y59987D01*
X59044Y59986D01*
X59041D01*
X59040D01*
X59038Y59987D01*
X59037Y59988D01*
X59036Y59989D01*
X59035Y59988D01*
X59034Y59986D01*
Y59998D01*
X59035Y59999D01*
X59037Y60000D01*
X59038D01*
X59041D01*
X59042D01*
X59045D01*
X59046Y59999D01*
D02*
G37*
G36*
X59047Y59983D02*
X59048Y59982D01*
X59049Y59980D01*
Y59979D01*
X59047Y59977D01*
X59046Y59976D01*
X59044Y59975D01*
X59043D01*
X59042Y59976D01*
X59041Y59977D01*
X59040Y59978D01*
X59038Y59979D01*
X59037Y59980D01*
X59036Y59982D01*
Y59975D01*
X59034D01*
Y59984D01*
X59035D01*
X59036D01*
X59037Y59983D01*
X59038Y59981D01*
X59039D01*
X59040Y59980D01*
X59042Y59978D01*
X59043Y59977D01*
X59044D01*
X59045D01*
X59046Y59978D01*
X59047Y59979D01*
Y59981D01*
X59046Y59982D01*
X59045D01*
Y59984D01*
X59046D01*
X59047Y59983D01*
D02*
G37*
G36*
X59046Y35499D02*
X59048Y35497D01*
X59049Y35496D01*
Y35492D01*
X59048Y35490D01*
X59047Y35489D01*
X59045Y35487D01*
X59044Y35486D01*
X59041D01*
X59040D01*
X59038Y35487D01*
X59037Y35488D01*
X59036Y35489D01*
X59035Y35488D01*
X59034Y35486D01*
Y35498D01*
X59035Y35499D01*
X59037Y35500D01*
X59038D01*
X59041D01*
X59042D01*
X59045D01*
X59046Y35499D01*
D02*
G37*
G36*
X59045Y35482D02*
X59046Y35481D01*
X59047Y35480D01*
X59049D01*
Y35478D01*
X59034D01*
Y35480D01*
X59045D01*
Y35481D01*
X59044Y35482D01*
X59043Y35483D01*
X59045D01*
Y35482D01*
D02*
G37*
G36*
X157519Y67264D02*
X157520Y67263D01*
Y67262D01*
X157521D01*
Y67261D01*
Y67260D01*
X157520Y67259D01*
X157519Y67258D01*
X157520Y67257D01*
X157521Y67256D01*
X157522D01*
Y67254D01*
Y67253D01*
X157520Y67251D01*
X157519D01*
X157517Y67250D01*
X157516D01*
X157514Y67251D01*
Y67252D01*
X157513Y67254D01*
X157515D01*
Y67253D01*
Y67252D01*
X157519D01*
X157520Y67253D01*
Y67254D01*
Y67255D01*
X157519Y67256D01*
X157518Y67257D01*
X157516D01*
Y67258D01*
X157517D01*
X157518Y67259D01*
X157519Y67260D01*
Y67261D01*
X157518Y67262D01*
Y67263D01*
X157516D01*
X157515Y67262D01*
Y67261D01*
X157513D01*
Y67262D01*
X157514Y67263D01*
X157515Y67264D01*
X157517Y67265D01*
X157518D01*
X157519Y67264D01*
D02*
G37*
G36*
X157506D02*
X157507D01*
X157508Y67263D01*
X157509Y67262D01*
X157510Y67260D01*
X157511Y67259D01*
Y67257D01*
Y67256D01*
X157510Y67254D01*
Y67253D01*
X157509Y67252D01*
Y67251D01*
X157508Y67250D01*
X157500D01*
Y67265D01*
X157505D01*
X157506Y67264D01*
D02*
G37*
G36*
X99020Y14263D02*
X99021Y14262D01*
X99022Y14260D01*
Y14259D01*
X99021Y14258D01*
X99020Y14257D01*
X99019Y14256D01*
X99018Y14254D01*
X99017Y14253D01*
X99015Y14252D01*
X99022D01*
Y14250D01*
X99013D01*
Y14251D01*
Y14252D01*
X99014Y14253D01*
X99016Y14254D01*
Y14255D01*
X99017Y14256D01*
X99019Y14258D01*
X99020Y14259D01*
Y14260D01*
Y14261D01*
X99019Y14262D01*
X99018Y14263D01*
X99016D01*
X99015Y14262D01*
Y14261D01*
X99013D01*
Y14262D01*
X99014Y14263D01*
X99015Y14264D01*
X99017Y14265D01*
X99018D01*
X99020Y14263D01*
D02*
G37*
G36*
X99006Y14264D02*
X99007D01*
X99008Y14263D01*
X99009Y14262D01*
X99010Y14260D01*
X99011Y14259D01*
Y14257D01*
Y14256D01*
X99010Y14254D01*
Y14253D01*
X99009Y14252D01*
Y14251D01*
X99008Y14250D01*
X99000D01*
Y14265D01*
X99005D01*
X99006Y14264D01*
D02*
G37*
G36*
X118019Y50750D02*
X118017D01*
Y50761D01*
X118016D01*
X118015Y50760D01*
X118014Y50759D01*
Y50761D01*
X118015D01*
X118016Y50762D01*
X118017Y50763D01*
Y50765D01*
X118019D01*
Y50750D01*
D02*
G37*
G36*
X118006Y50764D02*
X118007D01*
X118008Y50763D01*
X118009Y50762D01*
X118010Y50760D01*
X118011Y50759D01*
Y50757D01*
Y50756D01*
X118010Y50754D01*
Y50753D01*
X118009Y50752D01*
Y50751D01*
X118008Y50750D01*
X118000D01*
Y50765D01*
X118005D01*
X118006Y50764D01*
D02*
G37*
G36*
X132733Y33532D02*
Y33531D01*
X132734Y33529D01*
Y33528D01*
X132733Y33526D01*
X132732D01*
X132730Y33525D01*
Y33527D01*
X132731D01*
X132732D01*
Y33531D01*
X132731Y33532D01*
X132730D01*
X132729D01*
X132728Y33531D01*
X132727Y33530D01*
Y33528D01*
X132726D01*
Y33529D01*
X132725Y33530D01*
X132724Y33531D01*
X132723D01*
X132722Y33530D01*
X132721D01*
Y33528D01*
X132722Y33527D01*
X132723D01*
Y33525D01*
X132722D01*
X132721Y33526D01*
X132720Y33527D01*
X132719Y33529D01*
Y33530D01*
X132720Y33531D01*
X132721Y33532D01*
X132722D01*
Y33533D01*
X132723D01*
X132724D01*
X132725Y33532D01*
X132726Y33531D01*
X132727Y33532D01*
X132728Y33533D01*
Y33534D01*
X132730D01*
X132731D01*
X132733Y33532D01*
D02*
G37*
G36*
X132734Y33518D02*
X132723D01*
Y33517D01*
X132724Y33516D01*
X132725Y33515D01*
X132723D01*
Y33516D01*
X132722Y33517D01*
X132721Y33518D01*
X132719D01*
Y33520D01*
X132734D01*
Y33518D01*
D02*
G37*
G36*
X132731Y33511D02*
X132733Y33509D01*
Y33508D01*
X132734Y33506D01*
Y33502D01*
X132733Y33501D01*
X132731Y33500D01*
X132730D01*
X132727D01*
X132726D01*
X132723D01*
X132722Y33501D01*
X132720Y33502D01*
X132719Y33503D01*
Y33506D01*
X132720Y33507D01*
X132721Y33509D01*
X132722Y33510D01*
X132724Y33512D01*
Y33510D01*
X132723Y33509D01*
X132722Y33508D01*
X132721Y33507D01*
Y33505D01*
X132722Y33503D01*
X132723D01*
X132725Y33502D01*
X132726D01*
X132727D01*
X132728D01*
X132730D01*
X132731D01*
X132732Y33503D01*
Y33508D01*
X132731Y33509D01*
X132729Y33510D01*
Y33512D01*
X132731Y33511D01*
D02*
G37*
G36*
X135734Y33525D02*
X135733D01*
X135732D01*
X135731Y33526D01*
X135730Y33528D01*
X135729D01*
X135728Y33529D01*
X135726Y33531D01*
X135725Y33532D01*
X135724D01*
X135723D01*
X135722Y33531D01*
X135721Y33530D01*
Y33528D01*
X135722Y33527D01*
X135723D01*
Y33525D01*
X135722D01*
X135721Y33526D01*
X135720Y33527D01*
X135719Y33529D01*
Y33530D01*
X135721Y33532D01*
X135722Y33533D01*
X135724Y33534D01*
X135725D01*
X135726Y33533D01*
X135727Y33532D01*
X135728Y33531D01*
X135730Y33530D01*
X135731Y33529D01*
X135732Y33527D01*
Y33534D01*
X135734D01*
Y33525D01*
D02*
G37*
G36*
Y33518D02*
X135723D01*
Y33517D01*
X135724Y33516D01*
X135725Y33515D01*
X135723D01*
Y33516D01*
X135722Y33517D01*
X135721Y33518D01*
X135719D01*
Y33520D01*
X135734D01*
Y33518D01*
D02*
G37*
G36*
X135731Y33511D02*
X135733Y33509D01*
Y33508D01*
X135734Y33506D01*
Y33502D01*
X135733Y33501D01*
X135731Y33500D01*
X135730D01*
X135727D01*
X135726D01*
X135723D01*
X135722Y33501D01*
X135720Y33502D01*
X135719Y33503D01*
Y33506D01*
X135720Y33507D01*
X135721Y33509D01*
X135722Y33510D01*
X135724Y33512D01*
Y33510D01*
X135723Y33509D01*
X135722Y33508D01*
X135721Y33507D01*
Y33505D01*
X135722Y33503D01*
X135723D01*
X135725Y33502D01*
X135726D01*
X135727D01*
X135728D01*
X135730D01*
X135731D01*
X135732Y33503D01*
Y33508D01*
X135731Y33509D01*
X135729Y33510D01*
Y33512D01*
X135731Y33511D01*
D02*
G37*
G36*
X169778Y53499D02*
X169780Y53498D01*
X169781Y53497D01*
Y53494D01*
X169780Y53493D01*
X169779Y53491D01*
X169778Y53490D01*
X169776Y53488D01*
Y53490D01*
X169777Y53491D01*
X169778Y53492D01*
X169779Y53493D01*
Y53495D01*
X169778Y53497D01*
X169777D01*
X169775Y53498D01*
X169774D01*
X169773D01*
X169772D01*
X169770D01*
X169769D01*
X169768Y53497D01*
Y53492D01*
X169769Y53491D01*
X169771Y53490D01*
Y53488D01*
X169769Y53489D01*
X169767Y53491D01*
Y53492D01*
X169766Y53494D01*
Y53498D01*
X169767Y53499D01*
X169769Y53500D01*
X169770D01*
X169773D01*
X169774D01*
X169777D01*
X169778Y53499D01*
D02*
G37*
G36*
X169777Y53484D02*
X169778Y53483D01*
X169779Y53482D01*
X169781D01*
Y53480D01*
X169766D01*
Y53482D01*
X169777D01*
Y53483D01*
X169776Y53484D01*
X169775Y53485D01*
X169777D01*
Y53484D01*
D02*
G37*
G36*
Y53473D02*
X169778Y53472D01*
X169779Y53471D01*
X169781D01*
Y53469D01*
X169766D01*
Y53471D01*
X169777D01*
Y53472D01*
X169776Y53473D01*
X169775Y53474D01*
X169777D01*
Y53473D01*
D02*
G37*
G36*
X131232Y58533D02*
X131233D01*
X131234Y58532D01*
Y58528D01*
X131233Y58526D01*
X131231D01*
X131227Y58525D01*
X131226D01*
X131225D01*
X131223D01*
X131222Y58526D01*
X131220Y58527D01*
X131219Y58528D01*
Y58530D01*
X131220Y58531D01*
Y58532D01*
X131221D01*
X131222Y58533D01*
X131224D01*
X131225Y58534D01*
X131227D01*
X131229D01*
X131232Y58533D01*
D02*
G37*
G36*
X131234Y58518D02*
X131223D01*
Y58517D01*
X131224Y58516D01*
X131225Y58515D01*
X131223D01*
Y58516D01*
X131222Y58517D01*
X131221Y58518D01*
X131219D01*
Y58520D01*
X131234D01*
Y58518D01*
D02*
G37*
G36*
X131231Y58511D02*
X131233Y58509D01*
Y58508D01*
X131234Y58506D01*
Y58502D01*
X131233Y58501D01*
X131231Y58500D01*
X131230D01*
X131227D01*
X131226D01*
X131223D01*
X131222Y58501D01*
X131220Y58502D01*
X131219Y58503D01*
Y58506D01*
X131220Y58507D01*
X131221Y58509D01*
X131222Y58510D01*
X131224Y58512D01*
Y58510D01*
X131223Y58509D01*
X131222Y58508D01*
X131221Y58507D01*
Y58505D01*
X131222Y58503D01*
X131223D01*
X131225Y58502D01*
X131226D01*
X131227D01*
X131228D01*
X131230D01*
X131231D01*
X131232Y58503D01*
Y58508D01*
X131231Y58509D01*
X131229Y58510D01*
Y58512D01*
X131231Y58511D01*
D02*
G37*
G36*
X169778Y45999D02*
X169780Y45998D01*
X169781Y45997D01*
Y45994D01*
X169780Y45993D01*
X169779Y45991D01*
X169778Y45990D01*
X169776Y45988D01*
Y45990D01*
X169777Y45991D01*
X169778Y45992D01*
X169779Y45993D01*
Y45995D01*
X169778Y45997D01*
X169777D01*
X169775Y45998D01*
X169774D01*
X169773D01*
X169772D01*
X169770D01*
X169769D01*
X169768Y45997D01*
Y45992D01*
X169769Y45991D01*
X169771Y45990D01*
Y45988D01*
X169769Y45989D01*
X169767Y45991D01*
Y45992D01*
X169766Y45994D01*
Y45998D01*
X169767Y45999D01*
X169769Y46000D01*
X169770D01*
X169773D01*
X169774D01*
X169777D01*
X169778Y45999D01*
D02*
G37*
G36*
X169779Y45985D02*
X169780Y45984D01*
X169781Y45982D01*
Y45981D01*
X169780Y45980D01*
X169779Y45979D01*
X169777Y45978D01*
X169776Y45977D01*
X169773D01*
X169772D01*
X169769Y45978D01*
X169768D01*
X169766Y45980D01*
Y45984D01*
X169767Y45985D01*
X169768D01*
X169770Y45986D01*
Y45984D01*
X169769D01*
X169768D01*
Y45980D01*
X169769D01*
X169770D01*
X169771Y45979D01*
X169772D01*
Y45980D01*
X169771Y45981D01*
Y45984D01*
X169772Y45985D01*
X169773D01*
X169775Y45986D01*
X169776D01*
X169777D01*
X169779Y45985D01*
D02*
G37*
G36*
X138733Y34021D02*
Y34020D01*
X138734Y34018D01*
Y34017D01*
X138733Y34015D01*
X138732D01*
X138730Y34014D01*
X138729D01*
X138728D01*
X138727Y34015D01*
X138726Y34016D01*
Y34015D01*
X138725Y34014D01*
X138724D01*
X138723D01*
X138722D01*
X138721Y34015D01*
X138720Y34016D01*
X138719Y34018D01*
Y34019D01*
X138721Y34021D01*
X138722Y34022D01*
X138723Y34023D01*
X138724D01*
X138725Y34022D01*
Y34021D01*
X138726Y34020D01*
X138727Y34021D01*
X138728Y34022D01*
X138729Y34023D01*
X138730D01*
X138731D01*
X138733Y34021D01*
D02*
G37*
G36*
X138731Y34011D02*
X138733Y34009D01*
Y34008D01*
X138734Y34006D01*
Y34002D01*
X138733Y34001D01*
X138731Y34000D01*
X138730D01*
X138727D01*
X138726D01*
X138723D01*
X138722Y34001D01*
X138720Y34002D01*
X138719Y34003D01*
Y34006D01*
X138720Y34007D01*
X138721Y34009D01*
X138722Y34010D01*
X138724Y34012D01*
Y34010D01*
X138723Y34009D01*
X138722Y34008D01*
X138721Y34007D01*
Y34005D01*
X138722Y34003D01*
X138723D01*
X138725Y34002D01*
X138726D01*
X138727D01*
X138728D01*
X138730D01*
X138731D01*
X138732Y34003D01*
Y34008D01*
X138731Y34009D01*
X138729Y34010D01*
Y34012D01*
X138731Y34011D01*
D02*
G37*
G36*
X43507Y84406D02*
X43509Y84405D01*
X43510Y84404D01*
X43512Y84402D01*
X43510D01*
X43509Y84403D01*
X43508Y84404D01*
X43507Y84405D01*
X43505D01*
X43503Y84404D01*
Y84403D01*
X43502Y84401D01*
Y84400D01*
Y84399D01*
Y84398D01*
Y84396D01*
Y84395D01*
X43503Y84394D01*
X43508D01*
X43509Y84395D01*
X43510Y84397D01*
X43512D01*
X43511Y84395D01*
X43509Y84393D01*
X43508D01*
X43506Y84392D01*
X43502D01*
X43501Y84393D01*
X43500Y84395D01*
Y84396D01*
Y84399D01*
Y84400D01*
Y84403D01*
X43501Y84404D01*
X43502Y84406D01*
X43503Y84407D01*
X43506D01*
X43507Y84406D01*
D02*
G37*
G36*
X43523Y84405D02*
X43522Y84404D01*
X43520Y84400D01*
X43519Y84399D01*
X43518Y84396D01*
Y84395D01*
Y84392D01*
X43516D01*
Y84393D01*
Y84395D01*
Y84396D01*
X43517Y84397D01*
X43518Y84400D01*
Y84401D01*
X43519Y84402D01*
X43521Y84405D01*
X43514D01*
Y84407D01*
X43523D01*
Y84405D01*
D02*
G37*
G36*
X132778Y26999D02*
X132780Y26998D01*
X132781Y26997D01*
Y26994D01*
X132780Y26993D01*
X132779Y26991D01*
X132778Y26990D01*
X132776Y26988D01*
Y26990D01*
X132777Y26991D01*
X132778Y26992D01*
X132779Y26993D01*
Y26995D01*
X132778Y26997D01*
X132777D01*
X132775Y26998D01*
X132774D01*
X132773D01*
X132772D01*
X132770D01*
X132769D01*
X132768Y26997D01*
Y26992D01*
X132769Y26991D01*
X132771Y26990D01*
Y26988D01*
X132769Y26989D01*
X132767Y26991D01*
Y26992D01*
X132766Y26994D01*
Y26998D01*
X132767Y26999D01*
X132769Y27000D01*
X132770D01*
X132773D01*
X132774D01*
X132777D01*
X132778Y26999D01*
D02*
G37*
G36*
X132779Y26985D02*
X132780Y26984D01*
X132781Y26981D01*
Y26980D01*
X132779Y26979D01*
X132778Y26978D01*
X132777Y26977D01*
Y26979D01*
X132778Y26980D01*
X132779Y26981D01*
Y26982D01*
X132778Y26983D01*
X132777Y26984D01*
X132776D01*
X132775D01*
Y26983D01*
X132776Y26982D01*
Y26980D01*
X132774Y26979D01*
X132773Y26978D01*
X132771Y26977D01*
X132770D01*
X132768Y26978D01*
X132767Y26979D01*
X132766Y26980D01*
Y26983D01*
X132767Y26985D01*
X132769D01*
X132773Y26986D01*
X132774D01*
X132775D01*
X132779Y26985D01*
D02*
G37*
G36*
X129778Y26999D02*
X129780Y26998D01*
X129781Y26997D01*
Y26994D01*
X129780Y26993D01*
X129779Y26991D01*
X129778Y26990D01*
X129776Y26988D01*
Y26990D01*
X129777Y26991D01*
X129778Y26992D01*
X129779Y26993D01*
Y26995D01*
X129778Y26997D01*
X129777D01*
X129775Y26998D01*
X129774D01*
X129773D01*
X129772D01*
X129770D01*
X129769D01*
X129768Y26997D01*
Y26992D01*
X129769Y26991D01*
X129771Y26990D01*
Y26988D01*
X129769Y26989D01*
X129767Y26991D01*
Y26992D01*
X129766Y26994D01*
Y26998D01*
X129767Y26999D01*
X129769Y27000D01*
X129770D01*
X129773D01*
X129774D01*
X129777D01*
X129778Y26999D01*
D02*
G37*
G36*
X129781Y26985D02*
Y26978D01*
X129779D01*
Y26984D01*
X129774D01*
X129775Y26983D01*
X129776Y26982D01*
Y26981D01*
X129774Y26979D01*
X129773Y26978D01*
X129771Y26977D01*
X129770D01*
X129767Y26979D01*
Y26980D01*
X129766Y26982D01*
Y26983D01*
X129767Y26985D01*
X129768D01*
X129770Y26986D01*
Y26984D01*
X129769D01*
X129768D01*
Y26980D01*
X129769Y26979D01*
X129771D01*
X129772D01*
X129773Y26980D01*
X129774D01*
Y26983D01*
X129773Y26984D01*
Y26986D01*
X129781Y26985D01*
D02*
G37*
G36*
X87231Y26021D02*
X87234D01*
Y26019D01*
X87231D01*
Y26013D01*
X87229D01*
X87219Y26020D01*
Y26021D01*
X87229D01*
Y26023D01*
X87231D01*
Y26021D01*
D02*
G37*
G36*
Y26011D02*
X87233Y26009D01*
Y26008D01*
X87234Y26006D01*
Y26002D01*
X87233Y26001D01*
X87231Y26000D01*
X87230D01*
X87227D01*
X87226D01*
X87223D01*
X87222Y26001D01*
X87220Y26002D01*
X87219Y26003D01*
Y26006D01*
X87220Y26007D01*
X87221Y26009D01*
X87222Y26010D01*
X87224Y26012D01*
Y26010D01*
X87223Y26009D01*
X87222Y26008D01*
X87221Y26007D01*
Y26005D01*
X87222Y26003D01*
X87223D01*
X87225Y26002D01*
X87226D01*
X87227D01*
X87228D01*
X87230D01*
X87231D01*
X87232Y26003D01*
Y26008D01*
X87231Y26009D01*
X87229Y26010D01*
Y26012D01*
X87231Y26011D01*
D02*
G37*
G36*
X129778Y20499D02*
X129780Y20498D01*
X129781Y20497D01*
Y20494D01*
X129780Y20493D01*
X129779Y20491D01*
X129778Y20490D01*
X129776Y20488D01*
Y20490D01*
X129777Y20491D01*
X129778Y20492D01*
X129779Y20493D01*
Y20495D01*
X129778Y20497D01*
X129777D01*
X129775Y20498D01*
X129774D01*
X129773D01*
X129772D01*
X129770D01*
X129769D01*
X129768Y20497D01*
Y20492D01*
X129769Y20491D01*
X129771Y20490D01*
Y20488D01*
X129769Y20489D01*
X129767Y20491D01*
Y20492D01*
X129766Y20494D01*
Y20498D01*
X129767Y20499D01*
X129769Y20500D01*
X129770D01*
X129773D01*
X129774D01*
X129777D01*
X129778Y20499D01*
D02*
G37*
G36*
X129779Y20485D02*
X129780Y20484D01*
X129781Y20482D01*
Y20481D01*
X129780Y20480D01*
X129779Y20479D01*
X129778D01*
Y20478D01*
X129777D01*
X129776D01*
X129775Y20479D01*
X129774Y20480D01*
X129773Y20479D01*
X129772Y20478D01*
Y20477D01*
X129770D01*
X129769D01*
X129767Y20479D01*
Y20480D01*
X129766Y20482D01*
Y20483D01*
X129767Y20485D01*
X129768D01*
X129770Y20486D01*
Y20484D01*
X129769D01*
X129768D01*
Y20480D01*
X129769Y20479D01*
X129770D01*
X129771D01*
X129772Y20480D01*
X129773Y20481D01*
Y20483D01*
X129774D01*
Y20482D01*
X129775Y20481D01*
X129776Y20480D01*
X129777D01*
X129778Y20481D01*
X129779D01*
Y20483D01*
X129778Y20484D01*
X129777D01*
Y20486D01*
X129778D01*
X129779Y20485D01*
D02*
G37*
G36*
X87234Y33014D02*
X87233D01*
X87232D01*
X87231Y33015D01*
X87230Y33017D01*
X87229D01*
X87228Y33018D01*
X87226Y33020D01*
X87225Y33021D01*
X87224D01*
X87223D01*
X87222Y33020D01*
X87221Y33019D01*
Y33017D01*
X87222Y33016D01*
X87223D01*
Y33014D01*
X87222D01*
X87221Y33015D01*
X87220Y33016D01*
X87219Y33018D01*
Y33019D01*
X87221Y33021D01*
X87222Y33022D01*
X87224Y33023D01*
X87225D01*
X87226Y33022D01*
X87227Y33021D01*
X87228Y33020D01*
X87230Y33019D01*
X87231Y33018D01*
X87232Y33016D01*
Y33023D01*
X87234D01*
Y33014D01*
D02*
G37*
G36*
X87231Y33011D02*
X87233Y33009D01*
Y33008D01*
X87234Y33006D01*
Y33002D01*
X87233Y33001D01*
X87231Y33000D01*
X87230D01*
X87227D01*
X87226D01*
X87223D01*
X87222Y33001D01*
X87220Y33002D01*
X87219Y33003D01*
Y33006D01*
X87220Y33007D01*
X87221Y33009D01*
X87222Y33010D01*
X87224Y33012D01*
Y33010D01*
X87223Y33009D01*
X87222Y33008D01*
X87221Y33007D01*
Y33005D01*
X87222Y33003D01*
X87223D01*
X87225Y33002D01*
X87226D01*
X87227D01*
X87228D01*
X87230D01*
X87231D01*
X87232Y33003D01*
Y33008D01*
X87231Y33009D01*
X87229Y33010D01*
Y33012D01*
X87231Y33011D01*
D02*
G37*
G36*
X126778Y26999D02*
X126780Y26998D01*
X126781Y26997D01*
Y26994D01*
X126780Y26993D01*
X126779Y26991D01*
X126778Y26990D01*
X126776Y26988D01*
Y26990D01*
X126777Y26991D01*
X126778Y26992D01*
X126779Y26993D01*
Y26995D01*
X126778Y26997D01*
X126777D01*
X126775Y26998D01*
X126774D01*
X126773D01*
X126772D01*
X126770D01*
X126769D01*
X126768Y26997D01*
Y26992D01*
X126769Y26991D01*
X126771Y26990D01*
Y26988D01*
X126769Y26989D01*
X126767Y26991D01*
Y26992D01*
X126766Y26994D01*
Y26998D01*
X126767Y26999D01*
X126769Y27000D01*
X126770D01*
X126773D01*
X126774D01*
X126777D01*
X126778Y26999D01*
D02*
G37*
G36*
X126777Y26984D02*
X126778Y26983D01*
X126779Y26982D01*
X126781D01*
Y26980D01*
X126766D01*
Y26982D01*
X126777D01*
Y26983D01*
X126776Y26984D01*
X126775Y26985D01*
X126777D01*
Y26984D01*
D02*
G37*
%LPC*%
G36*
X253091Y73858D02*
X253031D01*
X252986Y73852D01*
X252933Y73845D01*
X252874Y73832D01*
X252808Y73819D01*
X252736Y73799D01*
X252658Y73780D01*
X252572Y73747D01*
X252494Y73714D01*
X252408Y73668D01*
X252323Y73616D01*
X252244Y73557D01*
X252159Y73484D01*
X252087Y73406D01*
X252080Y73399D01*
X252067Y73386D01*
X252054Y73360D01*
X252028Y73327D01*
X251995Y73281D01*
X251962Y73222D01*
X251929Y73163D01*
X251897Y73091D01*
X251857Y73006D01*
X251824Y72920D01*
X251792Y72822D01*
X251759Y72717D01*
X251733Y72605D01*
X251719Y72487D01*
X251706Y72356D01*
X251700Y72225D01*
Y72218D01*
Y72192D01*
Y72153D01*
X251706Y72100D01*
X251713Y72041D01*
X251719Y71969D01*
X251733Y71890D01*
X251746Y71805D01*
X251792Y71615D01*
X251824Y71517D01*
X251857Y71418D01*
X251903Y71320D01*
X251949Y71221D01*
X252008Y71129D01*
X252074Y71044D01*
X252080Y71038D01*
X252093Y71025D01*
X252113Y71005D01*
X252146Y70972D01*
X252179Y70939D01*
X252225Y70906D01*
X252277Y70860D01*
X252343Y70821D01*
X252408Y70782D01*
X252481Y70742D01*
X252559Y70703D01*
X252651Y70670D01*
X252743Y70637D01*
X252841Y70618D01*
X252946Y70605D01*
X253058Y70598D01*
X253123D01*
X253163Y70605D01*
X253222Y70611D01*
X253281Y70618D01*
X253353Y70631D01*
X253432Y70651D01*
X253589Y70703D01*
X253674Y70736D01*
X253760Y70775D01*
X253845Y70828D01*
X253924Y70887D01*
X254002Y70952D01*
X254075Y71025D01*
X254081Y71031D01*
X254088Y71044D01*
X254107Y71070D01*
X254134Y71103D01*
X254160Y71149D01*
X254193Y71202D01*
X254225Y71261D01*
X254265Y71333D01*
X254298Y71412D01*
X254330Y71503D01*
X254363Y71602D01*
X254389Y71707D01*
X254416Y71825D01*
X254435Y71949D01*
X254442Y72081D01*
X254449Y72218D01*
Y72225D01*
Y72251D01*
Y72290D01*
X254442Y72350D01*
X254435Y72415D01*
X254429Y72487D01*
X254416Y72573D01*
X254403Y72664D01*
X254363Y72855D01*
X254298Y73058D01*
X254258Y73156D01*
X254206Y73248D01*
X254153Y73340D01*
X254088Y73425D01*
X254081Y73432D01*
X254068Y73445D01*
X254048Y73465D01*
X254022Y73491D01*
X253983Y73524D01*
X253943Y73563D01*
X253891Y73602D01*
X253825Y73642D01*
X253760Y73681D01*
X253688Y73721D01*
X253602Y73760D01*
X253517Y73793D01*
X253419Y73819D01*
X253314Y73839D01*
X253209Y73852D01*
X253091Y73858D01*
D02*
G37*
G36*
X245638D02*
X245579D01*
X245533Y73852D01*
X245481Y73845D01*
X245422Y73832D01*
X245356Y73819D01*
X245284Y73799D01*
X245205Y73780D01*
X245120Y73747D01*
X245041Y73714D01*
X244956Y73668D01*
X244871Y73616D01*
X244792Y73557D01*
X244707Y73484D01*
X244635Y73406D01*
X244628Y73399D01*
X244615Y73386D01*
X244602Y73360D01*
X244576Y73327D01*
X244543Y73281D01*
X244510Y73222D01*
X244477Y73163D01*
X244444Y73091D01*
X244405Y73006D01*
X244372Y72920D01*
X244339Y72822D01*
X244307Y72717D01*
X244281Y72605D01*
X244267Y72487D01*
X244254Y72356D01*
X244248Y72225D01*
Y72218D01*
Y72192D01*
Y72153D01*
X244254Y72100D01*
X244261Y72041D01*
X244267Y71969D01*
X244281Y71890D01*
X244294Y71805D01*
X244339Y71615D01*
X244372Y71517D01*
X244405Y71418D01*
X244451Y71320D01*
X244497Y71221D01*
X244556Y71129D01*
X244622Y71044D01*
X244628Y71038D01*
X244641Y71025D01*
X244661Y71005D01*
X244694Y70972D01*
X244727Y70939D01*
X244773Y70906D01*
X244825Y70860D01*
X244891Y70821D01*
X244956Y70782D01*
X245028Y70742D01*
X245107Y70703D01*
X245199Y70670D01*
X245291Y70637D01*
X245389Y70618D01*
X245494Y70605D01*
X245606Y70598D01*
X245671D01*
X245711Y70605D01*
X245770Y70611D01*
X245829Y70618D01*
X245901Y70631D01*
X245979Y70651D01*
X246137Y70703D01*
X246222Y70736D01*
X246307Y70775D01*
X246393Y70828D01*
X246472Y70887D01*
X246550Y70952D01*
X246622Y71025D01*
X246629Y71031D01*
X246636Y71044D01*
X246655Y71070D01*
X246681Y71103D01*
X246708Y71149D01*
X246741Y71202D01*
X246773Y71261D01*
X246813Y71333D01*
X246845Y71412D01*
X246878Y71503D01*
X246911Y71602D01*
X246937Y71707D01*
X246964Y71825D01*
X246983Y71949D01*
X246990Y72081D01*
X246996Y72218D01*
Y72225D01*
Y72251D01*
Y72290D01*
X246990Y72350D01*
X246983Y72415D01*
X246977Y72487D01*
X246964Y72573D01*
X246950Y72664D01*
X246911Y72855D01*
X246845Y73058D01*
X246806Y73156D01*
X246754Y73248D01*
X246701Y73340D01*
X246636Y73425D01*
X246629Y73432D01*
X246616Y73445D01*
X246596Y73465D01*
X246570Y73491D01*
X246531Y73524D01*
X246491Y73563D01*
X246439Y73602D01*
X246373Y73642D01*
X246307Y73681D01*
X246235Y73721D01*
X246150Y73760D01*
X246065Y73793D01*
X245966Y73819D01*
X245861Y73839D01*
X245757Y73852D01*
X245638Y73858D01*
D02*
G37*
G36*
X121778Y103796D02*
X121771D01*
X121765D01*
X121725D01*
X121666Y103783D01*
X121601Y103770D01*
X121522Y103744D01*
X121437Y103711D01*
X121358Y103659D01*
X121286Y103586D01*
X121279Y103580D01*
X121260Y103547D01*
X121227Y103501D01*
X121194Y103436D01*
X121168Y103350D01*
X121135Y103252D01*
X121115Y103134D01*
X121109Y102996D01*
Y102366D01*
X122539D01*
Y103022D01*
X122532Y103049D01*
X122526Y103114D01*
X122513Y103193D01*
X122486Y103285D01*
X122447Y103383D01*
X122401Y103475D01*
X122329Y103567D01*
X122316Y103580D01*
X122290Y103606D01*
X122244Y103639D01*
X122178Y103685D01*
X122099Y103724D01*
X122008Y103764D01*
X121903Y103790D01*
X121778Y103796D01*
D02*
G37*
G36*
X122637Y98935D02*
X122631D01*
X122605D01*
X122565D01*
X122513Y98929D01*
X122454Y98922D01*
X122381Y98909D01*
X122296Y98896D01*
X122211Y98883D01*
X122027Y98824D01*
X121935Y98791D01*
X121837Y98745D01*
X121745Y98699D01*
X121660Y98634D01*
X121575Y98568D01*
X121502Y98489D01*
X121496Y98483D01*
X121483Y98470D01*
X121470Y98443D01*
X121443Y98411D01*
X121411Y98365D01*
X121378Y98312D01*
X121345Y98247D01*
X121306Y98175D01*
X121273Y98096D01*
X121240Y98010D01*
X121207Y97912D01*
X121174Y97807D01*
X121148Y97696D01*
X121135Y97578D01*
X121122Y97453D01*
X121115Y97322D01*
Y96705D01*
X124244D01*
Y97368D01*
X124238Y97427D01*
X124231Y97486D01*
X124225Y97564D01*
X124212Y97650D01*
X124192Y97735D01*
X124140Y97932D01*
X124107Y98030D01*
X124067Y98129D01*
X124021Y98233D01*
X123962Y98325D01*
X123897Y98417D01*
X123825Y98502D01*
X123818Y98509D01*
X123805Y98522D01*
X123779Y98542D01*
X123746Y98568D01*
X123700Y98601D01*
X123648Y98640D01*
X123589Y98680D01*
X123516Y98719D01*
X123438Y98758D01*
X123346Y98798D01*
X123247Y98837D01*
X123142Y98870D01*
X123031Y98896D01*
X122906Y98916D01*
X122775Y98929D01*
X122637Y98935D01*
D02*
G37*
G36*
X187649Y82933D02*
X186775D01*
Y81108D01*
Y77665D01*
X186152Y79129D01*
X184447Y82933D01*
X183277D01*
Y76506D01*
X184152D01*
Y78561D01*
Y81807D01*
X184665Y80518D01*
X186458Y76506D01*
X187649D01*
Y82933D01*
D02*
G37*
G36*
X220570D02*
X216942D01*
Y76506D01*
X217838D01*
Y79370D01*
X220417D01*
Y80102D01*
X217838D01*
Y82190D01*
X220570D01*
Y82933D01*
D02*
G37*
G36*
X215029D02*
X211400D01*
Y76506D01*
X212296D01*
Y79370D01*
X214876D01*
Y80102D01*
X212296D01*
Y82190D01*
X215029D01*
Y82933D01*
D02*
G37*
G36*
X207771Y83031D02*
X207673D01*
X207476Y83021D01*
X207301Y82999D01*
X207126Y82966D01*
X206984Y82933D01*
X206864Y82889D01*
X206766Y82857D01*
X206711Y82835D01*
X206689Y82824D01*
X206525Y82736D01*
X206372Y82649D01*
X206230Y82540D01*
X206110Y82441D01*
X206012Y82354D01*
X205946Y82277D01*
X205891Y82234D01*
X205880Y82212D01*
X205760Y82048D01*
X205651Y81884D01*
X205553Y81709D01*
X205476Y81545D01*
X205410Y81392D01*
X205367Y81283D01*
X205356Y81239D01*
X205345Y81206D01*
X205334Y81184D01*
Y81173D01*
X205268Y80933D01*
X205225Y80671D01*
X205181Y80430D01*
X205159Y80190D01*
X205148Y79993D01*
Y79905D01*
X205137Y79829D01*
Y79687D01*
X205148Y79414D01*
X205159Y79151D01*
X205181Y78911D01*
X205214Y78714D01*
X205236Y78539D01*
X205246Y78474D01*
X205257Y78419D01*
X205268Y78375D01*
Y78342D01*
X205279Y78321D01*
Y78310D01*
X205345Y78091D01*
X205410Y77894D01*
X205487Y77719D01*
X205553Y77566D01*
X205618Y77446D01*
X205673Y77359D01*
X205716Y77304D01*
X205727Y77282D01*
X205848Y77140D01*
X205979Y77009D01*
X206099Y76900D01*
X206230Y76801D01*
X206329Y76736D01*
X206416Y76681D01*
X206471Y76648D01*
X206492Y76638D01*
X206667Y76561D01*
X206853Y76506D01*
X207039Y76473D01*
X207203Y76452D01*
X207356Y76430D01*
X207465Y76419D01*
X207575D01*
X207760Y76430D01*
X207946Y76452D01*
X208110Y76484D01*
X208252Y76517D01*
X208372Y76550D01*
X208471Y76583D01*
X208525Y76605D01*
X208547Y76616D01*
X208722Y76703D01*
X208875Y76790D01*
X209006Y76889D01*
X209127Y76987D01*
X209225Y77075D01*
X209301Y77151D01*
X209345Y77195D01*
X209356Y77217D01*
X209476Y77381D01*
X209597Y77556D01*
X209684Y77730D01*
X209771Y77894D01*
X209826Y78047D01*
X209881Y78157D01*
X209892Y78200D01*
X209903Y78233D01*
X209914Y78255D01*
Y78266D01*
X209979Y78517D01*
X210034Y78769D01*
X210067Y79020D01*
X210099Y79250D01*
X210110Y79457D01*
Y79545D01*
X210121Y79621D01*
Y79763D01*
X210110Y80037D01*
X210099Y80299D01*
X210078Y80528D01*
X210045Y80725D01*
X210012Y80889D01*
X210001Y80955D01*
X209990Y81010D01*
X209979Y81064D01*
Y81097D01*
X209968Y81108D01*
Y81119D01*
X209903Y81337D01*
X209837Y81534D01*
X209761Y81709D01*
X209684Y81862D01*
X209618Y81982D01*
X209564Y82070D01*
X209520Y82124D01*
X209509Y82146D01*
X209389Y82299D01*
X209258Y82430D01*
X209138Y82540D01*
X209017Y82638D01*
X208908Y82704D01*
X208821Y82758D01*
X208766Y82791D01*
X208744Y82802D01*
X208569Y82879D01*
X208383Y82933D01*
X208208Y82977D01*
X208034Y82999D01*
X207892Y83021D01*
X207771Y83031D01*
D02*
G37*
G36*
X180064D02*
X179965D01*
X179769Y83021D01*
X179594Y82999D01*
X179419Y82966D01*
X179277Y82933D01*
X179157Y82889D01*
X179058Y82857D01*
X179004Y82835D01*
X178982Y82824D01*
X178818Y82736D01*
X178665Y82649D01*
X178523Y82540D01*
X178402Y82441D01*
X178304Y82354D01*
X178238Y82277D01*
X178184Y82234D01*
X178173Y82212D01*
X178053Y82048D01*
X177943Y81884D01*
X177845Y81709D01*
X177769Y81545D01*
X177703Y81392D01*
X177659Y81283D01*
X177648Y81239D01*
X177637Y81206D01*
X177626Y81184D01*
Y81173D01*
X177561Y80933D01*
X177517Y80671D01*
X177473Y80430D01*
X177452Y80190D01*
X177441Y79993D01*
Y79905D01*
X177430Y79829D01*
Y79687D01*
X177441Y79414D01*
X177452Y79151D01*
X177473Y78911D01*
X177506Y78714D01*
X177528Y78539D01*
X177539Y78474D01*
X177550Y78419D01*
X177561Y78375D01*
Y78342D01*
X177572Y78321D01*
Y78310D01*
X177637Y78091D01*
X177703Y77894D01*
X177779Y77719D01*
X177845Y77566D01*
X177911Y77446D01*
X177965Y77359D01*
X178009Y77304D01*
X178020Y77282D01*
X178140Y77140D01*
X178271Y77009D01*
X178392Y76900D01*
X178523Y76801D01*
X178621Y76736D01*
X178709Y76681D01*
X178763Y76648D01*
X178785Y76638D01*
X178960Y76561D01*
X179146Y76506D01*
X179332Y76473D01*
X179495Y76452D01*
X179648Y76430D01*
X179758Y76419D01*
X179867D01*
X180053Y76430D01*
X180239Y76452D01*
X180403Y76484D01*
X180545Y76517D01*
X180665Y76550D01*
X180763Y76583D01*
X180818Y76605D01*
X180840Y76616D01*
X181015Y76703D01*
X181168Y76790D01*
X181299Y76889D01*
X181419Y76987D01*
X181518Y77075D01*
X181594Y77151D01*
X181638Y77195D01*
X181649Y77217D01*
X181769Y77381D01*
X181889Y77556D01*
X181976Y77730D01*
X182064Y77894D01*
X182119Y78047D01*
X182173Y78157D01*
X182184Y78200D01*
X182195Y78233D01*
X182206Y78255D01*
Y78266D01*
X182272Y78517D01*
X182326Y78769D01*
X182359Y79020D01*
X182392Y79250D01*
X182403Y79457D01*
Y79545D01*
X182414Y79621D01*
Y79763D01*
X182403Y80037D01*
X182392Y80299D01*
X182370Y80528D01*
X182337Y80725D01*
X182304Y80889D01*
X182293Y80955D01*
X182283Y81010D01*
X182272Y81064D01*
Y81097D01*
X182261Y81108D01*
Y81119D01*
X182195Y81337D01*
X182130Y81534D01*
X182053Y81709D01*
X181976Y81862D01*
X181911Y81982D01*
X181856Y82070D01*
X181813Y82124D01*
X181802Y82146D01*
X181681Y82299D01*
X181550Y82430D01*
X181430Y82540D01*
X181310Y82638D01*
X181201Y82704D01*
X181113Y82758D01*
X181058Y82791D01*
X181037Y82802D01*
X180862Y82879D01*
X180676Y82933D01*
X180501Y82977D01*
X180326Y82999D01*
X180184Y83021D01*
X180064Y83031D01*
D02*
G37*
%LPD*%
G36*
X207771Y82256D02*
X207924Y82234D01*
X208045Y82201D01*
X208154Y82168D01*
X208241Y82135D01*
X208307Y82102D01*
X208351Y82081D01*
X208362Y82070D01*
X208471Y81993D01*
X208569Y81906D01*
X208657Y81818D01*
X208733Y81742D01*
X208788Y81665D01*
X208832Y81600D01*
X208853Y81556D01*
X208864Y81545D01*
X208930Y81414D01*
X208996Y81272D01*
X209039Y81141D01*
X209083Y81010D01*
X209116Y80900D01*
X209138Y80813D01*
X209149Y80758D01*
Y80747D01*
Y80736D01*
X209203Y80375D01*
X209225Y80201D01*
X209236Y80037D01*
X209247Y79905D01*
Y79796D01*
Y79752D01*
Y79720D01*
Y79709D01*
Y79698D01*
Y79501D01*
X209236Y79326D01*
X209214Y79151D01*
X209203Y79009D01*
X209181Y78889D01*
X209159Y78791D01*
X209149Y78736D01*
Y78714D01*
X209105Y78550D01*
X209061Y78397D01*
X209017Y78266D01*
X208963Y78146D01*
X208919Y78047D01*
X208886Y77982D01*
X208864Y77927D01*
X208853Y77916D01*
X208777Y77796D01*
X208689Y77687D01*
X208613Y77599D01*
X208525Y77523D01*
X208460Y77457D01*
X208405Y77413D01*
X208362Y77392D01*
X208351Y77381D01*
X208230Y77315D01*
X208110Y77271D01*
X207990Y77228D01*
X207870Y77206D01*
X207771Y77195D01*
X207695Y77184D01*
X207618D01*
X207465Y77195D01*
X207323Y77217D01*
X207192Y77239D01*
X207083Y77282D01*
X206995Y77315D01*
X206930Y77337D01*
X206886Y77359D01*
X206875Y77370D01*
X206766Y77446D01*
X206667Y77534D01*
X206580Y77610D01*
X206514Y77698D01*
X206449Y77774D01*
X206405Y77829D01*
X206383Y77873D01*
X206372Y77883D01*
X206307Y78015D01*
X206252Y78157D01*
X206208Y78288D01*
X206165Y78419D01*
X206132Y78528D01*
X206121Y78616D01*
X206099Y78670D01*
Y78692D01*
X206044Y79064D01*
X206033Y79239D01*
X206023Y79403D01*
X206012Y79534D01*
Y79643D01*
Y79687D01*
Y79720D01*
Y79731D01*
Y79742D01*
Y79927D01*
X206023Y80113D01*
X206044Y80277D01*
X206055Y80419D01*
X206077Y80540D01*
X206088Y80638D01*
X206099Y80692D01*
Y80714D01*
X206143Y80878D01*
X206187Y81031D01*
X206241Y81173D01*
X206285Y81283D01*
X206329Y81381D01*
X206361Y81458D01*
X206383Y81501D01*
X206394Y81512D01*
X206471Y81633D01*
X206558Y81742D01*
X206635Y81840D01*
X206711Y81917D01*
X206788Y81982D01*
X206842Y82026D01*
X206875Y82048D01*
X206886Y82059D01*
X207006Y82124D01*
X207126Y82179D01*
X207258Y82212D01*
X207367Y82244D01*
X207465Y82256D01*
X207553Y82266D01*
X207618D01*
X207771Y82256D01*
D02*
G37*
G36*
X180064D02*
X180217Y82234D01*
X180337Y82201D01*
X180446Y82168D01*
X180534Y82135D01*
X180599Y82102D01*
X180643Y82081D01*
X180654Y82070D01*
X180763Y81993D01*
X180862Y81906D01*
X180949Y81818D01*
X181026Y81742D01*
X181080Y81665D01*
X181124Y81600D01*
X181146Y81556D01*
X181157Y81545D01*
X181222Y81414D01*
X181288Y81272D01*
X181332Y81141D01*
X181375Y81010D01*
X181408Y80900D01*
X181430Y80813D01*
X181441Y80758D01*
Y80747D01*
Y80736D01*
X181496Y80375D01*
X181518Y80201D01*
X181528Y80037D01*
X181539Y79905D01*
Y79796D01*
Y79752D01*
Y79720D01*
Y79709D01*
Y79698D01*
Y79501D01*
X181528Y79326D01*
X181507Y79151D01*
X181496Y79009D01*
X181474Y78889D01*
X181452Y78791D01*
X181441Y78736D01*
Y78714D01*
X181397Y78550D01*
X181353Y78397D01*
X181310Y78266D01*
X181255Y78146D01*
X181211Y78047D01*
X181179Y77982D01*
X181157Y77927D01*
X181146Y77916D01*
X181069Y77796D01*
X180982Y77687D01*
X180905Y77599D01*
X180818Y77523D01*
X180752Y77457D01*
X180698Y77413D01*
X180654Y77392D01*
X180643Y77381D01*
X180523Y77315D01*
X180403Y77271D01*
X180282Y77228D01*
X180162Y77206D01*
X180064Y77195D01*
X179987Y77184D01*
X179911D01*
X179758Y77195D01*
X179616Y77217D01*
X179484Y77239D01*
X179375Y77282D01*
X179288Y77315D01*
X179222Y77337D01*
X179178Y77359D01*
X179167Y77370D01*
X179058Y77446D01*
X178960Y77534D01*
X178872Y77610D01*
X178807Y77698D01*
X178741Y77774D01*
X178698Y77829D01*
X178676Y77873D01*
X178665Y77883D01*
X178599Y78015D01*
X178544Y78157D01*
X178501Y78288D01*
X178457Y78419D01*
X178424Y78528D01*
X178413Y78616D01*
X178392Y78670D01*
Y78692D01*
X178337Y79064D01*
X178326Y79239D01*
X178315Y79403D01*
X178304Y79534D01*
Y79643D01*
Y79687D01*
Y79720D01*
Y79731D01*
Y79742D01*
Y79927D01*
X178315Y80113D01*
X178337Y80277D01*
X178348Y80419D01*
X178370Y80540D01*
X178381Y80638D01*
X178392Y80692D01*
Y80714D01*
X178435Y80878D01*
X178479Y81031D01*
X178534Y81173D01*
X178577Y81283D01*
X178621Y81381D01*
X178654Y81458D01*
X178676Y81501D01*
X178687Y81512D01*
X178763Y81633D01*
X178850Y81742D01*
X178927Y81840D01*
X179004Y81917D01*
X179080Y81982D01*
X179135Y82026D01*
X179167Y82048D01*
X179178Y82059D01*
X179299Y82124D01*
X179419Y82179D01*
X179550Y82212D01*
X179659Y82244D01*
X179758Y82256D01*
X179845Y82266D01*
X179911D01*
X180064Y82256D01*
D02*
G37*
%LPC*%
G36*
X160757Y95515D02*
X160751D01*
X160728D01*
X160693Y95509D01*
X160646Y95504D01*
X160594Y95492D01*
X160536Y95474D01*
X160472Y95445D01*
X160407Y95410D01*
X160343Y95369D01*
X160279Y95317D01*
X160221Y95247D01*
X160169Y95171D01*
X160122Y95072D01*
X160087Y94967D01*
X160064Y94839D01*
X160058Y94693D01*
Y94215D01*
X161498D01*
Y94687D01*
X161492Y94717D01*
Y94752D01*
X161486Y94792D01*
X161474Y94886D01*
X161451Y94990D01*
X161416Y95101D01*
X161369Y95200D01*
X161305Y95294D01*
X161294Y95305D01*
X161270Y95329D01*
X161224Y95364D01*
X161165Y95404D01*
X161090Y95445D01*
X160991Y95480D01*
X160886Y95504D01*
X160757Y95515D01*
D02*
G37*
G36*
X57033Y13786D02*
X57030D01*
X57029Y13785D01*
X57033D01*
X57033Y13786D01*
D02*
G37*
G36*
X174006Y73757D02*
X174002D01*
Y73753D01*
X174007D01*
X174008Y73754D01*
Y73755D01*
X174007Y73756D01*
X174006Y73757D01*
D02*
G37*
G36*
X110518Y76254D02*
X110514Y76249D01*
X110518D01*
Y76254D01*
D02*
G37*
G36*
X110506Y76257D02*
X110502D01*
Y76253D01*
X110507D01*
X110508Y76254D01*
Y76255D01*
X110507Y76256D01*
X110506Y76257D01*
D02*
G37*
G36*
X174006Y80763D02*
X174002D01*
Y80759D01*
X174007D01*
X174008Y80760D01*
Y80761D01*
X174007Y80762D01*
X174006Y80763D01*
D02*
G37*
G36*
X110506Y82763D02*
X110502D01*
Y82759D01*
X110507D01*
X110508Y82760D01*
Y82761D01*
X110507Y82762D01*
X110506Y82763D01*
D02*
G37*
G36*
X111006Y69263D02*
X111002D01*
Y69259D01*
X111007D01*
X111008Y69260D01*
Y69261D01*
X111007Y69262D01*
X111006Y69263D01*
D02*
G37*
G36*
X225963Y28523D02*
X225962D01*
X225961D01*
X225960Y28522D01*
X225959D01*
Y28519D01*
X225960Y28518D01*
X225961D01*
X225962D01*
X225963D01*
X225964D01*
Y28522D01*
X225963Y28523D01*
D02*
G37*
G36*
X225956D02*
X225955D01*
X225954Y28522D01*
X225953D01*
Y28519D01*
X225954Y28518D01*
X225955D01*
X225956D01*
X225957D01*
Y28522D01*
X225956Y28523D01*
D02*
G37*
G36*
X225959Y28512D02*
X225958D01*
X225956Y28511D01*
X225955Y28510D01*
X225954Y28509D01*
X225953Y28508D01*
Y28505D01*
X225955Y28503D01*
X225956D01*
X225959Y28502D01*
X225961D01*
X225963Y28503D01*
Y28504D01*
X225964Y28507D01*
Y28508D01*
X225963Y28507D01*
X225962D01*
Y28508D01*
X225963Y28510D01*
X225962Y28511D01*
X225959Y28512D01*
D02*
G37*
G36*
Y54512D02*
X225958D01*
X225956Y54511D01*
X225955Y54510D01*
X225954Y54509D01*
X225953Y54508D01*
Y54505D01*
X225955Y54503D01*
X225956D01*
X225959Y54502D01*
X225961D01*
X225963Y54503D01*
Y54504D01*
X225964Y54507D01*
Y54508D01*
X225963Y54507D01*
X225962D01*
Y54508D01*
X225963Y54510D01*
X225962Y54511D01*
X225959Y54512D01*
D02*
G37*
G36*
X196963Y31523D02*
X196961D01*
X196960D01*
X196959Y31522D01*
X196958D01*
Y31519D01*
X196959Y31518D01*
X196960D01*
X196961D01*
X196962D01*
X196963D01*
X196964D01*
Y31522D01*
X196963Y31523D01*
D02*
G37*
G36*
X196959Y31512D02*
X196958D01*
X196956Y31511D01*
X196955Y31510D01*
X196954Y31509D01*
X196953Y31508D01*
Y31505D01*
X196955Y31503D01*
X196956D01*
X196959Y31502D01*
X196961D01*
X196963Y31503D01*
Y31504D01*
X196964Y31507D01*
Y31508D01*
X196963Y31507D01*
X196962D01*
Y31508D01*
X196963Y31510D01*
X196962Y31511D01*
X196959Y31512D01*
D02*
G37*
G36*
Y54512D02*
X196958D01*
X196956Y54511D01*
X196955Y54510D01*
X196954Y54509D01*
X196953Y54508D01*
Y54505D01*
X196955Y54503D01*
X196956D01*
X196959Y54502D01*
X196961D01*
X196963Y54503D01*
Y54504D01*
X196964Y54507D01*
Y54508D01*
X196963Y54507D01*
X196962D01*
Y54508D01*
X196963Y54510D01*
X196962Y54511D01*
X196959Y54512D01*
D02*
G37*
G36*
X33041Y57998D02*
X33039D01*
X33037Y57997D01*
Y57996D01*
X33036Y57993D01*
Y57992D01*
X33037Y57993D01*
X33038D01*
Y57992D01*
X33037Y57990D01*
X33038Y57989D01*
X33041Y57988D01*
X33042D01*
X33044Y57989D01*
X33045Y57990D01*
X33046Y57991D01*
X33047Y57992D01*
Y57995D01*
X33045Y57997D01*
X33044D01*
X33041Y57998D01*
D02*
G37*
G36*
X33039Y57983D02*
Y57979D01*
X33044D01*
X33039Y57983D01*
D02*
G37*
G36*
X33041Y34998D02*
X33039D01*
X33037Y34997D01*
Y34996D01*
X33036Y34993D01*
Y34992D01*
X33037Y34993D01*
X33038D01*
Y34992D01*
X33037Y34990D01*
X33038Y34989D01*
X33041Y34988D01*
X33042D01*
X33044Y34989D01*
X33045Y34990D01*
X33046Y34991D01*
X33047Y34992D01*
Y34995D01*
X33045Y34997D01*
X33044D01*
X33041Y34998D01*
D02*
G37*
G36*
X59041Y59998D02*
X59039D01*
X59037Y59997D01*
Y59996D01*
X59036Y59993D01*
Y59992D01*
X59037Y59993D01*
X59038D01*
Y59992D01*
X59037Y59990D01*
X59038Y59989D01*
X59041Y59988D01*
X59042D01*
X59044Y59989D01*
X59045Y59990D01*
X59046Y59991D01*
X59047Y59992D01*
Y59995D01*
X59045Y59997D01*
X59044D01*
X59041Y59998D01*
D02*
G37*
G36*
Y35498D02*
X59039D01*
X59037Y35497D01*
Y35496D01*
X59036Y35493D01*
Y35492D01*
X59037Y35493D01*
X59038D01*
Y35492D01*
X59037Y35490D01*
X59038Y35489D01*
X59041Y35488D01*
X59042D01*
X59044Y35489D01*
X59045Y35490D01*
X59046Y35491D01*
X59047Y35492D01*
Y35495D01*
X59045Y35497D01*
X59044D01*
X59041Y35498D01*
D02*
G37*
G36*
X157506Y67263D02*
X157502D01*
Y67252D01*
X157507D01*
Y67253D01*
X157508D01*
Y67254D01*
X157509Y67255D01*
Y67257D01*
Y67258D01*
X157508Y67260D01*
X157507Y67261D01*
X157506Y67262D01*
Y67263D01*
D02*
G37*
G36*
X99006Y14263D02*
X99002D01*
Y14252D01*
X99007D01*
Y14253D01*
X99008D01*
Y14254D01*
X99009Y14255D01*
Y14257D01*
Y14258D01*
X99008Y14260D01*
X99007Y14261D01*
X99006Y14262D01*
Y14263D01*
D02*
G37*
G36*
X118006Y50763D02*
X118002D01*
Y50752D01*
X118007D01*
Y50753D01*
X118008D01*
Y50754D01*
X118009Y50755D01*
Y50757D01*
Y50758D01*
X118008Y50760D01*
X118007Y50761D01*
X118006Y50762D01*
Y50763D01*
D02*
G37*
G36*
X131231Y58532D02*
X131229D01*
X131227D01*
X131226D01*
X131225D01*
X131223Y58531D01*
X131222Y58530D01*
X131221Y58529D01*
Y58528D01*
X131222Y58527D01*
X131223D01*
X131227D01*
X131228D01*
X131229D01*
X131231D01*
X131232D01*
Y58531D01*
X131231Y58532D01*
D02*
G37*
G36*
X169778Y45984D02*
X169777D01*
X169775D01*
X169774D01*
X169773D01*
Y45980D01*
X169774Y45979D01*
X169775D01*
X169776D01*
X169778Y45980D01*
X169779D01*
Y45983D01*
X169778Y45984D01*
D02*
G37*
G36*
X138731Y34021D02*
X138730D01*
X138729D01*
X138728Y34020D01*
X138727D01*
Y34017D01*
X138728Y34016D01*
X138729D01*
X138730D01*
X138731D01*
X138732D01*
Y34020D01*
X138731Y34021D01*
D02*
G37*
G36*
X138724D02*
X138723D01*
X138722Y34020D01*
X138721D01*
Y34017D01*
X138722Y34016D01*
X138723D01*
X138724D01*
X138725D01*
Y34020D01*
X138724Y34021D01*
D02*
G37*
G36*
X132773Y26984D02*
X132772D01*
X132771D01*
X132770D01*
X132769D01*
X132768D01*
Y26980D01*
X132769Y26979D01*
X132771D01*
X132772D01*
X132773Y26980D01*
X132774D01*
Y26983D01*
X132773Y26984D01*
D02*
G37*
G36*
X87229Y26019D02*
X87224D01*
X87229Y26015D01*
Y26019D01*
D02*
G37*
%LPD*%
D10*
X173107Y66342D02*
G03*
X173107Y66342I-394J0D01*
G01*
X204552Y18583D02*
G03*
X204552Y18583I-394J0D01*
G01*
X36052D02*
G03*
X36052Y18583I-394J0D01*
G01*
X84311Y23658D02*
G03*
X84311Y23658I-394J0D01*
G01*
X173107Y43342D02*
G03*
X173107Y43342I-394J0D01*
G01*
X19881Y34558D02*
G03*
X19881Y34558I-7681J0D01*
G01*
X19885Y54242D02*
G03*
X19885Y54242I-7685J0D01*
G01*
X254981Y56309D02*
G03*
X254981Y56309I-7681J0D01*
G01*
X254985Y36624D02*
G03*
X254985Y36624I-7685J0D01*
G01*
X55500Y69787D02*
G03*
X55500Y69787I-394J0D01*
G01*
X224000D02*
G03*
X224000Y69787I-394J0D01*
G01*
X84311Y47658D02*
G03*
X84311Y47658I-394J0D01*
G01*
X141095Y87980D02*
G03*
X146658Y87980I2781J0D01*
G01*
X131303Y88768D02*
G03*
X131405Y88694I-176J-352D01*
G01*
X85581Y99300D02*
G03*
X85581Y99300I-7681J0D01*
G01*
X105271D02*
G03*
X105271Y99300I-7685J0D01*
G01*
X180629Y46500D02*
Y66500D01*
X174130Y46500D02*
Y47110D01*
Y50890D02*
Y52110D01*
Y55890D02*
Y57110D01*
Y60890D02*
Y62110D01*
Y65890D02*
Y66500D01*
X194130Y46500D02*
Y47110D01*
Y65890D02*
Y66500D01*
X174130Y46500D02*
X194130D01*
X174130Y66500D02*
X194130D01*
X111700Y17200D02*
Y20800D01*
X110000Y22500D02*
X111700Y20800D01*
X104750Y22500D02*
X110000D01*
X104750Y15500D02*
X110000D01*
X111700Y17200D01*
X102060Y15690D02*
Y22170D01*
X89750Y15500D02*
Y22500D01*
Y15500D02*
X96250D01*
X89750Y22500D02*
X96250D01*
X98860Y22050D02*
X102060Y18850D01*
X98860Y15880D02*
Y22050D01*
Y15880D02*
X101900Y18920D01*
X204000Y26500D02*
X224000D01*
X223390Y20001D02*
X224000D01*
X218390D02*
X219610D01*
X213390D02*
X214610D01*
X208390D02*
X209610D01*
X204000D02*
X204610D01*
X223390Y40001D02*
X224000D01*
X204000D02*
X204610D01*
X224000Y20001D02*
Y40001D01*
X204000Y20001D02*
Y40001D01*
X35500Y20001D02*
Y40001D01*
X55500Y20001D02*
Y40001D01*
X35500D02*
X36110D01*
X54890D02*
X55500D01*
X35500Y20001D02*
X36110D01*
X39890D02*
X41110D01*
X44890D02*
X46110D01*
X49890D02*
X51110D01*
X54890D02*
X55500D01*
X35500Y26500D02*
X55500D01*
X62499Y23500D02*
X82499D01*
X62499Y43500D02*
X82499D01*
X62499Y23500D02*
Y24110D01*
Y42890D02*
Y43500D01*
X82499Y23500D02*
Y24110D01*
Y27890D02*
Y29110D01*
Y32890D02*
Y34110D01*
Y37890D02*
Y39110D01*
Y42890D02*
Y43500D01*
X76000Y23500D02*
Y43500D01*
X180629Y23500D02*
Y43500D01*
X174130Y23500D02*
Y24110D01*
Y27890D02*
Y29110D01*
Y32890D02*
Y34110D01*
Y37890D02*
Y39110D01*
Y42890D02*
Y43500D01*
X194130Y23500D02*
Y24110D01*
Y42890D02*
Y43500D01*
X174130Y23500D02*
X194130D01*
X174130Y43500D02*
X194130D01*
X12200Y26876D02*
Y28200D01*
X12500Y40900D02*
Y42000D01*
X12200Y46557D02*
Y47800D01*
X12500Y60400D02*
Y61600D01*
X27100Y25100D02*
X27200Y25000D01*
X27100Y25100D02*
Y64500D01*
X30500Y25000D02*
Y64500D01*
X1000Y25000D02*
X30500D01*
X1000Y64500D02*
X30500D01*
X1000Y25000D02*
Y64500D01*
X247300Y62666D02*
Y63990D01*
X247000Y48866D02*
Y49966D01*
X247300Y43066D02*
Y44309D01*
X247000Y29266D02*
Y30466D01*
X232300Y65866D02*
X232400Y65766D01*
Y26366D02*
Y65766D01*
X229000Y26366D02*
Y65866D01*
X258500D01*
X229000Y26366D02*
X258500D01*
Y65866D01*
X123200Y61700D02*
X126800D01*
X121500Y60000D02*
X123200Y61700D01*
X121500Y54750D02*
Y60000D01*
X128500Y54750D02*
Y60000D01*
X126800Y61700D02*
X128500Y60000D01*
X121830Y52060D02*
X128310D01*
X121500Y39750D02*
X128500D01*
Y46250D01*
X121500Y39750D02*
Y46250D01*
X121950Y48860D02*
X125150Y52060D01*
X121950Y48860D02*
X128120D01*
X125080Y51900D02*
X128120Y48860D01*
X55264Y48370D02*
Y68370D01*
X35264Y48370D02*
Y68370D01*
X54654Y48370D02*
X55264D01*
X35264D02*
X35874D01*
X54654Y68370D02*
X55264D01*
X49654D02*
X50874D01*
X44654D02*
X45874D01*
X39654D02*
X40874D01*
X35264D02*
X35874D01*
X35264Y61871D02*
X55264D01*
X203764D02*
X223764D01*
X203764Y68370D02*
X204374D01*
X208154D02*
X209374D01*
X213154D02*
X214374D01*
X218154D02*
X219374D01*
X223154D02*
X223764D01*
X203764Y48370D02*
X204374D01*
X223154D02*
X223764D01*
X203764D02*
Y68370D01*
X223764Y48370D02*
Y68370D01*
X62499Y47500D02*
X82499D01*
X62499Y67500D02*
X82499D01*
X62499Y47500D02*
Y48110D01*
Y66890D02*
Y67500D01*
X82499Y47500D02*
Y48110D01*
Y51890D02*
Y53110D01*
Y56890D02*
Y58110D01*
Y61890D02*
Y63110D01*
Y66890D02*
Y67500D01*
X76000Y47500D02*
Y67500D01*
X147800Y59700D02*
Y63300D01*
Y59700D02*
X149500Y58000D01*
X154750D01*
X149500Y65000D02*
X154750D01*
X147800Y63300D02*
X149500Y65000D01*
X157440Y58330D02*
Y64810D01*
X169750Y58000D02*
Y65000D01*
X163250D02*
X169750D01*
X163250Y58000D02*
X169750D01*
X157440Y61650D02*
X160640Y58450D01*
Y64620D01*
X157600Y61580D02*
X160640Y64620D01*
X135240Y68295D02*
X152563D01*
X135240D02*
Y87980D01*
X141095D01*
X152563Y68295D02*
Y87980D01*
X146658D02*
X152563D01*
X70219Y99300D02*
X71543D01*
X84242Y99000D02*
X85343D01*
X89899Y99300D02*
X91142D01*
X103743Y99000D02*
X104943D01*
X68343Y84300D02*
X68442Y84400D01*
X107843D01*
X68343Y81000D02*
X107843D01*
X68343D02*
Y110500D01*
X107843Y81000D02*
Y110500D01*
X68343D02*
X107843D01*
X170941Y85295D02*
X226059D01*
X170941D02*
Y109705D01*
X226059D01*
Y85295D02*
Y109705D01*
D11*
X124902Y16400D02*
G03*
X124902Y21600I-902J2600D01*
G01*
X115098D02*
G03*
X115098Y16400I902J-2600D01*
G01*
X110600Y36402D02*
G03*
X105400Y36402I-2600J-902D01*
G01*
Y26598D02*
G03*
X110600Y26598I2600J902D01*
G01*
X118400Y26698D02*
G03*
X123600Y26698I2600J902D01*
G01*
Y36502D02*
G03*
X118400Y36502I-2600J-902D01*
G01*
X111900Y26698D02*
G03*
X117100Y26698I2600J902D01*
G01*
Y36502D02*
G03*
X111900Y36502I-2600J-902D01*
G01*
X92098Y31100D02*
G03*
X92098Y25900I902J-2600D01*
G01*
X101902D02*
G03*
X101902Y31100I-902J2600D01*
G01*
Y31900D02*
G03*
X101902Y37100I-902J2600D01*
G01*
X92098D02*
G03*
X92098Y31900I902J-2600D01*
G01*
X155598Y47100D02*
G03*
X155598Y41900I902J-2600D01*
G01*
X165402D02*
G03*
X165402Y47100I-902J2600D01*
G01*
X146400Y44098D02*
G03*
X151600Y44098I2600J902D01*
G01*
Y53902D02*
G03*
X146400Y53902I-2600J-902D01*
G01*
X133400Y44098D02*
G03*
X138600Y44098I2600J902D01*
G01*
Y53902D02*
G03*
X133400Y53902I-2600J-902D01*
G01*
X145100D02*
G03*
X139900Y53902I-2600J-902D01*
G01*
Y44098D02*
G03*
X145100Y44098I2600J902D01*
G01*
X165402Y48400D02*
G03*
X165402Y53600I-902J2600D01*
G01*
X155598D02*
G03*
X155598Y48400I902J-2600D01*
G01*
X144902Y58400D02*
G03*
X144902Y63600I-902J2600D01*
G01*
X135098D02*
G03*
X135098Y58400I902J-2600D01*
G01*
X64535Y94000D02*
G03*
X64535Y94000I-16535J0D01*
G01*
X122100Y16400D02*
X124902D01*
X122100Y21600D02*
X124902D01*
X115098Y16400D02*
X117900D01*
X115098Y21600D02*
X117900D01*
X110600Y33600D02*
Y36402D01*
X105400Y33600D02*
Y36402D01*
X110600Y26598D02*
Y29400D01*
X105400Y26598D02*
Y29400D01*
X118400Y26698D02*
Y29500D01*
X123600Y26698D02*
Y29500D01*
X118400Y33700D02*
Y36502D01*
X123600Y33700D02*
Y36502D01*
X111900Y26698D02*
Y29500D01*
X117100Y26698D02*
Y29500D01*
X111900Y33700D02*
Y36502D01*
X117100Y33700D02*
Y36502D01*
X92098Y31100D02*
X94900D01*
X92098Y25900D02*
X94900D01*
X99100Y31100D02*
X101902D01*
X99100Y25900D02*
X101902D01*
X99100Y31900D02*
X101902D01*
X99100Y37100D02*
X101902D01*
X92098Y31900D02*
X94900D01*
X92098Y37100D02*
X94900D01*
X155598Y47100D02*
X158400D01*
X155598Y41900D02*
X158400D01*
X162600Y47100D02*
X165402D01*
X162600Y41900D02*
X165402D01*
X146400Y44098D02*
Y46900D01*
X151600Y44098D02*
Y46900D01*
X146400Y51100D02*
Y53902D01*
X151600Y51100D02*
Y53902D01*
X133400Y44098D02*
Y46900D01*
X138600Y44098D02*
Y46900D01*
X133400Y51100D02*
Y53902D01*
X138600Y51100D02*
Y53902D01*
X145100Y51100D02*
Y53902D01*
X139900Y51100D02*
Y53902D01*
X145100Y44098D02*
Y46900D01*
X139900Y44098D02*
Y46900D01*
X162600Y48400D02*
X165402D01*
X162600Y53600D02*
X165402D01*
X155598Y48400D02*
X158400D01*
X155598Y53600D02*
X158400D01*
X142100Y58400D02*
X144902D01*
X142100Y63600D02*
X144902D01*
X135098Y58400D02*
X137900D01*
X135098Y63600D02*
X137900D01*
X31500Y94000D02*
X32252D01*
X32000Y98000D02*
X44500Y110500D01*
X32252Y94000D02*
X48500Y110248D01*
X36000Y94000D02*
X52000Y110000D01*
X40000Y94000D02*
X55000Y109000D01*
X44000Y94000D02*
X57500Y107500D01*
X48000Y94000D02*
X59500Y105500D01*
X52000Y94000D02*
X61500Y103500D01*
X56000Y94000D02*
X63000Y101000D01*
X60000Y94000D02*
X64000Y98000D01*
X32252Y94000D02*
X64500D01*
X48500Y110248D02*
Y110500D01*
D12*
X58300Y108419D02*
G03*
X37700Y108419I-10300J-14419D01*
G01*
D13*
X198100Y3200D02*
X199100D01*
Y8800D01*
X198100D02*
X199100D01*
X192700Y3200D02*
X198000D01*
X198100D02*
Y8600D01*
X192700Y8800D02*
X198100D01*
X183900Y3200D02*
X189300D01*
X183900D02*
Y3400D01*
Y8800D01*
X184000D01*
X189300D01*
X58400D02*
X59400D01*
X58400Y3200D02*
Y8800D01*
Y3200D02*
X59400D01*
X59500Y8800D02*
X64800D01*
X59400Y3400D02*
Y8800D01*
Y3200D02*
X64800D01*
X68200Y8800D02*
X73600D01*
Y8600D02*
Y8800D01*
Y3200D02*
Y8600D01*
X73500Y3200D02*
X73600D01*
X68200D02*
X73500D01*
X166250Y3400D02*
X179750D01*
Y8600D01*
X166250D02*
X179750D01*
X166250Y3400D02*
Y8600D01*
X77250Y3600D02*
X90750D01*
Y8800D01*
X77250D02*
X90750D01*
X77250Y3600D02*
Y8800D01*
X114750Y66400D02*
X128250D01*
Y71600D01*
X114750D02*
X128250D01*
X114750Y66400D02*
Y71600D01*
X159250Y70400D02*
X172750D01*
Y75600D01*
X159250D02*
X172750D01*
X159250Y70400D02*
Y75600D01*
X114750Y72900D02*
X128250D01*
Y78100D01*
X114750D02*
X128250D01*
X114750Y72900D02*
Y78100D01*
X159250Y77900D02*
X172750D01*
Y83100D01*
X159250D02*
X172750D01*
X159250Y77900D02*
Y83100D01*
X114600Y80400D02*
X128100D01*
Y85600D01*
X114600D02*
X128100D01*
X114600Y80400D02*
Y85600D01*
D14*
X157102Y39154D02*
X158546D01*
X141847D02*
X144898D01*
X141847Y36102D02*
Y39154D01*
Y20846D02*
Y23898D01*
Y20846D02*
X144898D01*
X157102D02*
X160153D01*
Y23898D01*
Y36102D02*
Y37547D01*
X158546Y39154D02*
X160153Y37547D01*
X94346Y41935D02*
X95953Y40328D01*
X94346Y41935D02*
Y43379D01*
Y55584D02*
Y58635D01*
X97397D01*
X109602D02*
X112653D01*
Y55584D02*
Y58635D01*
Y40328D02*
Y43379D01*
X109602Y40328D02*
X112653D01*
X95953D02*
X97397D01*
X127000Y90500D02*
Y110500D01*
Y90500D02*
X157000D01*
Y110500D01*
X127000D02*
X157000D01*
X127000Y100500D02*
X137000D01*
Y90500D02*
Y100500D01*
M02*
