G04*
G04 #@! TF.GenerationSoftware,Altium Limited,Altium Designer,22.1.2 (22)*
G04*
G04 Layer_Color=8421504*
%FSLAX25Y25*%
%MOIN*%
G70*
G04*
G04 #@! TF.SameCoordinates,03C845ED-AF23-4815-B137-924D907A0311*
G04*
G04*
G04 #@! TF.FilePolarity,Positive*
G04*
G01*
G75*
%ADD15R,0.12800X0.16950*%
%ADD16R,0.03940X0.01960*%
%ADD17R,0.05000X0.03500*%
G04:AMPARAMS|DCode=18|XSize=50mil|YSize=35mil|CornerRadius=0mil|HoleSize=0mil|Usage=FLASHONLY|Rotation=0.000|XOffset=0mil|YOffset=0mil|HoleType=Round|Shape=Octagon|*
%AMOCTAGOND18*
4,1,8,0.02500,-0.00875,0.02500,0.00875,0.01625,0.01750,-0.01625,0.01750,-0.02500,0.00875,-0.02500,-0.00875,-0.01625,-0.01750,0.01625,-0.01750,0.02500,-0.00875,0.0*
%
%ADD18OCTAGOND18*%

%ADD19R,0.04000X0.03150*%
G04:AMPARAMS|DCode=20|XSize=55mil|YSize=50mil|CornerRadius=0mil|HoleSize=0mil|Usage=FLASHONLY|Rotation=0.000|XOffset=0mil|YOffset=0mil|HoleType=Round|Shape=Octagon|*
%AMOCTAGOND20*
4,1,8,0.02750,-0.01250,0.02750,0.01250,0.01500,0.02500,-0.01500,0.02500,-0.02750,0.01250,-0.02750,-0.01250,-0.01500,-0.02500,0.01500,-0.02500,0.02750,-0.01250,0.0*
%
%ADD20OCTAGOND20*%

%ADD21R,0.05500X0.05000*%
%ADD22R,0.03500X0.03000*%
%ADD23R,0.16950X0.12800*%
%ADD24R,0.01960X0.03940*%
%ADD25R,0.03150X0.01181*%
%ADD26R,0.01181X0.03150*%
%ADD27R,0.10236X0.10236*%
%ADD28R,0.03000X0.03500*%
G04:AMPARAMS|DCode=29|XSize=55mil|YSize=50mil|CornerRadius=0mil|HoleSize=0mil|Usage=FLASHONLY|Rotation=90.000|XOffset=0mil|YOffset=0mil|HoleType=Round|Shape=Octagon|*
%AMOCTAGOND29*
4,1,8,0.01250,0.02750,-0.01250,0.02750,-0.02500,0.01500,-0.02500,-0.01500,-0.01250,-0.02750,0.01250,-0.02750,0.02500,-0.01500,0.02500,0.01500,0.01250,0.02750,0.0*
%
%ADD29OCTAGOND29*%

%ADD30R,0.05000X0.05500*%
%ADD31R,0.04724X0.01260*%
%ADD32O,0.04724X0.01260*%
D15*
X187629Y56500D02*
D03*
X69000Y33500D02*
D03*
X187629D02*
D03*
X69000Y57500D02*
D03*
D16*
X173500Y49000D02*
D03*
Y54000D02*
D03*
Y59000D02*
D03*
Y64000D02*
D03*
X194720D02*
D03*
Y59000D02*
D03*
Y54000D02*
D03*
Y49000D02*
D03*
X61909Y41000D02*
D03*
Y36000D02*
D03*
Y31000D02*
D03*
Y26000D02*
D03*
X83129D02*
D03*
Y31000D02*
D03*
Y36000D02*
D03*
Y41000D02*
D03*
X173500Y26000D02*
D03*
Y31000D02*
D03*
Y36000D02*
D03*
Y41000D02*
D03*
X194720D02*
D03*
Y36000D02*
D03*
Y31000D02*
D03*
Y26000D02*
D03*
X61909Y65000D02*
D03*
Y60000D02*
D03*
Y55000D02*
D03*
Y50000D02*
D03*
X83129D02*
D03*
Y55000D02*
D03*
Y60000D02*
D03*
Y65000D02*
D03*
D17*
X187500Y6000D02*
D03*
X70000D02*
D03*
D18*
X194500D02*
D03*
X63000D02*
D03*
D19*
X176650D02*
D03*
X169350D02*
D03*
X87650Y6200D02*
D03*
X80350D02*
D03*
X125150Y69000D02*
D03*
X117850D02*
D03*
X169650Y73000D02*
D03*
X162350D02*
D03*
X125150Y75500D02*
D03*
X117850D02*
D03*
X169650Y80500D02*
D03*
X162350D02*
D03*
X125000Y83000D02*
D03*
X117700D02*
D03*
D20*
X107250Y19000D02*
D03*
X152250Y61500D02*
D03*
D21*
X93750Y19000D02*
D03*
X165750Y61500D02*
D03*
D22*
X116500Y19000D02*
D03*
X123400D02*
D03*
X100400Y28500D02*
D03*
X93500D02*
D03*
X93600Y34500D02*
D03*
X100500D02*
D03*
X163900Y44500D02*
D03*
X157000D02*
D03*
X157100Y51000D02*
D03*
X164000D02*
D03*
X136600Y61000D02*
D03*
X143500D02*
D03*
D23*
X214000Y33500D02*
D03*
X45500D02*
D03*
X45264Y54871D02*
D03*
X213764D02*
D03*
D24*
X221500Y19371D02*
D03*
X216500D02*
D03*
X211500D02*
D03*
X206500D02*
D03*
Y40591D02*
D03*
X211500D02*
D03*
X216500D02*
D03*
X221500D02*
D03*
X53000D02*
D03*
X48000D02*
D03*
X43000D02*
D03*
X38000D02*
D03*
Y19371D02*
D03*
X43000D02*
D03*
X48000D02*
D03*
X53000D02*
D03*
X37764Y47780D02*
D03*
X42764D02*
D03*
X47764D02*
D03*
X52764D02*
D03*
Y69000D02*
D03*
X47764D02*
D03*
X42764D02*
D03*
X37764D02*
D03*
X206264D02*
D03*
X211264D02*
D03*
X216264D02*
D03*
X221264D02*
D03*
Y47780D02*
D03*
X216264D02*
D03*
X211264D02*
D03*
X206264D02*
D03*
D25*
X158874Y25079D02*
D03*
Y27047D02*
D03*
Y32953D02*
D03*
Y34921D02*
D03*
X143126Y32953D02*
D03*
Y34921D02*
D03*
Y30984D02*
D03*
X158874D02*
D03*
X143126Y29016D02*
D03*
X158874D02*
D03*
X143126Y25079D02*
D03*
Y27047D02*
D03*
X111373Y52434D02*
D03*
Y54403D02*
D03*
X95625Y50466D02*
D03*
X111373D02*
D03*
X95625Y48498D02*
D03*
X111373D02*
D03*
Y44561D02*
D03*
Y46529D02*
D03*
X95625Y44561D02*
D03*
Y46529D02*
D03*
Y52434D02*
D03*
Y54403D02*
D03*
D26*
X148047Y37874D02*
D03*
X146079Y22126D02*
D03*
X148047D02*
D03*
X150016D02*
D03*
X155921Y37874D02*
D03*
X153953D02*
D03*
X151984D02*
D03*
X150016D02*
D03*
X153953Y22126D02*
D03*
X146079Y37874D02*
D03*
X151984Y22126D02*
D03*
X155921D02*
D03*
X98578Y57356D02*
D03*
X102515D02*
D03*
X108421Y41608D02*
D03*
X100547Y57356D02*
D03*
X104484Y41608D02*
D03*
X102515D02*
D03*
X100547D02*
D03*
X98578D02*
D03*
X104484Y57356D02*
D03*
X106452D02*
D03*
X108421D02*
D03*
X106452Y41608D02*
D03*
D27*
X150999Y29982D02*
D03*
X103500Y49500D02*
D03*
D28*
X108000Y28100D02*
D03*
Y35000D02*
D03*
X121000D02*
D03*
Y28100D02*
D03*
X114500Y35000D02*
D03*
Y28100D02*
D03*
X149000Y52400D02*
D03*
Y45500D02*
D03*
X136000Y52400D02*
D03*
Y45500D02*
D03*
X142500Y45600D02*
D03*
Y52500D02*
D03*
D29*
X125000Y57250D02*
D03*
D30*
Y43750D02*
D03*
D31*
X131303Y85618D02*
D03*
D32*
Y83059D02*
D03*
Y80500D02*
D03*
Y77941D02*
D03*
Y75382D02*
D03*
Y72823D02*
D03*
Y70264D02*
D03*
X156500Y85618D02*
D03*
Y83059D02*
D03*
Y80500D02*
D03*
Y77941D02*
D03*
Y75382D02*
D03*
Y72823D02*
D03*
Y70264D02*
D03*
M02*
