G04*
G04 #@! TF.GenerationSoftware,Altium Limited,Altium Designer,22.1.2 (22)*
G04*
G04 Layer_Color=65535*
%FSLAX25Y25*%
%MOIN*%
G70*
G04*
G04 #@! TF.SameCoordinates,95D767EF-CC4A-4202-867B-88222CEBD608*
G04*
G04*
G04 #@! TF.FilePolarity,Positive*
G04*
G01*
G75*
%ADD10C,0.01000*%
%ADD11C,0.01984*%
%ADD12C,0.00787*%
%ADD13C,0.00800*%
%ADD14C,0.00591*%
%ADD15C,0.00600*%
G36*
X167859Y96772D02*
X167905D01*
X167964Y96765D01*
X168095Y96745D01*
X168246Y96706D01*
X168397Y96654D01*
X168548Y96588D01*
X168620Y96542D01*
X168686Y96490D01*
X168692D01*
X168699Y96477D01*
X168738Y96437D01*
X168791Y96372D01*
X168856Y96286D01*
X168915Y96175D01*
X168968Y96037D01*
X169007Y95880D01*
X169014Y95788D01*
X169020Y95696D01*
Y95689D01*
Y95657D01*
X169014Y95617D01*
X169007Y95558D01*
X168994Y95493D01*
X168974Y95414D01*
X168948Y95328D01*
X168909Y95243D01*
X168863Y95151D01*
X168804Y95060D01*
X168732Y94968D01*
X168640Y94876D01*
X168541Y94797D01*
X168417Y94718D01*
X168279Y94653D01*
X168122Y94600D01*
Y94587D01*
X168128D01*
X168148Y94574D01*
X168181Y94554D01*
X168220Y94535D01*
X168318Y94469D01*
X168410Y94384D01*
X168417Y94377D01*
X168430Y94358D01*
X168463Y94325D01*
X168495Y94279D01*
X168541Y94220D01*
X168594Y94141D01*
X168659Y94049D01*
X168725Y93938D01*
X169486Y92724D01*
X168869D01*
X168194Y93846D01*
Y93853D01*
X168187Y93859D01*
X168161Y93898D01*
X168122Y93957D01*
X168069Y94030D01*
X168010Y94108D01*
X167951Y94187D01*
X167885Y94253D01*
X167820Y94305D01*
X167813Y94312D01*
X167794Y94325D01*
X167754Y94345D01*
X167708Y94371D01*
X167649Y94390D01*
X167584Y94410D01*
X167511Y94423D01*
X167426Y94430D01*
X167046D01*
Y92724D01*
X166521D01*
Y96778D01*
X167820D01*
X167859Y96772D01*
D02*
G37*
G36*
X165471Y92724D02*
X164946D01*
Y96778D01*
X165471D01*
Y92724D01*
D02*
G37*
G36*
X162113Y96772D02*
X162178D01*
X162257Y96765D01*
X162349Y96752D01*
X162447Y96732D01*
X162559Y96713D01*
X162677Y96680D01*
X162801Y96647D01*
X162933Y96601D01*
X163057Y96549D01*
X163188Y96490D01*
X163313Y96417D01*
X163438Y96332D01*
X163556Y96240D01*
X163562Y96234D01*
X163582Y96214D01*
X163615Y96188D01*
X163654Y96142D01*
X163700Y96089D01*
X163746Y96024D01*
X163805Y95945D01*
X163864Y95860D01*
X163917Y95761D01*
X163976Y95657D01*
X164022Y95538D01*
X164074Y95407D01*
X164107Y95269D01*
X164140Y95125D01*
X164159Y94968D01*
X164166Y94804D01*
Y94791D01*
Y94764D01*
X164159Y94712D01*
Y94646D01*
X164146Y94568D01*
X164133Y94476D01*
X164113Y94371D01*
X164087Y94259D01*
X164054Y94141D01*
X164015Y94016D01*
X163969Y93892D01*
X163910Y93767D01*
X163838Y93643D01*
X163759Y93518D01*
X163661Y93400D01*
X163556Y93288D01*
X163549Y93282D01*
X163530Y93262D01*
X163490Y93236D01*
X163444Y93203D01*
X163385Y93157D01*
X163313Y93111D01*
X163228Y93059D01*
X163129Y93006D01*
X163024Y92954D01*
X162906Y92901D01*
X162775Y92855D01*
X162637Y92809D01*
X162487Y92777D01*
X162329Y92750D01*
X162159Y92731D01*
X161981Y92724D01*
X160860D01*
Y96778D01*
X162060D01*
X162113Y96772D01*
D02*
G37*
G36*
X158806Y96844D02*
X158852D01*
X158905Y96837D01*
X159029Y96811D01*
X159167Y96778D01*
X159318Y96726D01*
X159462Y96654D01*
X159528Y96608D01*
X159593Y96555D01*
X159600D01*
X159607Y96542D01*
X159626Y96522D01*
X159646Y96503D01*
X159698Y96437D01*
X159764Y96345D01*
X159830Y96227D01*
X159882Y96096D01*
X159922Y95932D01*
X159928Y95847D01*
X159935Y95755D01*
Y95748D01*
Y95735D01*
Y95709D01*
Y95683D01*
X159928Y95643D01*
X159922Y95597D01*
X159908Y95493D01*
X159882Y95368D01*
X159849Y95243D01*
X159797Y95105D01*
X159725Y94981D01*
Y94974D01*
X159718Y94968D01*
X159705Y94948D01*
X159685Y94922D01*
X159633Y94856D01*
X159561Y94777D01*
X159462Y94673D01*
X159344Y94561D01*
X159272Y94502D01*
X159193Y94436D01*
X159115Y94377D01*
X159023Y94312D01*
X159016Y94305D01*
X159003Y94299D01*
X158977Y94279D01*
X158944Y94253D01*
X158898Y94226D01*
X158852Y94194D01*
X158747Y94115D01*
X158636Y94036D01*
X158524Y93951D01*
X158419Y93872D01*
X158380Y93839D01*
X158341Y93807D01*
X158334Y93800D01*
X158314Y93780D01*
X158282Y93754D01*
X158249Y93715D01*
X158209Y93669D01*
X158170Y93616D01*
X158131Y93564D01*
X158104Y93511D01*
Y93505D01*
X158091Y93485D01*
X158085Y93459D01*
X158072Y93419D01*
X158059Y93367D01*
X158052Y93314D01*
X158039Y93249D01*
Y93177D01*
X160053D01*
Y92724D01*
X157501D01*
Y92921D01*
Y92927D01*
Y92934D01*
Y92954D01*
Y92980D01*
X157507Y93046D01*
X157514Y93131D01*
X157521Y93223D01*
X157540Y93321D01*
X157560Y93419D01*
X157593Y93518D01*
X157599Y93531D01*
X157612Y93557D01*
X157639Y93610D01*
X157671Y93669D01*
X157711Y93741D01*
X157770Y93820D01*
X157829Y93905D01*
X157908Y93990D01*
X157921Y94003D01*
X157947Y94030D01*
X158006Y94082D01*
X158078Y94148D01*
X158177Y94233D01*
X158295Y94331D01*
X158432Y94436D01*
X158596Y94554D01*
X158603Y94561D01*
X158616Y94568D01*
X158642Y94587D01*
X158675Y94613D01*
X158714Y94640D01*
X158760Y94673D01*
X158859Y94751D01*
X158964Y94843D01*
X159075Y94941D01*
X159167Y95040D01*
X159213Y95092D01*
X159246Y95138D01*
X159252Y95151D01*
X159272Y95184D01*
X159305Y95237D01*
X159338Y95309D01*
X159364Y95394D01*
X159397Y95493D01*
X159416Y95597D01*
X159423Y95715D01*
Y95722D01*
Y95729D01*
Y95768D01*
X159410Y95827D01*
X159397Y95906D01*
X159371Y95985D01*
X159338Y96070D01*
X159285Y96155D01*
X159213Y96227D01*
X159206Y96234D01*
X159174Y96260D01*
X159128Y96286D01*
X159069Y96326D01*
X158990Y96358D01*
X158892Y96391D01*
X158780Y96411D01*
X158655Y96417D01*
X158609D01*
X158564Y96411D01*
X158498Y96404D01*
X158419Y96385D01*
X158334Y96365D01*
X158242Y96332D01*
X158144Y96286D01*
X158131Y96280D01*
X158098Y96267D01*
X158052Y96234D01*
X157986Y96194D01*
X157914Y96142D01*
X157835Y96083D01*
X157750Y96011D01*
X157665Y95925D01*
Y96417D01*
X157671Y96424D01*
X157698Y96450D01*
X157744Y96490D01*
X157796Y96535D01*
X157868Y96588D01*
X157940Y96640D01*
X158026Y96693D01*
X158117Y96739D01*
X158131Y96745D01*
X158163Y96759D01*
X158216Y96772D01*
X158288Y96798D01*
X158373Y96818D01*
X158478Y96831D01*
X158590Y96844D01*
X158714Y96850D01*
X158767D01*
X158806Y96844D01*
D02*
G37*
G36*
X221638Y75157D02*
X176362D01*
Y85000D01*
X221638D01*
Y75157D01*
D02*
G37*
G36*
X167738Y107252D02*
X167784D01*
X167843Y107245D01*
X167974Y107226D01*
X168125Y107186D01*
X168276Y107134D01*
X168427Y107068D01*
X168499Y107022D01*
X168564Y106970D01*
X168571D01*
X168577Y106957D01*
X168617Y106917D01*
X168669Y106852D01*
X168735Y106767D01*
X168794Y106655D01*
X168846Y106517D01*
X168886Y106360D01*
X168892Y106268D01*
X168899Y106176D01*
Y106170D01*
Y106137D01*
X168892Y106097D01*
X168886Y106038D01*
X168873Y105973D01*
X168853Y105894D01*
X168827Y105809D01*
X168787Y105724D01*
X168741Y105632D01*
X168682Y105540D01*
X168610Y105448D01*
X168518Y105356D01*
X168420Y105277D01*
X168295Y105199D01*
X168158Y105133D01*
X168000Y105081D01*
Y105068D01*
X168007D01*
X168026Y105054D01*
X168059Y105035D01*
X168099Y105015D01*
X168197Y104949D01*
X168289Y104864D01*
X168295Y104858D01*
X168308Y104838D01*
X168341Y104805D01*
X168374Y104759D01*
X168420Y104700D01*
X168473Y104621D01*
X168538Y104530D01*
X168604Y104418D01*
X169365Y103205D01*
X168748D01*
X168072Y104326D01*
Y104333D01*
X168066Y104339D01*
X168040Y104379D01*
X168000Y104438D01*
X167948Y104510D01*
X167889Y104589D01*
X167830Y104667D01*
X167764Y104733D01*
X167698Y104785D01*
X167692Y104792D01*
X167672Y104805D01*
X167633Y104825D01*
X167587Y104851D01*
X167528Y104871D01*
X167462Y104890D01*
X167390Y104903D01*
X167305Y104910D01*
X166924D01*
Y103205D01*
X166400D01*
Y107258D01*
X167698D01*
X167738Y107252D01*
D02*
G37*
G36*
X165350Y103205D02*
X164825D01*
Y107258D01*
X165350D01*
Y103205D01*
D02*
G37*
G36*
X161991Y107252D02*
X162057D01*
X162136Y107245D01*
X162227Y107232D01*
X162326Y107213D01*
X162437Y107193D01*
X162555Y107160D01*
X162680Y107127D01*
X162811Y107081D01*
X162936Y107029D01*
X163067Y106970D01*
X163192Y106898D01*
X163316Y106813D01*
X163434Y106721D01*
X163441Y106714D01*
X163461Y106694D01*
X163493Y106668D01*
X163533Y106622D01*
X163579Y106570D01*
X163625Y106504D01*
X163684Y106425D01*
X163743Y106340D01*
X163795Y106242D01*
X163854Y106137D01*
X163900Y106019D01*
X163953Y105887D01*
X163985Y105750D01*
X164018Y105605D01*
X164038Y105448D01*
X164044Y105284D01*
Y105271D01*
Y105245D01*
X164038Y105192D01*
Y105127D01*
X164025Y105048D01*
X164012Y104956D01*
X163992Y104851D01*
X163966Y104739D01*
X163933Y104621D01*
X163894Y104497D01*
X163848Y104372D01*
X163789Y104247D01*
X163716Y104123D01*
X163638Y103998D01*
X163539Y103880D01*
X163434Y103769D01*
X163428Y103762D01*
X163408Y103742D01*
X163369Y103716D01*
X163323Y103683D01*
X163264Y103637D01*
X163192Y103592D01*
X163106Y103539D01*
X163008Y103487D01*
X162903Y103434D01*
X162785Y103382D01*
X162654Y103336D01*
X162516Y103290D01*
X162365Y103257D01*
X162208Y103231D01*
X162037Y103211D01*
X161860Y103205D01*
X160738D01*
Y107258D01*
X161939D01*
X161991Y107252D01*
D02*
G37*
G36*
X159072Y103205D02*
X158560D01*
Y106675D01*
X158554Y106668D01*
X158541Y106655D01*
X158508Y106629D01*
X158468Y106596D01*
X158409Y106550D01*
X158337Y106504D01*
X158252Y106452D01*
X158154Y106399D01*
X158141Y106393D01*
X158108Y106373D01*
X158049Y106353D01*
X157976Y106321D01*
X157898Y106288D01*
X157806Y106255D01*
X157714Y106222D01*
X157622Y106196D01*
Y106694D01*
X157629D01*
X157635Y106701D01*
X157655Y106708D01*
X157681Y106714D01*
X157740Y106734D01*
X157832Y106767D01*
X157931Y106806D01*
X158049Y106852D01*
X158173Y106911D01*
X158311Y106976D01*
X158318D01*
X158324Y106983D01*
X158344Y106996D01*
X158370Y107009D01*
X158436Y107049D01*
X158521Y107095D01*
X158613Y107154D01*
X158705Y107219D01*
X158797Y107285D01*
X158875Y107350D01*
X159072D01*
Y103205D01*
D02*
G37*
G36*
X126138Y93224D02*
X125619D01*
Y95907D01*
Y95914D01*
Y95920D01*
Y95940D01*
Y95966D01*
Y95999D01*
Y96038D01*
X125626Y96130D01*
Y96248D01*
X125639Y96386D01*
X125646Y96537D01*
X125659Y96707D01*
X125646D01*
Y96694D01*
X125633Y96662D01*
X125619Y96609D01*
X125606Y96544D01*
X125567Y96412D01*
X125547Y96353D01*
X125528Y96301D01*
X124183Y93224D01*
X123894D01*
X122556Y96275D01*
Y96281D01*
X122549Y96294D01*
X122536Y96327D01*
X122523Y96366D01*
X122510Y96425D01*
X122484Y96504D01*
X122464Y96596D01*
X122438Y96707D01*
X122425D01*
Y96694D01*
X122431Y96655D01*
Y96589D01*
X122438Y96498D01*
X122444Y96386D01*
Y96242D01*
X122451Y96078D01*
Y95888D01*
Y93224D01*
X121946D01*
Y97278D01*
X122661D01*
X123855Y94497D01*
Y94490D01*
X123861Y94484D01*
X123874Y94444D01*
X123901Y94385D01*
X123927Y94313D01*
X123960Y94234D01*
X123993Y94149D01*
X124019Y94070D01*
X124039Y93998D01*
X124058D01*
Y94005D01*
X124065Y94018D01*
X124071Y94031D01*
X124078Y94057D01*
X124104Y94123D01*
X124130Y94202D01*
X124163Y94287D01*
X124196Y94372D01*
X124222Y94451D01*
X124248Y94510D01*
X125462Y97278D01*
X126138D01*
Y93224D01*
D02*
G37*
G36*
X120221D02*
X119611D01*
X118790Y96143D01*
Y96150D01*
X118784Y96176D01*
X118771Y96222D01*
X118764Y96275D01*
X118751Y96334D01*
X118738Y96406D01*
X118725Y96563D01*
X118718D01*
Y96557D01*
X118712Y96524D01*
Y96485D01*
X118705Y96432D01*
X118692Y96366D01*
X118679Y96301D01*
X118646Y96150D01*
X117820Y93224D01*
X117216D01*
X116035Y97278D01*
X116619D01*
X117446Y94215D01*
Y94208D01*
X117452Y94182D01*
X117465Y94136D01*
X117472Y94083D01*
X117485Y94018D01*
X117498Y93952D01*
X117511Y93795D01*
X117524D01*
Y93801D01*
X117531Y93821D01*
Y93861D01*
X117537Y93906D01*
X117551Y93965D01*
X117564Y94038D01*
X117583Y94123D01*
X117610Y94215D01*
X118489Y97278D01*
X119007D01*
X119847Y94188D01*
Y94182D01*
X119853Y94162D01*
X119860Y94129D01*
X119873Y94083D01*
X119879Y94031D01*
X119893Y93959D01*
X119899Y93887D01*
X119912Y93801D01*
X119925D01*
Y93808D01*
Y93834D01*
X119932Y93867D01*
X119939Y93913D01*
X119952Y93972D01*
X119965Y94044D01*
X119978Y94116D01*
X119998Y94202D01*
X120798Y97278D01*
X121362D01*
X120221Y93224D01*
D02*
G37*
G36*
X114474Y97272D02*
X114526D01*
X114592Y97265D01*
X114658Y97252D01*
X114736Y97239D01*
X114900Y97199D01*
X115071Y97147D01*
X115235Y97068D01*
X115307Y97016D01*
X115379Y96963D01*
X115386Y96957D01*
X115392Y96950D01*
X115412Y96931D01*
X115438Y96904D01*
X115465Y96872D01*
X115497Y96832D01*
X115530Y96786D01*
X115563Y96734D01*
X115596Y96675D01*
X115629Y96602D01*
X115661Y96530D01*
X115688Y96452D01*
X115714Y96360D01*
X115734Y96268D01*
X115740Y96163D01*
X115747Y96058D01*
Y96052D01*
Y96032D01*
Y95999D01*
X115740Y95960D01*
X115734Y95907D01*
X115727Y95848D01*
X115714Y95783D01*
X115694Y95710D01*
X115642Y95560D01*
X115609Y95481D01*
X115569Y95395D01*
X115517Y95317D01*
X115458Y95238D01*
X115392Y95159D01*
X115320Y95087D01*
X115314Y95081D01*
X115301Y95074D01*
X115274Y95054D01*
X115248Y95028D01*
X115202Y95002D01*
X115156Y94969D01*
X115097Y94943D01*
X115032Y94903D01*
X114959Y94871D01*
X114881Y94838D01*
X114789Y94812D01*
X114697Y94785D01*
X114599Y94766D01*
X114494Y94746D01*
X114382Y94740D01*
X113733D01*
Y93224D01*
X113208D01*
Y97278D01*
X114428D01*
X114474Y97272D01*
D02*
G37*
G36*
X111155Y97344D02*
X111201D01*
X111253Y97337D01*
X111378Y97311D01*
X111515Y97278D01*
X111666Y97226D01*
X111811Y97154D01*
X111876Y97108D01*
X111942Y97055D01*
X111948D01*
X111955Y97042D01*
X111975Y97022D01*
X111994Y97003D01*
X112047Y96937D01*
X112112Y96845D01*
X112178Y96727D01*
X112231Y96596D01*
X112270Y96432D01*
X112276Y96347D01*
X112283Y96255D01*
Y96248D01*
Y96235D01*
Y96209D01*
Y96183D01*
X112276Y96143D01*
X112270Y96097D01*
X112257Y95992D01*
X112231Y95868D01*
X112198Y95743D01*
X112145Y95605D01*
X112073Y95481D01*
Y95474D01*
X112066Y95468D01*
X112053Y95448D01*
X112034Y95422D01*
X111981Y95356D01*
X111909Y95277D01*
X111811Y95173D01*
X111693Y95061D01*
X111620Y95002D01*
X111542Y94936D01*
X111463Y94877D01*
X111371Y94812D01*
X111365Y94805D01*
X111351Y94799D01*
X111325Y94779D01*
X111292Y94753D01*
X111247Y94726D01*
X111201Y94694D01*
X111096Y94615D01*
X110984Y94536D01*
X110873Y94451D01*
X110768Y94372D01*
X110728Y94339D01*
X110689Y94307D01*
X110682Y94300D01*
X110663Y94280D01*
X110630Y94254D01*
X110597Y94215D01*
X110558Y94169D01*
X110518Y94116D01*
X110479Y94064D01*
X110453Y94011D01*
Y94005D01*
X110440Y93985D01*
X110433Y93959D01*
X110420Y93919D01*
X110407Y93867D01*
X110400Y93814D01*
X110387Y93749D01*
Y93677D01*
X112401D01*
Y93224D01*
X109849D01*
Y93421D01*
Y93427D01*
Y93434D01*
Y93454D01*
Y93480D01*
X109856Y93546D01*
X109862Y93631D01*
X109869Y93723D01*
X109889Y93821D01*
X109908Y93919D01*
X109941Y94018D01*
X109948Y94031D01*
X109961Y94057D01*
X109987Y94110D01*
X110020Y94169D01*
X110059Y94241D01*
X110118Y94320D01*
X110177Y94405D01*
X110256Y94490D01*
X110269Y94503D01*
X110295Y94530D01*
X110354Y94582D01*
X110426Y94648D01*
X110525Y94733D01*
X110643Y94831D01*
X110781Y94936D01*
X110945Y95054D01*
X110951Y95061D01*
X110964Y95068D01*
X110991Y95087D01*
X111023Y95113D01*
X111063Y95140D01*
X111109Y95173D01*
X111207Y95251D01*
X111312Y95343D01*
X111424Y95441D01*
X111515Y95540D01*
X111561Y95592D01*
X111594Y95638D01*
X111601Y95651D01*
X111620Y95684D01*
X111653Y95737D01*
X111686Y95809D01*
X111712Y95894D01*
X111745Y95992D01*
X111765Y96097D01*
X111771Y96215D01*
Y96222D01*
Y96229D01*
Y96268D01*
X111758Y96327D01*
X111745Y96406D01*
X111719Y96485D01*
X111686Y96570D01*
X111634Y96655D01*
X111561Y96727D01*
X111555Y96734D01*
X111522Y96760D01*
X111476Y96786D01*
X111417Y96826D01*
X111338Y96858D01*
X111240Y96891D01*
X111128Y96911D01*
X111004Y96917D01*
X110958D01*
X110912Y96911D01*
X110846Y96904D01*
X110768Y96885D01*
X110682Y96865D01*
X110591Y96832D01*
X110492Y96786D01*
X110479Y96780D01*
X110446Y96767D01*
X110400Y96734D01*
X110335Y96694D01*
X110263Y96642D01*
X110184Y96583D01*
X110099Y96511D01*
X110013Y96425D01*
Y96917D01*
X110020Y96924D01*
X110046Y96950D01*
X110092Y96990D01*
X110144Y97035D01*
X110217Y97088D01*
X110289Y97141D01*
X110374Y97193D01*
X110466Y97239D01*
X110479Y97245D01*
X110512Y97259D01*
X110564Y97272D01*
X110636Y97298D01*
X110722Y97318D01*
X110827Y97331D01*
X110938Y97344D01*
X111063Y97350D01*
X111115D01*
X111155Y97344D01*
D02*
G37*
G36*
X242909Y70205D02*
X242391D01*
Y72887D01*
Y72894D01*
Y72901D01*
Y72920D01*
Y72947D01*
Y72979D01*
Y73019D01*
X242398Y73111D01*
Y73229D01*
X242411Y73366D01*
X242417Y73517D01*
X242431Y73688D01*
X242417D01*
Y73675D01*
X242404Y73642D01*
X242391Y73589D01*
X242378Y73524D01*
X242339Y73393D01*
X242319Y73334D01*
X242299Y73281D01*
X240955Y70205D01*
X240666D01*
X239328Y73255D01*
Y73261D01*
X239321Y73274D01*
X239308Y73307D01*
X239295Y73347D01*
X239282Y73406D01*
X239255Y73484D01*
X239236Y73576D01*
X239210Y73688D01*
X239196D01*
Y73675D01*
X239203Y73635D01*
Y73570D01*
X239210Y73478D01*
X239216Y73366D01*
Y73222D01*
X239223Y73058D01*
Y72868D01*
Y70205D01*
X238718D01*
Y74259D01*
X239433D01*
X240627Y71477D01*
Y71471D01*
X240633Y71464D01*
X240646Y71425D01*
X240672Y71366D01*
X240699Y71293D01*
X240732Y71215D01*
X240764Y71129D01*
X240791Y71051D01*
X240810Y70978D01*
X240830D01*
Y70985D01*
X240837Y70998D01*
X240843Y71011D01*
X240850Y71038D01*
X240876Y71103D01*
X240902Y71182D01*
X240935Y71267D01*
X240968Y71352D01*
X240994Y71431D01*
X241020Y71490D01*
X242234Y74259D01*
X242909D01*
Y70205D01*
D02*
G37*
G36*
X257269D02*
X256758D01*
Y73675D01*
X256751Y73668D01*
X256738Y73655D01*
X256705Y73629D01*
X256666Y73596D01*
X256607Y73550D01*
X256535Y73504D01*
X256449Y73452D01*
X256351Y73399D01*
X256338Y73393D01*
X256305Y73373D01*
X256246Y73353D01*
X256174Y73321D01*
X256095Y73288D01*
X256003Y73255D01*
X255911Y73222D01*
X255820Y73196D01*
Y73694D01*
X255826D01*
X255833Y73701D01*
X255852Y73707D01*
X255879Y73714D01*
X255938Y73734D01*
X256029Y73766D01*
X256128Y73806D01*
X256246Y73852D01*
X256371Y73911D01*
X256508Y73976D01*
X256515D01*
X256521Y73983D01*
X256541Y73996D01*
X256567Y74009D01*
X256633Y74049D01*
X256718Y74095D01*
X256810Y74154D01*
X256902Y74219D01*
X256994Y74285D01*
X257072Y74350D01*
X257269D01*
Y70205D01*
D02*
G37*
G36*
X250788Y73793D02*
X249620D01*
Y70205D01*
X249089D01*
Y73793D01*
X247928D01*
Y74259D01*
X250788D01*
Y73793D01*
D02*
G37*
G36*
X253202Y74324D02*
X253261D01*
X253333Y74311D01*
X253419Y74298D01*
X253510Y74285D01*
X253609Y74259D01*
X253720Y74232D01*
X253832Y74193D01*
X253943Y74147D01*
X254055Y74088D01*
X254173Y74022D01*
X254278Y73950D01*
X254389Y73858D01*
X254488Y73760D01*
X254494Y73753D01*
X254507Y73734D01*
X254534Y73701D01*
X254567Y73655D01*
X254606Y73602D01*
X254652Y73530D01*
X254698Y73452D01*
X254750Y73360D01*
X254796Y73261D01*
X254842Y73150D01*
X254888Y73025D01*
X254927Y72894D01*
X254960Y72756D01*
X254986Y72605D01*
X254999Y72441D01*
X255006Y72277D01*
Y72264D01*
Y72232D01*
X254999Y72186D01*
Y72113D01*
X254993Y72035D01*
X254980Y71936D01*
X254960Y71831D01*
X254941Y71713D01*
X254914Y71589D01*
X254875Y71464D01*
X254836Y71333D01*
X254783Y71202D01*
X254724Y71077D01*
X254652Y70952D01*
X254567Y70828D01*
X254475Y70716D01*
X254468Y70710D01*
X254449Y70690D01*
X254422Y70664D01*
X254376Y70624D01*
X254324Y70585D01*
X254258Y70533D01*
X254186Y70480D01*
X254101Y70428D01*
X254002Y70375D01*
X253897Y70323D01*
X253779Y70270D01*
X253655Y70231D01*
X253517Y70191D01*
X253373Y70165D01*
X253222Y70145D01*
X253058Y70139D01*
X253018D01*
X252973Y70145D01*
X252913D01*
X252841Y70159D01*
X252756Y70172D01*
X252664Y70185D01*
X252559Y70211D01*
X252448Y70237D01*
X252336Y70277D01*
X252225Y70323D01*
X252107Y70375D01*
X251989Y70441D01*
X251877Y70519D01*
X251772Y70605D01*
X251667Y70703D01*
X251660Y70710D01*
X251647Y70729D01*
X251621Y70762D01*
X251588Y70808D01*
X251549Y70860D01*
X251503Y70933D01*
X251457Y71011D01*
X251411Y71097D01*
X251359Y71202D01*
X251313Y71313D01*
X251267Y71431D01*
X251227Y71562D01*
X251195Y71707D01*
X251168Y71851D01*
X251155Y72015D01*
X251149Y72179D01*
Y72192D01*
Y72225D01*
X251155Y72271D01*
Y72343D01*
X251168Y72428D01*
X251175Y72520D01*
X251195Y72625D01*
X251214Y72743D01*
X251241Y72868D01*
X251280Y72992D01*
X251319Y73124D01*
X251372Y73255D01*
X251431Y73386D01*
X251503Y73511D01*
X251588Y73635D01*
X251680Y73747D01*
X251687Y73753D01*
X251706Y73773D01*
X251739Y73799D01*
X251779Y73839D01*
X251831Y73885D01*
X251897Y73931D01*
X251975Y73983D01*
X252061Y74042D01*
X252159Y74095D01*
X252271Y74147D01*
X252389Y74193D01*
X252513Y74239D01*
X252651Y74278D01*
X252802Y74304D01*
X252959Y74324D01*
X253123Y74331D01*
X253163D01*
X253202Y74324D01*
D02*
G37*
G36*
X245750D02*
X245809D01*
X245881Y74311D01*
X245966Y74298D01*
X246058Y74285D01*
X246157Y74259D01*
X246268Y74232D01*
X246380Y74193D01*
X246491Y74147D01*
X246603Y74088D01*
X246721Y74022D01*
X246826Y73950D01*
X246937Y73858D01*
X247036Y73760D01*
X247042Y73753D01*
X247055Y73734D01*
X247082Y73701D01*
X247114Y73655D01*
X247154Y73602D01*
X247200Y73530D01*
X247246Y73452D01*
X247298Y73360D01*
X247344Y73261D01*
X247390Y73150D01*
X247436Y73025D01*
X247475Y72894D01*
X247508Y72756D01*
X247534Y72605D01*
X247547Y72441D01*
X247554Y72277D01*
Y72264D01*
Y72232D01*
X247547Y72186D01*
Y72113D01*
X247541Y72035D01*
X247528Y71936D01*
X247508Y71831D01*
X247488Y71713D01*
X247462Y71589D01*
X247423Y71464D01*
X247383Y71333D01*
X247331Y71202D01*
X247272Y71077D01*
X247200Y70952D01*
X247114Y70828D01*
X247023Y70716D01*
X247016Y70710D01*
X246996Y70690D01*
X246970Y70664D01*
X246924Y70624D01*
X246872Y70585D01*
X246806Y70533D01*
X246734Y70480D01*
X246649Y70428D01*
X246550Y70375D01*
X246445Y70323D01*
X246327Y70270D01*
X246203Y70231D01*
X246065Y70191D01*
X245920Y70165D01*
X245770Y70145D01*
X245606Y70139D01*
X245566D01*
X245520Y70145D01*
X245461D01*
X245389Y70159D01*
X245304Y70172D01*
X245212Y70185D01*
X245107Y70211D01*
X244995Y70237D01*
X244884Y70277D01*
X244773Y70323D01*
X244654Y70375D01*
X244536Y70441D01*
X244425Y70519D01*
X244320Y70605D01*
X244215Y70703D01*
X244208Y70710D01*
X244195Y70729D01*
X244169Y70762D01*
X244136Y70808D01*
X244097Y70860D01*
X244051Y70933D01*
X244005Y71011D01*
X243959Y71097D01*
X243907Y71202D01*
X243861Y71313D01*
X243815Y71431D01*
X243775Y71562D01*
X243743Y71707D01*
X243716Y71851D01*
X243703Y72015D01*
X243697Y72179D01*
Y72192D01*
Y72225D01*
X243703Y72271D01*
Y72343D01*
X243716Y72428D01*
X243723Y72520D01*
X243743Y72625D01*
X243762Y72743D01*
X243789Y72868D01*
X243828Y72992D01*
X243867Y73124D01*
X243920Y73255D01*
X243979Y73386D01*
X244051Y73511D01*
X244136Y73635D01*
X244228Y73747D01*
X244235Y73753D01*
X244254Y73773D01*
X244287Y73799D01*
X244326Y73839D01*
X244379Y73885D01*
X244444Y73931D01*
X244523Y73983D01*
X244608Y74042D01*
X244707Y74095D01*
X244818Y74147D01*
X244936Y74193D01*
X245061Y74239D01*
X245199Y74278D01*
X245350Y74304D01*
X245507Y74324D01*
X245671Y74331D01*
X245711D01*
X245750Y74324D01*
D02*
G37*
G36*
X126016Y103205D02*
X125498D01*
Y105887D01*
Y105894D01*
Y105901D01*
Y105920D01*
Y105947D01*
Y105979D01*
Y106019D01*
X125505Y106111D01*
Y106229D01*
X125518Y106366D01*
X125524Y106517D01*
X125537Y106688D01*
X125524D01*
Y106675D01*
X125511Y106642D01*
X125498Y106589D01*
X125485Y106524D01*
X125446Y106393D01*
X125426Y106334D01*
X125406Y106281D01*
X124061Y103205D01*
X123773D01*
X122435Y106255D01*
Y106261D01*
X122428Y106274D01*
X122415Y106307D01*
X122402Y106347D01*
X122389Y106406D01*
X122362Y106484D01*
X122343Y106576D01*
X122317Y106688D01*
X122303D01*
Y106675D01*
X122310Y106635D01*
Y106570D01*
X122317Y106478D01*
X122323Y106366D01*
Y106222D01*
X122330Y106058D01*
Y105868D01*
Y103205D01*
X121825D01*
Y107258D01*
X122539D01*
X123733Y104477D01*
Y104471D01*
X123740Y104464D01*
X123753Y104425D01*
X123779Y104366D01*
X123806Y104293D01*
X123838Y104215D01*
X123871Y104129D01*
X123897Y104051D01*
X123917Y103979D01*
X123937D01*
Y103985D01*
X123943Y103998D01*
X123950Y104011D01*
X123957Y104038D01*
X123983Y104103D01*
X124009Y104182D01*
X124042Y104267D01*
X124075Y104352D01*
X124101Y104431D01*
X124127Y104490D01*
X125341Y107258D01*
X126016D01*
Y103205D01*
D02*
G37*
G36*
X120099D02*
X119489D01*
X118669Y106124D01*
Y106130D01*
X118663Y106157D01*
X118649Y106202D01*
X118643Y106255D01*
X118630Y106314D01*
X118617Y106386D01*
X118604Y106544D01*
X118597D01*
Y106537D01*
X118590Y106504D01*
Y106465D01*
X118584Y106412D01*
X118571Y106347D01*
X118558Y106281D01*
X118525Y106130D01*
X117698Y103205D01*
X117095D01*
X115914Y107258D01*
X116498D01*
X117324Y104195D01*
Y104189D01*
X117331Y104162D01*
X117344Y104116D01*
X117351Y104064D01*
X117364Y103998D01*
X117377Y103933D01*
X117390Y103775D01*
X117403D01*
Y103782D01*
X117410Y103801D01*
Y103841D01*
X117416Y103887D01*
X117429Y103946D01*
X117442Y104018D01*
X117462Y104103D01*
X117488Y104195D01*
X118367Y107258D01*
X118886D01*
X119725Y104169D01*
Y104162D01*
X119732Y104143D01*
X119738Y104110D01*
X119752Y104064D01*
X119758Y104011D01*
X119771Y103939D01*
X119778Y103867D01*
X119791Y103782D01*
X119804D01*
Y103788D01*
Y103815D01*
X119811Y103847D01*
X119817Y103893D01*
X119830Y103952D01*
X119843Y104025D01*
X119857Y104097D01*
X119876Y104182D01*
X120677Y107258D01*
X121241D01*
X120099Y103205D01*
D02*
G37*
G36*
X114353Y107252D02*
X114405D01*
X114471Y107245D01*
X114536Y107232D01*
X114615Y107219D01*
X114779Y107180D01*
X114950Y107127D01*
X115114Y107049D01*
X115186Y106996D01*
X115258Y106944D01*
X115264Y106937D01*
X115271Y106930D01*
X115291Y106911D01*
X115317Y106885D01*
X115343Y106852D01*
X115376Y106813D01*
X115409Y106767D01*
X115442Y106714D01*
X115474Y106655D01*
X115507Y106583D01*
X115540Y106511D01*
X115566Y106432D01*
X115593Y106340D01*
X115612Y106248D01*
X115619Y106143D01*
X115625Y106038D01*
Y106032D01*
Y106012D01*
Y105979D01*
X115619Y105940D01*
X115612Y105887D01*
X115606Y105828D01*
X115593Y105763D01*
X115573Y105691D01*
X115520Y105540D01*
X115488Y105461D01*
X115448Y105376D01*
X115396Y105297D01*
X115337Y105218D01*
X115271Y105140D01*
X115199Y105068D01*
X115192Y105061D01*
X115179Y105054D01*
X115153Y105035D01*
X115127Y105008D01*
X115081Y104982D01*
X115035Y104949D01*
X114976Y104923D01*
X114910Y104884D01*
X114838Y104851D01*
X114759Y104818D01*
X114667Y104792D01*
X114576Y104766D01*
X114477Y104746D01*
X114372Y104726D01*
X114261Y104720D01*
X113611D01*
Y103205D01*
X113087D01*
Y107258D01*
X114307D01*
X114353Y107252D01*
D02*
G37*
G36*
X111420Y103205D02*
X110909D01*
Y106675D01*
X110902Y106668D01*
X110889Y106655D01*
X110856Y106629D01*
X110817Y106596D01*
X110758Y106550D01*
X110686Y106504D01*
X110600Y106452D01*
X110502Y106399D01*
X110489Y106393D01*
X110456Y106373D01*
X110397Y106353D01*
X110325Y106321D01*
X110246Y106288D01*
X110154Y106255D01*
X110062Y106222D01*
X109971Y106196D01*
Y106694D01*
X109977D01*
X109984Y106701D01*
X110003Y106708D01*
X110030Y106714D01*
X110089Y106734D01*
X110180Y106767D01*
X110279Y106806D01*
X110397Y106852D01*
X110522Y106911D01*
X110659Y106976D01*
X110666D01*
X110672Y106983D01*
X110692Y106996D01*
X110718Y107009D01*
X110784Y107049D01*
X110869Y107095D01*
X110961Y107154D01*
X111053Y107219D01*
X111145Y107285D01*
X111223Y107350D01*
X111420D01*
Y103205D01*
D02*
G37*
G36*
X103866Y73960D02*
X96663D01*
Y75228D01*
X103866D01*
Y73960D01*
D02*
G37*
G36*
X77301Y75228D02*
X80261D01*
Y73960D01*
X77301D01*
Y71000D01*
X75960D01*
Y73960D01*
X73000D01*
Y75228D01*
X75960D01*
Y78188D01*
X77301D01*
Y75228D01*
D02*
G37*
G36*
X57033Y13786D02*
Y13785D01*
X57032Y13786D01*
X57030Y13785D01*
Y13784D01*
Y13782D01*
Y13781D01*
X57029D01*
Y13782D01*
Y13785D01*
X57029D01*
Y13786D01*
X57029Y13787D01*
X57030Y13786D01*
X57032Y13787D01*
X57033D01*
Y13786D01*
D02*
G37*
G36*
X57020D02*
X57020D01*
Y13785D01*
X57020D01*
Y13784D01*
X57019Y13782D01*
X57020Y13785D01*
X57019D01*
X57017Y13786D01*
X57016Y13785D01*
X57016D01*
X57017Y13781D01*
X57019Y13782D01*
X57017Y13780D01*
X57016Y13783D01*
X57015Y13785D01*
X57013Y13786D01*
Y13787D01*
X57015D01*
X57016Y13786D01*
X57016D01*
X57017Y13787D01*
X57019D01*
X57020Y13786D01*
D02*
G37*
G36*
X57003D02*
Y13785D01*
Y13783D01*
Y13782D01*
X57004Y13781D01*
X57003D01*
Y13782D01*
X57003Y13784D01*
Y13783D01*
X57000Y13782D01*
X57002Y13783D01*
Y13784D01*
Y13785D01*
X57000Y13786D01*
X56999Y13787D01*
X57000D01*
X57002Y13786D01*
X57003Y13785D01*
X57003Y13786D01*
X57004Y13787D01*
X57006D01*
X57003Y13786D01*
D02*
G37*
G36*
X57024D02*
X57026D01*
X57028Y13785D01*
X57024D01*
Y13784D01*
Y13783D01*
Y13782D01*
X57025D01*
X57025Y13781D01*
X57026Y13782D01*
X57028D01*
X57026Y13781D01*
X57025D01*
X57025Y13781D01*
X57025Y13781D01*
X57023D01*
Y13782D01*
Y13783D01*
Y13784D01*
Y13786D01*
X57024Y13787D01*
X57025D01*
X57024Y13786D01*
D02*
G37*
G36*
X57012D02*
Y13785D01*
X57014Y13781D01*
X57016Y13783D01*
X57015Y13781D01*
X57014Y13781D01*
X57013Y13780D01*
X57011Y13785D01*
Y13786D01*
Y13787D01*
X57012D01*
Y13786D01*
D02*
G37*
G36*
X57008D02*
X57010Y13785D01*
Y13783D01*
Y13782D01*
X57008Y13781D01*
X57007D01*
X57008Y13782D01*
Y13784D01*
Y13785D01*
X57007Y13786D01*
Y13787D01*
X57008Y13786D01*
D02*
G37*
G36*
X56997D02*
Y13783D01*
Y13782D01*
X56999D01*
X56998Y13781D01*
X56997D01*
Y13778D01*
X56998D01*
Y13777D01*
X56994D01*
Y13778D01*
X56995D01*
Y13786D01*
X56994D01*
Y13787D01*
X56995D01*
Y13788D01*
X56997D01*
Y13786D01*
D02*
G37*
G36*
X142015Y78264D02*
X142013D01*
X142012Y78263D01*
Y78262D01*
X142011D01*
Y78263D01*
X142012Y78264D01*
X142014Y78265D01*
X142015Y78264D01*
D02*
G37*
G36*
X142016Y78263D02*
X142017Y78262D01*
Y78261D01*
X142016Y78260D01*
X142015Y78259D01*
X142016D01*
X142017Y78258D01*
X142018Y78257D01*
Y78256D01*
Y78255D01*
X142016Y78254D01*
X142017Y78255D01*
Y78256D01*
Y78257D01*
X142016Y78258D01*
X142015Y78259D01*
X142014D01*
X142015Y78260D01*
X142016Y78261D01*
Y78262D01*
X142015Y78263D01*
Y78264D01*
X142016D01*
Y78263D01*
D02*
G37*
G36*
X142009Y78258D02*
Y78257D01*
X142008Y78255D01*
Y78254D01*
X142007Y78253D01*
X142001D01*
Y78254D01*
X142000Y78255D01*
Y78256D01*
Y78258D01*
Y78265D01*
X142001D01*
Y78257D01*
Y78256D01*
Y78255D01*
X142002Y78254D01*
X142007D01*
X142008Y78255D01*
Y78257D01*
Y78265D01*
X142009D01*
Y78258D01*
D02*
G37*
G36*
X142012Y78255D02*
Y78254D01*
X142015D01*
X142014Y78253D01*
X142011D01*
Y78254D01*
Y78256D01*
X142012D01*
Y78255D01*
D02*
G37*
G36*
X161509Y38258D02*
Y38257D01*
X161508Y38255D01*
Y38254D01*
X161507Y38253D01*
X161501D01*
Y38254D01*
X161500Y38255D01*
Y38256D01*
Y38258D01*
Y38265D01*
X161501D01*
Y38257D01*
Y38256D01*
Y38255D01*
X161502Y38254D01*
X161507D01*
X161508Y38255D01*
Y38257D01*
Y38265D01*
X161509D01*
Y38258D01*
D02*
G37*
G36*
X161517Y38264D02*
X161518Y38263D01*
Y38261D01*
Y38260D01*
X161517Y38259D01*
X161516Y38258D01*
Y38257D01*
X161515Y38256D01*
X161514Y38255D01*
X161512Y38254D01*
X161518D01*
Y38253D01*
X161511D01*
Y38254D01*
X161512Y38255D01*
X161514Y38256D01*
X161515Y38257D01*
X161516Y38259D01*
X161517Y38260D01*
Y38261D01*
Y38262D01*
X161516Y38263D01*
X161515Y38264D01*
X161513D01*
X161512Y38263D01*
Y38262D01*
X161511D01*
Y38263D01*
X161512Y38264D01*
X161513Y38265D01*
X161515D01*
X161517Y38264D01*
D02*
G37*
G36*
X90509Y41258D02*
Y41257D01*
X90508Y41255D01*
Y41254D01*
X90507Y41253D01*
X90501D01*
Y41254D01*
X90500Y41255D01*
Y41256D01*
Y41258D01*
Y41265D01*
X90501D01*
Y41257D01*
Y41256D01*
Y41255D01*
X90502Y41254D01*
X90507D01*
X90508Y41255D01*
Y41257D01*
Y41265D01*
X90509D01*
Y41258D01*
D02*
G37*
G36*
X90516Y41253D02*
X90515D01*
Y41263D01*
X90514Y41262D01*
X90513Y41261D01*
X90512Y41260D01*
Y41262D01*
X90513D01*
Y41263D01*
X90514Y41264D01*
X90515Y41265D01*
X90516D01*
Y41253D01*
D02*
G37*
G36*
X174018Y73758D02*
X174012D01*
Y73754D01*
X174013Y73755D01*
X174015D01*
X174015Y73754D01*
X174016D01*
Y73753D01*
X174015Y73754D01*
X174013D01*
X174012Y73753D01*
X174011D01*
X174012Y73759D01*
X174018D01*
Y73758D01*
D02*
G37*
G36*
Y73751D02*
Y73750D01*
X174017Y73748D01*
X174016D01*
X174014Y73747D01*
X174012D01*
Y73748D01*
X174011Y73750D01*
X174012D01*
Y73749D01*
Y73748D01*
X174016D01*
X174017Y73749D01*
Y73751D01*
Y73752D01*
X174018Y73751D01*
D02*
G37*
G36*
X174007Y73758D02*
X174008D01*
Y73757D01*
X174009Y73756D01*
Y73755D01*
Y73754D01*
X174008Y73753D01*
X174007D01*
X174004Y73752D01*
X174005D01*
X174006Y73751D01*
Y73750D01*
X174007Y73749D01*
X174009Y73747D01*
X174008D01*
X174006Y73749D01*
X174005Y73750D01*
X174004D01*
Y73751D01*
X174003D01*
Y73752D01*
X174001D01*
Y73747D01*
X174000D01*
Y73759D01*
X174005D01*
X174007Y73758D01*
D02*
G37*
G36*
X110517Y76251D02*
X110518D01*
Y76250D01*
X110517D01*
Y76247D01*
X110516D01*
Y76250D01*
X110510D01*
Y76251D01*
X110516Y76259D01*
X110517D01*
Y76251D01*
D02*
G37*
G36*
X110507Y76258D02*
X110508D01*
Y76257D01*
X110509Y76256D01*
Y76255D01*
Y76254D01*
X110508Y76253D01*
X110507D01*
X110504Y76252D01*
X110505D01*
X110506Y76251D01*
Y76250D01*
X110507Y76249D01*
X110509Y76247D01*
X110508D01*
X110506Y76249D01*
X110505Y76250D01*
X110504D01*
Y76251D01*
X110503D01*
Y76252D01*
X110501D01*
Y76247D01*
X110500D01*
Y76259D01*
X110505D01*
X110507Y76258D01*
D02*
G37*
G36*
X174015Y80764D02*
X174013D01*
X174012Y80763D01*
Y80762D01*
X174011D01*
Y80763D01*
X174012Y80764D01*
X174014Y80765D01*
X174015Y80764D01*
D02*
G37*
G36*
X174016Y80763D02*
X174017Y80762D01*
Y80761D01*
X174016Y80760D01*
X174015Y80759D01*
X174016D01*
X174017Y80758D01*
X174018Y80757D01*
Y80756D01*
Y80755D01*
X174016Y80754D01*
X174017Y80755D01*
Y80756D01*
Y80757D01*
X174016Y80758D01*
X174015Y80759D01*
X174014D01*
X174015Y80760D01*
X174016Y80761D01*
Y80762D01*
X174015Y80763D01*
Y80764D01*
X174016D01*
Y80763D01*
D02*
G37*
G36*
X174012Y80755D02*
Y80754D01*
X174015D01*
X174014Y80753D01*
X174011D01*
Y80754D01*
Y80756D01*
X174012D01*
Y80755D01*
D02*
G37*
G36*
X174007Y80764D02*
X174008D01*
Y80763D01*
X174009Y80762D01*
Y80761D01*
Y80760D01*
X174008Y80759D01*
X174007D01*
X174004Y80758D01*
X174005D01*
X174006Y80757D01*
Y80756D01*
X174007Y80755D01*
X174009Y80753D01*
X174008D01*
X174006Y80755D01*
X174005Y80756D01*
X174004D01*
Y80757D01*
X174003D01*
Y80758D01*
X174001D01*
Y80753D01*
X174000D01*
Y80765D01*
X174005D01*
X174007Y80764D01*
D02*
G37*
G36*
X110517Y82764D02*
X110518Y82763D01*
Y82761D01*
Y82760D01*
X110517Y82759D01*
X110516Y82758D01*
Y82757D01*
X110515Y82756D01*
X110514Y82755D01*
X110512Y82754D01*
X110518D01*
Y82753D01*
X110511D01*
Y82754D01*
X110512Y82755D01*
X110514Y82756D01*
X110515Y82757D01*
X110516Y82759D01*
X110517Y82760D01*
Y82761D01*
Y82762D01*
X110516Y82763D01*
X110515Y82764D01*
X110513D01*
X110512Y82763D01*
Y82762D01*
X110511D01*
Y82763D01*
X110512Y82764D01*
X110513Y82765D01*
X110515D01*
X110517Y82764D01*
D02*
G37*
G36*
X110507D02*
X110508D01*
Y82763D01*
X110509Y82762D01*
Y82761D01*
Y82760D01*
X110508Y82759D01*
X110507D01*
X110504Y82758D01*
X110505D01*
X110506Y82757D01*
Y82756D01*
X110507Y82755D01*
X110509Y82753D01*
X110508D01*
X110506Y82755D01*
X110505Y82756D01*
X110504D01*
Y82757D01*
X110503D01*
Y82758D01*
X110501D01*
Y82753D01*
X110500D01*
Y82765D01*
X110505D01*
X110507Y82764D01*
D02*
G37*
G36*
X111016Y69253D02*
X111015D01*
Y69263D01*
X111014Y69262D01*
X111013Y69261D01*
X111012Y69260D01*
Y69262D01*
X111013D01*
Y69263D01*
X111014Y69264D01*
X111015Y69265D01*
X111016D01*
Y69253D01*
D02*
G37*
G36*
X111007Y69264D02*
X111008D01*
Y69263D01*
X111009Y69262D01*
Y69261D01*
Y69260D01*
X111008Y69259D01*
X111007D01*
X111004Y69258D01*
X111005D01*
X111006Y69257D01*
Y69256D01*
X111007Y69255D01*
X111009Y69253D01*
X111008D01*
X111006Y69255D01*
X111005Y69256D01*
X111004D01*
Y69257D01*
X111003D01*
Y69258D01*
X111001D01*
Y69253D01*
X111000D01*
Y69265D01*
X111005D01*
X111007Y69264D01*
D02*
G37*
G36*
X225962Y28518D02*
Y28517D01*
X225963Y28515D01*
Y28514D01*
X225962Y28512D01*
X225961D01*
X225960D01*
X225959D01*
X225958D01*
X225957Y28513D01*
X225956Y28512D01*
X225955D01*
X225954D01*
X225952D01*
X225951Y28513D01*
Y28516D01*
X225952Y28517D01*
X225953Y28518D01*
X225955Y28519D01*
X225956Y28518D01*
Y28517D01*
X225955Y28518D01*
X225954D01*
X225953Y28517D01*
X225952D01*
Y28514D01*
X225953Y28513D01*
X225954D01*
X225955D01*
X225956D01*
Y28517D01*
X225957Y28516D01*
Y28514D01*
X225958Y28513D01*
X225959D01*
X225960D01*
X225961D01*
X225962D01*
Y28517D01*
X225961Y28518D01*
X225960D01*
X225959D01*
X225958Y28517D01*
X225957D01*
X225958Y28518D01*
X225959Y28519D01*
X225960D01*
X225961D01*
X225962Y28518D01*
D02*
G37*
G36*
X225963Y28502D02*
X225962Y28501D01*
X225961Y28500D01*
X225960D01*
X225957D01*
X225956D01*
X225955D01*
X225954Y28501D01*
X225952Y28502D01*
X225951Y28503D01*
Y28506D01*
X225952Y28507D01*
X225953Y28508D01*
X225955Y28509D01*
X225956Y28510D01*
X225958D01*
X225959D01*
X225960Y28509D01*
X225961D01*
X225962Y28508D01*
Y28509D01*
X225963Y28510D01*
Y28502D01*
D02*
G37*
G36*
X225953Y54518D02*
X225956Y54517D01*
X225957Y54516D01*
X225960Y54515D01*
X225961D01*
X225963D01*
Y54514D01*
X225962D01*
X225960D01*
X225959Y54515D01*
X225956D01*
X225955Y54516D01*
X225952Y54518D01*
Y54512D01*
X225951D01*
Y54519D01*
X225952D01*
X225953Y54518D01*
D02*
G37*
G36*
X225963Y54502D02*
X225962Y54501D01*
X225961Y54500D01*
X225960D01*
X225957D01*
X225956D01*
X225955D01*
X225954Y54501D01*
X225952Y54502D01*
X225951Y54503D01*
Y54506D01*
X225952Y54507D01*
X225953Y54508D01*
X225955Y54509D01*
X225956Y54510D01*
X225958D01*
X225959D01*
X225960Y54509D01*
X225961D01*
X225962Y54508D01*
Y54509D01*
X225963Y54510D01*
Y54502D01*
D02*
G37*
G36*
X196962Y31518D02*
X196963Y31517D01*
Y31514D01*
X196962Y31513D01*
Y31517D01*
X196961Y31518D01*
X196959D01*
X196958D01*
X196957Y31517D01*
X196956D01*
Y31514D01*
X196957Y31513D01*
X196958D01*
X196959D01*
X196960D01*
X196961D01*
X196958Y31512D01*
X196957D01*
X196956D01*
X196954D01*
X196953Y31513D01*
X196952Y31514D01*
X196951Y31515D01*
Y31516D01*
X196952Y31517D01*
X196953Y31518D01*
X196954Y31519D01*
Y31518D01*
X196953Y31517D01*
X196952Y31516D01*
Y31515D01*
X196953Y31514D01*
X196954Y31513D01*
X196955D01*
X196956D01*
X196955Y31514D01*
Y31516D01*
X196957Y31518D01*
X196958Y31519D01*
X196959D01*
X196960D01*
X196962Y31518D01*
D02*
G37*
G36*
X196963Y31502D02*
X196962Y31501D01*
X196961Y31500D01*
X196960D01*
X196957D01*
X196956D01*
X196955D01*
X196954Y31501D01*
X196952Y31502D01*
X196951Y31503D01*
Y31506D01*
X196952Y31507D01*
X196953Y31508D01*
X196955Y31509D01*
X196956Y31510D01*
X196958D01*
X196959D01*
X196960Y31509D01*
X196961D01*
X196962Y31508D01*
Y31509D01*
X196963Y31510D01*
Y31502D01*
D02*
G37*
G36*
X196962Y54518D02*
Y54517D01*
X196963Y54515D01*
Y54513D01*
X196962D01*
X196960Y54512D01*
Y54513D01*
X196961D01*
X196962D01*
Y54517D01*
X196961Y54518D01*
X196959D01*
X196958D01*
X196959Y54519D01*
X196960D01*
X196962Y54518D01*
D02*
G37*
G36*
X196952Y54513D02*
X196956D01*
X196955Y54514D01*
Y54516D01*
X196956Y54517D01*
Y54517D01*
X196957D01*
X196956Y54517D01*
Y54514D01*
X196957Y54513D01*
Y54512D01*
X196951Y54513D01*
Y54519D01*
X196952D01*
Y54513D01*
D02*
G37*
G36*
X196963Y54502D02*
X196962Y54501D01*
X196961Y54500D01*
X196960D01*
X196957D01*
X196956D01*
X196955D01*
X196954Y54501D01*
X196952Y54502D01*
X196951Y54503D01*
Y54506D01*
X196952Y54507D01*
X196953Y54508D01*
X196955Y54509D01*
X196956Y54510D01*
X196958D01*
X196959D01*
X196960Y54509D01*
X196961D01*
X196962Y54508D01*
Y54509D01*
X196963Y54510D01*
Y54502D01*
D02*
G37*
G36*
X33046Y57999D02*
X33048Y57998D01*
X33049Y57997D01*
Y57994D01*
X33048Y57993D01*
X33047Y57992D01*
X33045Y57991D01*
X33044Y57990D01*
X33042D01*
X33041D01*
X33040Y57991D01*
X33039D01*
X33038Y57992D01*
Y57991D01*
X33037Y57990D01*
Y57998D01*
X33038Y57999D01*
X33039Y58000D01*
X33040D01*
X33043D01*
X33044D01*
X33045D01*
X33046Y57999D01*
D02*
G37*
G36*
X33049Y57983D02*
Y57982D01*
X33041D01*
Y57981D01*
X33040D01*
Y57982D01*
X33037D01*
Y57983D01*
X33040D01*
Y57989D01*
X33041D01*
Y57983D01*
X33047D01*
X33041Y57989D01*
X33049Y57983D01*
D02*
G37*
G36*
X33046Y34999D02*
X33048Y34998D01*
X33049Y34997D01*
Y34994D01*
X33048Y34993D01*
X33047Y34992D01*
X33045Y34991D01*
X33044Y34990D01*
X33042D01*
X33041D01*
X33040Y34991D01*
X33039D01*
X33038Y34992D01*
Y34991D01*
X33037Y34990D01*
Y34998D01*
X33038Y34999D01*
X33039Y35000D01*
X33040D01*
X33043D01*
X33044D01*
X33045D01*
X33046Y34999D01*
D02*
G37*
G36*
X33048Y34987D02*
X33049Y34985D01*
X33048Y34984D01*
Y34986D01*
X33047Y34987D01*
X33046D01*
Y34988D01*
X33047D01*
X33048Y34987D01*
D02*
G37*
G36*
X33040D02*
X33039D01*
X33038D01*
Y34984D01*
X33037Y34985D01*
Y34988D01*
X33038D01*
X33040D01*
Y34987D01*
D02*
G37*
G36*
X33044Y34984D02*
X33045Y34983D01*
X33046D01*
X33047Y34984D01*
X33048D01*
Y34983D01*
X33047D01*
X33046Y34982D01*
X33045D01*
X33044Y34983D01*
X33043Y34984D01*
Y34983D01*
X33042Y34982D01*
X33041Y34981D01*
X33040D01*
X33039D01*
X33038Y34983D01*
X33039Y34982D01*
X33040D01*
X33041D01*
X33042Y34983D01*
X33043Y34984D01*
Y34985D01*
X33044Y34984D01*
D02*
G37*
G36*
X59046Y59999D02*
X59048Y59998D01*
X59049Y59997D01*
Y59994D01*
X59048Y59993D01*
X59047Y59992D01*
X59045Y59991D01*
X59044Y59990D01*
X59042D01*
X59041D01*
X59040Y59991D01*
X59039D01*
X59038Y59992D01*
Y59991D01*
X59037Y59990D01*
Y59998D01*
X59038Y59999D01*
X59039Y60000D01*
X59040D01*
X59043D01*
X59044D01*
X59045D01*
X59046Y59999D01*
D02*
G37*
G36*
X59048Y59987D02*
X59049Y59986D01*
Y59984D01*
X59048Y59982D01*
X59047Y59981D01*
X59045D01*
X59044D01*
X59043Y59982D01*
X59042Y59983D01*
X59041D01*
X59040Y59984D01*
X59039Y59985D01*
X59038Y59987D01*
Y59981D01*
X59037D01*
Y59988D01*
X59038D01*
X59039Y59987D01*
X59040Y59985D01*
X59041Y59984D01*
X59043Y59983D01*
X59044Y59982D01*
X59045D01*
X59046D01*
X59047Y59983D01*
X59048Y59984D01*
Y59986D01*
X59047Y59987D01*
X59046D01*
Y59988D01*
X59047D01*
X59048Y59987D01*
D02*
G37*
G36*
X59046Y35499D02*
X59048Y35498D01*
X59049Y35497D01*
Y35494D01*
X59048Y35493D01*
X59047Y35492D01*
X59045Y35491D01*
X59044Y35490D01*
X59042D01*
X59041D01*
X59040Y35491D01*
X59039D01*
X59038Y35492D01*
Y35491D01*
X59037Y35490D01*
Y35498D01*
X59038Y35499D01*
X59039Y35500D01*
X59040D01*
X59043D01*
X59044D01*
X59045D01*
X59046Y35499D01*
D02*
G37*
G36*
Y35486D02*
X59047D01*
X59048Y35485D01*
X59049Y35484D01*
Y35483D01*
X59037D01*
Y35484D01*
X59047D01*
X59046Y35485D01*
X59045Y35486D01*
X59044Y35487D01*
X59046D01*
Y35486D01*
D02*
G37*
G36*
X157516Y67264D02*
X157514D01*
X157513Y67263D01*
Y67262D01*
X157512D01*
Y67263D01*
X157513Y67264D01*
X157515Y67265D01*
X157516Y67264D01*
D02*
G37*
G36*
X157517Y67263D02*
X157518Y67262D01*
Y67261D01*
X157517Y67260D01*
X157516Y67259D01*
X157517D01*
X157518Y67258D01*
X157519Y67257D01*
Y67256D01*
Y67255D01*
X157517Y67254D01*
X157518Y67255D01*
Y67256D01*
Y67257D01*
X157517Y67258D01*
X157516Y67259D01*
X157515D01*
X157516Y67260D01*
X157517Y67261D01*
Y67262D01*
X157516Y67263D01*
Y67264D01*
X157517D01*
Y67263D01*
D02*
G37*
G36*
X157513Y67255D02*
Y67254D01*
X157516D01*
X157515Y67253D01*
X157512D01*
Y67254D01*
Y67256D01*
X157513D01*
Y67255D01*
D02*
G37*
G36*
X157510Y67261D02*
Y67259D01*
Y67256D01*
X157506Y67253D01*
X157500D01*
Y67265D01*
X157506D01*
X157510Y67261D01*
D02*
G37*
G36*
X99018Y14264D02*
X99019Y14263D01*
Y14261D01*
Y14260D01*
X99018Y14259D01*
X99017Y14258D01*
Y14257D01*
X99016Y14256D01*
X99015Y14255D01*
X99013Y14254D01*
X99019D01*
Y14253D01*
X99012D01*
Y14254D01*
X99013Y14255D01*
X99015Y14256D01*
X99016Y14257D01*
X99017Y14259D01*
X99018Y14260D01*
Y14261D01*
Y14262D01*
X99017Y14263D01*
X99016Y14264D01*
X99014D01*
X99013Y14263D01*
Y14262D01*
X99012D01*
Y14263D01*
X99013Y14264D01*
X99014Y14265D01*
X99016D01*
X99018Y14264D01*
D02*
G37*
G36*
X99010Y14261D02*
Y14259D01*
Y14256D01*
X99006Y14253D01*
X99000D01*
Y14265D01*
X99006D01*
X99010Y14261D01*
D02*
G37*
G36*
X118017Y50753D02*
X118016D01*
Y50763D01*
X118015Y50762D01*
X118014Y50761D01*
X118013Y50760D01*
Y50762D01*
X118014D01*
Y50763D01*
X118015Y50764D01*
X118016Y50765D01*
X118017D01*
Y50753D01*
D02*
G37*
G36*
X118010Y50761D02*
Y50759D01*
Y50756D01*
X118006Y50753D01*
X118000D01*
Y50765D01*
X118006D01*
X118010Y50761D01*
D02*
G37*
G36*
X132730Y33526D02*
X132729Y33527D01*
X132728D01*
X132727D01*
X132726Y33526D01*
X132725Y33525D01*
Y33524D01*
X132724Y33525D01*
X132723Y33526D01*
X132722D01*
X132721Y33525D01*
X132720D01*
Y33523D01*
X132721Y33522D01*
X132722D01*
Y33521D01*
X132721D01*
X132720Y33522D01*
X132719Y33524D01*
X132720Y33525D01*
Y33526D01*
X132721D01*
X132722Y33527D01*
X132723D01*
X132724Y33526D01*
X132725Y33525D01*
Y33526D01*
X132726Y33527D01*
X132727Y33528D01*
X132728D01*
X132729D01*
X132730Y33526D01*
D02*
G37*
G36*
X132731Y33524D02*
Y33521D01*
X132730D01*
X132728D01*
Y33522D01*
X132729D01*
X132730D01*
Y33525D01*
X132731Y33524D01*
D02*
G37*
G36*
Y33516D02*
X132721D01*
X132722Y33515D01*
X132723Y33514D01*
X132724Y33513D01*
X132722D01*
Y33514D01*
X132721D01*
X132720Y33515D01*
X132719Y33516D01*
Y33517D01*
X132731D01*
Y33516D01*
D02*
G37*
G36*
X132729Y33509D02*
X132731Y33508D01*
Y33502D01*
X132730Y33501D01*
X132729Y33500D01*
X132728D01*
X132725D01*
X132724D01*
X132723D01*
X132722Y33501D01*
X132720Y33502D01*
X132719Y33503D01*
Y33506D01*
X132720Y33508D01*
X132721Y33509D01*
X132723Y33510D01*
Y33509D01*
X132722Y33508D01*
X132721Y33507D01*
X132720D01*
Y33504D01*
X132721Y33502D01*
X132722D01*
X132723Y33501D01*
X132724D01*
X132725D01*
X132726D01*
X132728D01*
X132729D01*
X132730Y33502D01*
Y33507D01*
X132729Y33508D01*
X132728Y33509D01*
Y33510D01*
X132729Y33509D01*
D02*
G37*
G36*
X135731Y33521D02*
X135730D01*
X135729Y33522D01*
X135728Y33524D01*
X135727Y33525D01*
X135725Y33526D01*
X135724Y33527D01*
X135723D01*
X135722D01*
X135721Y33526D01*
X135720Y33525D01*
Y33523D01*
X135721Y33522D01*
X135722D01*
Y33521D01*
X135721D01*
X135720Y33522D01*
X135719Y33523D01*
Y33525D01*
X135720Y33527D01*
X135721Y33528D01*
X135723D01*
X135724D01*
X135725Y33527D01*
X135726Y33526D01*
X135727D01*
X135728Y33525D01*
X135729Y33524D01*
X135730Y33522D01*
Y33528D01*
X135731D01*
Y33521D01*
D02*
G37*
G36*
Y33516D02*
X135721D01*
X135722Y33515D01*
X135723Y33514D01*
X135724Y33513D01*
X135722D01*
Y33514D01*
X135721D01*
X135720Y33515D01*
X135719Y33516D01*
Y33517D01*
X135731D01*
Y33516D01*
D02*
G37*
G36*
X135729Y33509D02*
X135731Y33508D01*
Y33502D01*
X135730Y33501D01*
X135729Y33500D01*
X135728D01*
X135725D01*
X135724D01*
X135723D01*
X135722Y33501D01*
X135720Y33502D01*
X135719Y33503D01*
Y33506D01*
X135720Y33508D01*
X135721Y33509D01*
X135723Y33510D01*
Y33509D01*
X135722Y33508D01*
X135721Y33507D01*
X135720D01*
Y33504D01*
X135721Y33502D01*
X135722D01*
X135723Y33501D01*
X135724D01*
X135725D01*
X135726D01*
X135728D01*
X135729D01*
X135730Y33502D01*
Y33507D01*
X135729Y33508D01*
X135728Y33509D01*
Y33510D01*
X135729Y33509D01*
D02*
G37*
G36*
X169778Y53499D02*
X169780Y53498D01*
X169781Y53497D01*
Y53494D01*
X169780Y53492D01*
X169779Y53491D01*
X169777Y53490D01*
Y53491D01*
X169778Y53492D01*
X169779Y53493D01*
X169780D01*
Y53496D01*
X169779Y53498D01*
X169778D01*
X169777Y53499D01*
X169776D01*
X169775D01*
X169774D01*
X169772D01*
X169771D01*
X169770Y53498D01*
Y53493D01*
X169771Y53492D01*
X169772Y53491D01*
Y53490D01*
X169771Y53491D01*
X169769Y53492D01*
Y53498D01*
X169770Y53499D01*
X169771Y53500D01*
X169772D01*
X169775D01*
X169776D01*
X169777D01*
X169778Y53499D01*
D02*
G37*
G36*
Y53486D02*
X169779D01*
X169780Y53485D01*
X169781Y53484D01*
Y53483D01*
X169769D01*
Y53484D01*
X169779D01*
X169778Y53485D01*
X169777Y53486D01*
X169776Y53487D01*
X169778D01*
Y53486D01*
D02*
G37*
G36*
Y53477D02*
X169779D01*
X169780Y53476D01*
X169781Y53475D01*
Y53474D01*
X169769D01*
Y53475D01*
X169779D01*
X169778Y53476D01*
X169777Y53477D01*
X169776Y53478D01*
X169778D01*
Y53477D01*
D02*
G37*
G36*
X131230Y58527D02*
Y58526D01*
X131229Y58527D01*
X131227D01*
X131225D01*
X131224D01*
X131223D01*
X131221Y58526D01*
X131220Y58525D01*
Y58523D01*
X131221Y58522D01*
X131220D01*
X131219Y58523D01*
Y58525D01*
X131220Y58526D01*
Y58527D01*
X131221D01*
X131222D01*
X131223D01*
X131224Y58528D01*
X131225D01*
X131227D01*
X131230Y58527D01*
D02*
G37*
G36*
X131231Y58525D02*
Y58522D01*
X131230D01*
Y58526D01*
X131231Y58525D01*
D02*
G37*
G36*
X131225Y58521D02*
X131224D01*
X131222D01*
X131221Y58522D01*
X131222D01*
X131225D01*
X131226D01*
X131227D01*
X131229D01*
X131225Y58521D01*
D02*
G37*
G36*
X131231Y58516D02*
X131221D01*
X131222Y58515D01*
X131223Y58514D01*
X131224Y58513D01*
X131222D01*
Y58514D01*
X131221D01*
X131220Y58515D01*
X131219Y58516D01*
Y58517D01*
X131231D01*
Y58516D01*
D02*
G37*
G36*
X131229Y58509D02*
X131231Y58508D01*
Y58502D01*
X131230Y58501D01*
X131229Y58500D01*
X131228D01*
X131225D01*
X131224D01*
X131223D01*
X131222Y58501D01*
X131220Y58502D01*
X131219Y58503D01*
Y58506D01*
X131220Y58508D01*
X131221Y58509D01*
X131223Y58510D01*
Y58509D01*
X131222Y58508D01*
X131221Y58507D01*
X131220D01*
Y58504D01*
X131221Y58502D01*
X131222D01*
X131223Y58501D01*
X131224D01*
X131225D01*
X131226D01*
X131228D01*
X131229D01*
X131230Y58502D01*
Y58507D01*
X131229Y58508D01*
X131228Y58509D01*
Y58510D01*
X131229Y58509D01*
D02*
G37*
G36*
X169778Y45999D02*
X169780Y45998D01*
X169781Y45997D01*
Y45994D01*
X169780Y45992D01*
X169779Y45991D01*
X169777Y45990D01*
Y45991D01*
X169778Y45992D01*
X169779Y45993D01*
X169780D01*
Y45996D01*
X169779Y45998D01*
X169778D01*
X169777Y45999D01*
X169776D01*
X169775D01*
X169774D01*
X169772D01*
X169771D01*
X169770Y45998D01*
Y45993D01*
X169771Y45992D01*
X169772Y45991D01*
Y45990D01*
X169771Y45991D01*
X169769Y45992D01*
Y45998D01*
X169770Y45999D01*
X169771Y46000D01*
X169772D01*
X169775D01*
X169776D01*
X169777D01*
X169778Y45999D01*
D02*
G37*
G36*
X169780Y45987D02*
X169781Y45985D01*
Y45984D01*
X169780Y45983D01*
X169779Y45982D01*
X169778D01*
X169777Y45981D01*
X169775D01*
X169774D01*
X169771Y45982D01*
X169770D01*
X169769Y45983D01*
Y45988D01*
X169770D01*
X169772D01*
Y45987D01*
X169771D01*
X169770D01*
Y45983D01*
X169771D01*
X169772D01*
X169773Y45982D01*
X169774D01*
Y45983D01*
X169775Y45982D01*
X169776D01*
X169777D01*
X169779Y45983D01*
X169780D01*
Y45986D01*
X169779Y45987D01*
X169778D01*
X169776D01*
X169775D01*
X169774D01*
Y45983D01*
X169773Y45984D01*
Y45986D01*
X169774Y45988D01*
X169775D01*
X169776D01*
X169777D01*
X169779D01*
X169780Y45987D01*
D02*
G37*
G36*
X138730Y34018D02*
Y34017D01*
X138731Y34015D01*
Y34014D01*
X138730Y34012D01*
X138729D01*
X138728D01*
X138727D01*
X138726D01*
X138725Y34013D01*
X138724Y34012D01*
X138723D01*
X138722D01*
X138720D01*
X138719Y34013D01*
Y34016D01*
X138720Y34017D01*
X138721Y34018D01*
X138723Y34019D01*
X138724Y34018D01*
Y34017D01*
X138723Y34018D01*
X138722D01*
X138721Y34017D01*
X138720D01*
Y34014D01*
X138721Y34013D01*
X138722D01*
X138723D01*
X138724D01*
Y34017D01*
X138725Y34016D01*
Y34014D01*
X138726Y34013D01*
X138727D01*
X138728D01*
X138729D01*
X138730D01*
Y34017D01*
X138729Y34018D01*
X138728D01*
X138727D01*
X138726Y34017D01*
X138725D01*
X138726Y34018D01*
X138727Y34019D01*
X138728D01*
X138729D01*
X138730Y34018D01*
D02*
G37*
G36*
X138729Y34009D02*
X138731Y34008D01*
Y34002D01*
X138730Y34001D01*
X138729Y34000D01*
X138728D01*
X138725D01*
X138724D01*
X138723D01*
X138722Y34001D01*
X138720Y34002D01*
X138719Y34003D01*
Y34006D01*
X138720Y34008D01*
X138721Y34009D01*
X138723Y34010D01*
Y34009D01*
X138722Y34008D01*
X138721Y34007D01*
X138720D01*
Y34004D01*
X138721Y34002D01*
X138722D01*
X138723Y34001D01*
X138724D01*
X138725D01*
X138726D01*
X138728D01*
X138729D01*
X138730Y34002D01*
Y34007D01*
X138729Y34008D01*
X138728Y34009D01*
Y34010D01*
X138729Y34009D01*
D02*
G37*
G36*
X43508Y84406D02*
X43509Y84405D01*
X43510Y84403D01*
X43509D01*
X43508Y84404D01*
X43507Y84405D01*
Y84406D01*
X43504D01*
X43502Y84405D01*
Y84404D01*
X43501Y84403D01*
Y84402D01*
Y84401D01*
Y84400D01*
Y84398D01*
Y84397D01*
X43502Y84396D01*
X43507D01*
X43508Y84397D01*
X43509Y84398D01*
X43510D01*
X43509Y84397D01*
X43508Y84395D01*
X43502D01*
X43501Y84396D01*
X43500Y84397D01*
Y84398D01*
Y84401D01*
Y84402D01*
Y84403D01*
X43501Y84404D01*
X43502Y84406D01*
X43503Y84407D01*
X43506D01*
X43508Y84406D01*
D02*
G37*
G36*
X43519D02*
X43518Y84405D01*
X43517Y84402D01*
X43516Y84401D01*
X43515Y84398D01*
Y84397D01*
Y84395D01*
X43514D01*
Y84396D01*
Y84398D01*
X43515Y84399D01*
Y84402D01*
X43516Y84403D01*
X43518Y84406D01*
X43512D01*
Y84407D01*
X43519D01*
Y84406D01*
D02*
G37*
G36*
X132778Y26999D02*
X132780Y26998D01*
X132781Y26997D01*
Y26994D01*
X132780Y26992D01*
X132779Y26991D01*
X132777Y26990D01*
Y26991D01*
X132778Y26992D01*
X132779Y26993D01*
X132780D01*
Y26996D01*
X132779Y26998D01*
X132778D01*
X132777Y26999D01*
X132776D01*
X132775D01*
X132774D01*
X132772D01*
X132771D01*
X132770Y26998D01*
Y26993D01*
X132771Y26992D01*
X132772Y26991D01*
Y26990D01*
X132771Y26991D01*
X132769Y26992D01*
Y26998D01*
X132770Y26999D01*
X132771Y27000D01*
X132772D01*
X132775D01*
X132776D01*
X132777D01*
X132778Y26999D01*
D02*
G37*
G36*
X132779Y26987D02*
X132780Y26986D01*
X132781Y26985D01*
Y26984D01*
X132780Y26983D01*
X132779Y26982D01*
X132778Y26981D01*
Y26982D01*
X132779Y26983D01*
X132780Y26984D01*
Y26985D01*
X132779Y26986D01*
X132778Y26987D01*
X132777D01*
X132776D01*
X132777Y26986D01*
Y26984D01*
X132775Y26982D01*
X132774Y26981D01*
X132773D01*
X132772D01*
X132770Y26982D01*
X132769Y26983D01*
Y26986D01*
X132770Y26987D01*
Y26983D01*
X132771Y26982D01*
X132773D01*
X132774D01*
X132775Y26983D01*
X132776D01*
Y26986D01*
X132775Y26987D01*
X132774D01*
X132773D01*
X132772D01*
X132771D01*
X132774Y26988D01*
X132775D01*
X132776D01*
X132778D01*
X132779Y26987D01*
D02*
G37*
G36*
X129778Y26999D02*
X129780Y26998D01*
X129781Y26997D01*
Y26994D01*
X129780Y26992D01*
X129779Y26991D01*
X129777Y26990D01*
Y26991D01*
X129778Y26992D01*
X129779Y26993D01*
X129780D01*
Y26996D01*
X129779Y26998D01*
X129778D01*
X129777Y26999D01*
X129776D01*
X129775D01*
X129774D01*
X129772D01*
X129771D01*
X129770Y26998D01*
Y26993D01*
X129771Y26992D01*
X129772Y26991D01*
Y26990D01*
X129771Y26991D01*
X129769Y26992D01*
Y26998D01*
X129770Y26999D01*
X129771Y27000D01*
X129772D01*
X129775D01*
X129776D01*
X129777D01*
X129778Y26999D01*
D02*
G37*
G36*
X129781Y26987D02*
Y26981D01*
X129780D01*
Y26987D01*
X129776D01*
X129777Y26986D01*
Y26984D01*
X129776Y26983D01*
Y26983D01*
X129775D01*
X129776Y26983D01*
Y26986D01*
X129775Y26987D01*
Y26988D01*
X129781Y26987D01*
D02*
G37*
G36*
X129772D02*
X129771D01*
X129770D01*
Y26983D01*
X129771Y26982D01*
X129773D01*
X129774D01*
X129773Y26981D01*
X129772D01*
X129770Y26982D01*
Y26983D01*
X129769Y26985D01*
Y26987D01*
X129770D01*
X129772Y26988D01*
Y26987D01*
D02*
G37*
G36*
X87228Y26018D02*
X87231D01*
Y26017D01*
X87228D01*
Y26011D01*
X87227D01*
Y26017D01*
X87221D01*
X87227Y26011D01*
X87219Y26017D01*
Y26018D01*
X87227D01*
Y26019D01*
X87228D01*
Y26018D01*
D02*
G37*
G36*
X87229Y26009D02*
X87231Y26008D01*
Y26002D01*
X87230Y26001D01*
X87229Y26000D01*
X87228D01*
X87225D01*
X87224D01*
X87223D01*
X87222Y26001D01*
X87220Y26002D01*
X87219Y26003D01*
Y26006D01*
X87220Y26008D01*
X87221Y26009D01*
X87223Y26010D01*
Y26009D01*
X87222Y26008D01*
X87221Y26007D01*
X87220D01*
Y26004D01*
X87221Y26002D01*
X87222D01*
X87223Y26001D01*
X87224D01*
X87225D01*
X87226D01*
X87228D01*
X87229D01*
X87230Y26002D01*
Y26007D01*
X87229Y26008D01*
X87228Y26009D01*
Y26010D01*
X87229Y26009D01*
D02*
G37*
G36*
X129778Y20499D02*
X129780Y20498D01*
X129781Y20497D01*
Y20494D01*
X129780Y20492D01*
X129779Y20491D01*
X129777Y20490D01*
Y20491D01*
X129778Y20492D01*
X129779Y20493D01*
X129780D01*
Y20496D01*
X129779Y20498D01*
X129778D01*
X129777Y20499D01*
X129776D01*
X129775D01*
X129774D01*
X129772D01*
X129771D01*
X129770Y20498D01*
Y20493D01*
X129771Y20492D01*
X129772Y20491D01*
Y20490D01*
X129771Y20491D01*
X129769Y20492D01*
Y20498D01*
X129770Y20499D01*
X129771Y20500D01*
X129772D01*
X129775D01*
X129776D01*
X129777D01*
X129778Y20499D01*
D02*
G37*
G36*
X129780Y20487D02*
X129781Y20485D01*
X129780Y20484D01*
Y20486D01*
X129779Y20487D01*
X129778D01*
Y20488D01*
X129779D01*
X129780Y20487D01*
D02*
G37*
G36*
X129772D02*
X129771D01*
X129770D01*
Y20484D01*
X129769Y20485D01*
Y20488D01*
X129770D01*
X129772D01*
Y20487D01*
D02*
G37*
G36*
X129776Y20484D02*
X129777Y20483D01*
X129778D01*
X129779Y20484D01*
X129780D01*
Y20483D01*
X129779D01*
X129778Y20482D01*
X129777D01*
X129776Y20483D01*
X129775Y20484D01*
Y20483D01*
X129774Y20482D01*
X129773Y20481D01*
X129772D01*
X129771D01*
X129770Y20483D01*
X129771Y20482D01*
X129772D01*
X129773D01*
X129774Y20483D01*
X129775Y20484D01*
Y20485D01*
X129776Y20484D01*
D02*
G37*
G36*
X87231Y33012D02*
X87230D01*
X87229Y33013D01*
X87228Y33015D01*
X87227Y33016D01*
X87225Y33017D01*
X87224Y33018D01*
X87223D01*
X87222D01*
X87221Y33017D01*
X87220Y33016D01*
Y33014D01*
X87221Y33013D01*
X87222D01*
Y33012D01*
X87221D01*
X87220Y33013D01*
X87219Y33014D01*
Y33016D01*
X87220Y33018D01*
X87221Y33019D01*
X87223D01*
X87224D01*
X87225Y33018D01*
X87226Y33017D01*
X87227D01*
X87228Y33016D01*
X87229Y33015D01*
X87230Y33013D01*
Y33019D01*
X87231D01*
Y33012D01*
D02*
G37*
G36*
X87229Y33009D02*
X87231Y33008D01*
Y33002D01*
X87230Y33001D01*
X87229Y33000D01*
X87228D01*
X87225D01*
X87224D01*
X87223D01*
X87222Y33001D01*
X87220Y33002D01*
X87219Y33003D01*
Y33006D01*
X87220Y33008D01*
X87221Y33009D01*
X87223Y33010D01*
Y33009D01*
X87222Y33008D01*
X87221Y33007D01*
X87220D01*
Y33004D01*
X87221Y33002D01*
X87222D01*
X87223Y33001D01*
X87224D01*
X87225D01*
X87226D01*
X87228D01*
X87229D01*
X87230Y33002D01*
Y33007D01*
X87229Y33008D01*
X87228Y33009D01*
Y33010D01*
X87229Y33009D01*
D02*
G37*
G36*
X126778Y26999D02*
X126780Y26998D01*
X126781Y26997D01*
Y26994D01*
X126780Y26992D01*
X126779Y26991D01*
X126777Y26990D01*
Y26991D01*
X126778Y26992D01*
X126779Y26993D01*
X126780D01*
Y26996D01*
X126779Y26998D01*
X126778D01*
X126777Y26999D01*
X126776D01*
X126775D01*
X126774D01*
X126772D01*
X126771D01*
X126770Y26998D01*
Y26993D01*
X126771Y26992D01*
X126772Y26991D01*
Y26990D01*
X126771Y26991D01*
X126769Y26992D01*
Y26998D01*
X126770Y26999D01*
X126771Y27000D01*
X126772D01*
X126775D01*
X126776D01*
X126777D01*
X126778Y26999D01*
D02*
G37*
G36*
Y26986D02*
X126779D01*
X126780Y26985D01*
X126781Y26984D01*
Y26983D01*
X126769D01*
Y26984D01*
X126779D01*
X126778Y26985D01*
X126777Y26986D01*
X126776Y26987D01*
X126778D01*
Y26986D01*
D02*
G37*
%LPC*%
G36*
X167675Y96319D02*
X167046D01*
Y94889D01*
X167702D01*
X167728Y94895D01*
X167794Y94902D01*
X167872Y94915D01*
X167964Y94941D01*
X168062Y94981D01*
X168154Y95027D01*
X168246Y95099D01*
X168259Y95112D01*
X168286Y95138D01*
X168318Y95184D01*
X168364Y95250D01*
X168404Y95328D01*
X168443Y95420D01*
X168469Y95525D01*
X168476Y95650D01*
Y95657D01*
Y95663D01*
Y95702D01*
X168463Y95761D01*
X168449Y95827D01*
X168423Y95906D01*
X168391Y95991D01*
X168338Y96070D01*
X168266Y96142D01*
X168259Y96149D01*
X168227Y96168D01*
X168181Y96201D01*
X168115Y96234D01*
X168030Y96260D01*
X167931Y96293D01*
X167813Y96312D01*
X167675Y96319D01*
D02*
G37*
G36*
X162001Y96312D02*
X161384D01*
Y93183D01*
X162047D01*
X162106Y93190D01*
X162165Y93196D01*
X162244Y93203D01*
X162329Y93216D01*
X162414Y93236D01*
X162611Y93288D01*
X162709Y93321D01*
X162808Y93361D01*
X162913Y93406D01*
X163005Y93465D01*
X163097Y93531D01*
X163182Y93603D01*
X163188Y93610D01*
X163201Y93623D01*
X163221Y93649D01*
X163247Y93682D01*
X163280Y93728D01*
X163320Y93780D01*
X163359Y93839D01*
X163398Y93911D01*
X163438Y93990D01*
X163477Y94082D01*
X163516Y94181D01*
X163549Y94285D01*
X163575Y94397D01*
X163595Y94522D01*
X163608Y94653D01*
X163615Y94791D01*
Y94797D01*
Y94823D01*
Y94863D01*
X163608Y94915D01*
X163602Y94974D01*
X163589Y95046D01*
X163575Y95132D01*
X163562Y95217D01*
X163503Y95401D01*
X163470Y95493D01*
X163425Y95591D01*
X163379Y95683D01*
X163313Y95768D01*
X163247Y95853D01*
X163169Y95925D01*
X163162Y95932D01*
X163149Y95945D01*
X163123Y95958D01*
X163090Y95985D01*
X163044Y96017D01*
X162992Y96050D01*
X162926Y96083D01*
X162854Y96122D01*
X162775Y96155D01*
X162690Y96188D01*
X162591Y96221D01*
X162487Y96253D01*
X162375Y96280D01*
X162257Y96293D01*
X162132Y96306D01*
X162001Y96312D01*
D02*
G37*
G36*
X187649Y82933D02*
X186775D01*
Y81108D01*
Y77665D01*
X186152Y79129D01*
X184447Y82933D01*
X183277D01*
Y76506D01*
X184152D01*
Y78561D01*
Y81807D01*
X184665Y80518D01*
X186458Y76506D01*
X187649D01*
Y82933D01*
D02*
G37*
G36*
X220570D02*
X216942D01*
Y76506D01*
X217838D01*
Y79370D01*
X220417D01*
Y80102D01*
X217838D01*
Y82190D01*
X220570D01*
Y82933D01*
D02*
G37*
G36*
X215029D02*
X211400D01*
Y76506D01*
X212296D01*
Y79370D01*
X214876D01*
Y80102D01*
X212296D01*
Y82190D01*
X215029D01*
Y82933D01*
D02*
G37*
G36*
X207771Y83031D02*
X207673D01*
X207476Y83021D01*
X207301Y82999D01*
X207126Y82966D01*
X206984Y82933D01*
X206864Y82889D01*
X206766Y82857D01*
X206711Y82835D01*
X206689Y82824D01*
X206525Y82736D01*
X206372Y82649D01*
X206230Y82540D01*
X206110Y82441D01*
X206012Y82354D01*
X205946Y82277D01*
X205891Y82234D01*
X205880Y82212D01*
X205760Y82048D01*
X205651Y81884D01*
X205553Y81709D01*
X205476Y81545D01*
X205410Y81392D01*
X205367Y81283D01*
X205356Y81239D01*
X205345Y81206D01*
X205334Y81184D01*
Y81173D01*
X205268Y80933D01*
X205225Y80671D01*
X205181Y80430D01*
X205159Y80190D01*
X205148Y79993D01*
Y79905D01*
X205137Y79829D01*
Y79687D01*
X205148Y79414D01*
X205159Y79151D01*
X205181Y78911D01*
X205214Y78714D01*
X205236Y78539D01*
X205246Y78474D01*
X205257Y78419D01*
X205268Y78375D01*
Y78342D01*
X205279Y78321D01*
Y78310D01*
X205345Y78091D01*
X205410Y77894D01*
X205487Y77719D01*
X205553Y77566D01*
X205618Y77446D01*
X205673Y77359D01*
X205716Y77304D01*
X205727Y77282D01*
X205848Y77140D01*
X205979Y77009D01*
X206099Y76900D01*
X206230Y76801D01*
X206329Y76736D01*
X206416Y76681D01*
X206471Y76648D01*
X206492Y76638D01*
X206667Y76561D01*
X206853Y76506D01*
X207039Y76473D01*
X207203Y76452D01*
X207356Y76430D01*
X207465Y76419D01*
X207575D01*
X207760Y76430D01*
X207946Y76452D01*
X208110Y76484D01*
X208252Y76517D01*
X208372Y76550D01*
X208471Y76583D01*
X208525Y76605D01*
X208547Y76616D01*
X208722Y76703D01*
X208875Y76790D01*
X209006Y76889D01*
X209127Y76987D01*
X209225Y77075D01*
X209301Y77151D01*
X209345Y77195D01*
X209356Y77217D01*
X209476Y77381D01*
X209597Y77556D01*
X209684Y77730D01*
X209771Y77894D01*
X209826Y78047D01*
X209881Y78157D01*
X209892Y78200D01*
X209903Y78233D01*
X209914Y78255D01*
Y78266D01*
X209979Y78517D01*
X210034Y78769D01*
X210067Y79020D01*
X210099Y79250D01*
X210110Y79457D01*
Y79545D01*
X210121Y79621D01*
Y79763D01*
X210110Y80037D01*
X210099Y80299D01*
X210078Y80528D01*
X210045Y80725D01*
X210012Y80889D01*
X210001Y80955D01*
X209990Y81010D01*
X209979Y81064D01*
Y81097D01*
X209968Y81108D01*
Y81119D01*
X209903Y81337D01*
X209837Y81534D01*
X209761Y81709D01*
X209684Y81862D01*
X209618Y81982D01*
X209564Y82070D01*
X209520Y82124D01*
X209509Y82146D01*
X209389Y82299D01*
X209258Y82430D01*
X209138Y82540D01*
X209017Y82638D01*
X208908Y82704D01*
X208821Y82758D01*
X208766Y82791D01*
X208744Y82802D01*
X208569Y82879D01*
X208383Y82933D01*
X208208Y82977D01*
X208034Y82999D01*
X207892Y83021D01*
X207771Y83031D01*
D02*
G37*
G36*
X180064D02*
X179965D01*
X179769Y83021D01*
X179594Y82999D01*
X179419Y82966D01*
X179277Y82933D01*
X179157Y82889D01*
X179058Y82857D01*
X179004Y82835D01*
X178982Y82824D01*
X178818Y82736D01*
X178665Y82649D01*
X178523Y82540D01*
X178402Y82441D01*
X178304Y82354D01*
X178238Y82277D01*
X178184Y82234D01*
X178173Y82212D01*
X178053Y82048D01*
X177943Y81884D01*
X177845Y81709D01*
X177769Y81545D01*
X177703Y81392D01*
X177659Y81283D01*
X177648Y81239D01*
X177637Y81206D01*
X177626Y81184D01*
Y81173D01*
X177561Y80933D01*
X177517Y80671D01*
X177473Y80430D01*
X177452Y80190D01*
X177441Y79993D01*
Y79905D01*
X177430Y79829D01*
Y79687D01*
X177441Y79414D01*
X177452Y79151D01*
X177473Y78911D01*
X177506Y78714D01*
X177528Y78539D01*
X177539Y78474D01*
X177550Y78419D01*
X177561Y78375D01*
Y78342D01*
X177572Y78321D01*
Y78310D01*
X177637Y78091D01*
X177703Y77894D01*
X177779Y77719D01*
X177845Y77566D01*
X177911Y77446D01*
X177965Y77359D01*
X178009Y77304D01*
X178020Y77282D01*
X178140Y77140D01*
X178271Y77009D01*
X178392Y76900D01*
X178523Y76801D01*
X178621Y76736D01*
X178709Y76681D01*
X178763Y76648D01*
X178785Y76638D01*
X178960Y76561D01*
X179146Y76506D01*
X179332Y76473D01*
X179495Y76452D01*
X179648Y76430D01*
X179758Y76419D01*
X179867D01*
X180053Y76430D01*
X180239Y76452D01*
X180403Y76484D01*
X180545Y76517D01*
X180665Y76550D01*
X180763Y76583D01*
X180818Y76605D01*
X180840Y76616D01*
X181015Y76703D01*
X181168Y76790D01*
X181299Y76889D01*
X181419Y76987D01*
X181518Y77075D01*
X181594Y77151D01*
X181638Y77195D01*
X181649Y77217D01*
X181769Y77381D01*
X181889Y77556D01*
X181976Y77730D01*
X182064Y77894D01*
X182119Y78047D01*
X182173Y78157D01*
X182184Y78200D01*
X182195Y78233D01*
X182206Y78255D01*
Y78266D01*
X182272Y78517D01*
X182326Y78769D01*
X182359Y79020D01*
X182392Y79250D01*
X182403Y79457D01*
Y79545D01*
X182414Y79621D01*
Y79763D01*
X182403Y80037D01*
X182392Y80299D01*
X182370Y80528D01*
X182337Y80725D01*
X182304Y80889D01*
X182293Y80955D01*
X182283Y81010D01*
X182272Y81064D01*
Y81097D01*
X182261Y81108D01*
Y81119D01*
X182195Y81337D01*
X182130Y81534D01*
X182053Y81709D01*
X181976Y81862D01*
X181911Y81982D01*
X181856Y82070D01*
X181813Y82124D01*
X181802Y82146D01*
X181681Y82299D01*
X181550Y82430D01*
X181430Y82540D01*
X181310Y82638D01*
X181201Y82704D01*
X181113Y82758D01*
X181058Y82791D01*
X181037Y82802D01*
X180862Y82879D01*
X180676Y82933D01*
X180501Y82977D01*
X180326Y82999D01*
X180184Y83021D01*
X180064Y83031D01*
D02*
G37*
%LPD*%
G36*
X207771Y82256D02*
X207924Y82234D01*
X208045Y82201D01*
X208154Y82168D01*
X208241Y82135D01*
X208307Y82102D01*
X208351Y82081D01*
X208362Y82070D01*
X208471Y81993D01*
X208569Y81906D01*
X208657Y81818D01*
X208733Y81742D01*
X208788Y81665D01*
X208832Y81600D01*
X208853Y81556D01*
X208864Y81545D01*
X208930Y81414D01*
X208996Y81272D01*
X209039Y81141D01*
X209083Y81010D01*
X209116Y80900D01*
X209138Y80813D01*
X209149Y80758D01*
Y80747D01*
Y80736D01*
X209203Y80375D01*
X209225Y80201D01*
X209236Y80037D01*
X209247Y79905D01*
Y79796D01*
Y79752D01*
Y79720D01*
Y79709D01*
Y79698D01*
Y79501D01*
X209236Y79326D01*
X209214Y79151D01*
X209203Y79009D01*
X209181Y78889D01*
X209159Y78791D01*
X209149Y78736D01*
Y78714D01*
X209105Y78550D01*
X209061Y78397D01*
X209017Y78266D01*
X208963Y78146D01*
X208919Y78047D01*
X208886Y77982D01*
X208864Y77927D01*
X208853Y77916D01*
X208777Y77796D01*
X208689Y77687D01*
X208613Y77599D01*
X208525Y77523D01*
X208460Y77457D01*
X208405Y77413D01*
X208362Y77392D01*
X208351Y77381D01*
X208230Y77315D01*
X208110Y77271D01*
X207990Y77228D01*
X207870Y77206D01*
X207771Y77195D01*
X207695Y77184D01*
X207618D01*
X207465Y77195D01*
X207323Y77217D01*
X207192Y77239D01*
X207083Y77282D01*
X206995Y77315D01*
X206930Y77337D01*
X206886Y77359D01*
X206875Y77370D01*
X206766Y77446D01*
X206667Y77534D01*
X206580Y77610D01*
X206514Y77698D01*
X206449Y77774D01*
X206405Y77829D01*
X206383Y77873D01*
X206372Y77883D01*
X206307Y78015D01*
X206252Y78157D01*
X206208Y78288D01*
X206165Y78419D01*
X206132Y78528D01*
X206121Y78616D01*
X206099Y78670D01*
Y78692D01*
X206044Y79064D01*
X206033Y79239D01*
X206023Y79403D01*
X206012Y79534D01*
Y79643D01*
Y79687D01*
Y79720D01*
Y79731D01*
Y79742D01*
Y79927D01*
X206023Y80113D01*
X206044Y80277D01*
X206055Y80419D01*
X206077Y80540D01*
X206088Y80638D01*
X206099Y80692D01*
Y80714D01*
X206143Y80878D01*
X206187Y81031D01*
X206241Y81173D01*
X206285Y81283D01*
X206329Y81381D01*
X206361Y81458D01*
X206383Y81501D01*
X206394Y81512D01*
X206471Y81633D01*
X206558Y81742D01*
X206635Y81840D01*
X206711Y81917D01*
X206788Y81982D01*
X206842Y82026D01*
X206875Y82048D01*
X206886Y82059D01*
X207006Y82124D01*
X207126Y82179D01*
X207258Y82212D01*
X207367Y82244D01*
X207465Y82256D01*
X207553Y82266D01*
X207618D01*
X207771Y82256D01*
D02*
G37*
G36*
X180064D02*
X180217Y82234D01*
X180337Y82201D01*
X180446Y82168D01*
X180534Y82135D01*
X180599Y82102D01*
X180643Y82081D01*
X180654Y82070D01*
X180763Y81993D01*
X180862Y81906D01*
X180949Y81818D01*
X181026Y81742D01*
X181080Y81665D01*
X181124Y81600D01*
X181146Y81556D01*
X181157Y81545D01*
X181222Y81414D01*
X181288Y81272D01*
X181332Y81141D01*
X181375Y81010D01*
X181408Y80900D01*
X181430Y80813D01*
X181441Y80758D01*
Y80747D01*
Y80736D01*
X181496Y80375D01*
X181518Y80201D01*
X181528Y80037D01*
X181539Y79905D01*
Y79796D01*
Y79752D01*
Y79720D01*
Y79709D01*
Y79698D01*
Y79501D01*
X181528Y79326D01*
X181507Y79151D01*
X181496Y79009D01*
X181474Y78889D01*
X181452Y78791D01*
X181441Y78736D01*
Y78714D01*
X181397Y78550D01*
X181353Y78397D01*
X181310Y78266D01*
X181255Y78146D01*
X181211Y78047D01*
X181179Y77982D01*
X181157Y77927D01*
X181146Y77916D01*
X181069Y77796D01*
X180982Y77687D01*
X180905Y77599D01*
X180818Y77523D01*
X180752Y77457D01*
X180698Y77413D01*
X180654Y77392D01*
X180643Y77381D01*
X180523Y77315D01*
X180403Y77271D01*
X180282Y77228D01*
X180162Y77206D01*
X180064Y77195D01*
X179987Y77184D01*
X179911D01*
X179758Y77195D01*
X179616Y77217D01*
X179484Y77239D01*
X179375Y77282D01*
X179288Y77315D01*
X179222Y77337D01*
X179178Y77359D01*
X179167Y77370D01*
X179058Y77446D01*
X178960Y77534D01*
X178872Y77610D01*
X178807Y77698D01*
X178741Y77774D01*
X178698Y77829D01*
X178676Y77873D01*
X178665Y77883D01*
X178599Y78015D01*
X178544Y78157D01*
X178501Y78288D01*
X178457Y78419D01*
X178424Y78528D01*
X178413Y78616D01*
X178392Y78670D01*
Y78692D01*
X178337Y79064D01*
X178326Y79239D01*
X178315Y79403D01*
X178304Y79534D01*
Y79643D01*
Y79687D01*
Y79720D01*
Y79731D01*
Y79742D01*
Y79927D01*
X178315Y80113D01*
X178337Y80277D01*
X178348Y80419D01*
X178370Y80540D01*
X178381Y80638D01*
X178392Y80692D01*
Y80714D01*
X178435Y80878D01*
X178479Y81031D01*
X178534Y81173D01*
X178577Y81283D01*
X178621Y81381D01*
X178654Y81458D01*
X178676Y81501D01*
X178687Y81512D01*
X178763Y81633D01*
X178850Y81742D01*
X178927Y81840D01*
X179004Y81917D01*
X179080Y81982D01*
X179135Y82026D01*
X179167Y82048D01*
X179178Y82059D01*
X179299Y82124D01*
X179419Y82179D01*
X179550Y82212D01*
X179659Y82244D01*
X179758Y82256D01*
X179845Y82266D01*
X179911D01*
X180064Y82256D01*
D02*
G37*
%LPC*%
G36*
X167554Y106799D02*
X166924D01*
Y105369D01*
X167580D01*
X167607Y105376D01*
X167672Y105382D01*
X167751Y105395D01*
X167843Y105422D01*
X167941Y105461D01*
X168033Y105507D01*
X168125Y105579D01*
X168138Y105592D01*
X168164Y105619D01*
X168197Y105665D01*
X168243Y105730D01*
X168282Y105809D01*
X168322Y105901D01*
X168348Y106006D01*
X168354Y106130D01*
Y106137D01*
Y106143D01*
Y106183D01*
X168341Y106242D01*
X168328Y106307D01*
X168302Y106386D01*
X168269Y106471D01*
X168217Y106550D01*
X168145Y106622D01*
X168138Y106629D01*
X168105Y106649D01*
X168059Y106681D01*
X167994Y106714D01*
X167908Y106740D01*
X167810Y106773D01*
X167692Y106793D01*
X167554Y106799D01*
D02*
G37*
G36*
X161880Y106793D02*
X161263D01*
Y103664D01*
X161926D01*
X161985Y103670D01*
X162044Y103677D01*
X162122Y103683D01*
X162208Y103697D01*
X162293Y103716D01*
X162490Y103769D01*
X162588Y103801D01*
X162687Y103841D01*
X162792Y103887D01*
X162883Y103946D01*
X162975Y104011D01*
X163060Y104084D01*
X163067Y104090D01*
X163080Y104103D01*
X163100Y104129D01*
X163126Y104162D01*
X163159Y104208D01*
X163198Y104261D01*
X163238Y104320D01*
X163277Y104392D01*
X163316Y104471D01*
X163356Y104562D01*
X163395Y104661D01*
X163428Y104766D01*
X163454Y104877D01*
X163474Y105002D01*
X163487Y105133D01*
X163493Y105271D01*
Y105277D01*
Y105304D01*
Y105343D01*
X163487Y105395D01*
X163480Y105455D01*
X163467Y105527D01*
X163454Y105612D01*
X163441Y105697D01*
X163382Y105881D01*
X163349Y105973D01*
X163303Y106071D01*
X163257Y106163D01*
X163192Y106248D01*
X163126Y106334D01*
X163047Y106406D01*
X163041Y106412D01*
X163028Y106425D01*
X163001Y106439D01*
X162969Y106465D01*
X162923Y106498D01*
X162870Y106530D01*
X162805Y106563D01*
X162733Y106603D01*
X162654Y106635D01*
X162568Y106668D01*
X162470Y106701D01*
X162365Y106734D01*
X162254Y106760D01*
X162136Y106773D01*
X162011Y106786D01*
X161880Y106793D01*
D02*
G37*
G36*
X114271Y96819D02*
X113733D01*
Y95199D01*
X114264D01*
X114297Y95205D01*
X114336D01*
X114382Y95212D01*
X114487Y95225D01*
X114605Y95251D01*
X114730Y95290D01*
X114841Y95343D01*
X114946Y95415D01*
X114959Y95428D01*
X114986Y95455D01*
X115025Y95507D01*
X115071Y95573D01*
X115117Y95658D01*
X115156Y95769D01*
X115182Y95888D01*
X115196Y96032D01*
Y96038D01*
Y96065D01*
X115189Y96104D01*
X115182Y96157D01*
X115169Y96215D01*
X115150Y96281D01*
X115117Y96353D01*
X115077Y96425D01*
X115032Y96498D01*
X114973Y96570D01*
X114894Y96635D01*
X114809Y96694D01*
X114697Y96747D01*
X114579Y96786D01*
X114435Y96812D01*
X114271Y96819D01*
D02*
G37*
G36*
X253091Y73858D02*
X253031D01*
X252986Y73852D01*
X252933Y73845D01*
X252874Y73832D01*
X252808Y73819D01*
X252736Y73799D01*
X252658Y73780D01*
X252572Y73747D01*
X252494Y73714D01*
X252408Y73668D01*
X252323Y73616D01*
X252244Y73557D01*
X252159Y73484D01*
X252087Y73406D01*
X252080Y73399D01*
X252067Y73386D01*
X252054Y73360D01*
X252028Y73327D01*
X251995Y73281D01*
X251962Y73222D01*
X251929Y73163D01*
X251897Y73091D01*
X251857Y73006D01*
X251824Y72920D01*
X251792Y72822D01*
X251759Y72717D01*
X251733Y72605D01*
X251719Y72487D01*
X251706Y72356D01*
X251700Y72225D01*
Y72218D01*
Y72192D01*
Y72153D01*
X251706Y72100D01*
X251713Y72041D01*
X251719Y71969D01*
X251733Y71890D01*
X251746Y71805D01*
X251792Y71615D01*
X251824Y71517D01*
X251857Y71418D01*
X251903Y71320D01*
X251949Y71221D01*
X252008Y71129D01*
X252074Y71044D01*
X252080Y71038D01*
X252093Y71025D01*
X252113Y71005D01*
X252146Y70972D01*
X252179Y70939D01*
X252225Y70906D01*
X252277Y70860D01*
X252343Y70821D01*
X252408Y70782D01*
X252481Y70742D01*
X252559Y70703D01*
X252651Y70670D01*
X252743Y70637D01*
X252841Y70618D01*
X252946Y70605D01*
X253058Y70598D01*
X253123D01*
X253163Y70605D01*
X253222Y70611D01*
X253281Y70618D01*
X253353Y70631D01*
X253432Y70651D01*
X253589Y70703D01*
X253674Y70736D01*
X253760Y70775D01*
X253845Y70828D01*
X253924Y70887D01*
X254002Y70952D01*
X254075Y71025D01*
X254081Y71031D01*
X254088Y71044D01*
X254107Y71070D01*
X254134Y71103D01*
X254160Y71149D01*
X254193Y71202D01*
X254225Y71261D01*
X254265Y71333D01*
X254298Y71412D01*
X254330Y71503D01*
X254363Y71602D01*
X254389Y71707D01*
X254416Y71825D01*
X254435Y71949D01*
X254442Y72081D01*
X254449Y72218D01*
Y72225D01*
Y72251D01*
Y72290D01*
X254442Y72350D01*
X254435Y72415D01*
X254429Y72487D01*
X254416Y72573D01*
X254403Y72664D01*
X254363Y72855D01*
X254298Y73058D01*
X254258Y73156D01*
X254206Y73248D01*
X254153Y73340D01*
X254088Y73425D01*
X254081Y73432D01*
X254068Y73445D01*
X254048Y73465D01*
X254022Y73491D01*
X253983Y73524D01*
X253943Y73563D01*
X253891Y73602D01*
X253825Y73642D01*
X253760Y73681D01*
X253688Y73721D01*
X253602Y73760D01*
X253517Y73793D01*
X253419Y73819D01*
X253314Y73839D01*
X253209Y73852D01*
X253091Y73858D01*
D02*
G37*
G36*
X245638D02*
X245579D01*
X245533Y73852D01*
X245481Y73845D01*
X245422Y73832D01*
X245356Y73819D01*
X245284Y73799D01*
X245205Y73780D01*
X245120Y73747D01*
X245041Y73714D01*
X244956Y73668D01*
X244871Y73616D01*
X244792Y73557D01*
X244707Y73484D01*
X244635Y73406D01*
X244628Y73399D01*
X244615Y73386D01*
X244602Y73360D01*
X244576Y73327D01*
X244543Y73281D01*
X244510Y73222D01*
X244477Y73163D01*
X244444Y73091D01*
X244405Y73006D01*
X244372Y72920D01*
X244339Y72822D01*
X244307Y72717D01*
X244281Y72605D01*
X244267Y72487D01*
X244254Y72356D01*
X244248Y72225D01*
Y72218D01*
Y72192D01*
Y72153D01*
X244254Y72100D01*
X244261Y72041D01*
X244267Y71969D01*
X244281Y71890D01*
X244294Y71805D01*
X244339Y71615D01*
X244372Y71517D01*
X244405Y71418D01*
X244451Y71320D01*
X244497Y71221D01*
X244556Y71129D01*
X244622Y71044D01*
X244628Y71038D01*
X244641Y71025D01*
X244661Y71005D01*
X244694Y70972D01*
X244727Y70939D01*
X244773Y70906D01*
X244825Y70860D01*
X244891Y70821D01*
X244956Y70782D01*
X245028Y70742D01*
X245107Y70703D01*
X245199Y70670D01*
X245291Y70637D01*
X245389Y70618D01*
X245494Y70605D01*
X245606Y70598D01*
X245671D01*
X245711Y70605D01*
X245770Y70611D01*
X245829Y70618D01*
X245901Y70631D01*
X245979Y70651D01*
X246137Y70703D01*
X246222Y70736D01*
X246307Y70775D01*
X246393Y70828D01*
X246472Y70887D01*
X246550Y70952D01*
X246622Y71025D01*
X246629Y71031D01*
X246636Y71044D01*
X246655Y71070D01*
X246681Y71103D01*
X246708Y71149D01*
X246741Y71202D01*
X246773Y71261D01*
X246813Y71333D01*
X246845Y71412D01*
X246878Y71503D01*
X246911Y71602D01*
X246937Y71707D01*
X246964Y71825D01*
X246983Y71949D01*
X246990Y72081D01*
X246996Y72218D01*
Y72225D01*
Y72251D01*
Y72290D01*
X246990Y72350D01*
X246983Y72415D01*
X246977Y72487D01*
X246964Y72573D01*
X246950Y72664D01*
X246911Y72855D01*
X246845Y73058D01*
X246806Y73156D01*
X246754Y73248D01*
X246701Y73340D01*
X246636Y73425D01*
X246629Y73432D01*
X246616Y73445D01*
X246596Y73465D01*
X246570Y73491D01*
X246531Y73524D01*
X246491Y73563D01*
X246439Y73602D01*
X246373Y73642D01*
X246307Y73681D01*
X246235Y73721D01*
X246150Y73760D01*
X246065Y73793D01*
X245966Y73819D01*
X245861Y73839D01*
X245757Y73852D01*
X245638Y73858D01*
D02*
G37*
G36*
X114149Y106799D02*
X113611D01*
Y105179D01*
X114143D01*
X114175Y105186D01*
X114215D01*
X114261Y105192D01*
X114366Y105205D01*
X114484Y105231D01*
X114609Y105271D01*
X114720Y105323D01*
X114825Y105395D01*
X114838Y105409D01*
X114864Y105435D01*
X114904Y105487D01*
X114950Y105553D01*
X114996Y105638D01*
X115035Y105750D01*
X115061Y105868D01*
X115074Y106012D01*
Y106019D01*
Y106045D01*
X115068Y106084D01*
X115061Y106137D01*
X115048Y106196D01*
X115028Y106261D01*
X114996Y106334D01*
X114956Y106406D01*
X114910Y106478D01*
X114851Y106550D01*
X114772Y106616D01*
X114687Y106675D01*
X114576Y106727D01*
X114458Y106767D01*
X114313Y106793D01*
X114149Y106799D01*
D02*
G37*
G36*
X174006Y73758D02*
X174001D01*
Y73753D01*
X174007D01*
X174008Y73754D01*
Y73755D01*
Y73756D01*
X174007Y73757D01*
X174006Y73758D01*
D02*
G37*
G36*
X110516Y76257D02*
X110510Y76251D01*
X110516D01*
Y76257D01*
D02*
G37*
G36*
X110506Y76258D02*
X110501D01*
Y76253D01*
X110507D01*
X110508Y76254D01*
Y76255D01*
Y76256D01*
X110507Y76257D01*
X110506Y76258D01*
D02*
G37*
G36*
X174006Y80764D02*
X174001D01*
Y80759D01*
X174007D01*
X174008Y80760D01*
Y80761D01*
Y80762D01*
X174007Y80763D01*
X174006Y80764D01*
D02*
G37*
G36*
X110506Y82764D02*
X110501D01*
Y82759D01*
X110507D01*
X110508Y82760D01*
Y82761D01*
Y82762D01*
X110507Y82763D01*
X110506Y82764D01*
D02*
G37*
G36*
X111006Y69264D02*
X111001D01*
Y69259D01*
X111007D01*
X111008Y69260D01*
Y69261D01*
Y69262D01*
X111007Y69263D01*
X111006Y69264D01*
D02*
G37*
G36*
X225957Y28509D02*
X225956D01*
X225955Y28508D01*
X225954D01*
X225953Y28507D01*
X225952Y28506D01*
Y28504D01*
X225954Y28502D01*
X225955D01*
X225957Y28501D01*
X225959D01*
X225961Y28502D01*
Y28503D01*
X225962Y28505D01*
Y28506D01*
X225961Y28505D01*
X225960D01*
Y28506D01*
X225961Y28507D01*
X225960Y28508D01*
X225957Y28509D01*
D02*
G37*
G36*
Y54509D02*
X225956D01*
X225955Y54508D01*
X225954D01*
X225953Y54507D01*
X225952Y54506D01*
Y54504D01*
X225954Y54502D01*
X225955D01*
X225957Y54501D01*
X225959D01*
X225961Y54502D01*
Y54503D01*
X225962Y54505D01*
Y54506D01*
X225961Y54505D01*
X225960D01*
Y54506D01*
X225961Y54507D01*
X225960Y54508D01*
X225957Y54509D01*
D02*
G37*
G36*
X196957Y31509D02*
X196956D01*
X196955Y31508D01*
X196954D01*
X196953Y31507D01*
X196952Y31506D01*
Y31504D01*
X196954Y31502D01*
X196955D01*
X196957Y31501D01*
X196959D01*
X196961Y31502D01*
Y31503D01*
X196962Y31505D01*
Y31506D01*
X196961Y31505D01*
X196960D01*
Y31506D01*
X196961Y31507D01*
X196960Y31508D01*
X196957Y31509D01*
D02*
G37*
G36*
Y54509D02*
X196956D01*
X196955Y54508D01*
X196954D01*
X196953Y54507D01*
X196952Y54506D01*
Y54504D01*
X196954Y54502D01*
X196955D01*
X196957Y54501D01*
X196959D01*
X196961Y54502D01*
Y54503D01*
X196962Y54505D01*
Y54506D01*
X196961Y54505D01*
X196960D01*
Y54506D01*
X196961Y54507D01*
X196960Y54508D01*
X196957Y54509D01*
D02*
G37*
G36*
X33043Y57999D02*
X33041D01*
X33039Y57998D01*
Y57997D01*
X33038Y57995D01*
Y57994D01*
X33039Y57995D01*
X33040D01*
Y57994D01*
X33039Y57993D01*
X33040Y57992D01*
X33043Y57991D01*
X33044D01*
X33045Y57992D01*
X33046D01*
X33047Y57993D01*
X33048Y57994D01*
Y57996D01*
X33046Y57998D01*
X33045D01*
X33043Y57999D01*
D02*
G37*
G36*
Y34999D02*
X33041D01*
X33039Y34998D01*
Y34997D01*
X33038Y34995D01*
Y34994D01*
X33039Y34995D01*
X33040D01*
Y34994D01*
X33039Y34993D01*
X33040Y34992D01*
X33043Y34991D01*
X33044D01*
X33045Y34992D01*
X33046D01*
X33047Y34993D01*
X33048Y34994D01*
Y34996D01*
X33046Y34998D01*
X33045D01*
X33043Y34999D01*
D02*
G37*
G36*
X59043Y59999D02*
X59041D01*
X59039Y59998D01*
Y59997D01*
X59038Y59995D01*
Y59994D01*
X59039Y59995D01*
X59040D01*
Y59994D01*
X59039Y59993D01*
X59040Y59992D01*
X59043Y59991D01*
X59044D01*
X59045Y59992D01*
X59046D01*
X59047Y59993D01*
X59048Y59994D01*
Y59996D01*
X59046Y59998D01*
X59045D01*
X59043Y59999D01*
D02*
G37*
G36*
Y35499D02*
X59041D01*
X59039Y35498D01*
Y35497D01*
X59038Y35495D01*
Y35494D01*
X59039Y35495D01*
X59040D01*
Y35494D01*
X59039Y35493D01*
X59040Y35492D01*
X59043Y35491D01*
X59044D01*
X59045Y35492D01*
X59046D01*
X59047Y35493D01*
X59048Y35494D01*
Y35496D01*
X59046Y35498D01*
X59045D01*
X59043Y35499D01*
D02*
G37*
G36*
X157506Y67264D02*
X157501D01*
Y67254D01*
X157506D01*
X157509Y67256D01*
Y67259D01*
Y67261D01*
X157506Y67264D01*
D02*
G37*
G36*
X99006Y14264D02*
X99001D01*
Y14254D01*
X99006D01*
X99009Y14256D01*
Y14259D01*
Y14261D01*
X99006Y14264D01*
D02*
G37*
G36*
X118006Y50764D02*
X118001D01*
Y50754D01*
X118006D01*
X118009Y50756D01*
Y50759D01*
Y50761D01*
X118006Y50764D01*
D02*
G37*
%LPD*%
D10*
X173107Y66342D02*
G03*
X173107Y66342I-394J0D01*
G01*
Y43342D02*
G03*
X173107Y43342I-394J0D01*
G01*
X131303Y88768D02*
G03*
X131405Y88694I-176J-352D01*
G01*
X141095Y87980D02*
G03*
X146658Y87980I2781J0D01*
G01*
X204552Y18583D02*
G03*
X204552Y18583I-394J0D01*
G01*
X224000Y69787D02*
G03*
X224000Y69787I-394J0D01*
G01*
X84311Y47658D02*
G03*
X84311Y47658I-394J0D01*
G01*
Y23658D02*
G03*
X84311Y23658I-394J0D01*
G01*
X55500Y69787D02*
G03*
X55500Y69787I-394J0D01*
G01*
X36052Y18583D02*
G03*
X36052Y18583I-394J0D01*
G01*
X254985Y36624D02*
G03*
X254985Y36624I-7685J0D01*
G01*
X254981Y56309D02*
G03*
X254981Y56309I-7681J0D01*
G01*
X19885Y54242D02*
G03*
X19885Y54242I-7685J0D01*
G01*
X19881Y34558D02*
G03*
X19881Y34558I-7681J0D01*
G01*
X105271Y99300D02*
G03*
X105271Y99300I-7685J0D01*
G01*
X85581D02*
G03*
X85581Y99300I-7681J0D01*
G01*
X-20607Y4155D02*
X-18607Y4165D01*
X-21107Y114655D02*
X-19107Y114665D01*
X-21634Y10151D02*
X-19607Y4160D01*
X-17634Y10169D01*
X-22080Y108651D02*
X-20107Y114660D01*
X-18080Y108669D01*
X-19714Y27820D02*
X-19607Y4160D01*
X-20107Y114660D02*
X-20000Y91000D01*
X258908Y-17311D02*
X258912Y-19311D01*
X-92Y-17811D02*
X-88Y-19811D01*
X252914Y-20323D02*
X258910Y-18311D01*
X252906Y-16323D02*
X258910Y-18311D01*
X-90Y-18811D02*
X5914Y-20799D01*
X-90Y-18811D02*
X5906Y-16799D01*
X161000Y-18500D02*
X258910Y-18311D01*
X-90Y-18811D02*
X97820Y-18622D01*
X125080Y51900D02*
X128120Y48860D01*
X121950D02*
X128120D01*
X121950D02*
X125150Y52060D01*
X121500Y39750D02*
Y46250D01*
X128500Y39750D02*
Y46250D01*
X121500Y39750D02*
X128500D01*
X121830Y52060D02*
X128310D01*
X126800Y61700D02*
X128500Y60000D01*
Y54750D02*
Y60000D01*
X121500Y54750D02*
Y60000D01*
X123200Y61700D01*
X126800D01*
X174130Y66500D02*
X194130D01*
X174130Y46500D02*
X194130D01*
Y65890D02*
Y66500D01*
Y46500D02*
Y47110D01*
X174130Y65890D02*
Y66500D01*
Y60890D02*
Y62110D01*
Y55890D02*
Y57110D01*
Y50890D02*
Y52110D01*
Y46500D02*
Y47110D01*
X180629Y46500D02*
Y66500D01*
X174130Y43500D02*
X194130D01*
X174130Y23500D02*
X194130D01*
Y42890D02*
Y43500D01*
Y23500D02*
Y24110D01*
X174130Y42890D02*
Y43500D01*
Y37890D02*
Y39110D01*
Y32890D02*
Y34110D01*
Y27890D02*
Y29110D01*
Y23500D02*
Y24110D01*
X180629Y23500D02*
Y43500D01*
X157600Y61580D02*
X160640Y64620D01*
Y58450D02*
Y64620D01*
X157440Y61650D02*
X160640Y58450D01*
X163250Y58000D02*
X169750D01*
X163250Y65000D02*
X169750D01*
Y58000D02*
Y65000D01*
X157440Y58330D02*
Y64810D01*
X147800Y63300D02*
X149500Y65000D01*
X154750D01*
X149500Y58000D02*
X154750D01*
X147800Y59700D02*
X149500Y58000D01*
X147800Y59700D02*
Y63300D01*
X146658Y87980D02*
X152563D01*
Y68295D02*
Y87980D01*
X135240D02*
X141095D01*
X135240Y68295D02*
Y87980D01*
Y68295D02*
X152563D01*
X204000Y20001D02*
Y40001D01*
X224000Y20001D02*
Y40001D01*
X204000D02*
X204610D01*
X223390D02*
X224000D01*
X204000Y20001D02*
X204610D01*
X208390D02*
X209610D01*
X213390D02*
X214610D01*
X218390D02*
X219610D01*
X223390D02*
X224000D01*
X204000Y26500D02*
X224000D01*
X223764Y48370D02*
Y68370D01*
X203764Y48370D02*
Y68370D01*
X223154Y48370D02*
X223764D01*
X203764D02*
X204374D01*
X223154Y68370D02*
X223764D01*
X218154D02*
X219374D01*
X213154D02*
X214374D01*
X208154D02*
X209374D01*
X203764D02*
X204374D01*
X203764Y61871D02*
X223764D01*
X98860Y15880D02*
X101900Y18920D01*
X98860Y15880D02*
Y22050D01*
X102060Y18850D01*
X89750Y22500D02*
X96250D01*
X89750Y15500D02*
X96250D01*
X89750D02*
Y22500D01*
X102060Y15690D02*
Y22170D01*
X110000Y15500D02*
X111700Y17200D01*
X104750Y15500D02*
X110000D01*
X104750Y22500D02*
X110000D01*
X111700Y20800D01*
Y17200D02*
Y20800D01*
X76000Y47500D02*
Y67500D01*
X82499Y66890D02*
Y67500D01*
Y61890D02*
Y63110D01*
Y56890D02*
Y58110D01*
Y51890D02*
Y53110D01*
Y47500D02*
Y48110D01*
X62499Y66890D02*
Y67500D01*
Y47500D02*
Y48110D01*
Y67500D02*
X82499D01*
X62499Y47500D02*
X82499D01*
X76000Y23500D02*
Y43500D01*
X82499Y42890D02*
Y43500D01*
Y37890D02*
Y39110D01*
Y32890D02*
Y34110D01*
Y27890D02*
Y29110D01*
Y23500D02*
Y24110D01*
X62499Y42890D02*
Y43500D01*
Y23500D02*
Y24110D01*
Y43500D02*
X82499D01*
X62499Y23500D02*
X82499D01*
X35264Y61871D02*
X55264D01*
X35264Y68370D02*
X35874D01*
X39654D02*
X40874D01*
X44654D02*
X45874D01*
X49654D02*
X50874D01*
X54654D02*
X55264D01*
X35264Y48370D02*
X35874D01*
X54654D02*
X55264D01*
X35264D02*
Y68370D01*
X55264Y48370D02*
Y68370D01*
X35500Y26500D02*
X55500D01*
X54890Y20001D02*
X55500D01*
X49890D02*
X51110D01*
X44890D02*
X46110D01*
X39890D02*
X41110D01*
X35500D02*
X36110D01*
X54890Y40001D02*
X55500D01*
X35500D02*
X36110D01*
X55500Y20001D02*
Y40001D01*
X35500Y20001D02*
Y40001D01*
X258500Y26366D02*
Y65866D01*
X229000Y26366D02*
X258500D01*
X229000Y65866D02*
X258500D01*
X229000Y26366D02*
Y65866D01*
X232400Y26366D02*
Y65766D01*
X232300Y65866D02*
X232400Y65766D01*
X247000Y29266D02*
Y30466D01*
X247300Y43066D02*
Y44309D01*
X247000Y48866D02*
Y49966D01*
X247300Y62666D02*
Y63990D01*
X226059Y85295D02*
Y109705D01*
X170941D02*
X226059D01*
X170941Y85295D02*
Y109705D01*
Y85295D02*
X226059D01*
X1000Y25000D02*
Y64500D01*
X30500D01*
X1000Y25000D02*
X30500D01*
Y64500D01*
X27100Y25100D02*
Y64500D01*
Y25100D02*
X27200Y25000D01*
X12500Y60400D02*
Y61600D01*
X12200Y46557D02*
Y47800D01*
X12500Y40900D02*
Y42000D01*
X12200Y26876D02*
Y28200D01*
X68343Y110500D02*
X107843D01*
Y81000D02*
Y110500D01*
X68343Y81000D02*
Y110500D01*
Y81000D02*
X107843D01*
X68442Y84400D02*
X107843D01*
X68343Y84300D02*
X68442Y84400D01*
X103743Y99000D02*
X104943D01*
X89899Y99300D02*
X91142D01*
X84242Y99000D02*
X85343D01*
X70219Y99300D02*
X71543D01*
D11*
X58300Y108419D02*
G03*
X37700Y108419I-10300J-14419D01*
G01*
D12*
X64535Y94000D02*
G03*
X64535Y94000I-16535J0D01*
G01*
X135098Y63600D02*
G03*
X135098Y58400I902J-2600D01*
G01*
X144902D02*
G03*
X144902Y63600I-902J2600D01*
G01*
X165402Y41900D02*
G03*
X165402Y47100I-902J2600D01*
G01*
X155598D02*
G03*
X155598Y41900I902J-2600D01*
G01*
Y53600D02*
G03*
X155598Y48400I902J-2600D01*
G01*
X165402D02*
G03*
X165402Y53600I-902J2600D01*
G01*
X105400Y26598D02*
G03*
X110600Y26598I2600J902D01*
G01*
Y36402D02*
G03*
X105400Y36402I-2600J-902D01*
G01*
X117100Y36502D02*
G03*
X111900Y36502I-2600J-902D01*
G01*
Y26698D02*
G03*
X117100Y26698I2600J902D01*
G01*
X123600Y36502D02*
G03*
X118400Y36502I-2600J-902D01*
G01*
Y26698D02*
G03*
X123600Y26698I2600J902D01*
G01*
X151600Y53902D02*
G03*
X146400Y53902I-2600J-902D01*
G01*
Y44098D02*
G03*
X151600Y44098I2600J902D01*
G01*
X139900D02*
G03*
X145100Y44098I2600J902D01*
G01*
Y53902D02*
G03*
X139900Y53902I-2600J-902D01*
G01*
X138600D02*
G03*
X133400Y53902I-2600J-902D01*
G01*
Y44098D02*
G03*
X138600Y44098I2600J902D01*
G01*
X115098Y21600D02*
G03*
X115098Y16400I902J-2600D01*
G01*
X124902D02*
G03*
X124902Y21600I-902J2600D01*
G01*
X92098Y37100D02*
G03*
X92098Y31900I902J-2600D01*
G01*
X101902D02*
G03*
X101902Y37100I-902J2600D01*
G01*
Y25900D02*
G03*
X101902Y31100I-902J2600D01*
G01*
X92098D02*
G03*
X92098Y25900I902J-2600D01*
G01*
X48500Y110248D02*
Y110500D01*
X32252Y94000D02*
X64500D01*
X60000D02*
X64000Y98000D01*
X56000Y94000D02*
X63000Y101000D01*
X52000Y94000D02*
X61500Y103500D01*
X48000Y94000D02*
X59500Y105500D01*
X44000Y94000D02*
X57500Y107500D01*
X40000Y94000D02*
X55000Y109000D01*
X36000Y94000D02*
X52000Y110000D01*
X32252Y94000D02*
X48500Y110248D01*
X32000Y98000D02*
X44500Y110500D01*
X31500Y94000D02*
X32252D01*
X135098Y63600D02*
X137900D01*
X135098Y58400D02*
X137900D01*
X142100Y63600D02*
X144902D01*
X142100Y58400D02*
X144902D01*
X162600Y41900D02*
X165402D01*
X162600Y47100D02*
X165402D01*
X155598Y41900D02*
X158400D01*
X155598Y47100D02*
X158400D01*
X155598Y53600D02*
X158400D01*
X155598Y48400D02*
X158400D01*
X162600Y53600D02*
X165402D01*
X162600Y48400D02*
X165402D01*
X105400Y26598D02*
Y29400D01*
X110600Y26598D02*
Y29400D01*
X105400Y33600D02*
Y36402D01*
X110600Y33600D02*
Y36402D01*
X117100Y33700D02*
Y36502D01*
X111900Y33700D02*
Y36502D01*
X117100Y26698D02*
Y29500D01*
X111900Y26698D02*
Y29500D01*
X123600Y33700D02*
Y36502D01*
X118400Y33700D02*
Y36502D01*
X123600Y26698D02*
Y29500D01*
X118400Y26698D02*
Y29500D01*
X151600Y51100D02*
Y53902D01*
X146400Y51100D02*
Y53902D01*
X151600Y44098D02*
Y46900D01*
X146400Y44098D02*
Y46900D01*
X139900Y44098D02*
Y46900D01*
X145100Y44098D02*
Y46900D01*
X139900Y51100D02*
Y53902D01*
X145100Y51100D02*
Y53902D01*
X138600Y51100D02*
Y53902D01*
X133400Y51100D02*
Y53902D01*
X138600Y44098D02*
Y46900D01*
X133400Y44098D02*
Y46900D01*
X115098Y21600D02*
X117900D01*
X115098Y16400D02*
X117900D01*
X122100Y21600D02*
X124902D01*
X122100Y16400D02*
X124902D01*
X92098Y37100D02*
X94900D01*
X92098Y31900D02*
X94900D01*
X99100Y37100D02*
X101902D01*
X99100Y31900D02*
X101902D01*
X99100Y25900D02*
X101902D01*
X99100Y31100D02*
X101902D01*
X92098Y25900D02*
X94900D01*
X92098Y31100D02*
X94900D01*
D13*
X114600Y80400D02*
Y85600D01*
X128100D01*
Y80400D02*
Y85600D01*
X114600Y80400D02*
X128100D01*
X114750Y72900D02*
Y78100D01*
X128250D01*
Y72900D02*
Y78100D01*
X114750Y72900D02*
X128250D01*
X114750Y66400D02*
Y71600D01*
X128250D01*
Y66400D02*
Y71600D01*
X114750Y66400D02*
X128250D01*
X159250Y77900D02*
Y83100D01*
X172750D01*
Y77900D02*
Y83100D01*
X159250Y77900D02*
X172750D01*
X159250Y70400D02*
Y75600D01*
X172750D01*
Y70400D02*
Y75600D01*
X159250Y70400D02*
X172750D01*
X77250Y3600D02*
Y8800D01*
X90750D01*
Y3600D02*
Y8800D01*
X77250Y3600D02*
X90750D01*
X68200Y3200D02*
X73500D01*
X73600D01*
Y8600D01*
Y8800D01*
X68200D02*
X73600D01*
X59400Y3200D02*
X64800D01*
X59400Y3400D02*
Y8800D01*
X59500D02*
X64800D01*
X58400Y3200D02*
X59400D01*
X58400D02*
Y8800D01*
X59400D01*
X184000D02*
X189300D01*
X183900D02*
X184000D01*
X183900Y3400D02*
Y8800D01*
Y3200D02*
Y3400D01*
Y3200D02*
X189300D01*
X192700Y8800D02*
X198100D01*
Y3200D02*
Y8600D01*
X192700Y3200D02*
X198000D01*
X198100Y8800D02*
X199100D01*
Y3200D02*
Y8800D01*
X198100Y3200D02*
X199100D01*
X166250Y3400D02*
Y8600D01*
X179750D01*
Y3400D02*
Y8600D01*
X166250Y3400D02*
X179750D01*
D14*
X95953Y40328D02*
X97397D01*
X109602D02*
X112653D01*
Y43379D01*
Y55584D02*
Y58635D01*
X109602D02*
X112653D01*
X94346D02*
X97397D01*
X94346Y55584D02*
Y58635D01*
Y41935D02*
Y43379D01*
Y41935D02*
X95953Y40328D01*
X157102Y39154D02*
X158546D01*
X141847D02*
X144898D01*
X141847Y36102D02*
Y39154D01*
Y20846D02*
Y23898D01*
Y20846D02*
X144898D01*
X157102D02*
X160153D01*
Y23898D01*
Y36102D02*
Y37547D01*
X158546Y39154D02*
X160153Y37547D01*
X137000Y90500D02*
Y100500D01*
X127000D02*
X137000D01*
X127000Y110500D02*
X157000D01*
Y90500D02*
Y110500D01*
X127000Y90500D02*
X157000D01*
X127000D02*
Y110500D01*
D15*
X-23576Y85985D02*
X-23595Y89984D01*
X-19578Y86003D01*
X-18578Y86008D01*
X-17583Y87012D01*
X-17592Y89011D01*
X-18596Y90006D01*
X-18569Y84008D02*
X-17565Y83013D01*
X-17556Y81014D01*
X-18551Y80010D01*
X-19551Y80005D01*
X-20555Y81000D01*
X-21550Y79996D01*
X-22550Y79992D01*
X-23554Y80987D01*
X-23563Y82986D01*
X-22568Y83990D01*
X-21568Y83995D01*
X-20564Y83000D01*
X-19569Y84004D01*
X-18569Y84008D01*
X-20564Y83000D02*
X-20555Y81000D01*
X-23540Y77988D02*
X-22540Y77992D01*
X-22536Y76993D01*
X-23536Y76988D01*
X-23540Y77988D01*
X-18519Y73012D02*
X-17515Y72017D01*
X-17506Y70017D01*
X-18501Y69013D01*
X-22500Y68995D01*
X-23504Y69990D01*
X-23513Y71990D01*
X-22518Y72994D01*
X-18519Y73012D01*
X-17474Y63020D02*
X-18483Y65015D01*
X-20491Y67005D01*
X-22491Y66996D01*
X-23486Y65992D01*
X-23477Y63992D01*
X-22473Y62997D01*
X-21473Y63002D01*
X-20478Y64006D01*
X-20491Y67005D01*
X-17465Y61021D02*
X-17447Y57022D01*
X-18447Y57017D01*
X-22464Y60998D01*
X-23463Y60993D01*
X-23400Y46998D02*
X-21410Y49007D01*
X-19410Y49016D01*
X-17402Y47025D01*
X-23386Y43999D02*
X-19388Y44017D01*
X-19383Y43018D01*
X-20378Y42013D01*
X-23377Y42000D01*
X-20378Y42013D01*
X-19374Y41018D01*
X-20369Y40014D01*
X-23368Y40000D01*
X-23359Y38001D02*
X-19361Y38019D01*
X-19356Y37020D01*
X-20351Y36015D01*
X-23350Y36002D01*
X-20351Y36015D01*
X-19347Y35020D01*
X-20342Y34016D01*
X-23341Y34002D01*
X-23332Y32003D02*
X-21324Y30013D01*
X-19324Y30022D01*
X-17334Y32030D01*
X102814Y-16213D02*
X100816Y-17217D01*
X98821Y-19220D01*
X98825Y-21219D01*
X99826Y-22217D01*
X101825Y-22213D01*
X102823Y-21212D01*
X102821Y-20212D01*
X101820Y-19214D01*
X98821Y-19220D01*
X108812Y-16202D02*
X104813Y-16209D01*
X104819Y-19208D01*
X106816Y-18205D01*
X107816Y-18203D01*
X108817Y-19201D01*
X108821Y-21200D01*
X107824Y-22202D01*
X105824Y-22206D01*
X104823Y-21208D01*
X110823Y-22196D02*
X110821Y-21196D01*
X111820Y-21194D01*
X111822Y-22194D01*
X110823Y-22196D01*
X115809Y-16188D02*
X119808Y-16181D01*
X119810Y-17180D01*
X115819Y-21187D01*
X115821Y-22186D01*
X121809Y-17176D02*
X122807Y-16175D01*
X124806Y-16171D01*
X125808Y-17169D01*
X125810Y-18168D01*
X124812Y-19170D01*
X125814Y-20168D01*
X125816Y-21167D01*
X124818Y-22169D01*
X122819Y-22173D01*
X121817Y-21175D01*
X121815Y-20175D01*
X122813Y-19174D01*
X121811Y-18176D01*
X121809Y-17176D01*
X122813Y-19174D02*
X124812Y-19170D01*
X131804Y-16157D02*
X129807Y-17161D01*
X127811Y-19164D01*
X127815Y-21163D01*
X128817Y-22161D01*
X130816Y-22157D01*
X131814Y-21156D01*
X131812Y-20156D01*
X130810Y-19158D01*
X127811Y-19164D01*
X141813Y-22136D02*
X139809Y-20141D01*
X139805Y-18141D01*
X141801Y-16138D01*
X144811Y-22130D02*
X144804Y-18132D01*
X145803Y-18130D01*
X146805Y-19127D01*
X146811Y-22126D01*
X146805Y-19127D01*
X147803Y-18126D01*
X148804Y-19124D01*
X148810Y-22123D01*
X150810Y-22119D02*
X150802Y-18120D01*
X151802Y-18118D01*
X152803Y-19116D01*
X152809Y-22115D01*
X152803Y-19116D01*
X153801Y-18114D01*
X154803Y-19112D01*
X154808Y-22111D01*
X156808Y-22107D02*
X158803Y-20104D01*
X158799Y-18105D01*
X156796Y-16109D01*
M02*
