M48
;Layer_Color=9474304
;FILE_FORMAT=2:5
INCH,LZ
;TYPE=PLATED
T1F00S00C0.00394
T2F00S00C0.00787
T3F00S00C0.01181
T4F00S00C0.03543
T6F00S00C0.03937
T7F00S00C0.06299
%
T01
X01195Y00765
T02
X0145Y0066
X01485
X0162Y00765
T03
X0039Y0006
X0042Y0009
X0045Y0012
X0051
X0048Y0009
X0045Y0006
X0051
X0039Y0012
X00425Y0031
X00445
X00465
X00485
Y0033
X00465
X00445
X00425
Y0035
X00445
X00465
X00485
X0048Y0054
X0046
X0044
X0042
X0078Y005
X00775Y0036
Y0031
Y0026
X0057Y00195
X0112Y00245
X0121Y00385
X0115Y0047
X01065Y0046
X01035
Y0049
X01065
Y0052
X01035
X01005
Y0049
Y0046
X0092Y0049
X01305Y0052
X01335Y0041
X0146Y00415
X0148Y00325
Y00295
Y0027
X0151
Y00295
X0154
Y0027
Y00325
X0151
X0140024Y0032976
X01445Y00185
X0148
X01515
X01625Y0025
Y0031
X01785
Y0036
Y0041
X0178Y0054
X01535Y00495
X02095Y00535
X02115
X0211Y00365
Y00345
Y00325
X0209
Y00345
Y00365
X02115Y00105
Y0005
X02145Y00075
X0217Y0005
X02225
X022Y00075
X02225Y00105
X0217
X02215Y0015
X0215Y00325
X0213
Y00345
X0215
Y00365
X0213
X02135Y00535
X02155
Y00555
Y00575
X02135
Y00555
X02115
Y00575
X02095
Y00555
X0206382Y0072882
X01925Y00735
X01895
X01865
X01835
Y00705
X01865
X01895
X01925
X0178Y0064
Y0059
X0167Y00555
X01645
X01575Y0064
X01565Y0067
X01525Y00825
X01425Y00795
X0129Y0066
X01185Y00635
Y00605
X01155
Y00635
X01095Y00615
X01125Y00695
X0092Y00545
X0078Y0055
Y00595
X00725Y00705
Y00745
X00705Y00725
X00685Y00745
Y00705
X0136Y0057
X0048Y0056
X0046
X0044
X0042
Y0058
X0044
X0046
X0048
X0038Y0073
T04
X0048Y008711
Y010089
T06
X0132Y00955
X0142
X0152
Y01055
X0142
X0132
T07
X00125Y0034657
X0247Y0036524
Y0056209
X0097685Y0099
X0078
X00125Y0054343
M30
