G04*
G04 #@! TF.GenerationSoftware,Altium Limited,Altium Designer,22.1.2 (22)*
G04*
G04 Layer_Color=32768*
%FSLAX25Y25*%
%MOIN*%
G70*
G04*
G04 #@! TF.SameCoordinates,03C845ED-AF23-4815-B137-924D907A0311*
G04*
G04*
G04 #@! TF.FilePolarity,Positive*
G04*
G01*
G75*
%ADD93C,0.00197*%
%ADD94C,0.00500*%
D93*
X192377Y5974D02*
G03*
X192377Y5974I-1378J0D01*
G01*
X67878Y6026D02*
G03*
X67878Y6026I-1378J0D01*
G01*
X101878Y19000D02*
G03*
X101878Y19000I-1378J0D01*
G01*
X121378D02*
G03*
X121378Y19000I-1378J0D01*
G01*
X109378Y31500D02*
G03*
X109378Y31500I-1378J0D01*
G01*
X122378Y31600D02*
G03*
X122378Y31600I-1378J0D01*
G01*
X115878D02*
G03*
X115878Y31600I-1378J0D01*
G01*
X98378Y28500D02*
G03*
X98378Y28500I-1378J0D01*
G01*
Y34500D02*
G03*
X98378Y34500I-1378J0D01*
G01*
X126378Y50500D02*
G03*
X126378Y50500I-1378J0D01*
G01*
X161878Y44500D02*
G03*
X161878Y44500I-1378J0D01*
G01*
X150378Y49000D02*
G03*
X150378Y49000I-1378J0D01*
G01*
X137378D02*
G03*
X137378Y49000I-1378J0D01*
G01*
X143878D02*
G03*
X143878Y49000I-1378J0D01*
G01*
X161878Y51000D02*
G03*
X161878Y51000I-1378J0D01*
G01*
X160378Y61500D02*
G03*
X160378Y61500I-1378J0D01*
G01*
X141378Y61000D02*
G03*
X141378Y61000I-1378J0D01*
G01*
X49378Y94000D02*
G03*
X49378Y94000I-1378J0D01*
G01*
X190999Y4006D02*
Y7943D01*
X189031Y5974D02*
X192968D01*
X66501Y4057D02*
Y7994D01*
X64532Y6026D02*
X68469D01*
X98532Y19000D02*
X102469D01*
X100500Y17031D02*
Y20968D01*
X120000Y17031D02*
Y20968D01*
X118032Y19000D02*
X121968D01*
X108000Y29531D02*
Y33468D01*
X106032Y31500D02*
X109968D01*
X121000Y29632D02*
Y33569D01*
X119032Y31600D02*
X122968D01*
X114500Y29632D02*
Y33569D01*
X112531Y31600D02*
X116469D01*
X95031Y28500D02*
X98968D01*
X97000Y26531D02*
Y30468D01*
X95031Y34500D02*
X98968D01*
X97000Y32531D02*
Y36468D01*
X125000Y48531D02*
Y52469D01*
X123031Y50500D02*
X126969D01*
X158531Y44500D02*
X162469D01*
X160500Y42531D02*
Y46468D01*
X149000Y47032D02*
Y50968D01*
X147031Y49000D02*
X150969D01*
X136000Y47032D02*
Y50968D01*
X134031Y49000D02*
X137969D01*
X142500Y47032D02*
Y50968D01*
X140532Y49000D02*
X144468D01*
X158531Y51000D02*
X162469D01*
X160500Y49031D02*
Y52969D01*
X157032Y61500D02*
X160968D01*
X159000Y59531D02*
Y63468D01*
X138031Y61000D02*
X141969D01*
X140000Y59031D02*
Y62968D01*
X48000Y92032D02*
Y95969D01*
X46031Y94000D02*
X49968D01*
D94*
X173000Y5000D02*
Y7000D01*
X172000Y6000D02*
X174000D01*
X84000Y5200D02*
Y7200D01*
X83000Y6200D02*
X85000D01*
X121500Y68000D02*
Y70000D01*
X120500Y69000D02*
X122500D01*
X166000Y72000D02*
Y74000D01*
X165000Y73000D02*
X167000D01*
X121500Y74500D02*
Y76500D01*
X120500Y75500D02*
X122500D01*
X166000Y79500D02*
Y81500D01*
X165000Y80500D02*
X167000D01*
X121350Y82000D02*
Y84000D01*
X120350Y83000D02*
X122350D01*
M02*
