G04*
G04 #@! TF.GenerationSoftware,Altium Limited,Altium Designer,22.1.2 (22)*
G04*
G04 Layer_Color=32896*
%FSLAX25Y25*%
%MOIN*%
G70*
G04*
G04 #@! TF.SameCoordinates,03C845ED-AF23-4815-B137-924D907A0311*
G04*
G04*
G04 #@! TF.FilePolarity,Positive*
G04*
G01*
G75*
G36*
X172355Y106285D02*
X172447Y106219D01*
X172539Y106154D01*
X172631Y106095D01*
X172716Y106049D01*
X172782Y106009D01*
X172808Y105996D01*
X172827Y105983D01*
X172834Y105976D01*
X172841D01*
X172978Y105911D01*
X173103Y105852D01*
X173221Y105806D01*
X173319Y105767D01*
X173411Y105734D01*
X173470Y105714D01*
X173497Y105708D01*
X173516Y105701D01*
X173523Y105694D01*
X173529D01*
Y105196D01*
X173438Y105222D01*
X173346Y105255D01*
X173254Y105288D01*
X173175Y105321D01*
X173103Y105353D01*
X173044Y105373D01*
X173011Y105393D01*
X172998Y105399D01*
X172900Y105452D01*
X172814Y105504D01*
X172742Y105550D01*
X172683Y105596D01*
X172644Y105629D01*
X172611Y105655D01*
X172598Y105668D01*
X172591Y105675D01*
Y102205D01*
X172080D01*
Y106350D01*
X172276D01*
X172355Y106285D01*
D02*
G37*
G36*
X161676Y102205D02*
X161170D01*
Y104868D01*
Y105058D01*
X161177Y105222D01*
Y105366D01*
X161184Y105478D01*
X161190Y105570D01*
Y105635D01*
X161197Y105675D01*
Y105688D01*
X161184D01*
X161157Y105576D01*
X161138Y105484D01*
X161111Y105406D01*
X161098Y105347D01*
X161085Y105307D01*
X161072Y105274D01*
X161065Y105261D01*
Y105255D01*
X159727Y102205D01*
X159439D01*
X158094Y105281D01*
X158074Y105334D01*
X158054Y105393D01*
X158015Y105524D01*
X158002Y105589D01*
X157989Y105642D01*
X157976Y105675D01*
Y105688D01*
X157963D01*
X157976Y105517D01*
X157982Y105366D01*
X157995Y105229D01*
Y105111D01*
X158002Y105019D01*
Y104979D01*
Y104947D01*
Y104920D01*
Y104901D01*
Y104894D01*
Y104887D01*
Y102205D01*
X157484D01*
Y106258D01*
X158159D01*
X159373Y103490D01*
X159399Y103431D01*
X159425Y103352D01*
X159458Y103267D01*
X159491Y103182D01*
X159517Y103103D01*
X159544Y103038D01*
X159550Y103011D01*
X159557Y102998D01*
X159563Y102985D01*
Y102979D01*
X159583D01*
X159603Y103051D01*
X159629Y103129D01*
X159662Y103215D01*
X159694Y103293D01*
X159721Y103366D01*
X159747Y103425D01*
X159760Y103464D01*
X159767Y103471D01*
Y103477D01*
X160960Y106258D01*
X161676D01*
Y102205D01*
D02*
G37*
G36*
X166405D02*
X165802D01*
X164975Y105130D01*
X164942Y105281D01*
X164929Y105347D01*
X164916Y105412D01*
X164910Y105465D01*
Y105504D01*
X164903Y105537D01*
Y105543D01*
X164897D01*
X164883Y105386D01*
X164870Y105314D01*
X164857Y105255D01*
X164851Y105202D01*
X164837Y105157D01*
X164831Y105130D01*
Y105124D01*
X164011Y102205D01*
X163401D01*
X162259Y106258D01*
X162823D01*
X163624Y103182D01*
X163644Y103097D01*
X163657Y103024D01*
X163670Y102952D01*
X163683Y102893D01*
X163689Y102847D01*
X163696Y102815D01*
Y102788D01*
Y102782D01*
X163709D01*
X163722Y102867D01*
X163729Y102939D01*
X163742Y103011D01*
X163749Y103064D01*
X163762Y103110D01*
X163768Y103143D01*
X163775Y103162D01*
Y103169D01*
X164614Y106258D01*
X165133D01*
X166012Y103195D01*
X166038Y103103D01*
X166058Y103018D01*
X166071Y102946D01*
X166084Y102887D01*
X166090Y102841D01*
Y102801D01*
X166097Y102782D01*
Y102775D01*
X166110D01*
X166123Y102933D01*
X166136Y102998D01*
X166149Y103064D01*
X166156Y103116D01*
X166169Y103162D01*
X166176Y103189D01*
Y103195D01*
X167002Y106258D01*
X167586D01*
X166405Y102205D01*
D02*
G37*
G36*
X170413D02*
X169889D01*
Y103720D01*
X169239D01*
X169128Y103726D01*
X169023Y103746D01*
X168924Y103766D01*
X168833Y103792D01*
X168741Y103818D01*
X168662Y103851D01*
X168590Y103884D01*
X168524Y103923D01*
X168465Y103949D01*
X168419Y103982D01*
X168373Y104008D01*
X168347Y104035D01*
X168321Y104054D01*
X168308Y104061D01*
X168301Y104068D01*
X168229Y104140D01*
X168163Y104218D01*
X168104Y104297D01*
X168052Y104376D01*
X168012Y104461D01*
X167980Y104540D01*
X167927Y104691D01*
X167908Y104763D01*
X167894Y104829D01*
X167888Y104887D01*
X167881Y104940D01*
X167875Y104979D01*
Y105012D01*
Y105032D01*
Y105038D01*
X167881Y105143D01*
X167888Y105248D01*
X167908Y105340D01*
X167934Y105432D01*
X167960Y105511D01*
X167993Y105583D01*
X168026Y105655D01*
X168058Y105714D01*
X168091Y105767D01*
X168124Y105813D01*
X168157Y105852D01*
X168183Y105885D01*
X168209Y105911D01*
X168229Y105930D01*
X168236Y105937D01*
X168242Y105944D01*
X168314Y105996D01*
X168386Y106049D01*
X168550Y106127D01*
X168721Y106180D01*
X168885Y106219D01*
X168964Y106232D01*
X169029Y106245D01*
X169095Y106252D01*
X169147D01*
X169193Y106258D01*
X170413D01*
Y102205D01*
D02*
G37*
G36*
X171855Y96785D02*
X171947Y96719D01*
X172039Y96654D01*
X172131Y96595D01*
X172216Y96549D01*
X172282Y96509D01*
X172308Y96496D01*
X172327Y96483D01*
X172334Y96477D01*
X172341D01*
X172478Y96411D01*
X172603Y96352D01*
X172721Y96306D01*
X172819Y96267D01*
X172911Y96234D01*
X172970Y96214D01*
X172997Y96207D01*
X173016Y96201D01*
X173023Y96194D01*
X173029D01*
Y95696D01*
X172938Y95722D01*
X172846Y95755D01*
X172754Y95788D01*
X172675Y95820D01*
X172603Y95853D01*
X172544Y95873D01*
X172511Y95893D01*
X172498Y95899D01*
X172400Y95952D01*
X172314Y96004D01*
X172242Y96050D01*
X172183Y96096D01*
X172144Y96129D01*
X172111Y96155D01*
X172098Y96168D01*
X172091Y96175D01*
Y92704D01*
X171580D01*
Y96850D01*
X171776D01*
X171855Y96785D01*
D02*
G37*
G36*
X161176Y92704D02*
X160670D01*
Y95368D01*
Y95558D01*
X160677Y95722D01*
Y95866D01*
X160684Y95978D01*
X160690Y96070D01*
Y96135D01*
X160697Y96175D01*
Y96188D01*
X160684D01*
X160657Y96076D01*
X160638Y95985D01*
X160611Y95906D01*
X160598Y95847D01*
X160585Y95807D01*
X160572Y95775D01*
X160565Y95761D01*
Y95755D01*
X159227Y92704D01*
X158939D01*
X157594Y95781D01*
X157574Y95834D01*
X157554Y95893D01*
X157515Y96024D01*
X157502Y96089D01*
X157489Y96142D01*
X157476Y96175D01*
Y96188D01*
X157463D01*
X157476Y96017D01*
X157482Y95866D01*
X157495Y95729D01*
Y95611D01*
X157502Y95519D01*
Y95479D01*
Y95447D01*
Y95420D01*
Y95401D01*
Y95394D01*
Y95388D01*
Y92704D01*
X156984D01*
Y96759D01*
X157659D01*
X158873Y93990D01*
X158899Y93931D01*
X158925Y93853D01*
X158958Y93767D01*
X158991Y93682D01*
X159017Y93603D01*
X159044Y93538D01*
X159050Y93511D01*
X159057Y93498D01*
X159063Y93485D01*
Y93479D01*
X159083D01*
X159103Y93551D01*
X159129Y93629D01*
X159162Y93715D01*
X159194Y93793D01*
X159221Y93866D01*
X159247Y93925D01*
X159260Y93964D01*
X159267Y93971D01*
Y93977D01*
X160460Y96759D01*
X161176D01*
Y92704D01*
D02*
G37*
G36*
X165905D02*
X165302D01*
X164475Y95630D01*
X164442Y95781D01*
X164429Y95847D01*
X164416Y95912D01*
X164410Y95965D01*
Y96004D01*
X164403Y96037D01*
Y96043D01*
X164397D01*
X164383Y95886D01*
X164370Y95814D01*
X164357Y95755D01*
X164351Y95702D01*
X164337Y95657D01*
X164331Y95630D01*
Y95624D01*
X163511Y92704D01*
X162901D01*
X161759Y96759D01*
X162323D01*
X163124Y93682D01*
X163144Y93597D01*
X163157Y93524D01*
X163170Y93452D01*
X163183Y93393D01*
X163189Y93347D01*
X163196Y93314D01*
Y93288D01*
Y93282D01*
X163209D01*
X163222Y93367D01*
X163229Y93439D01*
X163242Y93511D01*
X163249Y93564D01*
X163262Y93610D01*
X163268Y93643D01*
X163275Y93662D01*
Y93669D01*
X164114Y96759D01*
X164633D01*
X165512Y93695D01*
X165538Y93603D01*
X165558Y93518D01*
X165571Y93446D01*
X165584Y93387D01*
X165590Y93341D01*
Y93301D01*
X165597Y93282D01*
Y93275D01*
X165610D01*
X165623Y93433D01*
X165636Y93498D01*
X165649Y93564D01*
X165656Y93616D01*
X165669Y93662D01*
X165676Y93688D01*
Y93695D01*
X166502Y96759D01*
X167086D01*
X165905Y92704D01*
D02*
G37*
G36*
X169913D02*
X169389D01*
Y94220D01*
X168739D01*
X168628Y94226D01*
X168523Y94246D01*
X168424Y94266D01*
X168333Y94292D01*
X168241Y94318D01*
X168162Y94351D01*
X168090Y94384D01*
X168024Y94423D01*
X167965Y94449D01*
X167919Y94482D01*
X167873Y94508D01*
X167847Y94535D01*
X167821Y94554D01*
X167808Y94561D01*
X167801Y94568D01*
X167729Y94640D01*
X167663Y94718D01*
X167604Y94797D01*
X167552Y94876D01*
X167513Y94961D01*
X167480Y95040D01*
X167427Y95191D01*
X167408Y95263D01*
X167394Y95328D01*
X167388Y95388D01*
X167381Y95440D01*
X167375Y95479D01*
Y95512D01*
Y95532D01*
Y95538D01*
X167381Y95643D01*
X167388Y95748D01*
X167408Y95840D01*
X167434Y95932D01*
X167460Y96011D01*
X167493Y96083D01*
X167526Y96155D01*
X167558Y96214D01*
X167591Y96267D01*
X167624Y96312D01*
X167657Y96352D01*
X167683Y96385D01*
X167709Y96411D01*
X167729Y96431D01*
X167736Y96437D01*
X167742Y96444D01*
X167814Y96496D01*
X167886Y96549D01*
X168050Y96627D01*
X168221Y96680D01*
X168385Y96719D01*
X168464Y96732D01*
X168529Y96745D01*
X168595Y96752D01*
X168647D01*
X168693Y96759D01*
X169913D01*
Y92704D01*
D02*
G37*
G36*
X143715Y86224D02*
X143197D01*
Y89071D01*
Y89150D01*
Y89222D01*
Y89340D01*
X143204Y89445D01*
Y89517D01*
X143210Y89576D01*
Y89616D01*
X143217Y89635D01*
Y89642D01*
X143197D01*
X143151Y89543D01*
X143105Y89465D01*
X143092Y89425D01*
X143073Y89399D01*
X143066Y89386D01*
X143059Y89380D01*
X141019Y86224D01*
X140396D01*
Y90278D01*
X140914D01*
Y87490D01*
Y87346D01*
X140908Y87221D01*
Y87116D01*
X140901Y87038D01*
X140895Y86979D01*
Y86933D01*
X140888Y86906D01*
Y86900D01*
X140901D01*
X140914Y86926D01*
X140941Y86965D01*
X140993Y87057D01*
X141026Y87103D01*
X141045Y87143D01*
X141065Y87169D01*
X141072Y87175D01*
X143053Y90278D01*
X143715D01*
Y86224D01*
D02*
G37*
G36*
X146011Y90344D02*
X146175Y90324D01*
X146326Y90291D01*
X146471Y90259D01*
X146608Y90206D01*
X146733Y90160D01*
X146851Y90101D01*
X146956Y90049D01*
X147048Y89990D01*
X147133Y89931D01*
X147205Y89885D01*
X147264Y89839D01*
X147310Y89799D01*
X147343Y89767D01*
X147363Y89747D01*
X147369Y89740D01*
X147474Y89622D01*
X147566Y89504D01*
X147645Y89373D01*
X147717Y89248D01*
X147769Y89117D01*
X147822Y88986D01*
X147861Y88861D01*
X147894Y88743D01*
X147914Y88632D01*
X147933Y88527D01*
X147947Y88435D01*
X147960Y88356D01*
Y88291D01*
X147966Y88238D01*
Y88212D01*
Y88199D01*
X147960Y88028D01*
X147940Y87871D01*
X147914Y87713D01*
X147881Y87576D01*
X147842Y87438D01*
X147796Y87320D01*
X147750Y87208D01*
X147697Y87103D01*
X147645Y87011D01*
X147599Y86933D01*
X147553Y86867D01*
X147514Y86814D01*
X147481Y86769D01*
X147448Y86736D01*
X147435Y86716D01*
X147428Y86710D01*
X147323Y86611D01*
X147212Y86526D01*
X147094Y86454D01*
X146976Y86388D01*
X146858Y86336D01*
X146740Y86296D01*
X146622Y86257D01*
X146510Y86231D01*
X146405Y86204D01*
X146313Y86185D01*
X146228Y86178D01*
X146149Y86165D01*
X146090D01*
X146044Y86159D01*
X146005D01*
X145867Y86165D01*
X145729Y86172D01*
X145467Y86211D01*
X145349Y86237D01*
X145237Y86264D01*
X145132Y86296D01*
X145034Y86329D01*
X144949Y86362D01*
X144870Y86395D01*
X144798Y86421D01*
X144739Y86447D01*
X144693Y86467D01*
X144660Y86487D01*
X144640Y86493D01*
X144634Y86500D01*
Y88356D01*
X146038D01*
Y87897D01*
X145159D01*
Y86795D01*
X145283Y86736D01*
X145421Y86690D01*
X145552Y86664D01*
X145677Y86637D01*
X145782Y86624D01*
X145828D01*
X145867Y86618D01*
X145946D01*
X146071Y86624D01*
X146189Y86637D01*
X146293Y86657D01*
X146398Y86683D01*
X146497Y86716D01*
X146582Y86756D01*
X146661Y86788D01*
X146740Y86834D01*
X146805Y86874D01*
X146858Y86906D01*
X146910Y86946D01*
X146950Y86979D01*
X146982Y87005D01*
X147002Y87024D01*
X147015Y87038D01*
X147022Y87044D01*
X147094Y87129D01*
X147153Y87215D01*
X147205Y87313D01*
X147251Y87411D01*
X147284Y87510D01*
X147317Y87608D01*
X147363Y87799D01*
X147382Y87884D01*
X147396Y87969D01*
X147402Y88041D01*
X147409Y88107D01*
X147415Y88159D01*
Y88199D01*
Y88225D01*
Y88231D01*
X147409Y88369D01*
X147396Y88494D01*
X147376Y88619D01*
X147350Y88730D01*
X147317Y88835D01*
X147277Y88933D01*
X147245Y89025D01*
X147199Y89104D01*
X147159Y89183D01*
X147127Y89242D01*
X147087Y89301D01*
X147055Y89340D01*
X147028Y89380D01*
X147009Y89406D01*
X146995Y89419D01*
X146989Y89425D01*
X146904Y89504D01*
X146818Y89576D01*
X146727Y89635D01*
X146635Y89688D01*
X146543Y89734D01*
X146451Y89767D01*
X146366Y89799D01*
X146280Y89819D01*
X146202Y89839D01*
X146123Y89852D01*
X146057Y89865D01*
X146005Y89872D01*
X145959Y89878D01*
X145769D01*
X145651Y89865D01*
X145428Y89832D01*
X145323Y89806D01*
X145231Y89780D01*
X145139Y89753D01*
X145060Y89727D01*
X144988Y89694D01*
X144922Y89668D01*
X144863Y89642D01*
X144817Y89616D01*
X144778Y89596D01*
X144752Y89583D01*
X144739Y89576D01*
X144732Y89570D01*
Y90140D01*
X144909Y90213D01*
X145093Y90265D01*
X145283Y90298D01*
X145454Y90324D01*
X145539Y90331D01*
X145611Y90337D01*
X145677Y90344D01*
X145729Y90350D01*
X145841D01*
X146011Y90344D01*
D02*
G37*
G36*
X139353Y86224D02*
X138231D01*
X138054Y86231D01*
X137884Y86250D01*
X137726Y86277D01*
X137575Y86309D01*
X137437Y86355D01*
X137306Y86401D01*
X137188Y86454D01*
X137083Y86506D01*
X136985Y86559D01*
X136900Y86611D01*
X136827Y86657D01*
X136768Y86703D01*
X136723Y86736D01*
X136683Y86762D01*
X136663Y86782D01*
X136657Y86788D01*
X136552Y86900D01*
X136453Y87018D01*
X136375Y87143D01*
X136303Y87267D01*
X136244Y87392D01*
X136198Y87516D01*
X136158Y87641D01*
X136126Y87759D01*
X136099Y87871D01*
X136080Y87976D01*
X136066Y88068D01*
X136053Y88146D01*
Y88212D01*
X136047Y88264D01*
Y88291D01*
Y88304D01*
X136053Y88468D01*
X136073Y88625D01*
X136106Y88769D01*
X136139Y88907D01*
X136191Y89038D01*
X136237Y89157D01*
X136296Y89261D01*
X136349Y89360D01*
X136408Y89445D01*
X136467Y89524D01*
X136513Y89589D01*
X136558Y89642D01*
X136598Y89688D01*
X136631Y89714D01*
X136650Y89734D01*
X136657Y89740D01*
X136775Y89832D01*
X136900Y89917D01*
X137024Y89990D01*
X137155Y90049D01*
X137280Y90101D01*
X137411Y90147D01*
X137536Y90180D01*
X137654Y90213D01*
X137766Y90232D01*
X137864Y90252D01*
X137956Y90265D01*
X138034Y90272D01*
X138100D01*
X138153Y90278D01*
X139353D01*
Y86224D01*
D02*
G37*
G36*
X124704Y106785D02*
X124795Y106719D01*
X124887Y106654D01*
X124979Y106595D01*
X125064Y106549D01*
X125130Y106509D01*
X125156Y106496D01*
X125176Y106483D01*
X125182Y106476D01*
X125189D01*
X125327Y106411D01*
X125451Y106352D01*
X125569Y106306D01*
X125668Y106267D01*
X125760Y106234D01*
X125819Y106214D01*
X125845Y106208D01*
X125865Y106201D01*
X125871Y106194D01*
X125878D01*
Y105696D01*
X125786Y105722D01*
X125694Y105755D01*
X125602Y105788D01*
X125523Y105821D01*
X125451Y105853D01*
X125392Y105873D01*
X125359Y105893D01*
X125346Y105899D01*
X125248Y105952D01*
X125163Y106004D01*
X125091Y106050D01*
X125031Y106096D01*
X124992Y106129D01*
X124959Y106155D01*
X124946Y106168D01*
X124940Y106175D01*
Y102705D01*
X124428D01*
Y106850D01*
X124625D01*
X124704Y106785D01*
D02*
G37*
G36*
X122762Y102705D02*
X121640D01*
X121463Y102711D01*
X121292Y102731D01*
X121135Y102757D01*
X120984Y102790D01*
X120846Y102836D01*
X120715Y102882D01*
X120597Y102934D01*
X120492Y102987D01*
X120394Y103039D01*
X120308Y103092D01*
X120236Y103137D01*
X120177Y103183D01*
X120131Y103216D01*
X120092Y103242D01*
X120072Y103262D01*
X120066Y103269D01*
X119961Y103380D01*
X119862Y103498D01*
X119783Y103623D01*
X119711Y103747D01*
X119652Y103872D01*
X119606Y103997D01*
X119567Y104121D01*
X119534Y104239D01*
X119508Y104351D01*
X119488Y104456D01*
X119475Y104548D01*
X119462Y104627D01*
Y104692D01*
X119456Y104745D01*
Y104771D01*
Y104784D01*
X119462Y104948D01*
X119482Y105105D01*
X119515Y105250D01*
X119547Y105387D01*
X119600Y105519D01*
X119646Y105637D01*
X119705Y105742D01*
X119757Y105840D01*
X119816Y105925D01*
X119875Y106004D01*
X119921Y106070D01*
X119967Y106122D01*
X120007Y106168D01*
X120039Y106194D01*
X120059Y106214D01*
X120066Y106221D01*
X120184Y106313D01*
X120308Y106398D01*
X120433Y106470D01*
X120564Y106529D01*
X120689Y106581D01*
X120820Y106627D01*
X120945Y106660D01*
X121063Y106693D01*
X121174Y106713D01*
X121273Y106732D01*
X121364Y106745D01*
X121443Y106752D01*
X121509D01*
X121561Y106758D01*
X122762D01*
Y102705D01*
D02*
G37*
G36*
X118675D02*
X118150D01*
Y106758D01*
X118675D01*
Y102705D01*
D02*
G37*
G36*
X117101D02*
X116576D01*
Y104410D01*
X116195D01*
X116110Y104403D01*
X116038Y104390D01*
X115972Y104371D01*
X115913Y104351D01*
X115867Y104325D01*
X115828Y104305D01*
X115808Y104292D01*
X115802Y104285D01*
X115736Y104233D01*
X115670Y104167D01*
X115611Y104089D01*
X115552Y104010D01*
X115500Y103938D01*
X115461Y103879D01*
X115434Y103839D01*
X115428Y103833D01*
Y103826D01*
X114752Y102705D01*
X114135D01*
X114896Y103918D01*
X114962Y104030D01*
X115027Y104121D01*
X115080Y104200D01*
X115126Y104259D01*
X115159Y104305D01*
X115191Y104338D01*
X115205Y104358D01*
X115211Y104364D01*
X115303Y104449D01*
X115401Y104515D01*
X115441Y104535D01*
X115474Y104554D01*
X115493Y104568D01*
X115500D01*
Y104581D01*
X115342Y104633D01*
X115205Y104699D01*
X115080Y104777D01*
X114982Y104856D01*
X114890Y104948D01*
X114818Y105040D01*
X114759Y105132D01*
X114713Y105224D01*
X114673Y105309D01*
X114647Y105394D01*
X114627Y105473D01*
X114614Y105538D01*
X114608Y105597D01*
X114601Y105637D01*
Y105670D01*
Y105676D01*
X114608Y105768D01*
X114614Y105860D01*
X114654Y106017D01*
X114706Y106155D01*
X114765Y106267D01*
X114831Y106352D01*
X114883Y106417D01*
X114923Y106457D01*
X114929Y106470D01*
X114936D01*
X115001Y106522D01*
X115073Y106568D01*
X115224Y106634D01*
X115375Y106686D01*
X115526Y106726D01*
X115657Y106745D01*
X115716Y106752D01*
X115762D01*
X115802Y106758D01*
X117101D01*
Y102705D01*
D02*
G37*
G36*
X124410Y97844D02*
X124522Y97831D01*
X124627Y97818D01*
X124712Y97798D01*
X124784Y97772D01*
X124837Y97759D01*
X124869Y97745D01*
X124882Y97739D01*
X124974Y97693D01*
X125060Y97641D01*
X125132Y97588D01*
X125204Y97536D01*
X125256Y97490D01*
X125302Y97450D01*
X125329Y97424D01*
X125335Y97417D01*
Y96925D01*
X125250Y97011D01*
X125165Y97083D01*
X125086Y97142D01*
X125014Y97194D01*
X124948Y97234D01*
X124902Y97267D01*
X124869Y97280D01*
X124856Y97286D01*
X124758Y97332D01*
X124666Y97365D01*
X124581Y97385D01*
X124502Y97404D01*
X124436Y97411D01*
X124390Y97417D01*
X124345D01*
X124220Y97411D01*
X124108Y97391D01*
X124010Y97358D01*
X123931Y97326D01*
X123872Y97286D01*
X123826Y97260D01*
X123793Y97234D01*
X123787Y97227D01*
X123715Y97155D01*
X123662Y97070D01*
X123629Y96984D01*
X123603Y96906D01*
X123590Y96827D01*
X123577Y96768D01*
Y96729D01*
Y96722D01*
Y96715D01*
X123584Y96597D01*
X123603Y96492D01*
X123636Y96394D01*
X123662Y96309D01*
X123695Y96237D01*
X123728Y96184D01*
X123748Y96151D01*
X123754Y96138D01*
X123787Y96092D01*
X123833Y96040D01*
X123925Y95941D01*
X124036Y95843D01*
X124141Y95751D01*
X124240Y95673D01*
X124285Y95640D01*
X124325Y95613D01*
X124358Y95587D01*
X124384Y95568D01*
X124397Y95561D01*
X124404Y95554D01*
X124568Y95436D01*
X124705Y95331D01*
X124823Y95233D01*
X124922Y95148D01*
X124994Y95082D01*
X125053Y95030D01*
X125079Y95003D01*
X125092Y94990D01*
X125171Y94905D01*
X125230Y94820D01*
X125289Y94741D01*
X125329Y94669D01*
X125361Y94610D01*
X125388Y94557D01*
X125401Y94531D01*
X125407Y94518D01*
X125440Y94419D01*
X125460Y94321D01*
X125479Y94223D01*
X125486Y94131D01*
X125493Y94046D01*
X125499Y93980D01*
Y93954D01*
Y93934D01*
Y93928D01*
Y93921D01*
Y93724D01*
X122947D01*
Y94177D01*
X124961D01*
Y94249D01*
X124948Y94314D01*
X124942Y94367D01*
X124928Y94419D01*
X124915Y94459D01*
X124909Y94485D01*
X124896Y94505D01*
Y94511D01*
X124869Y94564D01*
X124830Y94616D01*
X124791Y94669D01*
X124751Y94715D01*
X124718Y94754D01*
X124686Y94780D01*
X124666Y94800D01*
X124659Y94807D01*
X124620Y94839D01*
X124581Y94872D01*
X124476Y94951D01*
X124364Y95036D01*
X124253Y95115D01*
X124148Y95194D01*
X124102Y95226D01*
X124056Y95253D01*
X124023Y95279D01*
X123997Y95299D01*
X123984Y95305D01*
X123977Y95312D01*
X123885Y95377D01*
X123807Y95436D01*
X123728Y95502D01*
X123656Y95561D01*
X123538Y95673D01*
X123439Y95777D01*
X123367Y95856D01*
X123315Y95922D01*
X123295Y95948D01*
X123282Y95968D01*
X123275Y95974D01*
Y95981D01*
X123203Y96105D01*
X123151Y96243D01*
X123118Y96368D01*
X123092Y96492D01*
X123079Y96597D01*
X123072Y96643D01*
X123065Y96683D01*
Y96709D01*
Y96735D01*
Y96748D01*
Y96755D01*
X123072Y96847D01*
X123079Y96932D01*
X123118Y97096D01*
X123170Y97227D01*
X123236Y97345D01*
X123301Y97437D01*
X123354Y97503D01*
X123374Y97522D01*
X123393Y97542D01*
X123400Y97555D01*
X123407D01*
X123472Y97608D01*
X123538Y97654D01*
X123682Y97726D01*
X123833Y97778D01*
X123971Y97811D01*
X124095Y97837D01*
X124148Y97844D01*
X124194D01*
X124233Y97850D01*
X124285D01*
X124410Y97844D01*
D02*
G37*
G36*
X122140Y93724D02*
X121019D01*
X120842Y93731D01*
X120671Y93750D01*
X120513Y93777D01*
X120363Y93809D01*
X120225Y93855D01*
X120094Y93901D01*
X119976Y93954D01*
X119871Y94006D01*
X119772Y94059D01*
X119687Y94111D01*
X119615Y94157D01*
X119556Y94203D01*
X119510Y94236D01*
X119471Y94262D01*
X119451Y94282D01*
X119444Y94288D01*
X119339Y94400D01*
X119241Y94518D01*
X119162Y94643D01*
X119090Y94767D01*
X119031Y94892D01*
X118985Y95016D01*
X118946Y95141D01*
X118913Y95259D01*
X118887Y95371D01*
X118867Y95476D01*
X118854Y95568D01*
X118841Y95646D01*
Y95712D01*
X118834Y95764D01*
Y95790D01*
Y95804D01*
X118841Y95968D01*
X118860Y96125D01*
X118893Y96269D01*
X118926Y96407D01*
X118979Y96538D01*
X119024Y96657D01*
X119083Y96761D01*
X119136Y96860D01*
X119195Y96945D01*
X119254Y97024D01*
X119300Y97089D01*
X119346Y97142D01*
X119385Y97188D01*
X119418Y97214D01*
X119438Y97234D01*
X119444Y97240D01*
X119562Y97332D01*
X119687Y97417D01*
X119812Y97490D01*
X119943Y97549D01*
X120067Y97601D01*
X120199Y97647D01*
X120323Y97680D01*
X120441Y97713D01*
X120553Y97732D01*
X120651Y97752D01*
X120743Y97765D01*
X120822Y97772D01*
X120887D01*
X120940Y97778D01*
X122140D01*
Y93724D01*
D02*
G37*
G36*
X118053D02*
X117529D01*
Y97778D01*
X118053D01*
Y93724D01*
D02*
G37*
G36*
X116479D02*
X115954D01*
Y95430D01*
X115574D01*
X115489Y95423D01*
X115416Y95410D01*
X115351Y95390D01*
X115292Y95371D01*
X115246Y95345D01*
X115207Y95325D01*
X115187Y95312D01*
X115180Y95305D01*
X115115Y95253D01*
X115049Y95187D01*
X114990Y95108D01*
X114931Y95030D01*
X114878Y94957D01*
X114839Y94898D01*
X114813Y94859D01*
X114806Y94853D01*
Y94846D01*
X114131Y93724D01*
X113514D01*
X114275Y94938D01*
X114341Y95049D01*
X114406Y95141D01*
X114459Y95220D01*
X114505Y95279D01*
X114537Y95325D01*
X114570Y95358D01*
X114583Y95377D01*
X114590Y95384D01*
X114682Y95469D01*
X114780Y95535D01*
X114819Y95554D01*
X114852Y95574D01*
X114872Y95587D01*
X114878D01*
Y95600D01*
X114721Y95653D01*
X114583Y95718D01*
X114459Y95797D01*
X114360Y95876D01*
X114268Y95968D01*
X114196Y96060D01*
X114137Y96151D01*
X114091Y96243D01*
X114052Y96329D01*
X114026Y96414D01*
X114006Y96492D01*
X113993Y96558D01*
X113986Y96617D01*
X113980Y96657D01*
Y96689D01*
Y96696D01*
X113986Y96788D01*
X113993Y96880D01*
X114032Y97037D01*
X114085Y97175D01*
X114144Y97286D01*
X114209Y97372D01*
X114262Y97437D01*
X114301Y97477D01*
X114308Y97490D01*
X114314D01*
X114380Y97542D01*
X114452Y97588D01*
X114603Y97654D01*
X114754Y97706D01*
X114905Y97745D01*
X115036Y97765D01*
X115095Y97772D01*
X115141D01*
X115180Y97778D01*
X116479D01*
Y93724D01*
D02*
G37*
%LPC*%
G36*
X169889Y105799D02*
X169351D01*
X169187Y105793D01*
X169042Y105767D01*
X168924Y105727D01*
X168813Y105675D01*
X168728Y105616D01*
X168649Y105550D01*
X168590Y105478D01*
X168544Y105406D01*
X168505Y105334D01*
X168472Y105261D01*
X168452Y105196D01*
X168439Y105137D01*
X168432Y105084D01*
X168426Y105045D01*
Y105019D01*
Y105012D01*
X168439Y104868D01*
X168465Y104750D01*
X168505Y104638D01*
X168550Y104553D01*
X168596Y104487D01*
X168636Y104435D01*
X168662Y104409D01*
X168675Y104395D01*
X168780Y104323D01*
X168892Y104271D01*
X169016Y104232D01*
X169134Y104205D01*
X169239Y104192D01*
X169285Y104186D01*
X169325D01*
X169357Y104179D01*
X169889D01*
Y105799D01*
D02*
G37*
G36*
X169389Y96299D02*
X168851D01*
X168687Y96293D01*
X168542Y96267D01*
X168424Y96227D01*
X168313Y96175D01*
X168228Y96116D01*
X168149Y96050D01*
X168090Y95978D01*
X168044Y95906D01*
X168005Y95834D01*
X167972Y95761D01*
X167952Y95696D01*
X167939Y95637D01*
X167932Y95584D01*
X167926Y95545D01*
Y95519D01*
Y95512D01*
X167939Y95368D01*
X167965Y95250D01*
X168005Y95138D01*
X168050Y95053D01*
X168096Y94987D01*
X168136Y94935D01*
X168162Y94909D01*
X168175Y94895D01*
X168280Y94823D01*
X168392Y94771D01*
X168516Y94731D01*
X168634Y94705D01*
X168739Y94692D01*
X168785Y94686D01*
X168825D01*
X168857Y94679D01*
X169389D01*
Y96299D01*
D02*
G37*
G36*
X138828Y89812D02*
X138212D01*
X138080Y89806D01*
X137956Y89793D01*
X137838Y89780D01*
X137726Y89753D01*
X137621Y89721D01*
X137523Y89688D01*
X137437Y89655D01*
X137359Y89622D01*
X137287Y89583D01*
X137221Y89550D01*
X137169Y89517D01*
X137123Y89485D01*
X137090Y89458D01*
X137064Y89445D01*
X137050Y89432D01*
X137044Y89425D01*
X136965Y89353D01*
X136900Y89268D01*
X136834Y89183D01*
X136788Y89091D01*
X136742Y88993D01*
X136709Y88901D01*
X136650Y88717D01*
X136637Y88632D01*
X136624Y88546D01*
X136611Y88474D01*
X136604Y88415D01*
X136598Y88363D01*
Y88323D01*
Y88297D01*
Y88291D01*
X136604Y88153D01*
X136618Y88022D01*
X136637Y87897D01*
X136663Y87785D01*
X136696Y87681D01*
X136736Y87582D01*
X136775Y87490D01*
X136814Y87411D01*
X136854Y87339D01*
X136893Y87280D01*
X136932Y87228D01*
X136965Y87182D01*
X136991Y87149D01*
X137011Y87123D01*
X137024Y87110D01*
X137031Y87103D01*
X137116Y87031D01*
X137208Y86965D01*
X137300Y86906D01*
X137405Y86861D01*
X137503Y86821D01*
X137601Y86788D01*
X137798Y86736D01*
X137884Y86716D01*
X137969Y86703D01*
X138048Y86696D01*
X138107Y86690D01*
X138166Y86683D01*
X138828D01*
Y89812D01*
D02*
G37*
G36*
X122237Y106293D02*
X121620D01*
X121489Y106286D01*
X121364Y106273D01*
X121246Y106260D01*
X121135Y106234D01*
X121030Y106201D01*
X120931Y106168D01*
X120846Y106135D01*
X120767Y106103D01*
X120695Y106063D01*
X120630Y106030D01*
X120577Y105998D01*
X120531Y105965D01*
X120499Y105939D01*
X120472Y105925D01*
X120459Y105912D01*
X120453Y105906D01*
X120374Y105834D01*
X120308Y105748D01*
X120243Y105663D01*
X120197Y105571D01*
X120151Y105473D01*
X120118Y105381D01*
X120059Y105197D01*
X120046Y105112D01*
X120033Y105027D01*
X120020Y104955D01*
X120013Y104895D01*
X120007Y104843D01*
Y104804D01*
Y104777D01*
Y104771D01*
X120013Y104633D01*
X120026Y104502D01*
X120046Y104377D01*
X120072Y104266D01*
X120105Y104161D01*
X120144Y104062D01*
X120184Y103971D01*
X120223Y103892D01*
X120262Y103820D01*
X120302Y103761D01*
X120341Y103708D01*
X120374Y103662D01*
X120400Y103629D01*
X120420Y103603D01*
X120433Y103590D01*
X120440Y103584D01*
X120525Y103511D01*
X120617Y103446D01*
X120709Y103387D01*
X120813Y103341D01*
X120912Y103301D01*
X121010Y103269D01*
X121207Y103216D01*
X121292Y103197D01*
X121378Y103183D01*
X121456Y103177D01*
X121515Y103170D01*
X121574Y103164D01*
X122237D01*
Y106293D01*
D02*
G37*
G36*
X116576Y106299D02*
X115946D01*
X115808Y106293D01*
X115690Y106273D01*
X115592Y106240D01*
X115506Y106214D01*
X115441Y106181D01*
X115395Y106149D01*
X115362Y106129D01*
X115356Y106122D01*
X115283Y106050D01*
X115231Y105971D01*
X115198Y105886D01*
X115172Y105807D01*
X115159Y105742D01*
X115146Y105683D01*
Y105643D01*
Y105637D01*
Y105630D01*
X115152Y105506D01*
X115178Y105401D01*
X115218Y105309D01*
X115257Y105230D01*
X115303Y105165D01*
X115336Y105119D01*
X115362Y105092D01*
X115375Y105079D01*
X115467Y105007D01*
X115559Y104961D01*
X115657Y104922D01*
X115749Y104895D01*
X115828Y104882D01*
X115893Y104876D01*
X115920Y104869D01*
X116576D01*
Y106299D01*
D02*
G37*
G36*
X121616Y97312D02*
X120999D01*
X120868Y97306D01*
X120743Y97293D01*
X120625Y97280D01*
X120513Y97253D01*
X120409Y97221D01*
X120310Y97188D01*
X120225Y97155D01*
X120146Y97122D01*
X120074Y97083D01*
X120008Y97050D01*
X119956Y97017D01*
X119910Y96984D01*
X119877Y96958D01*
X119851Y96945D01*
X119838Y96932D01*
X119831Y96925D01*
X119753Y96853D01*
X119687Y96768D01*
X119621Y96683D01*
X119575Y96591D01*
X119529Y96492D01*
X119497Y96401D01*
X119438Y96217D01*
X119425Y96132D01*
X119411Y96046D01*
X119398Y95974D01*
X119392Y95915D01*
X119385Y95863D01*
Y95823D01*
Y95797D01*
Y95790D01*
X119392Y95653D01*
X119405Y95522D01*
X119425Y95397D01*
X119451Y95285D01*
X119484Y95180D01*
X119523Y95082D01*
X119562Y94990D01*
X119602Y94911D01*
X119641Y94839D01*
X119680Y94780D01*
X119720Y94728D01*
X119753Y94682D01*
X119779Y94649D01*
X119799Y94623D01*
X119812Y94610D01*
X119818Y94603D01*
X119903Y94531D01*
X119995Y94465D01*
X120087Y94406D01*
X120192Y94361D01*
X120291Y94321D01*
X120389Y94288D01*
X120586Y94236D01*
X120671Y94216D01*
X120756Y94203D01*
X120835Y94196D01*
X120894Y94190D01*
X120953Y94183D01*
X121616D01*
Y97312D01*
D02*
G37*
G36*
X115954Y97319D02*
X115325D01*
X115187Y97312D01*
X115069Y97293D01*
X114970Y97260D01*
X114885Y97234D01*
X114819Y97201D01*
X114773Y97168D01*
X114741Y97149D01*
X114734Y97142D01*
X114662Y97070D01*
X114610Y96991D01*
X114577Y96906D01*
X114550Y96827D01*
X114537Y96761D01*
X114524Y96702D01*
Y96663D01*
Y96657D01*
Y96650D01*
X114531Y96525D01*
X114557Y96420D01*
X114596Y96329D01*
X114636Y96250D01*
X114682Y96184D01*
X114715Y96138D01*
X114741Y96112D01*
X114754Y96099D01*
X114846Y96027D01*
X114937Y95981D01*
X115036Y95941D01*
X115128Y95915D01*
X115207Y95902D01*
X115272Y95895D01*
X115298Y95889D01*
X115954D01*
Y97319D01*
D02*
G37*
%LPD*%
M02*
