G04*
G04 #@! TF.GenerationSoftware,Altium Limited,Altium Designer,22.1.2 (22)*
G04*
G04 Layer_Color=16711935*
%FSLAX25Y25*%
%MOIN*%
G70*
G04*
G04 #@! TF.SameCoordinates,95D767EF-CC4A-4202-867B-88222CEBD608*
G04*
G04*
G04 #@! TF.FilePolarity,Negative*
G04*
G01*
G75*
%ADD53C,0.07887*%
%ADD54R,0.07887X0.07887*%
G04:AMPARAMS|DCode=55|XSize=244.22mil|YSize=165.48mil|CornerRadius=82.74mil|HoleSize=0mil|Usage=FLASHONLY|Rotation=180.000|XOffset=0mil|YOffset=0mil|HoleType=Round|Shape=RoundedRectangle|*
%AMROUNDEDRECTD55*
21,1,0.24422,0.00000,0,0,180.0*
21,1,0.07874,0.16548,0,0,180.0*
1,1,0.16548,-0.03937,0.00000*
1,1,0.16548,0.03937,0.00000*
1,1,0.16548,0.03937,0.00000*
1,1,0.16548,-0.03937,0.00000*
%
%ADD55ROUNDEDRECTD55*%
%ADD56C,0.06706*%
%ADD57R,0.06706X0.06706*%
%ADD58C,0.12611*%
%ADD59R,0.06706X0.09461*%
G36*
X153047Y9282D02*
X152850Y9129D01*
X152668Y8983D01*
X152500Y8844D01*
X152355Y8720D01*
X152289Y8662D01*
X152231Y8618D01*
X152180Y8575D01*
X152143Y8538D01*
X152107Y8509D01*
X152085Y8487D01*
X152070Y8473D01*
X152063Y8465D01*
X151946Y8589D01*
X151844Y8706D01*
X151801Y8757D01*
X151764Y8793D01*
X151742Y8822D01*
X151735Y8830D01*
X151961Y9012D01*
X152165Y9165D01*
X152340Y9304D01*
X152420Y9362D01*
X152493Y9413D01*
X152551Y9464D01*
X152610Y9500D01*
X152661Y9537D01*
X152697Y9566D01*
X152726Y9588D01*
X152748Y9602D01*
X152763Y9617D01*
X152770D01*
X153047Y9282D01*
D02*
G37*
G36*
X140399Y9537D02*
X140508Y9296D01*
X140610Y9078D01*
X140712Y8881D01*
X140807Y8691D01*
X140902Y8524D01*
X140982Y8371D01*
X141062Y8232D01*
X141135Y8115D01*
X141201Y8006D01*
X141259Y7919D01*
X141310Y7853D01*
X141347Y7795D01*
X141376Y7751D01*
X141391Y7729D01*
X141398Y7722D01*
X141288Y7328D01*
X141237Y7335D01*
X141172D01*
X141041Y7350D01*
X140895Y7357D01*
X140749Y7365D01*
X140618Y7372D01*
X140559Y7379D01*
X140516D01*
X140472Y7386D01*
X140414D01*
X140508Y7233D01*
X140596Y7095D01*
X140683Y6963D01*
X140763Y6847D01*
X140836Y6738D01*
X140909Y6635D01*
X140975Y6548D01*
X141033Y6468D01*
X141092Y6395D01*
X141143Y6337D01*
X141179Y6286D01*
X141216Y6249D01*
X141245Y6213D01*
X141267Y6191D01*
X141274Y6183D01*
X141281Y6176D01*
X141186Y5753D01*
X140844Y5812D01*
X140683Y5834D01*
X140530Y5855D01*
X140384Y5877D01*
X140246Y5899D01*
X140115Y5921D01*
X139998Y5936D01*
X139889Y5950D01*
X139794Y5965D01*
X139714Y5972D01*
X139648Y5987D01*
X139590Y5994D01*
X139553D01*
X139524Y6001D01*
X139517D01*
X139495Y6154D01*
X139488Y6227D01*
X139480Y6300D01*
X139473Y6351D01*
X139466Y6402D01*
X139459Y6431D01*
Y6439D01*
X139721Y6395D01*
X139838Y6380D01*
X139954Y6366D01*
X140056Y6344D01*
X140158Y6329D01*
X140246Y6322D01*
X140326Y6307D01*
X140406Y6300D01*
X140465Y6286D01*
X140523Y6278D01*
X140567D01*
X140603Y6271D01*
X140632Y6264D01*
X140654D01*
X140538Y6424D01*
X140428Y6592D01*
X140202Y6927D01*
X139983Y7262D01*
X139889Y7423D01*
X139794Y7576D01*
X139707Y7722D01*
X139626Y7853D01*
X139561Y7970D01*
X139495Y8064D01*
X139451Y8152D01*
X139415Y8210D01*
X139393Y8247D01*
X139386Y8261D01*
X139823Y8451D01*
X139896Y8320D01*
X139962Y8188D01*
X140020Y8079D01*
X140078Y7977D01*
X140122Y7889D01*
X140158Y7831D01*
X140180Y7787D01*
X140188Y7780D01*
Y7773D01*
X140304D01*
X140428Y7765D01*
X140647D01*
X140742Y7758D01*
X140880D01*
X140793Y7904D01*
X140698Y8050D01*
X140523Y8363D01*
X140348Y8669D01*
X140268Y8822D01*
X140188Y8961D01*
X140115Y9099D01*
X140049Y9223D01*
X139991Y9333D01*
X139940Y9428D01*
X139903Y9500D01*
X139867Y9559D01*
X139852Y9595D01*
X139845Y9610D01*
X140290Y9785D01*
X140399Y9537D01*
D02*
G37*
G36*
X138088Y9610D02*
X137942Y9406D01*
X137869Y9304D01*
X137804Y9216D01*
X137753Y9129D01*
X137709Y9070D01*
X137680Y9027D01*
X137673Y9019D01*
Y9012D01*
X139532D01*
Y8604D01*
X138263D01*
X138409Y8378D01*
X138555Y8166D01*
X138693Y7970D01*
X138817Y7802D01*
X138875Y7729D01*
X138926Y7663D01*
X138970Y7605D01*
X139014Y7554D01*
X139043Y7518D01*
X139065Y7488D01*
X139079Y7474D01*
X139087Y7467D01*
X139145Y7408D01*
X139211Y7350D01*
X139276Y7299D01*
X139342Y7262D01*
X139400Y7233D01*
X139444Y7211D01*
X139473Y7197D01*
X139488Y7190D01*
X139291Y6730D01*
X139123Y6767D01*
X139050Y6781D01*
X138978Y6796D01*
X138912Y6803D01*
X138868D01*
X138832Y6810D01*
X138824D01*
X138730Y6818D01*
X138657D01*
X138620Y6825D01*
X138576D01*
X138584Y6635D01*
X138598Y6453D01*
X138613Y6293D01*
X138628Y6140D01*
X138649Y6001D01*
X138679Y5877D01*
X138700Y5768D01*
X138730Y5673D01*
X138751Y5586D01*
X138773Y5513D01*
X138803Y5455D01*
X138817Y5404D01*
X138839Y5367D01*
X138846Y5338D01*
X138861Y5323D01*
Y5316D01*
X138919Y5214D01*
X138992Y5119D01*
X139072Y5032D01*
X139160Y4944D01*
X139342Y4791D01*
X139532Y4660D01*
X139626Y4609D01*
X139707Y4558D01*
X139787Y4514D01*
X139852Y4485D01*
X139911Y4456D01*
X139954Y4434D01*
X139983Y4427D01*
X139991Y4419D01*
X139874Y4273D01*
X139823Y4208D01*
X139779Y4150D01*
X139743Y4099D01*
X139714Y4062D01*
X139699Y4040D01*
X139692Y4033D01*
X139532Y4113D01*
X139378Y4201D01*
X139240Y4281D01*
X139116Y4376D01*
X139007Y4463D01*
X138905Y4551D01*
X138810Y4631D01*
X138730Y4711D01*
X138664Y4791D01*
X138606Y4857D01*
X138555Y4922D01*
X138518Y4981D01*
X138489Y5024D01*
X138467Y5054D01*
X138460Y5075D01*
X138453Y5083D01*
X138402Y5185D01*
X138358Y5301D01*
X138321Y5433D01*
X138285Y5571D01*
X138227Y5863D01*
X138190Y6154D01*
X138176Y6293D01*
X138161Y6424D01*
X138154Y6548D01*
X138139Y6650D01*
Y6738D01*
X138132Y6796D01*
Y6840D01*
Y6854D01*
X138001Y6861D01*
X137877Y6869D01*
X137760Y6876D01*
X137658Y6883D01*
X137578D01*
X137512Y6891D01*
X137454D01*
Y4901D01*
X137447Y4777D01*
X137425Y4667D01*
X137396Y4572D01*
X137352Y4485D01*
X137308Y4419D01*
X137250Y4361D01*
X137199Y4310D01*
X137133Y4273D01*
X137075Y4244D01*
X137016Y4222D01*
X136966Y4208D01*
X136922Y4201D01*
X136878Y4193D01*
X136849Y4186D01*
X136317D01*
X136222Y4193D01*
X136134Y4208D01*
X136062Y4230D01*
X135996Y4266D01*
X135938Y4303D01*
X135887Y4346D01*
X135843Y4390D01*
X135814Y4441D01*
X135755Y4529D01*
X135726Y4609D01*
X135712Y4645D01*
Y4667D01*
X135704Y4682D01*
Y4689D01*
X135682Y4798D01*
X135668Y4922D01*
X135653Y5054D01*
X135639Y5178D01*
X135624Y5294D01*
Y5345D01*
X135617Y5389D01*
Y5418D01*
X135609Y5447D01*
Y5462D01*
Y5469D01*
X135704Y5498D01*
X135799Y5535D01*
X135872Y5564D01*
X135945Y5586D01*
X135996Y5608D01*
X136040Y5622D01*
X136069Y5637D01*
X136076D01*
X136083Y5484D01*
X136091Y5345D01*
X136098Y5221D01*
X136105Y5105D01*
X136120Y5010D01*
X136127Y4937D01*
Y4915D01*
X136134Y4893D01*
Y4886D01*
Y4879D01*
X136156Y4784D01*
X136200Y4711D01*
X136251Y4667D01*
X136309Y4631D01*
X136360Y4609D01*
X136411Y4602D01*
X136441Y4594D01*
X136740D01*
X136783Y4602D01*
X136827Y4609D01*
X136893Y4653D01*
X136936Y4704D01*
X136966Y4769D01*
X136987Y4835D01*
X136995Y4893D01*
X137002Y4930D01*
Y4937D01*
Y4944D01*
Y6920D01*
X136900Y6927D01*
X136798Y6934D01*
X136703D01*
X136616Y6942D01*
X136550D01*
X136492Y6949D01*
X136448D01*
X136346Y6781D01*
X136295Y6701D01*
X136251Y6628D01*
X136215Y6563D01*
X136185Y6519D01*
X136171Y6490D01*
X136164Y6475D01*
X136003Y6577D01*
X135930Y6621D01*
X135865Y6665D01*
X135806Y6694D01*
X135770Y6716D01*
X135741Y6730D01*
X135733Y6738D01*
X135923Y7044D01*
X136105Y7321D01*
X136193Y7452D01*
X136280Y7576D01*
X136360Y7685D01*
X136433Y7795D01*
X136499Y7889D01*
X136557Y7977D01*
X136608Y8050D01*
X136652Y8108D01*
X136688Y8159D01*
X136718Y8196D01*
X136732Y8217D01*
X136740Y8225D01*
X137111Y7991D01*
X136958Y7765D01*
X136885Y7656D01*
X136820Y7561D01*
X136769Y7474D01*
X136725Y7401D01*
X136696Y7357D01*
X136688Y7350D01*
Y7343D01*
X137038Y7328D01*
X137388Y7314D01*
X137731Y7299D01*
X137891Y7292D01*
X138044Y7284D01*
X138183D01*
X138314Y7277D01*
X138424Y7270D01*
X138598D01*
X138657Y7262D01*
X138708D01*
X138533Y7474D01*
X138358Y7678D01*
X138198Y7882D01*
X138052Y8072D01*
X137993Y8152D01*
X137935Y8232D01*
X137877Y8298D01*
X137833Y8356D01*
X137804Y8400D01*
X137775Y8436D01*
X137760Y8458D01*
X137753Y8465D01*
X138074Y8604D01*
X135712D01*
Y9012D01*
X137483D01*
X137206Y9194D01*
X137308Y9333D01*
X137403Y9457D01*
X137483Y9566D01*
X137556Y9668D01*
X137614Y9741D01*
X137665Y9799D01*
X137695Y9836D01*
X137702Y9850D01*
X138088Y9610D01*
D02*
G37*
G36*
X153331Y7751D02*
X153186Y7642D01*
X153033Y7510D01*
X152865Y7372D01*
X152712Y7241D01*
X152573Y7117D01*
X152508Y7066D01*
X152457Y7022D01*
X152413Y6978D01*
X152384Y6949D01*
X152362Y6934D01*
X152355Y6927D01*
X152238Y7058D01*
X152187Y7117D01*
X152136Y7175D01*
X152092Y7226D01*
X152056Y7262D01*
X152034Y7284D01*
X152027Y7292D01*
X152209Y7445D01*
X152391Y7583D01*
X152559Y7722D01*
X152712Y7838D01*
X152785Y7889D01*
X152843Y7940D01*
X152901Y7984D01*
X152952Y8021D01*
X152989Y8050D01*
X153018Y8072D01*
X153033Y8079D01*
X153040Y8086D01*
X153331Y7751D01*
D02*
G37*
G36*
X135434Y6840D02*
X129646D01*
Y7350D01*
X135434D01*
Y6840D01*
D02*
G37*
G36*
X151363Y5207D02*
X150926D01*
Y5717D01*
X149366D01*
Y8166D01*
X151363D01*
Y5207D01*
D02*
G37*
G36*
X144729Y4901D02*
X146362D01*
Y8640D01*
X146858D01*
Y4470D01*
X142571D01*
Y4099D01*
X142069D01*
Y8640D01*
X142571D01*
Y4901D01*
X144219D01*
Y9719D01*
X144729D01*
Y4901D01*
D02*
G37*
G36*
X139801Y5367D02*
X140166Y5294D01*
X140333Y5258D01*
X140501Y5221D01*
X140654Y5192D01*
X140800Y5163D01*
X140931Y5134D01*
X141055Y5112D01*
X141157Y5090D01*
X141245Y5068D01*
X141318Y5061D01*
X141369Y5046D01*
X141398Y5039D01*
X141412D01*
X141281Y4602D01*
X140975Y4682D01*
X140662Y4762D01*
X140348Y4835D01*
X140202Y4864D01*
X140064Y4901D01*
X139933Y4930D01*
X139816Y4959D01*
X139707Y4981D01*
X139612Y5003D01*
X139539Y5017D01*
X139480Y5032D01*
X139451Y5039D01*
X139437D01*
Y5090D01*
X139429Y5156D01*
X139422Y5294D01*
Y5353D01*
X139415Y5404D01*
Y5440D01*
Y5455D01*
X139801Y5367D01*
D02*
G37*
G36*
X151589Y8990D02*
X148593D01*
Y5024D01*
X148600Y4959D01*
X148608Y4901D01*
X148629Y4849D01*
X148651Y4813D01*
X148717Y4740D01*
X148790Y4696D01*
X148863Y4674D01*
X148928Y4660D01*
X148972Y4653D01*
X149118D01*
X149256Y4660D01*
X149402Y4667D01*
X149548Y4674D01*
X149672Y4682D01*
X149730Y4689D01*
X149810D01*
X149847Y4696D01*
X149869D01*
X149825Y4499D01*
X149810Y4412D01*
X149796Y4332D01*
X149789Y4266D01*
X149781Y4208D01*
X149774Y4179D01*
Y4164D01*
X149460D01*
X149373Y4157D01*
X148863D01*
X148732Y4164D01*
X148615Y4186D01*
X148520Y4222D01*
X148433Y4266D01*
X148360Y4317D01*
X148301Y4376D01*
X148250Y4441D01*
X148214Y4507D01*
X148185Y4565D01*
X148156Y4631D01*
X148141Y4689D01*
X148134Y4740D01*
X148126Y4784D01*
X148119Y4820D01*
Y4842D01*
Y4849D01*
Y8990D01*
X147536D01*
Y9420D01*
X151589D01*
Y8990D01*
D02*
G37*
G36*
X152464Y6256D02*
X152522Y6038D01*
X152581Y5819D01*
X152639Y5615D01*
X152697Y5418D01*
X152748Y5236D01*
X152807Y5061D01*
X152858Y4908D01*
X152901Y4762D01*
X152945Y4631D01*
X152982Y4514D01*
X153018Y4419D01*
X153047Y4346D01*
X153069Y4288D01*
X153076Y4259D01*
X153084Y4244D01*
X152573Y4069D01*
X152500Y4317D01*
X152427Y4558D01*
X152369Y4784D01*
X152304Y4995D01*
X152245Y5192D01*
X152194Y5374D01*
X152150Y5542D01*
X152107Y5695D01*
X152070Y5834D01*
X152034Y5957D01*
X152005Y6060D01*
X151983Y6147D01*
X151961Y6213D01*
X151946Y6264D01*
X151939Y6293D01*
Y6300D01*
X152019Y6322D01*
X152100Y6351D01*
X152172Y6380D01*
X152253Y6417D01*
X152318Y6439D01*
X152369Y6460D01*
X152398Y6475D01*
X152413Y6482D01*
X152464Y6256D01*
D02*
G37*
G36*
X126082Y9551D02*
Y9384D01*
Y9231D01*
Y9092D01*
Y8961D01*
Y8844D01*
Y8735D01*
Y8640D01*
X126089Y8553D01*
Y8480D01*
Y8414D01*
Y8363D01*
Y8327D01*
Y8298D01*
Y8283D01*
Y8276D01*
X126096Y8043D01*
X126118Y7817D01*
X126140Y7598D01*
X126176Y7386D01*
X126220Y7175D01*
X126271Y6978D01*
X126329Y6789D01*
X126395Y6606D01*
X126468Y6431D01*
X126541Y6264D01*
X126614Y6103D01*
X126694Y5950D01*
X126781Y5804D01*
X126862Y5666D01*
X126949Y5535D01*
X127036Y5411D01*
X127124Y5294D01*
X127204Y5185D01*
X127292Y5083D01*
X127372Y4988D01*
X127452Y4908D01*
X127532Y4828D01*
X127598Y4755D01*
X127671Y4689D01*
X127729Y4631D01*
X127787Y4587D01*
X127831Y4543D01*
X127875Y4507D01*
X127911Y4485D01*
X127933Y4463D01*
X127948Y4456D01*
X127955Y4448D01*
X127882Y4368D01*
X127809Y4303D01*
X127751Y4237D01*
X127707Y4179D01*
X127663Y4135D01*
X127634Y4099D01*
X127620Y4077D01*
X127612Y4069D01*
X127343Y4288D01*
X127102Y4521D01*
X126883Y4762D01*
X126694Y5010D01*
X126519Y5250D01*
X126373Y5498D01*
X126242Y5731D01*
X126133Y5957D01*
X126045Y6169D01*
X125965Y6366D01*
X125907Y6541D01*
X125856Y6694D01*
X125841Y6759D01*
X125819Y6818D01*
X125812Y6861D01*
X125797Y6905D01*
X125790Y6942D01*
Y6963D01*
X125783Y6978D01*
Y6985D01*
X125695Y6643D01*
X125586Y6322D01*
X125462Y6030D01*
X125331Y5753D01*
X125192Y5498D01*
X125046Y5272D01*
X124900Y5061D01*
X124755Y4879D01*
X124616Y4711D01*
X124485Y4572D01*
X124368Y4448D01*
X124266Y4354D01*
X124179Y4273D01*
X124113Y4222D01*
X124069Y4193D01*
X124055Y4179D01*
X123924Y4339D01*
X123858Y4412D01*
X123800Y4478D01*
X123749Y4536D01*
X123705Y4587D01*
X123676Y4616D01*
X123669Y4623D01*
X123814Y4718D01*
X123960Y4820D01*
X124091Y4930D01*
X124223Y5054D01*
X124456Y5309D01*
X124660Y5586D01*
X124842Y5885D01*
X125003Y6183D01*
X125141Y6490D01*
X125258Y6789D01*
X125353Y7073D01*
X125433Y7343D01*
X125469Y7474D01*
X125498Y7591D01*
X125520Y7707D01*
X125542Y7809D01*
X125564Y7904D01*
X125578Y7984D01*
X125593Y8064D01*
X125608Y8123D01*
X125615Y8174D01*
Y8210D01*
X125622Y8232D01*
Y8239D01*
X125615Y8495D01*
Y8750D01*
X125608Y8997D01*
Y9114D01*
Y9231D01*
Y9333D01*
X125600Y9428D01*
Y9515D01*
Y9588D01*
Y9646D01*
Y9690D01*
Y9719D01*
Y9726D01*
X126082D01*
Y9551D01*
D02*
G37*
G36*
X129172Y4055D02*
X128713D01*
Y9085D01*
X127766D01*
X127853Y8808D01*
X127948Y8531D01*
X128042Y8261D01*
X128086Y8137D01*
X128130Y8021D01*
X128166Y7911D01*
X128203Y7809D01*
X128239Y7722D01*
X128261Y7649D01*
X128290Y7583D01*
X128305Y7540D01*
X128312Y7510D01*
X128320Y7503D01*
X128239Y7401D01*
X128166Y7299D01*
X128101Y7197D01*
X128042Y7102D01*
X127948Y6927D01*
X127875Y6774D01*
X127846Y6701D01*
X127824Y6643D01*
X127802Y6592D01*
X127787Y6548D01*
X127780Y6512D01*
X127773Y6482D01*
X127766Y6468D01*
Y6460D01*
X127736Y6337D01*
X127722Y6227D01*
Y6132D01*
X127736Y6052D01*
X127751Y5979D01*
X127773Y5921D01*
X127802Y5870D01*
X127838Y5826D01*
X127875Y5797D01*
X127911Y5768D01*
X127977Y5731D01*
X128006Y5724D01*
X128028Y5717D01*
X128050D01*
X128145Y5710D01*
X128239D01*
X128334Y5717D01*
X128422Y5731D01*
X128495Y5739D01*
X128560Y5753D01*
X128596Y5761D01*
X128611D01*
X128553Y5571D01*
X128531Y5484D01*
X128509Y5411D01*
X128495Y5345D01*
X128487Y5301D01*
X128480Y5272D01*
Y5258D01*
X128341Y5250D01*
X128217Y5243D01*
X128108D01*
X128021Y5250D01*
X127948D01*
X127897Y5258D01*
X127860Y5265D01*
X127853D01*
X127722Y5301D01*
X127605Y5353D01*
X127510Y5425D01*
X127437Y5506D01*
X127379Y5593D01*
X127328Y5695D01*
X127299Y5797D01*
X127277Y5899D01*
X127262Y6001D01*
X127255Y6103D01*
Y6191D01*
Y6271D01*
X127262Y6344D01*
X127270Y6395D01*
X127277Y6424D01*
Y6439D01*
X127292Y6533D01*
X127321Y6635D01*
X127386Y6832D01*
X127481Y7022D01*
X127576Y7197D01*
X127620Y7277D01*
X127671Y7350D01*
X127707Y7416D01*
X127751Y7474D01*
X127780Y7518D01*
X127802Y7547D01*
X127816Y7569D01*
X127824Y7576D01*
X127722Y7817D01*
X127627Y8072D01*
X127532Y8327D01*
X127445Y8560D01*
X127408Y8669D01*
X127372Y8771D01*
X127343Y8859D01*
X127313Y8939D01*
X127292Y8997D01*
X127277Y9048D01*
X127262Y9078D01*
Y9085D01*
Y9493D01*
X129172D01*
Y4055D01*
D02*
G37*
G36*
X118751Y8821D02*
X118875Y8807D01*
X118991Y8792D01*
X119086Y8770D01*
X119166Y8741D01*
X119225Y8726D01*
X119261Y8712D01*
X119276Y8705D01*
X119378Y8654D01*
X119473Y8595D01*
X119553Y8537D01*
X119633Y8479D01*
X119691Y8428D01*
X119742Y8384D01*
X119771Y8355D01*
X119779Y8347D01*
Y7801D01*
X119684Y7895D01*
X119589Y7976D01*
X119502Y8041D01*
X119422Y8100D01*
X119349Y8143D01*
X119298Y8180D01*
X119261Y8194D01*
X119247Y8202D01*
X119137Y8253D01*
X119035Y8289D01*
X118940Y8311D01*
X118853Y8333D01*
X118780Y8340D01*
X118729Y8347D01*
X118678D01*
X118539Y8340D01*
X118415Y8318D01*
X118306Y8282D01*
X118219Y8245D01*
X118153Y8202D01*
X118102Y8172D01*
X118066Y8143D01*
X118058Y8136D01*
X117978Y8056D01*
X117920Y7961D01*
X117883Y7866D01*
X117854Y7779D01*
X117840Y7691D01*
X117825Y7626D01*
Y7582D01*
Y7575D01*
Y7567D01*
X117832Y7436D01*
X117854Y7320D01*
X117891Y7210D01*
X117920Y7115D01*
X117956Y7035D01*
X117993Y6977D01*
X118015Y6940D01*
X118022Y6926D01*
X118058Y6875D01*
X118109Y6816D01*
X118211Y6707D01*
X118335Y6598D01*
X118452Y6496D01*
X118561Y6408D01*
X118612Y6372D01*
X118656Y6343D01*
X118693Y6313D01*
X118722Y6292D01*
X118736Y6284D01*
X118744Y6277D01*
X118926Y6146D01*
X119079Y6029D01*
X119210Y5920D01*
X119319Y5825D01*
X119400Y5752D01*
X119465Y5694D01*
X119494Y5665D01*
X119509Y5650D01*
X119597Y5555D01*
X119662Y5460D01*
X119728Y5373D01*
X119771Y5293D01*
X119808Y5227D01*
X119837Y5169D01*
X119852Y5140D01*
X119859Y5125D01*
X119895Y5016D01*
X119917Y4907D01*
X119939Y4797D01*
X119946Y4695D01*
X119954Y4600D01*
X119961Y4527D01*
Y4498D01*
Y4476D01*
Y4469D01*
Y4462D01*
Y4243D01*
X117125D01*
Y4746D01*
X119363D01*
Y4826D01*
X119349Y4899D01*
X119341Y4958D01*
X119327Y5016D01*
X119312Y5060D01*
X119305Y5089D01*
X119290Y5111D01*
Y5118D01*
X119261Y5176D01*
X119217Y5235D01*
X119174Y5293D01*
X119130Y5344D01*
X119094Y5388D01*
X119057Y5417D01*
X119035Y5439D01*
X119028Y5446D01*
X118984Y5482D01*
X118940Y5519D01*
X118824Y5606D01*
X118700Y5701D01*
X118576Y5789D01*
X118459Y5876D01*
X118408Y5912D01*
X118357Y5942D01*
X118321Y5971D01*
X118292Y5993D01*
X118277Y6000D01*
X118270Y6007D01*
X118168Y6080D01*
X118080Y6146D01*
X117993Y6219D01*
X117912Y6284D01*
X117781Y6408D01*
X117672Y6525D01*
X117592Y6612D01*
X117533Y6685D01*
X117511Y6714D01*
X117497Y6736D01*
X117490Y6744D01*
Y6751D01*
X117410Y6889D01*
X117351Y7042D01*
X117315Y7181D01*
X117286Y7320D01*
X117271Y7436D01*
X117264Y7487D01*
X117256Y7531D01*
Y7560D01*
Y7589D01*
Y7604D01*
Y7611D01*
X117264Y7713D01*
X117271Y7808D01*
X117315Y7990D01*
X117373Y8136D01*
X117446Y8267D01*
X117519Y8369D01*
X117577Y8442D01*
X117599Y8464D01*
X117621Y8486D01*
X117628Y8501D01*
X117636D01*
X117708Y8559D01*
X117781Y8610D01*
X117942Y8690D01*
X118109Y8748D01*
X118262Y8785D01*
X118401Y8814D01*
X118459Y8821D01*
X118510D01*
X118554Y8828D01*
X118612D01*
X118751Y8821D01*
D02*
G37*
G36*
X111752D02*
X111876Y8807D01*
X111993Y8792D01*
X112088Y8770D01*
X112168Y8741D01*
X112226Y8726D01*
X112263Y8712D01*
X112277Y8705D01*
X112379Y8654D01*
X112474Y8595D01*
X112554Y8537D01*
X112635Y8479D01*
X112693Y8428D01*
X112744Y8384D01*
X112773Y8355D01*
X112780Y8347D01*
Y7801D01*
X112686Y7895D01*
X112591Y7976D01*
X112503Y8041D01*
X112423Y8100D01*
X112350Y8143D01*
X112299Y8180D01*
X112263Y8194D01*
X112248Y8202D01*
X112139Y8253D01*
X112037Y8289D01*
X111942Y8311D01*
X111855Y8333D01*
X111782Y8340D01*
X111731Y8347D01*
X111679D01*
X111541Y8340D01*
X111417Y8318D01*
X111308Y8282D01*
X111220Y8245D01*
X111155Y8202D01*
X111104Y8172D01*
X111067Y8143D01*
X111060Y8136D01*
X110980Y8056D01*
X110921Y7961D01*
X110885Y7866D01*
X110856Y7779D01*
X110841Y7691D01*
X110827Y7626D01*
Y7582D01*
Y7575D01*
Y7567D01*
X110834Y7436D01*
X110856Y7320D01*
X110892Y7210D01*
X110921Y7115D01*
X110958Y7035D01*
X110994Y6977D01*
X111016Y6940D01*
X111023Y6926D01*
X111060Y6875D01*
X111111Y6816D01*
X111213Y6707D01*
X111337Y6598D01*
X111453Y6496D01*
X111563Y6408D01*
X111614Y6372D01*
X111658Y6343D01*
X111694Y6313D01*
X111723Y6292D01*
X111738Y6284D01*
X111745Y6277D01*
X111927Y6146D01*
X112081Y6029D01*
X112212Y5920D01*
X112321Y5825D01*
X112401Y5752D01*
X112467Y5694D01*
X112496Y5665D01*
X112511Y5650D01*
X112598Y5555D01*
X112664Y5460D01*
X112729Y5373D01*
X112773Y5293D01*
X112810Y5227D01*
X112839Y5169D01*
X112853Y5140D01*
X112861Y5125D01*
X112897Y5016D01*
X112919Y4907D01*
X112941Y4797D01*
X112948Y4695D01*
X112955Y4600D01*
X112963Y4527D01*
Y4498D01*
Y4476D01*
Y4469D01*
Y4462D01*
Y4243D01*
X110127D01*
Y4746D01*
X112365D01*
Y4826D01*
X112350Y4899D01*
X112343Y4958D01*
X112328Y5016D01*
X112314Y5060D01*
X112306Y5089D01*
X112292Y5111D01*
Y5118D01*
X112263Y5176D01*
X112219Y5235D01*
X112175Y5293D01*
X112132Y5344D01*
X112095Y5388D01*
X112059Y5417D01*
X112037Y5439D01*
X112030Y5446D01*
X111986Y5482D01*
X111942Y5519D01*
X111825Y5606D01*
X111701Y5701D01*
X111577Y5789D01*
X111461Y5876D01*
X111410Y5912D01*
X111359Y5942D01*
X111322Y5971D01*
X111293Y5993D01*
X111279Y6000D01*
X111271Y6007D01*
X111169Y6080D01*
X111082Y6146D01*
X110994Y6219D01*
X110914Y6284D01*
X110783Y6408D01*
X110673Y6525D01*
X110593Y6612D01*
X110535Y6685D01*
X110513Y6714D01*
X110499Y6736D01*
X110491Y6744D01*
Y6751D01*
X110411Y6889D01*
X110353Y7042D01*
X110316Y7181D01*
X110287Y7320D01*
X110273Y7436D01*
X110265Y7487D01*
X110258Y7531D01*
Y7560D01*
Y7589D01*
Y7604D01*
Y7611D01*
X110265Y7713D01*
X110273Y7808D01*
X110316Y7990D01*
X110375Y8136D01*
X110448Y8267D01*
X110520Y8369D01*
X110579Y8442D01*
X110601Y8464D01*
X110623Y8486D01*
X110630Y8501D01*
X110637D01*
X110710Y8559D01*
X110783Y8610D01*
X110943Y8690D01*
X111111Y8748D01*
X111264Y8785D01*
X111402Y8814D01*
X111461Y8821D01*
X111512D01*
X111556Y8828D01*
X111614D01*
X111752Y8821D01*
D02*
G37*
G36*
X108253D02*
X108377Y8807D01*
X108494Y8792D01*
X108589Y8770D01*
X108669Y8741D01*
X108727Y8726D01*
X108764Y8712D01*
X108778Y8705D01*
X108880Y8654D01*
X108975Y8595D01*
X109055Y8537D01*
X109135Y8479D01*
X109194Y8428D01*
X109245Y8384D01*
X109274Y8355D01*
X109281Y8347D01*
Y7801D01*
X109186Y7895D01*
X109092Y7976D01*
X109004Y8041D01*
X108924Y8100D01*
X108851Y8143D01*
X108800Y8180D01*
X108764Y8194D01*
X108749Y8202D01*
X108640Y8253D01*
X108538Y8289D01*
X108443Y8311D01*
X108355Y8333D01*
X108282Y8340D01*
X108231Y8347D01*
X108180D01*
X108042Y8340D01*
X107918Y8318D01*
X107808Y8282D01*
X107721Y8245D01*
X107656Y8202D01*
X107604Y8172D01*
X107568Y8143D01*
X107561Y8136D01*
X107481Y8056D01*
X107422Y7961D01*
X107386Y7866D01*
X107357Y7779D01*
X107342Y7691D01*
X107327Y7626D01*
Y7582D01*
Y7575D01*
Y7567D01*
X107335Y7436D01*
X107357Y7320D01*
X107393Y7210D01*
X107422Y7115D01*
X107459Y7035D01*
X107495Y6977D01*
X107517Y6940D01*
X107524Y6926D01*
X107561Y6875D01*
X107612Y6816D01*
X107714Y6707D01*
X107838Y6598D01*
X107954Y6496D01*
X108064Y6408D01*
X108115Y6372D01*
X108159Y6343D01*
X108195Y6313D01*
X108224Y6292D01*
X108239Y6284D01*
X108246Y6277D01*
X108428Y6146D01*
X108581Y6029D01*
X108712Y5920D01*
X108822Y5825D01*
X108902Y5752D01*
X108968Y5694D01*
X108997Y5665D01*
X109011Y5650D01*
X109099Y5555D01*
X109165Y5460D01*
X109230Y5373D01*
X109274Y5293D01*
X109310Y5227D01*
X109339Y5169D01*
X109354Y5140D01*
X109361Y5125D01*
X109398Y5016D01*
X109420Y4907D01*
X109441Y4797D01*
X109449Y4695D01*
X109456Y4600D01*
X109463Y4527D01*
Y4498D01*
Y4476D01*
Y4469D01*
Y4462D01*
Y4243D01*
X106628D01*
Y4746D01*
X108866D01*
Y4826D01*
X108851Y4899D01*
X108844Y4958D01*
X108829Y5016D01*
X108815Y5060D01*
X108807Y5089D01*
X108793Y5111D01*
Y5118D01*
X108764Y5176D01*
X108720Y5235D01*
X108676Y5293D01*
X108632Y5344D01*
X108596Y5388D01*
X108559Y5417D01*
X108538Y5439D01*
X108530Y5446D01*
X108486Y5482D01*
X108443Y5519D01*
X108326Y5606D01*
X108202Y5701D01*
X108078Y5789D01*
X107962Y5876D01*
X107911Y5912D01*
X107860Y5942D01*
X107823Y5971D01*
X107794Y5993D01*
X107779Y6000D01*
X107772Y6007D01*
X107670Y6080D01*
X107583Y6146D01*
X107495Y6219D01*
X107415Y6284D01*
X107284Y6408D01*
X107174Y6525D01*
X107094Y6612D01*
X107036Y6685D01*
X107014Y6714D01*
X106999Y6736D01*
X106992Y6744D01*
Y6751D01*
X106912Y6889D01*
X106854Y7042D01*
X106817Y7181D01*
X106788Y7320D01*
X106773Y7436D01*
X106766Y7487D01*
X106759Y7531D01*
Y7560D01*
Y7589D01*
Y7604D01*
Y7611D01*
X106766Y7713D01*
X106773Y7808D01*
X106817Y7990D01*
X106875Y8136D01*
X106948Y8267D01*
X107021Y8369D01*
X107080Y8442D01*
X107101Y8464D01*
X107123Y8486D01*
X107131Y8501D01*
X107138D01*
X107211Y8559D01*
X107284Y8610D01*
X107444Y8690D01*
X107612Y8748D01*
X107765Y8785D01*
X107903Y8814D01*
X107962Y8821D01*
X108013D01*
X108056Y8828D01*
X108115D01*
X108253Y8821D01*
D02*
G37*
G36*
X103318D02*
X103442Y8807D01*
X103559Y8792D01*
X103653Y8770D01*
X103733Y8741D01*
X103792Y8726D01*
X103828Y8712D01*
X103843Y8705D01*
X103945Y8654D01*
X104040Y8595D01*
X104120Y8537D01*
X104200Y8479D01*
X104258Y8428D01*
X104309Y8384D01*
X104339Y8355D01*
X104346Y8347D01*
Y7801D01*
X104251Y7895D01*
X104156Y7976D01*
X104069Y8041D01*
X103989Y8100D01*
X103916Y8143D01*
X103865Y8180D01*
X103828Y8194D01*
X103814Y8202D01*
X103704Y8253D01*
X103602Y8289D01*
X103507Y8311D01*
X103420Y8333D01*
X103347Y8340D01*
X103296Y8347D01*
X103245D01*
X103106Y8340D01*
X102983Y8318D01*
X102873Y8282D01*
X102786Y8245D01*
X102720Y8202D01*
X102669Y8172D01*
X102633Y8143D01*
X102625Y8136D01*
X102545Y8056D01*
X102487Y7961D01*
X102450Y7866D01*
X102421Y7779D01*
X102407Y7691D01*
X102392Y7626D01*
Y7582D01*
Y7575D01*
Y7567D01*
X102399Y7436D01*
X102421Y7320D01*
X102458Y7210D01*
X102487Y7115D01*
X102523Y7035D01*
X102560Y6977D01*
X102582Y6940D01*
X102589Y6926D01*
X102625Y6875D01*
X102676Y6816D01*
X102778Y6707D01*
X102902Y6598D01*
X103019Y6496D01*
X103128Y6408D01*
X103179Y6372D01*
X103223Y6343D01*
X103260Y6313D01*
X103289Y6292D01*
X103303Y6284D01*
X103311Y6277D01*
X103493Y6146D01*
X103646Y6029D01*
X103777Y5920D01*
X103886Y5825D01*
X103967Y5752D01*
X104032Y5694D01*
X104061Y5665D01*
X104076Y5650D01*
X104164Y5555D01*
X104229Y5460D01*
X104295Y5373D01*
X104339Y5293D01*
X104375Y5227D01*
X104404Y5169D01*
X104419Y5140D01*
X104426Y5125D01*
X104462Y5016D01*
X104484Y4907D01*
X104506Y4797D01*
X104514Y4695D01*
X104521Y4600D01*
X104528Y4527D01*
Y4498D01*
Y4476D01*
Y4469D01*
Y4462D01*
Y4243D01*
X101692D01*
Y4746D01*
X103930D01*
Y4826D01*
X103916Y4899D01*
X103908Y4958D01*
X103894Y5016D01*
X103879Y5060D01*
X103872Y5089D01*
X103857Y5111D01*
Y5118D01*
X103828Y5176D01*
X103785Y5235D01*
X103741Y5293D01*
X103697Y5344D01*
X103661Y5388D01*
X103624Y5417D01*
X103602Y5439D01*
X103595Y5446D01*
X103551Y5482D01*
X103507Y5519D01*
X103391Y5606D01*
X103267Y5701D01*
X103143Y5789D01*
X103026Y5876D01*
X102975Y5912D01*
X102924Y5942D01*
X102888Y5971D01*
X102859Y5993D01*
X102844Y6000D01*
X102837Y6007D01*
X102735Y6080D01*
X102647Y6146D01*
X102560Y6219D01*
X102480Y6284D01*
X102348Y6408D01*
X102239Y6525D01*
X102159Y6612D01*
X102101Y6685D01*
X102079Y6714D01*
X102064Y6736D01*
X102057Y6744D01*
Y6751D01*
X101977Y6889D01*
X101918Y7042D01*
X101882Y7181D01*
X101853Y7320D01*
X101838Y7436D01*
X101831Y7487D01*
X101823Y7531D01*
Y7560D01*
Y7589D01*
Y7604D01*
Y7611D01*
X101831Y7713D01*
X101838Y7808D01*
X101882Y7990D01*
X101940Y8136D01*
X102013Y8267D01*
X102086Y8369D01*
X102144Y8442D01*
X102166Y8464D01*
X102188Y8486D01*
X102195Y8501D01*
X102202D01*
X102275Y8559D01*
X102348Y8610D01*
X102509Y8690D01*
X102676Y8748D01*
X102830Y8785D01*
X102968Y8814D01*
X103026Y8821D01*
X103077D01*
X103121Y8828D01*
X103179D01*
X103318Y8821D01*
D02*
G37*
G36*
X98018Y8777D02*
X98120Y8705D01*
X98222Y8632D01*
X98324Y8566D01*
X98419Y8515D01*
X98492Y8471D01*
X98521Y8457D01*
X98543Y8442D01*
X98550Y8435D01*
X98558D01*
X98711Y8362D01*
X98849Y8296D01*
X98980Y8245D01*
X99090Y8202D01*
X99192Y8165D01*
X99257Y8143D01*
X99287Y8136D01*
X99308Y8129D01*
X99316Y8121D01*
X99323D01*
Y7567D01*
X99221Y7597D01*
X99119Y7633D01*
X99017Y7669D01*
X98929Y7706D01*
X98849Y7742D01*
X98783Y7764D01*
X98747Y7786D01*
X98733Y7793D01*
X98623Y7852D01*
X98528Y7910D01*
X98448Y7961D01*
X98383Y8012D01*
X98339Y8049D01*
X98302Y8078D01*
X98288Y8092D01*
X98281Y8100D01*
Y4243D01*
X97712D01*
Y8850D01*
X97931D01*
X98018Y8777D01*
D02*
G37*
G36*
X94468Y8471D02*
X94628Y8202D01*
X94781Y7939D01*
X94862Y7823D01*
X94934Y7706D01*
X95000Y7597D01*
X95066Y7502D01*
X95117Y7414D01*
X95168Y7341D01*
X95204Y7283D01*
X95241Y7239D01*
X95255Y7210D01*
X95262Y7203D01*
X95474Y6904D01*
X95678Y6627D01*
X95773Y6503D01*
X95868Y6379D01*
X95955Y6270D01*
X96043Y6168D01*
X96115Y6073D01*
X96181Y5993D01*
X96247Y5920D01*
X96298Y5854D01*
X96334Y5810D01*
X96371Y5774D01*
X96385Y5752D01*
X96392Y5745D01*
Y5300D01*
X94286D01*
Y4243D01*
X93732D01*
Y5300D01*
X93054D01*
Y5774D01*
X93732D01*
Y8748D01*
X94322D01*
X94468Y8471D01*
D02*
G37*
G36*
X105643Y4907D02*
X105694Y4899D01*
X105738Y4877D01*
X105782Y4863D01*
X105811Y4841D01*
X105833Y4819D01*
X105848Y4812D01*
X105855Y4804D01*
X105891Y4761D01*
X105920Y4717D01*
X105935Y4673D01*
X105950Y4629D01*
X105957Y4593D01*
X105964Y4571D01*
Y4549D01*
Y4542D01*
X105957Y4484D01*
X105950Y4440D01*
X105913Y4352D01*
X105891Y4323D01*
X105877Y4301D01*
X105869Y4287D01*
X105862Y4280D01*
X105818Y4243D01*
X105775Y4221D01*
X105687Y4192D01*
X105651Y4185D01*
X105622Y4177D01*
X105592D01*
X105534Y4185D01*
X105476Y4192D01*
X105432Y4207D01*
X105396Y4228D01*
X105366Y4250D01*
X105344Y4265D01*
X105330Y4272D01*
X105323Y4280D01*
X105286Y4323D01*
X105257Y4367D01*
X105243Y4411D01*
X105228Y4454D01*
X105221Y4491D01*
X105213Y4520D01*
Y4535D01*
Y4542D01*
X105221Y4600D01*
X105228Y4651D01*
X105264Y4732D01*
X105286Y4761D01*
X105308Y4783D01*
X105315Y4797D01*
X105323Y4804D01*
X105366Y4841D01*
X105403Y4870D01*
X105454Y4885D01*
X105490Y4899D01*
X105527Y4907D01*
X105556Y4914D01*
X105585D01*
X105643Y4907D01*
D02*
G37*
G36*
X100708D02*
X100759Y4899D01*
X100803Y4877D01*
X100847Y4863D01*
X100876Y4841D01*
X100898Y4819D01*
X100912Y4812D01*
X100919Y4804D01*
X100956Y4761D01*
X100985Y4717D01*
X101000Y4673D01*
X101014Y4629D01*
X101022Y4593D01*
X101029Y4571D01*
Y4549D01*
Y4542D01*
X101022Y4484D01*
X101014Y4440D01*
X100978Y4352D01*
X100956Y4323D01*
X100941Y4301D01*
X100934Y4287D01*
X100927Y4280D01*
X100883Y4243D01*
X100839Y4221D01*
X100752Y4192D01*
X100715Y4185D01*
X100686Y4177D01*
X100657D01*
X100599Y4185D01*
X100540Y4192D01*
X100497Y4207D01*
X100460Y4228D01*
X100431Y4250D01*
X100409Y4265D01*
X100395Y4272D01*
X100387Y4280D01*
X100351Y4323D01*
X100322Y4367D01*
X100307Y4411D01*
X100293Y4454D01*
X100285Y4491D01*
X100278Y4520D01*
Y4535D01*
Y4542D01*
X100285Y4600D01*
X100293Y4651D01*
X100329Y4732D01*
X100351Y4761D01*
X100373Y4783D01*
X100380Y4797D01*
X100387Y4804D01*
X100431Y4841D01*
X100468Y4870D01*
X100519Y4885D01*
X100555Y4899D01*
X100591Y4907D01*
X100621Y4914D01*
X100650D01*
X100708Y4907D01*
D02*
G37*
G36*
X115135Y8821D02*
X115266Y8799D01*
X115383Y8770D01*
X115499Y8734D01*
X115602Y8683D01*
X115696Y8632D01*
X115777Y8573D01*
X115857Y8522D01*
X115922Y8464D01*
X115981Y8406D01*
X116032Y8355D01*
X116075Y8304D01*
X116105Y8267D01*
X116126Y8238D01*
X116141Y8216D01*
X116148Y8209D01*
X116214Y8085D01*
X116279Y7954D01*
X116331Y7815D01*
X116374Y7669D01*
X116447Y7371D01*
X116491Y7079D01*
X116506Y6940D01*
X116520Y6816D01*
X116527Y6700D01*
X116535Y6605D01*
X116542Y6525D01*
Y6459D01*
Y6423D01*
Y6408D01*
X116535Y6211D01*
X116527Y6022D01*
X116506Y5847D01*
X116484Y5686D01*
X116455Y5533D01*
X116425Y5395D01*
X116389Y5271D01*
X116352Y5162D01*
X116323Y5060D01*
X116287Y4979D01*
X116258Y4907D01*
X116228Y4848D01*
X116207Y4797D01*
X116185Y4768D01*
X116177Y4746D01*
X116170Y4739D01*
X116097Y4637D01*
X116017Y4549D01*
X115930Y4476D01*
X115842Y4411D01*
X115755Y4352D01*
X115667Y4309D01*
X115580Y4272D01*
X115492Y4243D01*
X115412Y4221D01*
X115339Y4199D01*
X115273Y4185D01*
X115215Y4177D01*
X115164D01*
X115128Y4170D01*
X115099D01*
X114967Y4177D01*
X114843Y4199D01*
X114727Y4228D01*
X114617Y4265D01*
X114515Y4309D01*
X114428Y4360D01*
X114340Y4411D01*
X114268Y4469D01*
X114202Y4527D01*
X114144Y4578D01*
X114093Y4629D01*
X114049Y4673D01*
X114020Y4710D01*
X113998Y4746D01*
X113983Y4761D01*
X113976Y4768D01*
X113903Y4885D01*
X113837Y5016D01*
X113786Y5154D01*
X113743Y5293D01*
X113670Y5584D01*
X113619Y5869D01*
X113604Y6000D01*
X113590Y6117D01*
X113582Y6226D01*
X113575Y6321D01*
X113568Y6401D01*
Y6459D01*
Y6496D01*
Y6510D01*
X113575Y6722D01*
X113582Y6919D01*
X113604Y7101D01*
X113626Y7276D01*
X113662Y7436D01*
X113699Y7582D01*
X113743Y7720D01*
X113794Y7852D01*
X113845Y7968D01*
X113896Y8078D01*
X113961Y8172D01*
X114020Y8260D01*
X114085Y8340D01*
X114151Y8413D01*
X114216Y8479D01*
X114282Y8537D01*
X114413Y8632D01*
X114544Y8705D01*
X114668Y8756D01*
X114770Y8792D01*
X114865Y8814D01*
X114938Y8821D01*
X114960Y8828D01*
X114997D01*
X115135Y8821D01*
D02*
G37*
G36*
X129006Y17949D02*
X129414Y17891D01*
X129604Y17869D01*
X129793Y17847D01*
X129968Y17826D01*
X130129Y17811D01*
X130282Y17796D01*
X130420Y17782D01*
X130537Y17774D01*
X130639Y17760D01*
X130726Y17753D01*
X130785D01*
X130821Y17745D01*
X130836D01*
X130785Y17592D01*
X130763Y17519D01*
X130748Y17454D01*
X130734Y17395D01*
X130726Y17352D01*
X130719Y17323D01*
Y17315D01*
X130566Y17330D01*
X130420Y17344D01*
X130274Y17359D01*
X130143Y17366D01*
X130034Y17381D01*
X129990D01*
X129946Y17388D01*
X129917D01*
X129895Y17395D01*
X129873D01*
Y16543D01*
X130828D01*
Y16127D01*
X129910D01*
X129975Y15923D01*
X130048Y15726D01*
X130129Y15536D01*
X130209Y15354D01*
X130289Y15179D01*
X130376Y15019D01*
X130457Y14866D01*
X130537Y14727D01*
X130610Y14596D01*
X130683Y14487D01*
X130741Y14385D01*
X130799Y14297D01*
X130843Y14232D01*
X130879Y14188D01*
X130901Y14151D01*
X130909Y14144D01*
X130821Y13962D01*
X130785Y13874D01*
X130755Y13801D01*
X130726Y13736D01*
X130704Y13692D01*
X130697Y13663D01*
X130690Y13648D01*
X130515Y13896D01*
X130362Y14151D01*
X130223Y14406D01*
X130158Y14530D01*
X130107Y14647D01*
X130056Y14756D01*
X130005Y14859D01*
X129968Y14946D01*
X129932Y15019D01*
X129910Y15085D01*
X129888Y15135D01*
X129881Y15165D01*
X129873Y15172D01*
Y12548D01*
X129436D01*
Y15398D01*
X129312Y15274D01*
X129181Y15150D01*
X129064Y15026D01*
X128955Y14917D01*
X128867Y14815D01*
X128794Y14742D01*
X128765Y14713D01*
X128743Y14691D01*
X128736Y14676D01*
X128729Y14669D01*
X128401Y14997D01*
X128539Y15128D01*
X128671Y15252D01*
X128802Y15376D01*
X128926Y15485D01*
X129028Y15573D01*
X129108Y15646D01*
X129137Y15668D01*
X129159Y15689D01*
X129174Y15697D01*
X129181Y15704D01*
X129436Y15471D01*
Y16127D01*
X128510D01*
Y16543D01*
X129436D01*
Y17454D01*
X129254Y17476D01*
X129079Y17490D01*
X128911Y17512D01*
X128758Y17534D01*
X128627Y17549D01*
X128576Y17556D01*
X128525Y17563D01*
X128488D01*
X128459Y17570D01*
X128437D01*
X128590Y18008D01*
X129006Y17949D01*
D02*
G37*
G36*
X116686Y18095D02*
X116554Y17906D01*
X116438Y17731D01*
X116336Y17570D01*
X116241Y17425D01*
X116168Y17301D01*
X116139Y17257D01*
X116110Y17213D01*
X116095Y17177D01*
X116081Y17155D01*
X116066Y17140D01*
Y17133D01*
X115651Y17366D01*
X115767Y17549D01*
X115884Y17723D01*
X115993Y17884D01*
X116095Y18030D01*
X116183Y18146D01*
X116219Y18197D01*
X116248Y18241D01*
X116270Y18278D01*
X116292Y18299D01*
X116299Y18314D01*
X116307Y18321D01*
X116686Y18095D01*
D02*
G37*
G36*
X134371Y17111D02*
X134874D01*
Y17906D01*
X135246D01*
Y16776D01*
X133496D01*
Y16601D01*
X133125D01*
Y17906D01*
X133496D01*
Y17111D01*
X134000D01*
Y18248D01*
X134371D01*
Y17111D01*
D02*
G37*
G36*
X118260Y17920D02*
X118144Y17774D01*
X118020Y17629D01*
X117911Y17483D01*
X117816Y17344D01*
X117736Y17228D01*
X117699Y17177D01*
X117670Y17133D01*
X117641Y17104D01*
X117626Y17075D01*
X117612Y17060D01*
Y17053D01*
X117218Y17330D01*
X117349Y17497D01*
X117473Y17651D01*
X117590Y17796D01*
X117699Y17920D01*
X117787Y18030D01*
X117859Y18110D01*
X117881Y18139D01*
X117903Y18161D01*
X117911Y18168D01*
X117918Y18175D01*
X118260Y17920D01*
D02*
G37*
G36*
X114433Y18037D02*
X114557Y17869D01*
X114681Y17716D01*
X114798Y17585D01*
X114892Y17476D01*
X114929Y17425D01*
X114965Y17388D01*
X114995Y17359D01*
X115016Y17337D01*
X115024Y17323D01*
X115031Y17315D01*
X114688Y17002D01*
X114528Y17177D01*
X114382Y17344D01*
X114244Y17497D01*
X114120Y17629D01*
X114025Y17745D01*
X113981Y17789D01*
X113945Y17833D01*
X113916Y17862D01*
X113894Y17884D01*
X113886Y17898D01*
X113879Y17906D01*
X114302Y18212D01*
X114433Y18037D01*
D02*
G37*
G36*
X109673Y18117D02*
X109600Y18008D01*
X109527Y17906D01*
X109469Y17804D01*
X109418Y17723D01*
X109374Y17651D01*
X109345Y17592D01*
X109323Y17563D01*
X109316Y17549D01*
X110919D01*
Y16615D01*
X110482D01*
Y17147D01*
X107901D01*
Y16615D01*
X107457D01*
Y17549D01*
X109148D01*
X108885Y17702D01*
X109024Y17920D01*
X109090Y18022D01*
X109155Y18124D01*
X109213Y18205D01*
X109257Y18270D01*
X109286Y18314D01*
X109294Y18321D01*
Y18328D01*
X109673Y18117D01*
D02*
G37*
G36*
X128109Y17344D02*
X127891Y17162D01*
X127701Y16995D01*
X127526Y16834D01*
X127380Y16703D01*
X127315Y16637D01*
X127256Y16586D01*
X127213Y16543D01*
X127169Y16499D01*
X127140Y16470D01*
X127118Y16448D01*
X127103Y16433D01*
X127096Y16426D01*
X126797Y16769D01*
X126957Y16914D01*
X127132Y17060D01*
X127307Y17206D01*
X127475Y17344D01*
X127548Y17403D01*
X127621Y17461D01*
X127686Y17512D01*
X127737Y17556D01*
X127781Y17585D01*
X127818Y17614D01*
X127840Y17629D01*
X127847Y17636D01*
X128109Y17344D01*
D02*
G37*
G36*
X140407Y18088D02*
X140298Y17964D01*
X140203Y17840D01*
X140116Y17731D01*
X140043Y17629D01*
X139985Y17541D01*
X139934Y17483D01*
X139904Y17439D01*
X139897Y17432D01*
Y17425D01*
X142522D01*
Y16324D01*
X142055D01*
Y16995D01*
X137776D01*
Y16324D01*
X137302D01*
Y17425D01*
X139686D01*
X139416Y17607D01*
X139511Y17738D01*
X139613Y17876D01*
X139715Y18000D01*
X139810Y18110D01*
X139890Y18212D01*
X139955Y18285D01*
X139977Y18314D01*
X139999Y18336D01*
X140006Y18343D01*
X140014Y18350D01*
X140407Y18088D01*
D02*
G37*
G36*
X135924Y17942D02*
X136019Y17782D01*
X136121Y17636D01*
X136216Y17497D01*
X136310Y17366D01*
X136405Y17242D01*
X136493Y17133D01*
X136573Y17031D01*
X136653Y16936D01*
X136719Y16863D01*
X136777Y16798D01*
X136828Y16747D01*
X136864Y16703D01*
X136886Y16681D01*
X136894Y16674D01*
X136813Y16528D01*
X136777Y16462D01*
X136741Y16404D01*
X136719Y16353D01*
X136697Y16309D01*
X136689Y16280D01*
X136682Y16273D01*
X136551Y16411D01*
X136427Y16557D01*
X136179Y16856D01*
X135960Y17155D01*
X135858Y17301D01*
X135764Y17439D01*
X135684Y17570D01*
X135603Y17687D01*
X135538Y17796D01*
X135479Y17891D01*
X135436Y17964D01*
X135406Y18022D01*
X135385Y18052D01*
X135377Y18066D01*
X135742Y18270D01*
X135924Y17942D01*
D02*
G37*
G36*
X110679Y16018D02*
X107683D01*
Y16419D01*
X110679D01*
Y16018D01*
D02*
G37*
G36*
X118720Y15799D02*
X118260D01*
Y16550D01*
X113872D01*
Y15799D01*
X113405D01*
Y16973D01*
X118720D01*
Y15799D01*
D02*
G37*
G36*
X124092Y17111D02*
X124872D01*
Y16703D01*
X124092D01*
Y15449D01*
X124246Y15405D01*
X124399Y15361D01*
X124544Y15318D01*
X124676Y15281D01*
X124785Y15252D01*
X124829Y15238D01*
X124872Y15223D01*
X124902Y15216D01*
X124924Y15208D01*
X124938Y15201D01*
X124945D01*
X124887Y14720D01*
X124734Y14771D01*
X124595Y14822D01*
X124457Y14866D01*
X124340Y14909D01*
X124238Y14939D01*
X124158Y14968D01*
X124129Y14975D01*
X124107Y14982D01*
X124100Y14990D01*
X124092D01*
Y13357D01*
X124100Y13269D01*
X124129Y13211D01*
X124173Y13167D01*
X124216Y13131D01*
X124267Y13116D01*
X124304Y13109D01*
X124333Y13102D01*
X124420D01*
X124501Y13109D01*
X124588Y13116D01*
X124668Y13124D01*
X124749D01*
X124807Y13131D01*
X124850Y13138D01*
X124865D01*
X124836Y12956D01*
X124821Y12876D01*
X124807Y12795D01*
X124800Y12737D01*
X124792Y12686D01*
X124785Y12657D01*
Y12642D01*
X124231D01*
X124129Y12650D01*
X124041Y12672D01*
X123961Y12701D01*
X123896Y12744D01*
X123837Y12788D01*
X123786Y12846D01*
X123750Y12898D01*
X123721Y12956D01*
X123677Y13072D01*
X123662Y13124D01*
X123655Y13174D01*
X123648Y13211D01*
Y13240D01*
Y13262D01*
Y13269D01*
Y15135D01*
X123524Y15179D01*
X123400Y15216D01*
X123291Y15252D01*
X123188Y15281D01*
X123108Y15311D01*
X123043Y15332D01*
X122999Y15340D01*
X122984Y15347D01*
Y15420D01*
X122992Y15493D01*
Y15573D01*
Y15646D01*
Y15704D01*
Y15762D01*
Y15792D01*
Y15806D01*
X123232Y15726D01*
X123342Y15689D01*
X123436Y15653D01*
X123524Y15631D01*
X123589Y15609D01*
X123633Y15595D01*
X123640Y15587D01*
X123648D01*
Y16703D01*
X122962D01*
Y17111D01*
X123648D01*
Y18241D01*
X124092D01*
Y17111D01*
D02*
G37*
G36*
X135334Y16069D02*
X134656D01*
X134758Y15952D01*
X134860Y15843D01*
X134955Y15755D01*
X135035Y15675D01*
X135108Y15617D01*
X135159Y15566D01*
X135188Y15536D01*
X135202Y15529D01*
X135304Y15456D01*
X135392Y15413D01*
X135428Y15398D01*
X135458Y15383D01*
X135479Y15376D01*
X135487D01*
X135326Y15019D01*
X135261Y15033D01*
X135202Y15041D01*
X135159Y15048D01*
X135122Y15055D01*
X135100D01*
X135078Y15063D01*
X135064D01*
X134947Y15070D01*
X134838Y15085D01*
X134729Y15092D01*
X134634Y15099D01*
X134561D01*
X134495Y15106D01*
X134444D01*
X134583Y15004D01*
X134721Y14902D01*
X134852Y14807D01*
X134969Y14720D01*
X135078Y14654D01*
X135159Y14596D01*
X135188Y14581D01*
X135210Y14567D01*
X135224Y14552D01*
X135231D01*
X135268Y14530D01*
X135312Y14516D01*
X135392Y14479D01*
X135436Y14465D01*
X135465Y14450D01*
X135487Y14443D01*
X135494D01*
X135348Y14086D01*
X135283Y14100D01*
X135217Y14108D01*
X135166Y14115D01*
X135122Y14122D01*
X135086D01*
X135056Y14130D01*
X135035D01*
X134911Y14137D01*
X134787Y14144D01*
X134678Y14151D01*
X134575Y14159D01*
X134488Y14166D01*
X134422Y14173D01*
X134364D01*
Y13335D01*
X134379Y13233D01*
X134408Y13160D01*
X134451Y13109D01*
X134502Y13072D01*
X134554Y13051D01*
X134597Y13043D01*
X134626Y13036D01*
X134641D01*
X134794Y13043D01*
X134867D01*
X134940Y13051D01*
X134998Y13058D01*
X135042D01*
X135071Y13065D01*
X135086D01*
X135071Y12970D01*
X135049Y12890D01*
X135042Y12817D01*
X135027Y12766D01*
X135020Y12715D01*
Y12686D01*
X135013Y12664D01*
Y12657D01*
X134911D01*
X134816Y12650D01*
X134517D01*
X134422Y12657D01*
X134342Y12679D01*
X134269Y12708D01*
X134204Y12744D01*
X134153Y12788D01*
X134109Y12839D01*
X134072Y12890D01*
X134043Y12948D01*
X134007Y13051D01*
X133985Y13145D01*
X133978Y13189D01*
Y13218D01*
Y13233D01*
Y13240D01*
Y14195D01*
X133861Y14202D01*
X133752Y14210D01*
X133642Y14217D01*
X133547Y14224D01*
X133475D01*
X133409Y14232D01*
X133358D01*
X133300Y14137D01*
X133249Y14049D01*
X133234Y14013D01*
X133220Y13984D01*
X133205Y13969D01*
Y13962D01*
X132884Y14159D01*
X132986Y14326D01*
X133081Y14487D01*
X133176Y14633D01*
X133256Y14764D01*
X133329Y14866D01*
X133358Y14909D01*
X133380Y14946D01*
X133402Y14982D01*
X133416Y15004D01*
X133431Y15012D01*
Y15019D01*
X133737Y14851D01*
X133664Y14735D01*
X133599Y14640D01*
X133577Y14596D01*
X133555Y14567D01*
X133547Y14545D01*
X133540Y14538D01*
X133752Y14530D01*
X133963Y14516D01*
X134175Y14509D01*
X134364Y14501D01*
X134451Y14494D01*
X134532D01*
X134597Y14487D01*
X134656D01*
X134707Y14479D01*
X134772D01*
X134517Y14654D01*
X134262Y14844D01*
X134021Y15033D01*
X133905Y15128D01*
X133795Y15216D01*
X133693Y15303D01*
X133606Y15376D01*
X133526Y15449D01*
X133453Y15507D01*
X133394Y15558D01*
X133358Y15595D01*
X133329Y15617D01*
X133321Y15624D01*
X133664Y15857D01*
X133810Y15689D01*
X133883Y15617D01*
X133949Y15551D01*
X134000Y15493D01*
X134051Y15449D01*
X134080Y15420D01*
X134087Y15413D01*
X134276Y15405D01*
X134575D01*
X134692Y15398D01*
X134889D01*
X134765Y15500D01*
X134641Y15609D01*
X134517Y15726D01*
X134400Y15828D01*
X134306Y15923D01*
X134225Y16003D01*
X134196Y16032D01*
X134175Y16054D01*
X134160Y16061D01*
X134153Y16069D01*
X133117D01*
Y16404D01*
X135334D01*
Y16069D01*
D02*
G37*
G36*
X132469Y17986D02*
X132527Y17723D01*
X132585Y17468D01*
X132644Y17228D01*
X132709Y17002D01*
X132775Y16798D01*
X132840Y16601D01*
X132899Y16426D01*
X132964Y16273D01*
X133023Y16134D01*
X133074Y16018D01*
X133117Y15923D01*
X133154Y15843D01*
X133183Y15784D01*
X133198Y15755D01*
X133205Y15741D01*
X133117Y15609D01*
X133074Y15551D01*
X133045Y15493D01*
X133015Y15449D01*
X132993Y15405D01*
X132979Y15383D01*
X132972Y15376D01*
X132870Y15573D01*
X132818Y15668D01*
X132775Y15755D01*
X132746Y15821D01*
X132717Y15879D01*
X132702Y15915D01*
X132695Y15930D01*
X132658Y15566D01*
X132636Y15391D01*
X132607Y15223D01*
X132571Y15070D01*
X132542Y14917D01*
X132505Y14778D01*
X132476Y14647D01*
X132439Y14530D01*
X132410Y14428D01*
X132381Y14334D01*
X132352Y14261D01*
X132330Y14195D01*
X132316Y14151D01*
X132301Y14122D01*
Y14115D01*
X132439Y13882D01*
X132600Y13656D01*
X132760Y13452D01*
X132840Y13357D01*
X132913Y13262D01*
X132986Y13182D01*
X133052Y13109D01*
X133117Y13043D01*
X133168Y12992D01*
X133212Y12948D01*
X133241Y12919D01*
X133263Y12898D01*
X133271Y12890D01*
X133161Y12752D01*
X133117Y12686D01*
X133081Y12635D01*
X133045Y12591D01*
X133023Y12555D01*
X133008Y12533D01*
X133001Y12526D01*
X132804Y12737D01*
X132622Y12934D01*
X132469Y13131D01*
X132337Y13306D01*
X132286Y13379D01*
X132235Y13452D01*
X132192Y13510D01*
X132162Y13561D01*
X132133Y13605D01*
X132111Y13634D01*
X132104Y13656D01*
X132097Y13663D01*
X131973Y13444D01*
X131834Y13240D01*
X131703Y13058D01*
X131572Y12890D01*
X131514Y12825D01*
X131463Y12759D01*
X131419Y12701D01*
X131375Y12657D01*
X131339Y12620D01*
X131317Y12591D01*
X131302Y12577D01*
X131295Y12569D01*
X131207Y12708D01*
X131164Y12781D01*
X131120Y12846D01*
X131084Y12905D01*
X131054Y12948D01*
X131040Y12978D01*
X131033Y12985D01*
X131215Y13160D01*
X131382Y13349D01*
X131528Y13532D01*
X131652Y13707D01*
X131703Y13787D01*
X131747Y13860D01*
X131783Y13925D01*
X131820Y13984D01*
X131842Y14027D01*
X131863Y14064D01*
X131871Y14086D01*
X131878Y14093D01*
X131805Y14283D01*
X131732Y14487D01*
X131674Y14698D01*
X131616Y14924D01*
X131521Y15369D01*
X131484Y15587D01*
X131448Y15806D01*
X131419Y16003D01*
X131397Y16193D01*
X131375Y16360D01*
X131360Y16506D01*
Y16564D01*
X131353Y16623D01*
X131346Y16674D01*
Y16717D01*
X131339Y16747D01*
Y16769D01*
Y16783D01*
Y16790D01*
X131062D01*
Y17169D01*
X132264D01*
X132213Y17359D01*
X132177Y17541D01*
X132133Y17716D01*
X132104Y17876D01*
X132089Y17949D01*
X132075Y18015D01*
X132068Y18073D01*
X132053Y18117D01*
X132046Y18161D01*
Y18190D01*
X132038Y18205D01*
Y18212D01*
X132425Y18270D01*
X132469Y17986D01*
D02*
G37*
G36*
X128459Y15952D02*
X128328Y15843D01*
X128211Y15741D01*
X128102Y15646D01*
X128007Y15558D01*
X127920Y15478D01*
X127840Y15405D01*
X127767Y15340D01*
X127701Y15281D01*
X127650Y15230D01*
X127599Y15187D01*
X127562Y15150D01*
X127526Y15114D01*
X127504Y15092D01*
X127489Y15077D01*
X127475Y15063D01*
X127176Y15420D01*
X127242Y15478D01*
X127315Y15544D01*
X127475Y15675D01*
X127643Y15813D01*
X127803Y15945D01*
X127949Y16061D01*
X128007Y16112D01*
X128065Y16156D01*
X128109Y16193D01*
X128146Y16222D01*
X128167Y16236D01*
X128175Y16244D01*
X128459Y15952D01*
D02*
G37*
G36*
X126520Y14654D02*
X128809Y14450D01*
X128758Y14035D01*
X126520Y14239D01*
Y12548D01*
X126075D01*
Y14275D01*
X125120Y14363D01*
X125157Y14786D01*
X126075Y14698D01*
Y18256D01*
X126520D01*
Y14654D01*
D02*
G37*
G36*
X135844Y16513D02*
X135953Y16309D01*
X136055Y16120D01*
X136157Y15937D01*
X136252Y15777D01*
X136347Y15624D01*
X136442Y15485D01*
X136522Y15354D01*
X136602Y15245D01*
X136675Y15150D01*
X136741Y15063D01*
X136792Y14997D01*
X136835Y14946D01*
X136864Y14902D01*
X136886Y14880D01*
X136894Y14873D01*
X136821Y14698D01*
X136792Y14618D01*
X136762Y14552D01*
X136741Y14494D01*
X136726Y14443D01*
X136711Y14414D01*
Y14406D01*
X136624Y14509D01*
X136536Y14618D01*
X136456Y14727D01*
X136383Y14829D01*
X136325Y14917D01*
X136281Y14982D01*
X136259Y15012D01*
X136245Y15033D01*
X136238Y15041D01*
Y12555D01*
X135844D01*
Y15704D01*
X135684Y16003D01*
X135603Y16141D01*
X135538Y16273D01*
X135479Y16382D01*
X135450Y16433D01*
X135428Y16470D01*
X135414Y16506D01*
X135399Y16528D01*
X135392Y16543D01*
Y16550D01*
X135742Y16732D01*
X135844Y16513D01*
D02*
G37*
G36*
X133759Y13787D02*
X133671Y13685D01*
X133584Y13583D01*
X133504Y13473D01*
X133424Y13371D01*
X133358Y13284D01*
X133307Y13211D01*
X133292Y13182D01*
X133278Y13160D01*
X133263Y13153D01*
Y13145D01*
X132957Y13371D01*
X133052Y13495D01*
X133147Y13612D01*
X133227Y13721D01*
X133307Y13816D01*
X133373Y13896D01*
X133424Y13954D01*
X133453Y13991D01*
X133467Y14006D01*
X133759Y13787D01*
D02*
G37*
G36*
X135224Y13809D02*
X135312Y13656D01*
X135399Y13510D01*
X135479Y13386D01*
X135552Y13284D01*
X135603Y13211D01*
X135625Y13182D01*
X135640Y13160D01*
X135654Y13153D01*
Y13145D01*
X135589Y13102D01*
X135523Y13065D01*
X135472Y13029D01*
X135428Y13000D01*
X135392Y12970D01*
X135363Y12948D01*
X135348Y12941D01*
X135341Y12934D01*
X135239Y13087D01*
X135137Y13240D01*
X135042Y13386D01*
X134962Y13524D01*
X134889Y13641D01*
X134867Y13685D01*
X134838Y13728D01*
X134823Y13765D01*
X134809Y13787D01*
X134794Y13801D01*
Y13809D01*
X135129Y13984D01*
X135224Y13809D01*
D02*
G37*
G36*
X117816Y15551D02*
X115082D01*
X116190Y14924D01*
Y14596D01*
X118916D01*
Y14173D01*
X116190D01*
Y13379D01*
Y13320D01*
X116205Y13277D01*
X116241Y13196D01*
X116285Y13145D01*
X116343Y13102D01*
X116401Y13080D01*
X116445Y13072D01*
X116482Y13065D01*
X116496D01*
X116657Y13072D01*
X116810Y13080D01*
X116963Y13087D01*
X117101Y13094D01*
X117218Y13109D01*
X117262D01*
X117305Y13116D01*
X117342D01*
X117364Y13124D01*
X117386D01*
X117371Y13014D01*
X117349Y12919D01*
X117342Y12832D01*
X117327Y12766D01*
X117320Y12708D01*
Y12664D01*
X117313Y12635D01*
Y12628D01*
X117123Y12620D01*
X116802D01*
X116671Y12613D01*
X116416D01*
X116292Y12620D01*
X116190Y12642D01*
X116095Y12679D01*
X116015Y12722D01*
X115949Y12774D01*
X115891Y12832D01*
X115847Y12890D01*
X115811Y12956D01*
X115782Y13021D01*
X115760Y13080D01*
X115745Y13138D01*
X115731Y13189D01*
Y13233D01*
X115724Y13269D01*
Y13291D01*
Y13298D01*
Y14173D01*
X113216D01*
Y14596D01*
X115724D01*
Y14727D01*
X114397Y15485D01*
Y15981D01*
X117816D01*
Y15551D01*
D02*
G37*
G36*
X112713Y12577D02*
X112290D01*
Y14049D01*
X112239Y13874D01*
X112217Y13794D01*
X112195Y13728D01*
X112180Y13663D01*
X112173Y13619D01*
X112166Y13590D01*
Y13575D01*
X112049Y13568D01*
X111845D01*
X111765Y13575D01*
X111692D01*
X111648Y13583D01*
X111612Y13590D01*
X111605D01*
X111481Y13626D01*
X111379Y13685D01*
X111291Y13758D01*
X111218Y13845D01*
X111167Y13947D01*
X111124Y14049D01*
X111094Y14159D01*
X111073Y14275D01*
X111058Y14385D01*
X111051Y14487D01*
Y14589D01*
Y14676D01*
Y14749D01*
X111058Y14800D01*
X111065Y14837D01*
Y14851D01*
X111080Y14946D01*
X111102Y15041D01*
X111167Y15230D01*
X111247Y15413D01*
X111335Y15587D01*
X111379Y15660D01*
X111415Y15733D01*
X111459Y15799D01*
X111488Y15850D01*
X111517Y15894D01*
X111539Y15923D01*
X111554Y15945D01*
X111561Y15952D01*
X111473Y16214D01*
X111386Y16484D01*
X111306Y16747D01*
X111269Y16878D01*
X111233Y17002D01*
X111204Y17111D01*
X111174Y17213D01*
X111153Y17308D01*
X111131Y17388D01*
X111109Y17454D01*
X111094Y17497D01*
X111087Y17534D01*
Y17541D01*
Y17949D01*
X112713D01*
Y12577D01*
D02*
G37*
G36*
X140553Y16674D02*
X140655Y16477D01*
X140750Y16295D01*
X140838Y16134D01*
X140874Y16061D01*
X140910Y15996D01*
X140947Y15945D01*
X140969Y15894D01*
X140991Y15857D01*
X141005Y15828D01*
X141020Y15813D01*
Y15806D01*
X142806D01*
Y15369D01*
X141275D01*
X141377Y15201D01*
X141472Y15048D01*
X141567Y14902D01*
X141647Y14771D01*
X141720Y14662D01*
X141749Y14618D01*
X141771Y14581D01*
X141793Y14552D01*
X141807Y14530D01*
X141822Y14516D01*
Y14509D01*
X141508Y14370D01*
X141209Y14232D01*
X141071Y14173D01*
X140940Y14115D01*
X140816Y14057D01*
X140699Y14006D01*
X140590Y13954D01*
X140495Y13911D01*
X140415Y13874D01*
X140342Y13838D01*
X140284Y13816D01*
X140247Y13794D01*
X140218Y13787D01*
X140211Y13780D01*
X140393Y13685D01*
X140582Y13597D01*
X140976Y13444D01*
X141377Y13320D01*
X141567Y13262D01*
X141756Y13211D01*
X141931Y13174D01*
X142091Y13138D01*
X142230Y13102D01*
X142361Y13080D01*
X142463Y13058D01*
X142536Y13051D01*
X142565Y13043D01*
X142587Y13036D01*
X142602D01*
X142551Y12941D01*
X142507Y12854D01*
X142463Y12774D01*
X142427Y12701D01*
X142398Y12642D01*
X142376Y12599D01*
X142361Y12569D01*
X142354Y12562D01*
X142055Y12620D01*
X141771Y12693D01*
X141501Y12766D01*
X141253Y12839D01*
X141020Y12919D01*
X140801Y13000D01*
X140597Y13080D01*
X140415Y13160D01*
X140254Y13233D01*
X140116Y13306D01*
X139992Y13364D01*
X139890Y13422D01*
X139810Y13466D01*
X139751Y13502D01*
X139722Y13524D01*
X139708Y13532D01*
X139314Y13349D01*
X139124Y13262D01*
X138942Y13174D01*
X138775Y13087D01*
X138607Y13007D01*
X138461Y12934D01*
X138315Y12868D01*
X138191Y12803D01*
X138075Y12744D01*
X137980Y12693D01*
X137892Y12650D01*
X137827Y12613D01*
X137776Y12591D01*
X137747Y12577D01*
X137739Y12569D01*
X137455Y13036D01*
X137798Y13189D01*
X138126Y13342D01*
X138286Y13415D01*
X138432Y13481D01*
X138578Y13546D01*
X138709Y13605D01*
X138833Y13663D01*
X138949Y13714D01*
X139044Y13758D01*
X139124Y13794D01*
X139197Y13823D01*
X139241Y13845D01*
X139278Y13860D01*
X139285Y13867D01*
X139154Y13984D01*
X139037Y14108D01*
X138927Y14239D01*
X138826Y14363D01*
X138738Y14487D01*
X138651Y14618D01*
X138578Y14735D01*
X138512Y14851D01*
X138454Y14961D01*
X138410Y15055D01*
X138366Y15143D01*
X138337Y15223D01*
X138308Y15281D01*
X138293Y15332D01*
X138279Y15361D01*
Y15369D01*
X137025D01*
Y15806D01*
X140488D01*
X140393Y15967D01*
X140305Y16120D01*
X140218Y16265D01*
X140138Y16404D01*
X140072Y16513D01*
X140043Y16564D01*
X140021Y16601D01*
X140006Y16637D01*
X139992Y16659D01*
X139977Y16674D01*
Y16681D01*
X140444Y16878D01*
X140553Y16674D01*
D02*
G37*
G36*
X110949Y14888D02*
X110066D01*
Y14749D01*
X110074Y14618D01*
X110088Y14494D01*
X110103Y14385D01*
X110125Y14275D01*
X110147Y14180D01*
X110176Y14093D01*
X110198Y14020D01*
X110227Y13947D01*
X110249Y13889D01*
X110271Y13838D01*
X110292Y13794D01*
X110307Y13765D01*
X110322Y13743D01*
X110336Y13728D01*
Y13721D01*
X110402Y13641D01*
X110482Y13561D01*
X110657Y13408D01*
X110839Y13284D01*
X111029Y13167D01*
X111116Y13124D01*
X111196Y13080D01*
X111269Y13043D01*
X111335Y13014D01*
X111386Y12985D01*
X111422Y12970D01*
X111451Y12963D01*
X111459Y12956D01*
X111415Y12912D01*
X111371Y12854D01*
X111313Y12788D01*
X111262Y12722D01*
X111211Y12664D01*
X111174Y12613D01*
X111145Y12577D01*
X111138Y12562D01*
X110970Y12650D01*
X110825Y12730D01*
X110686Y12817D01*
X110562Y12898D01*
X110453Y12978D01*
X110351Y13058D01*
X110263Y13131D01*
X110190Y13196D01*
X110125Y13262D01*
X110066Y13320D01*
X110023Y13371D01*
X109979Y13415D01*
X109957Y13452D01*
X109935Y13481D01*
X109921Y13495D01*
Y13502D01*
X109870Y13590D01*
X109826Y13685D01*
X109789Y13794D01*
X109753Y13904D01*
X109702Y14137D01*
X109666Y14363D01*
X109658Y14465D01*
X109644Y14567D01*
X109636Y14654D01*
Y14735D01*
X109629Y14800D01*
Y14844D01*
Y14880D01*
Y14888D01*
X108995D01*
Y13284D01*
X108987Y13182D01*
X108973Y13102D01*
X108951Y13021D01*
X108915Y12963D01*
X108878Y12905D01*
X108842Y12861D01*
X108798Y12825D01*
X108747Y12795D01*
X108660Y12752D01*
X108579Y12730D01*
X108550D01*
X108528Y12722D01*
X107901D01*
X107807Y12730D01*
X107719Y12744D01*
X107646Y12766D01*
X107580Y12803D01*
X107529Y12839D01*
X107478Y12883D01*
X107435Y12927D01*
X107406Y12978D01*
X107354Y13065D01*
X107325Y13145D01*
X107311Y13182D01*
X107304Y13204D01*
Y13218D01*
Y13226D01*
X107282Y13349D01*
X107267Y13481D01*
X107253Y13612D01*
X107238Y13728D01*
X107223Y13831D01*
X107216Y13918D01*
Y13947D01*
X107209Y13969D01*
Y13984D01*
Y13991D01*
X107304Y14027D01*
X107391Y14064D01*
X107471Y14093D01*
X107537Y14122D01*
X107595Y14144D01*
X107632Y14159D01*
X107661Y14173D01*
X107668D01*
X107675Y13998D01*
X107683Y13838D01*
X107697Y13707D01*
X107704Y13597D01*
X107712Y13510D01*
X107719Y13452D01*
X107726Y13415D01*
Y13400D01*
X107748Y13313D01*
X107777Y13247D01*
X107821Y13196D01*
X107858Y13167D01*
X107901Y13145D01*
X107938Y13138D01*
X107960Y13131D01*
X108361D01*
X108426Y13145D01*
X108477Y13174D01*
X108506Y13218D01*
X108536Y13269D01*
X108550Y13313D01*
X108557Y13357D01*
Y13386D01*
Y13400D01*
Y14888D01*
X107391D01*
Y15289D01*
X110949D01*
Y14888D01*
D02*
G37*
G36*
X121286Y17337D02*
X122809D01*
Y16907D01*
X121286D01*
Y16018D01*
X122787D01*
Y15631D01*
X122394D01*
X122328Y15420D01*
X122263Y15223D01*
X122182Y15041D01*
X122109Y14866D01*
X122029Y14698D01*
X121949Y14545D01*
X121869Y14406D01*
X121789Y14283D01*
X121716Y14173D01*
X121643Y14071D01*
X121585Y13984D01*
X121534Y13918D01*
X121483Y13860D01*
X121453Y13823D01*
X121432Y13794D01*
X121424Y13787D01*
X121709Y13597D01*
X122015Y13430D01*
X122314Y13284D01*
X122452Y13218D01*
X122591Y13160D01*
X122715Y13102D01*
X122831Y13058D01*
X122941Y13014D01*
X123028Y12985D01*
X123101Y12956D01*
X123159Y12934D01*
X123188Y12927D01*
X123203Y12919D01*
X123137Y12839D01*
X123072Y12759D01*
X123021Y12693D01*
X122977Y12628D01*
X122941Y12584D01*
X122919Y12540D01*
X122904Y12518D01*
X122897Y12511D01*
X122707Y12591D01*
X122525Y12672D01*
X122350Y12752D01*
X122182Y12832D01*
X122022Y12912D01*
X121876Y12992D01*
X121738Y13072D01*
X121614Y13145D01*
X121497Y13218D01*
X121402Y13277D01*
X121315Y13335D01*
X121242Y13386D01*
X121184Y13422D01*
X121140Y13459D01*
X121111Y13473D01*
X121104Y13481D01*
X120848Y13284D01*
X120579Y13109D01*
X120309Y12948D01*
X120178Y12883D01*
X120054Y12817D01*
X119937Y12759D01*
X119835Y12708D01*
X119740Y12664D01*
X119660Y12620D01*
X119595Y12591D01*
X119543Y12569D01*
X119507Y12562D01*
X119500Y12555D01*
X119376Y12708D01*
X119317Y12781D01*
X119259Y12854D01*
X119208Y12912D01*
X119164Y12963D01*
X119135Y12992D01*
X119128Y13007D01*
X119303Y13058D01*
X119471Y13116D01*
X119631Y13182D01*
X119784Y13240D01*
X119930Y13306D01*
X120061Y13371D01*
X120185Y13437D01*
X120294Y13495D01*
X120396Y13554D01*
X120491Y13605D01*
X120564Y13656D01*
X120630Y13699D01*
X120681Y13728D01*
X120717Y13758D01*
X120739Y13772D01*
X120746Y13780D01*
X120608Y13918D01*
X120484Y14071D01*
X120360Y14224D01*
X120251Y14377D01*
X120141Y14538D01*
X120046Y14691D01*
X119959Y14844D01*
X119879Y14997D01*
X119813Y15135D01*
X119748Y15259D01*
X119696Y15376D01*
X119653Y15471D01*
X119624Y15558D01*
X119602Y15617D01*
X119587Y15653D01*
X119580Y15668D01*
Y16018D01*
X120819D01*
Y16907D01*
X119237D01*
Y17337D01*
X120819D01*
Y18270D01*
X121286D01*
Y17337D01*
D02*
G37*
%LPC*%
G36*
X150926Y7751D02*
X149803D01*
Y6125D01*
X150926D01*
Y7751D01*
D02*
G37*
G36*
X94286Y7910D02*
Y5774D01*
X95751D01*
X95583Y5985D01*
X95423Y6190D01*
X95284Y6372D01*
X95168Y6532D01*
X95117Y6605D01*
X95073Y6671D01*
X95029Y6722D01*
X94993Y6773D01*
X94971Y6809D01*
X94949Y6838D01*
X94942Y6853D01*
X94934Y6860D01*
X94803Y7057D01*
X94687Y7247D01*
X94577Y7422D01*
X94475Y7582D01*
X94439Y7655D01*
X94395Y7720D01*
X94366Y7779D01*
X94337Y7823D01*
X94315Y7866D01*
X94300Y7895D01*
X94286Y7910D01*
D02*
G37*
G36*
X115069Y8347D02*
X115033D01*
X114953Y8340D01*
X114880Y8326D01*
X114807Y8304D01*
X114741Y8267D01*
X114683Y8223D01*
X114625Y8172D01*
X114523Y8056D01*
X114435Y7910D01*
X114370Y7750D01*
X114311Y7582D01*
X114260Y7407D01*
X114224Y7225D01*
X114195Y7057D01*
X114180Y6897D01*
X114165Y6758D01*
X114158Y6634D01*
X114151Y6583D01*
Y6539D01*
Y6503D01*
Y6481D01*
Y6467D01*
Y6459D01*
Y6292D01*
X114158Y6138D01*
X114173Y5993D01*
X114187Y5861D01*
X114209Y5730D01*
X114231Y5614D01*
X114260Y5504D01*
X114289Y5410D01*
X114326Y5315D01*
X114355Y5227D01*
X114399Y5154D01*
X114435Y5082D01*
X114515Y4965D01*
X114595Y4863D01*
X114683Y4790D01*
X114763Y4732D01*
X114836Y4695D01*
X114909Y4666D01*
X114967Y4651D01*
X115011Y4644D01*
X115040Y4637D01*
X115048D01*
X115128Y4644D01*
X115208Y4659D01*
X115281Y4681D01*
X115346Y4717D01*
X115412Y4753D01*
X115470Y4804D01*
X115572Y4914D01*
X115660Y5052D01*
X115733Y5205D01*
X115798Y5366D01*
X115842Y5533D01*
X115886Y5701D01*
X115908Y5861D01*
X115930Y6015D01*
X115944Y6153D01*
X115952Y6262D01*
Y6313D01*
X115959Y6350D01*
Y6386D01*
Y6408D01*
Y6423D01*
Y6430D01*
Y6605D01*
X115952Y6765D01*
X115937Y6919D01*
X115922Y7064D01*
X115901Y7196D01*
X115871Y7320D01*
X115842Y7436D01*
X115813Y7538D01*
X115777Y7633D01*
X115747Y7728D01*
X115704Y7808D01*
X115667Y7881D01*
X115580Y8005D01*
X115492Y8107D01*
X115412Y8187D01*
X115324Y8245D01*
X115244Y8289D01*
X115179Y8318D01*
X115120Y8333D01*
X115069Y8347D01*
D02*
G37*
G36*
X132374Y16790D02*
X131718D01*
X131740Y16535D01*
X131762Y16287D01*
X131791Y16061D01*
X131820Y15850D01*
X131849Y15653D01*
X131878Y15471D01*
X131915Y15311D01*
X131944Y15165D01*
X131973Y15033D01*
X132002Y14924D01*
X132024Y14822D01*
X132046Y14742D01*
X132060Y14683D01*
X132075Y14640D01*
X132089Y14611D01*
Y14603D01*
X132192Y14939D01*
X132264Y15281D01*
X132330Y15624D01*
X132352Y15784D01*
X132367Y15937D01*
X132388Y16076D01*
X132396Y16207D01*
X132410Y16324D01*
X132418Y16426D01*
Y16506D01*
X132425Y16564D01*
Y16601D01*
Y16615D01*
X132403Y16681D01*
X132388Y16739D01*
X132374Y16776D01*
Y16783D01*
Y16790D01*
D02*
G37*
G36*
X112290Y17541D02*
X111554D01*
X111583Y17432D01*
X111612Y17315D01*
X111648Y17191D01*
X111685Y17053D01*
X111765Y16776D01*
X111838Y16506D01*
X111874Y16382D01*
X111911Y16265D01*
X111940Y16156D01*
X111969Y16061D01*
X111991Y15988D01*
X112006Y15930D01*
X112013Y15894D01*
X112020Y15879D01*
X111940Y15770D01*
X111867Y15660D01*
X111809Y15566D01*
X111750Y15464D01*
X111663Y15289D01*
X111597Y15143D01*
X111575Y15077D01*
X111554Y15019D01*
X111539Y14968D01*
X111524Y14931D01*
X111517Y14895D01*
X111510Y14873D01*
Y14859D01*
Y14851D01*
X111488Y14720D01*
X111481Y14603D01*
X111488Y14494D01*
X111495Y14406D01*
X111510Y14326D01*
X111532Y14261D01*
X111561Y14202D01*
X111590Y14151D01*
X111619Y14115D01*
X111648Y14086D01*
X111707Y14042D01*
X111750Y14027D01*
X111758Y14020D01*
X111765D01*
X111853Y14013D01*
X111940D01*
X112027Y14020D01*
X112115Y14035D01*
X112180Y14049D01*
X112239Y14057D01*
X112275Y14071D01*
X112290D01*
Y17541D01*
D02*
G37*
G36*
X140735Y15369D02*
X138782D01*
X138840Y15230D01*
X138906Y15092D01*
X138979Y14968D01*
X139051Y14844D01*
X139132Y14727D01*
X139219Y14625D01*
X139299Y14523D01*
X139380Y14436D01*
X139452Y14356D01*
X139525Y14283D01*
X139591Y14224D01*
X139649Y14173D01*
X139693Y14130D01*
X139729Y14100D01*
X139751Y14086D01*
X139759Y14078D01*
X140014Y14195D01*
X140269Y14304D01*
X140502Y14406D01*
X140612Y14450D01*
X140714Y14494D01*
X140808Y14538D01*
X140896Y14574D01*
X140969Y14603D01*
X141027Y14633D01*
X141078Y14654D01*
X141122Y14669D01*
X141144Y14683D01*
X141151D01*
X140998Y14931D01*
X140932Y15048D01*
X140867Y15150D01*
X140816Y15238D01*
X140772Y15311D01*
X140743Y15354D01*
X140735Y15361D01*
Y15369D01*
D02*
G37*
G36*
X121949Y15631D02*
X120090D01*
X120149Y15464D01*
X120221Y15311D01*
X120294Y15157D01*
X120367Y15012D01*
X120447Y14873D01*
X120535Y14749D01*
X120615Y14625D01*
X120695Y14516D01*
X120768Y14421D01*
X120841Y14334D01*
X120907Y14261D01*
X120965Y14195D01*
X121009Y14144D01*
X121045Y14108D01*
X121067Y14086D01*
X121074Y14078D01*
X121184Y14202D01*
X121286Y14326D01*
X121380Y14457D01*
X121468Y14589D01*
X121548Y14720D01*
X121621Y14851D01*
X121687Y14975D01*
X121738Y15092D01*
X121789Y15201D01*
X121833Y15311D01*
X121869Y15398D01*
X121898Y15478D01*
X121920Y15544D01*
X121934Y15587D01*
X121949Y15624D01*
Y15631D01*
D02*
G37*
%LPD*%
D53*
X48000Y100890D02*
D03*
D54*
Y87110D02*
D03*
D55*
X242000Y100000D02*
D03*
X242500Y13478D02*
D03*
X17500Y100500D02*
D03*
X18500Y12500D02*
D03*
D56*
X152000Y105500D02*
D03*
Y95500D02*
D03*
X142000Y105500D02*
D03*
Y95500D02*
D03*
X132000Y105500D02*
D03*
D57*
Y95500D02*
D03*
D58*
X247000Y56209D02*
D03*
Y36524D02*
D03*
X12500Y34657D02*
D03*
Y54343D02*
D03*
X78000Y99000D02*
D03*
X97685D02*
D03*
D59*
X179996Y97500D02*
D03*
X217004D02*
D03*
X198500D02*
D03*
M02*
