G04*
G04 #@! TF.GenerationSoftware,Altium Limited,Altium Designer,22.1.2 (22)*
G04*
G04 Layer_Color=16711935*
%FSLAX25Y25*%
%MOIN*%
G70*
G04*
G04 #@! TF.SameCoordinates,03C845ED-AF23-4815-B137-924D907A0311*
G04*
G04*
G04 #@! TF.FilePolarity,Positive*
G04*
G01*
G75*
%ADD80C,0.01968*%
%ADD81C,0.04331*%
%ADD82C,0.01575*%
%ADD83C,0.01181*%
D80*
X39000Y12000D02*
D03*
X45000D02*
D03*
X51000D02*
D03*
X152500Y82500D02*
D03*
X142500Y79500D02*
D03*
X38000Y73000D02*
D03*
X206382Y72882D02*
D03*
X112500Y69500D02*
D03*
X156500Y67000D02*
D03*
X129000Y66000D02*
D03*
X178000Y64000D02*
D03*
X157500D02*
D03*
X118500Y63500D02*
D03*
X115500D02*
D03*
X109500Y61500D02*
D03*
X118500Y60500D02*
D03*
X115500D02*
D03*
X78000Y59500D02*
D03*
X178000Y59000D02*
D03*
X42000Y58000D02*
D03*
X48000D02*
D03*
X46000D02*
D03*
X44000D02*
D03*
X213500Y57500D02*
D03*
X215500D02*
D03*
X209500D02*
D03*
X211500D02*
D03*
X136000Y57000D02*
D03*
X42000Y56000D02*
D03*
X44000D02*
D03*
X48000D02*
D03*
X46000D02*
D03*
X213500Y55500D02*
D03*
X167000D02*
D03*
X215500D02*
D03*
X209500D02*
D03*
X164500D02*
D03*
X211500D02*
D03*
X78000Y55000D02*
D03*
X92000Y54500D02*
D03*
X42000Y54000D02*
D03*
X178000D02*
D03*
X44000D02*
D03*
X46000D02*
D03*
X48000D02*
D03*
X209500Y53500D02*
D03*
X215500D02*
D03*
X211500D02*
D03*
X213500D02*
D03*
X87500Y52500D02*
D03*
X130500Y52000D02*
D03*
X103500D02*
D03*
X106500D02*
D03*
X100500D02*
D03*
X78000Y50000D02*
D03*
X153500Y49500D02*
D03*
X92000Y49000D02*
D03*
X100500D02*
D03*
X106500D02*
D03*
X115000Y47000D02*
D03*
X103500Y46000D02*
D03*
X106500D02*
D03*
X100500D02*
D03*
X146000Y41500D02*
D03*
X178500Y41000D02*
D03*
X133500D02*
D03*
X121000Y38500D02*
D03*
X87500Y37000D02*
D03*
X211000Y36500D02*
D03*
X209000D02*
D03*
X213000D02*
D03*
X215000D02*
D03*
X178500Y36000D02*
D03*
X77500D02*
D03*
X44500Y35000D02*
D03*
X42500D02*
D03*
X46500D02*
D03*
X48500D02*
D03*
X209000Y34500D02*
D03*
X211000D02*
D03*
X215000D02*
D03*
X213000D02*
D03*
X46500Y33000D02*
D03*
X42500D02*
D03*
X44500D02*
D03*
X48500D02*
D03*
X140024Y32976D02*
D03*
X215000Y32500D02*
D03*
X148000D02*
D03*
X211000D02*
D03*
X151000D02*
D03*
X213000D02*
D03*
X209000D02*
D03*
X154000D02*
D03*
X44500Y31000D02*
D03*
X162500D02*
D03*
X46500D02*
D03*
X48500D02*
D03*
X178500D02*
D03*
X42500D02*
D03*
X77500D02*
D03*
X167000Y30500D02*
D03*
X148000Y29500D02*
D03*
X154000D02*
D03*
X148000Y27000D02*
D03*
X151000D02*
D03*
X154000D02*
D03*
X77500Y26000D02*
D03*
X162500Y25000D02*
D03*
X112000Y24500D02*
D03*
X174500Y19500D02*
D03*
X57000D02*
D03*
X151500Y18500D02*
D03*
X148000D02*
D03*
X144500D02*
D03*
X221500Y15000D02*
D03*
X217000Y10500D02*
D03*
X211500D02*
D03*
X222500D02*
D03*
X48000Y9000D02*
D03*
X42000D02*
D03*
X220000Y7500D02*
D03*
X214500D02*
D03*
X39000Y6000D02*
D03*
X45000D02*
D03*
X51000D02*
D03*
X211500Y5000D02*
D03*
X222500D02*
D03*
X217000D02*
D03*
X167500Y14500D02*
D03*
D81*
X103500Y49000D02*
D03*
X151000Y29500D02*
D03*
D82*
X162000Y76500D02*
D03*
X72500Y74500D02*
D03*
X68500D02*
D03*
X183500Y73500D02*
D03*
X192500D02*
D03*
X189500D02*
D03*
X186500D02*
D03*
X70500Y72500D02*
D03*
X189500Y70500D02*
D03*
X192500D02*
D03*
X186500D02*
D03*
X68500D02*
D03*
X72500D02*
D03*
X183500D02*
D03*
X145000Y66000D02*
D03*
X148500D02*
D03*
D83*
X119500Y76500D02*
D03*
M02*
