G04*
G04 #@! TF.GenerationSoftware,Altium Limited,Altium Designer,22.1.2 (22)*
G04*
G04 Layer_Color=8388736*
%FSLAX25Y25*%
%MOIN*%
G70*
G04*
G04 #@! TF.SameCoordinates,95D767EF-CC4A-4202-867B-88222CEBD608*
G04*
G04*
G04 #@! TF.FilePolarity,Negative*
G04*
G01*
G75*
%ADD10C,0.01000*%
%ADD34C,0.00709*%
%ADD35R,0.04800X0.03950*%
%ADD36R,0.05800X0.06300*%
G04:AMPARAMS|DCode=37|XSize=63mil|YSize=58mil|CornerRadius=0mil|HoleSize=0mil|Usage=FLASHONLY|Rotation=90.000|XOffset=0mil|YOffset=0mil|HoleType=Round|Shape=Octagon|*
%AMOCTAGOND37*
4,1,8,0.01450,0.03150,-0.01450,0.03150,-0.02900,0.01700,-0.02900,-0.01700,-0.01450,-0.03150,0.01450,-0.03150,0.02900,-0.01700,0.02900,0.01700,0.01450,0.03150,0.0*
%
%ADD37OCTAGOND37*%

%ADD38R,0.03950X0.01981*%
%ADD39R,0.01981X0.03950*%
%ADD40R,0.11036X0.11036*%
%ADD41R,0.04740X0.02760*%
%ADD42R,0.13600X0.17750*%
G04:AMPARAMS|DCode=43|XSize=58mil|YSize=43mil|CornerRadius=0mil|HoleSize=0mil|Usage=FLASHONLY|Rotation=180.000|XOffset=0mil|YOffset=0mil|HoleType=Round|Shape=Octagon|*
%AMOCTAGOND43*
4,1,8,-0.02900,0.01075,-0.02900,-0.01075,-0.01825,-0.02150,0.01825,-0.02150,0.02900,-0.01075,0.02900,0.01075,0.01825,0.02150,-0.01825,0.02150,-0.02900,0.01075,0.0*
%
%ADD43OCTAGOND43*%

%ADD44R,0.05800X0.04300*%
%ADD45R,0.04300X0.03800*%
%ADD46R,0.06300X0.05800*%
G04:AMPARAMS|DCode=47|XSize=63mil|YSize=58mil|CornerRadius=0mil|HoleSize=0mil|Usage=FLASHONLY|Rotation=180.000|XOffset=0mil|YOffset=0mil|HoleType=Round|Shape=Octagon|*
%AMOCTAGOND47*
4,1,8,-0.03150,0.01450,-0.03150,-0.01450,-0.01700,-0.02900,0.01700,-0.02900,0.03150,-0.01450,0.03150,0.01450,0.01700,0.02900,-0.01700,0.02900,-0.03150,0.01450,0.0*
%
%ADD47OCTAGOND47*%

%ADD48R,0.03800X0.04300*%
%ADD49O,0.05524X0.02060*%
%ADD50R,0.05524X0.02060*%
%ADD51R,0.02760X0.04740*%
%ADD52R,0.17750X0.13600*%
%ADD53C,0.07887*%
%ADD54R,0.07887X0.07887*%
G04:AMPARAMS|DCode=55|XSize=244.22mil|YSize=165.48mil|CornerRadius=82.74mil|HoleSize=0mil|Usage=FLASHONLY|Rotation=180.000|XOffset=0mil|YOffset=0mil|HoleType=Round|Shape=RoundedRectangle|*
%AMROUNDEDRECTD55*
21,1,0.24422,0.00000,0,0,180.0*
21,1,0.07874,0.16548,0,0,180.0*
1,1,0.16548,-0.03937,0.00000*
1,1,0.16548,0.03937,0.00000*
1,1,0.16548,0.03937,0.00000*
1,1,0.16548,-0.03937,0.00000*
%
%ADD55ROUNDEDRECTD55*%
%ADD56C,0.06706*%
%ADD57R,0.06706X0.06706*%
%ADD58C,0.12611*%
%ADD59R,0.06706X0.09461*%
G36*
X8050Y74084D02*
X8006D01*
X7978Y74090D01*
X7895D01*
X7795Y74095D01*
X7678Y74101D01*
X7562D01*
X7451Y74107D01*
X7345D01*
Y70155D01*
Y70149D01*
Y70138D01*
Y70122D01*
X7340Y70099D01*
X7334Y70038D01*
X7317Y69966D01*
X7290Y69889D01*
X7245Y69816D01*
X7190Y69750D01*
X7151Y69722D01*
X7112Y69700D01*
X7101Y69694D01*
X7090Y69689D01*
X7068Y69683D01*
X7045Y69672D01*
X7012Y69661D01*
X6973Y69650D01*
X6934Y69639D01*
X6884Y69628D01*
X6835Y69611D01*
X6774Y69600D01*
X6707Y69583D01*
X6635Y69567D01*
X6557Y69555D01*
X6474Y69539D01*
X6385Y69528D01*
Y69539D01*
X6379Y69567D01*
X6368Y69617D01*
X6346Y69683D01*
X6313Y69761D01*
X6268Y69855D01*
X6207Y69955D01*
X6130Y70066D01*
X6180D01*
X6213Y70061D01*
X6296D01*
X6402Y70055D01*
X6513D01*
X6618Y70061D01*
X6668D01*
X6712Y70066D01*
X6751Y70072D01*
X6779Y70077D01*
X6785D01*
X6801Y70088D01*
X6823Y70099D01*
X6851Y70122D01*
X6879Y70155D01*
X6901Y70199D01*
X6918Y70260D01*
X6923Y70338D01*
Y74107D01*
X4853D01*
X4725Y74101D01*
X4581Y74095D01*
X4426Y74090D01*
X4254Y74084D01*
Y74556D01*
X4298D01*
X4332Y74550D01*
X4376D01*
X4420Y74545D01*
X4537D01*
X4665Y74539D01*
X4809Y74534D01*
X4953Y74528D01*
X7506D01*
X7589Y74534D01*
X7684D01*
X7795Y74539D01*
X7922Y74545D01*
X8050Y74556D01*
Y74084D01*
D02*
G37*
G36*
X18095Y75089D02*
X18101Y75078D01*
X18118Y75056D01*
X18134Y75028D01*
X18157Y74989D01*
X18179Y74950D01*
X18234Y74856D01*
X18295Y74750D01*
X18362Y74639D01*
X18417Y74534D01*
X18467Y74440D01*
X18462Y74434D01*
X18440Y74428D01*
X18401Y74412D01*
X18351Y74384D01*
X18284Y74356D01*
X18212Y74323D01*
X18123Y74278D01*
X18023Y74229D01*
Y74234D01*
X18018Y74251D01*
X18007Y74273D01*
X17990Y74301D01*
X17973Y74340D01*
X17957Y74384D01*
X17907Y74478D01*
X17851Y74589D01*
X17796Y74700D01*
X17729Y74811D01*
X17668Y74906D01*
X17674D01*
X17679Y74911D01*
X17713Y74922D01*
X17763Y74939D01*
X17829Y74967D01*
X17896Y74994D01*
X17968Y75028D01*
X18034Y75061D01*
X18090Y75094D01*
X18095Y75089D01*
D02*
G37*
G36*
X19827Y73779D02*
X19788D01*
X19760Y73785D01*
X19727D01*
X19688Y73790D01*
X19594Y73796D01*
X19483D01*
X19361Y73801D01*
X19233Y73807D01*
X17790D01*
X17801Y73801D01*
X17824Y73785D01*
X17862Y73751D01*
X17912Y73718D01*
X17979Y73674D01*
X18057Y73629D01*
X18140Y73574D01*
X18234Y73524D01*
X18229Y73518D01*
X18201Y73496D01*
X18162Y73468D01*
X18118Y73418D01*
X18057Y73363D01*
X17990Y73291D01*
X17918Y73207D01*
X17846Y73113D01*
Y73107D01*
X17835Y73102D01*
X17824Y73085D01*
X17807Y73063D01*
X17790Y73035D01*
X17763Y73002D01*
X17735Y72963D01*
X17701Y72919D01*
X17618Y72813D01*
X17518Y72691D01*
X17407Y72541D01*
X17274Y72375D01*
X17374D01*
X17435Y72380D01*
X17507D01*
X17591Y72386D01*
X17685Y72391D01*
X17796Y72397D01*
X17923Y72403D01*
X18057Y72414D01*
X18212Y72425D01*
X18379Y72436D01*
X18556Y72453D01*
X18750Y72469D01*
X18956Y72491D01*
X18950Y72497D01*
X18939Y72514D01*
X18911Y72547D01*
X18878Y72591D01*
X18828Y72652D01*
X18762Y72730D01*
X18684Y72825D01*
X18584Y72941D01*
X18595Y72947D01*
X18617Y72963D01*
X18662Y72985D01*
X18711Y73019D01*
X18767Y73052D01*
X18828Y73096D01*
X18956Y73196D01*
X18961Y73191D01*
X18972Y73180D01*
X18995Y73152D01*
X19028Y73119D01*
X19061Y73080D01*
X19106Y73030D01*
X19155Y72969D01*
X19217Y72902D01*
X19278Y72830D01*
X19344Y72747D01*
X19416Y72658D01*
X19494Y72564D01*
X19572Y72464D01*
X19655Y72353D01*
X19738Y72242D01*
X19827Y72120D01*
X19816Y72114D01*
X19788Y72097D01*
X19744Y72070D01*
X19688Y72031D01*
X19627Y71986D01*
X19561Y71931D01*
X19489Y71875D01*
X19428Y71814D01*
X19422Y71825D01*
X19405Y71848D01*
X19377Y71881D01*
X19344Y71925D01*
X19311Y71975D01*
X19272Y72031D01*
X19194Y72142D01*
X19161D01*
X19144Y72136D01*
X19083D01*
X19017Y72131D01*
X18950Y72120D01*
X18878Y72114D01*
X18817Y72109D01*
X18773Y72097D01*
Y70338D01*
Y70332D01*
Y70327D01*
X18778Y70294D01*
X18784Y70255D01*
X18800Y70205D01*
X18828Y70155D01*
X18872Y70110D01*
X18928Y70077D01*
X18967Y70072D01*
X19006Y70066D01*
X19250D01*
X19272Y70077D01*
X19311Y70099D01*
X19333Y70116D01*
X19355Y70144D01*
X19377Y70177D01*
X19400Y70222D01*
X19422Y70271D01*
X19450Y70332D01*
X19466Y70405D01*
X19489Y70488D01*
X19505Y70582D01*
X19522Y70693D01*
X19533Y70688D01*
X19561Y70666D01*
X19605Y70638D01*
X19661Y70599D01*
X19733Y70560D01*
X19816Y70521D01*
X19910Y70488D01*
X20010Y70455D01*
Y70443D01*
X19999Y70421D01*
X19988Y70382D01*
X19971Y70332D01*
X19949Y70271D01*
X19921Y70205D01*
X19860Y70061D01*
X19777Y69916D01*
X19727Y69850D01*
X19677Y69789D01*
X19622Y69739D01*
X19561Y69700D01*
X19494Y69678D01*
X19428Y69666D01*
X18773D01*
X18750Y69672D01*
X18723D01*
X18645Y69694D01*
X18606Y69705D01*
X18562Y69727D01*
X18517Y69755D01*
X18478Y69789D01*
X18440Y69827D01*
X18401Y69872D01*
X18373Y69927D01*
X18351Y69994D01*
X18334Y70072D01*
X18329Y70155D01*
Y72048D01*
X18295D01*
X18273Y72042D01*
X18218D01*
X18151Y72036D01*
X18073Y72025D01*
X18001Y72020D01*
X17934Y72014D01*
X17879Y72003D01*
Y71992D01*
Y71964D01*
Y71920D01*
Y71859D01*
Y71787D01*
X17874Y71698D01*
X17868Y71603D01*
X17862Y71504D01*
X17851Y71393D01*
X17835Y71276D01*
X17796Y71043D01*
X17768Y70921D01*
X17740Y70804D01*
X17701Y70693D01*
X17657Y70588D01*
Y70582D01*
X17646Y70566D01*
X17629Y70532D01*
X17607Y70493D01*
X17579Y70443D01*
X17540Y70388D01*
X17496Y70321D01*
X17446Y70244D01*
X17385Y70166D01*
X17319Y70083D01*
X17241Y69988D01*
X17152Y69900D01*
X17058Y69800D01*
X16952Y69700D01*
X16836Y69600D01*
X16708Y69500D01*
X16702Y69511D01*
X16686Y69533D01*
X16658Y69567D01*
X16614Y69611D01*
X16553Y69655D01*
X16486Y69711D01*
X16397Y69761D01*
X16292Y69805D01*
X16297Y69811D01*
X16308Y69816D01*
X16331Y69827D01*
X16353Y69844D01*
X16386Y69866D01*
X16425Y69894D01*
X16508Y69955D01*
X16608Y70033D01*
X16714Y70122D01*
X16819Y70216D01*
X16919Y70316D01*
X16924Y70321D01*
X16930Y70327D01*
X16947Y70344D01*
X16963Y70366D01*
X17008Y70421D01*
X17069Y70499D01*
X17130Y70593D01*
X17196Y70704D01*
X17263Y70821D01*
X17319Y70949D01*
Y70954D01*
X17324Y70965D01*
X17330Y70987D01*
X17341Y71015D01*
X17352Y71048D01*
X17363Y71093D01*
X17374Y71148D01*
X17385Y71204D01*
X17396Y71271D01*
X17407Y71348D01*
X17418Y71431D01*
X17424Y71520D01*
X17435Y71620D01*
Y71720D01*
Y71837D01*
Y71953D01*
X17402D01*
X17374Y71948D01*
X17346D01*
X17307Y71942D01*
X17224Y71931D01*
X17130Y71920D01*
X17019Y71903D01*
X16913Y71881D01*
X16802Y71859D01*
Y71864D01*
X16797Y71875D01*
Y71892D01*
X16791Y71920D01*
X16786Y71948D01*
X16775Y71986D01*
X16752Y72070D01*
X16730Y72164D01*
X16697Y72264D01*
X16658Y72369D01*
X16619Y72469D01*
X16630D01*
X16647Y72475D01*
X16669Y72480D01*
X16725Y72502D01*
X16802Y72536D01*
X16847Y72564D01*
X16891Y72591D01*
X16941Y72630D01*
X16997Y72675D01*
X17052Y72730D01*
X17113Y72786D01*
X17174Y72858D01*
X17235Y72935D01*
X17241Y72941D01*
X17252Y72958D01*
X17268Y72980D01*
X17291Y73013D01*
X17319Y73052D01*
X17352Y73102D01*
X17385Y73152D01*
X17424Y73213D01*
X17502Y73346D01*
X17574Y73490D01*
X17640Y73646D01*
X17696Y73807D01*
X17158D01*
X17113Y73801D01*
X17002D01*
X16874Y73796D01*
X16730Y73790D01*
X16569Y73779D01*
Y74201D01*
X16608D01*
X16636Y74195D01*
X16708D01*
X16802Y74190D01*
X16913Y74184D01*
X17036D01*
X17163Y74179D01*
X19255D01*
X19305Y74184D01*
X19416D01*
X19544Y74190D01*
X19683Y74195D01*
X19827Y74201D01*
Y73779D01*
D02*
G37*
G36*
X3066Y74878D02*
X3083Y74867D01*
X3105Y74850D01*
X3138Y74822D01*
X3183Y74789D01*
X3233Y74750D01*
X3288Y74706D01*
X3355Y74656D01*
X3493Y74539D01*
X3654Y74406D01*
X3821Y74262D01*
X3999Y74107D01*
X3993D01*
X3987Y74095D01*
X3954Y74073D01*
X3910Y74034D01*
X3849Y73984D01*
X3782Y73923D01*
X3710Y73862D01*
X3643Y73801D01*
X3577Y73735D01*
X3571Y73740D01*
X3560Y73751D01*
X3543Y73779D01*
X3516Y73807D01*
X3482Y73846D01*
X3438Y73890D01*
X3393Y73940D01*
X3338Y73996D01*
X3277Y74057D01*
X3216Y74123D01*
X3072Y74262D01*
X2911Y74406D01*
X2733Y74556D01*
X2739Y74562D01*
X2761Y74578D01*
X2794Y74612D01*
X2833Y74650D01*
X2883Y74695D01*
X2938Y74750D01*
X2999Y74817D01*
X3060Y74884D01*
X3066Y74878D01*
D02*
G37*
G36*
X25910Y72070D02*
X25860D01*
X25827Y72075D01*
X25777D01*
X25727Y72081D01*
X25660D01*
X25594Y72086D01*
X25433D01*
X25344Y72092D01*
X25249D01*
X25050Y72097D01*
X21453D01*
X21370Y72092D01*
X21192D01*
X20998Y72086D01*
X20787Y72081D01*
X20576Y72070D01*
Y72680D01*
X20632D01*
X20676Y72675D01*
X20787D01*
X20854Y72669D01*
X21020D01*
X21109Y72663D01*
X21309D01*
X21520Y72658D01*
X25100D01*
X25177Y72663D01*
X25349D01*
X25532Y72669D01*
X25721Y72675D01*
X25910Y72680D01*
Y72070D01*
D02*
G37*
G36*
X2761Y73424D02*
X2783Y73413D01*
X2811Y73396D01*
X2855Y73368D01*
X2905Y73341D01*
X2966Y73302D01*
X3038Y73263D01*
X3111Y73219D01*
X3194Y73169D01*
X3277Y73119D01*
X3460Y73008D01*
X3643Y72891D01*
X3832Y72774D01*
X3821Y72763D01*
X3799Y72736D01*
X3760Y72691D01*
X3710Y72630D01*
X3660Y72564D01*
X3604Y72491D01*
X3554Y72408D01*
X3505Y72330D01*
X3499Y72336D01*
X3482Y72347D01*
X3460Y72369D01*
X3427Y72391D01*
X3382Y72425D01*
X3333Y72464D01*
X3277Y72508D01*
X3210Y72553D01*
X3144Y72608D01*
X3066Y72658D01*
X2983Y72714D01*
X2894Y72774D01*
X2705Y72891D01*
X2500Y73008D01*
X2506Y73019D01*
X2522Y73041D01*
X2550Y73080D01*
X2583Y73130D01*
X2622Y73196D01*
X2667Y73263D01*
X2711Y73346D01*
X2755Y73429D01*
X2761Y73424D01*
D02*
G37*
G36*
X15459Y74900D02*
X15476Y74895D01*
X15498Y74884D01*
X15554Y74856D01*
X15620Y74822D01*
X15709Y74789D01*
X15803Y74750D01*
X15903Y74712D01*
X16009Y74673D01*
X16003Y74661D01*
X15981Y74634D01*
X15948Y74589D01*
X15903Y74528D01*
X15848Y74451D01*
X15787Y74356D01*
X15726Y74251D01*
X15653Y74134D01*
Y74129D01*
X15642Y74118D01*
X15637Y74101D01*
X15620Y74073D01*
X15598Y74040D01*
X15576Y74001D01*
X15548Y73951D01*
X15515Y73896D01*
X15476Y73829D01*
X15437Y73762D01*
X15393Y73685D01*
X15343Y73601D01*
X15287Y73507D01*
X15226Y73413D01*
X15159Y73307D01*
X15093Y73196D01*
X15137D01*
X15165Y73202D01*
X15248D01*
X15348Y73207D01*
X15465Y73213D01*
X15581D01*
X15692Y73219D01*
X15798D01*
Y73224D01*
X15809Y73235D01*
X15814Y73252D01*
X15831Y73274D01*
X15848Y73307D01*
X15864Y73341D01*
X15909Y73424D01*
X15953Y73524D01*
X16009Y73635D01*
X16059Y73751D01*
X16103Y73873D01*
X16109D01*
X16114Y73868D01*
X16148Y73846D01*
X16197Y73818D01*
X16264Y73779D01*
X16347Y73735D01*
X16436Y73690D01*
X16536Y73640D01*
X16641Y73596D01*
X16636Y73590D01*
X16614Y73563D01*
X16575Y73518D01*
X16525Y73457D01*
X16458Y73374D01*
X16419Y73330D01*
X16380Y73274D01*
X16336Y73213D01*
X16292Y73146D01*
X16242Y73074D01*
X16192Y72996D01*
X16186Y72991D01*
X16181Y72974D01*
X16164Y72952D01*
X16142Y72919D01*
X16114Y72874D01*
X16075Y72819D01*
X16036Y72752D01*
X15987Y72680D01*
X15936Y72597D01*
X15876Y72508D01*
X15809Y72408D01*
X15742Y72297D01*
X15665Y72181D01*
X15581Y72053D01*
X15493Y71914D01*
X15398Y71770D01*
X15404D01*
X15426Y71776D01*
X15465D01*
X15515Y71781D01*
X15570Y71787D01*
X15642Y71798D01*
X15720Y71803D01*
X15803Y71814D01*
X15892Y71825D01*
X15992Y71837D01*
X16192Y71864D01*
X16392Y71898D01*
X16591Y71931D01*
Y71925D01*
X16586Y71920D01*
X16575Y71886D01*
X16553Y71837D01*
X16536Y71770D01*
X16514Y71703D01*
X16492Y71626D01*
X16480Y71553D01*
X16475Y71487D01*
X16453D01*
X16436Y71481D01*
X16408D01*
X16380Y71476D01*
X16347Y71470D01*
X16303Y71465D01*
X16258Y71459D01*
X16203Y71454D01*
X16142Y71448D01*
X16075Y71437D01*
X16003Y71426D01*
X15920Y71415D01*
X15831Y71404D01*
X15737Y71393D01*
X15731D01*
X15714Y71387D01*
X15687D01*
X15648Y71381D01*
X15604Y71370D01*
X15548Y71365D01*
X15487Y71354D01*
X15426Y71343D01*
X15282Y71315D01*
X15126Y71282D01*
X14971Y71248D01*
X14816Y71204D01*
Y71209D01*
X14810Y71215D01*
X14804Y71243D01*
X14788Y71293D01*
X14765Y71354D01*
X14743Y71426D01*
X14716Y71504D01*
X14649Y71676D01*
X14654D01*
X14660Y71681D01*
X14693Y71692D01*
X14743Y71714D01*
X14810Y71753D01*
X14882Y71809D01*
X14965Y71881D01*
X15010Y71925D01*
X15054Y71975D01*
X15099Y72031D01*
X15143Y72092D01*
X15148Y72097D01*
X15154Y72109D01*
X15165Y72125D01*
X15182Y72153D01*
X15204Y72186D01*
X15232Y72225D01*
X15259Y72269D01*
X15287Y72325D01*
X15359Y72436D01*
X15437Y72569D01*
X15520Y72714D01*
X15609Y72869D01*
X15598D01*
X15570Y72863D01*
X15526Y72858D01*
X15470Y72852D01*
X15398Y72847D01*
X15309Y72836D01*
X15215Y72825D01*
X15115Y72808D01*
X15104D01*
X15071Y72802D01*
X15015Y72797D01*
X14954Y72786D01*
X14882Y72774D01*
X14804Y72763D01*
X14721Y72747D01*
X14649Y72730D01*
X14643Y72741D01*
X14632Y72769D01*
X14616Y72813D01*
X14588Y72874D01*
X14555Y72941D01*
X14521Y73019D01*
X14438Y73174D01*
X14444D01*
X14449Y73180D01*
X14466Y73185D01*
X14488Y73196D01*
X14516Y73213D01*
X14544Y73230D01*
X14582Y73257D01*
X14621Y73291D01*
X14666Y73335D01*
X14716Y73385D01*
X14765Y73446D01*
X14821Y73518D01*
X14876Y73596D01*
X14938Y73690D01*
X14999Y73796D01*
X15060Y73918D01*
X15065Y73923D01*
X15076Y73946D01*
X15093Y73984D01*
X15115Y74029D01*
X15137Y74084D01*
X15171Y74151D01*
X15204Y74223D01*
X15237Y74295D01*
X15304Y74462D01*
X15365Y74623D01*
X15393Y74700D01*
X15415Y74778D01*
X15437Y74845D01*
X15448Y74906D01*
X15454D01*
X15459Y74900D01*
D02*
G37*
G36*
X6246Y73379D02*
Y73363D01*
Y73341D01*
X6241Y73302D01*
Y73252D01*
X6235Y73196D01*
Y73130D01*
Y73046D01*
X6230Y72958D01*
Y72858D01*
X6224Y72747D01*
Y72625D01*
X6219Y72491D01*
Y72347D01*
Y72192D01*
Y72025D01*
Y72014D01*
Y71986D01*
Y71942D01*
Y71881D01*
Y71803D01*
Y71720D01*
Y71631D01*
X6224Y71537D01*
Y71337D01*
X6230Y71237D01*
Y71143D01*
X6235Y71060D01*
Y70976D01*
X6241Y70910D01*
X6246Y70854D01*
X5774D01*
Y71232D01*
X4931D01*
Y70549D01*
X4465D01*
Y70555D01*
Y70566D01*
X4470Y70582D01*
Y70610D01*
X4476Y70649D01*
X4481Y70693D01*
X4487Y70754D01*
X4493Y70826D01*
Y70910D01*
X4498Y71004D01*
X4504Y71115D01*
X4509Y71243D01*
Y71381D01*
X4515Y71542D01*
Y71714D01*
Y71909D01*
Y71914D01*
Y71920D01*
Y71937D01*
Y71959D01*
Y72014D01*
Y72086D01*
Y72175D01*
Y72275D01*
Y72386D01*
X4509Y72508D01*
Y72752D01*
X4504Y72874D01*
Y72996D01*
X4498Y73107D01*
Y73213D01*
X4493Y73307D01*
X4487Y73385D01*
X6246D01*
Y73379D01*
D02*
G37*
G36*
X11513Y74900D02*
Y74889D01*
Y74872D01*
X11508Y74845D01*
Y74817D01*
Y74773D01*
X11502Y74728D01*
Y74678D01*
Y74617D01*
X11497Y74556D01*
Y74484D01*
Y74412D01*
X11491Y74245D01*
Y74062D01*
Y70549D01*
X13128D01*
Y72752D01*
Y72758D01*
Y72774D01*
Y72802D01*
Y72841D01*
Y72886D01*
Y72935D01*
Y72991D01*
Y73052D01*
X13123Y73191D01*
X13117Y73335D01*
X13112Y73479D01*
X13106Y73618D01*
X13644D01*
Y73612D01*
Y73607D01*
Y73590D01*
X13639Y73563D01*
Y73535D01*
Y73496D01*
X13633Y73452D01*
Y73402D01*
Y73346D01*
X13628Y73285D01*
Y73213D01*
Y73135D01*
X13622Y73046D01*
Y72958D01*
Y72858D01*
Y72752D01*
Y70854D01*
Y70849D01*
Y70826D01*
Y70799D01*
Y70754D01*
Y70704D01*
Y70643D01*
Y70571D01*
X13628Y70493D01*
Y70410D01*
Y70316D01*
Y70222D01*
X13633Y70116D01*
X13639Y69900D01*
X13644Y69666D01*
X13128D01*
Y70155D01*
X8866D01*
Y70161D01*
Y70177D01*
Y70205D01*
X8871Y70244D01*
Y70288D01*
Y70344D01*
X8877Y70405D01*
Y70471D01*
Y70543D01*
X8883Y70627D01*
Y70793D01*
X8888Y70976D01*
Y71159D01*
Y72680D01*
Y72686D01*
Y72702D01*
Y72730D01*
Y72769D01*
Y72819D01*
Y72874D01*
Y72935D01*
Y73002D01*
X8883Y73152D01*
X8877Y73313D01*
X8871Y73479D01*
X8866Y73640D01*
X9404D01*
Y73635D01*
Y73618D01*
Y73585D01*
X9399Y73546D01*
Y73501D01*
Y73440D01*
X9393Y73379D01*
Y73313D01*
X9388Y73163D01*
Y73008D01*
X9382Y72852D01*
Y72702D01*
Y70549D01*
X11019D01*
Y74062D01*
Y74068D01*
Y74079D01*
Y74107D01*
Y74134D01*
Y74173D01*
Y74217D01*
Y74267D01*
Y74329D01*
X11014Y74456D01*
X11008Y74595D01*
X11003Y74750D01*
X10997Y74906D01*
X11513D01*
Y74900D01*
D02*
G37*
G36*
X16641Y70915D02*
X16636Y70888D01*
Y70843D01*
Y70782D01*
X16630Y70715D01*
Y70643D01*
X16641Y70482D01*
X16636D01*
X16619Y70477D01*
X16586Y70466D01*
X16547Y70460D01*
X16503Y70443D01*
X16442Y70427D01*
X16380Y70410D01*
X16308Y70394D01*
X16231Y70371D01*
X16148Y70349D01*
X15964Y70299D01*
X15776Y70244D01*
X15576Y70188D01*
X15570D01*
X15554Y70183D01*
X15526Y70172D01*
X15487Y70161D01*
X15443Y70149D01*
X15393Y70133D01*
X15337Y70116D01*
X15276Y70099D01*
X15148Y70055D01*
X15010Y70011D01*
X14882Y69966D01*
X14821Y69944D01*
X14765Y69922D01*
X14760Y69933D01*
X14749Y69961D01*
X14727Y70011D01*
X14699Y70072D01*
X14660Y70144D01*
X14616Y70227D01*
X14566Y70316D01*
X14510Y70410D01*
X14516D01*
X14538Y70416D01*
X14566Y70421D01*
X14610Y70427D01*
X14660Y70438D01*
X14721Y70449D01*
X14793Y70460D01*
X14865Y70471D01*
X14949Y70488D01*
X15037Y70504D01*
X15221Y70538D01*
X15415Y70577D01*
X15609Y70621D01*
X15615D01*
X15631Y70627D01*
X15659Y70632D01*
X15698Y70643D01*
X15742Y70654D01*
X15798Y70666D01*
X15864Y70682D01*
X15931Y70704D01*
X16009Y70727D01*
X16086Y70749D01*
X16264Y70799D01*
X16447Y70860D01*
X16641Y70926D01*
Y70915D01*
D02*
G37*
G36*
X3588Y71975D02*
X3621Y71948D01*
X3671Y71914D01*
X3732Y71870D01*
X3810Y71825D01*
X3893Y71770D01*
X3976Y71720D01*
X4065Y71676D01*
Y71670D01*
X4054Y71659D01*
X4043Y71637D01*
X4026Y71609D01*
X4004Y71570D01*
X3976Y71526D01*
X3949Y71470D01*
X3915Y71409D01*
X3876Y71337D01*
X3838Y71265D01*
X3793Y71182D01*
X3749Y71093D01*
X3704Y70993D01*
X3654Y70893D01*
X3599Y70782D01*
X3549Y70666D01*
X3543Y70660D01*
X3538Y70638D01*
X3521Y70604D01*
X3505Y70560D01*
X3482Y70510D01*
X3455Y70449D01*
X3421Y70377D01*
X3388Y70305D01*
X3321Y70138D01*
X3244Y69972D01*
X3171Y69800D01*
X3105Y69644D01*
X3094Y69655D01*
X3066Y69678D01*
X3022Y69711D01*
X2955Y69755D01*
X2877Y69811D01*
X2778Y69872D01*
X2667Y69933D01*
X2544Y69994D01*
Y69999D01*
X2555Y70005D01*
X2567Y70022D01*
X2583Y70038D01*
X2606Y70066D01*
X2628Y70099D01*
X2655Y70138D01*
X2689Y70183D01*
X2728Y70238D01*
X2766Y70299D01*
X2811Y70366D01*
X2855Y70443D01*
X2905Y70527D01*
X2961Y70621D01*
X3016Y70721D01*
X3072Y70832D01*
X3077Y70837D01*
X3088Y70860D01*
X3105Y70893D01*
X3122Y70938D01*
X3149Y70993D01*
X3183Y71054D01*
X3216Y71126D01*
X3255Y71204D01*
X3294Y71293D01*
X3333Y71381D01*
X3416Y71576D01*
X3499Y71776D01*
X3577Y71981D01*
X3582D01*
X3588Y71975D01*
D02*
G37*
%LPC*%
G36*
X5774Y72963D02*
X4931D01*
Y71653D01*
X5774D01*
Y72963D01*
D02*
G37*
%LPD*%
D10*
X3500Y83500D02*
Y87499D01*
X5499Y89498D01*
X7499Y87499D01*
Y83500D01*
Y86499D01*
X3500D01*
X9498Y89498D02*
Y83500D01*
Y86499D01*
X13497D01*
Y89498D01*
Y83500D01*
X19495Y88498D02*
X18495Y89498D01*
X16496D01*
X15496Y88498D01*
Y87499D01*
X16496Y86499D01*
X18495D01*
X19495Y85499D01*
Y84500D01*
X18495Y83500D01*
X16496D01*
X15496Y84500D01*
X21494Y89498D02*
X25493D01*
X23494D01*
Y83500D01*
X27492Y89498D02*
Y84500D01*
X28492Y83500D01*
X30491D01*
X31491Y84500D01*
Y89498D01*
D34*
X5624Y77000D02*
X3000D01*
X5624Y79624D01*
Y80280D01*
X4968Y80936D01*
X3656D01*
X3000Y80280D01*
X6936D02*
X7592Y80936D01*
X8904D01*
X9560Y80280D01*
Y77656D01*
X8904Y77000D01*
X7592D01*
X6936Y77656D01*
Y80280D01*
X13495Y77000D02*
X10871D01*
X13495Y79624D01*
Y80280D01*
X12839Y80936D01*
X11527D01*
X10871Y80280D01*
X17431Y77000D02*
X14807D01*
X17431Y79624D01*
Y80280D01*
X16775Y80936D01*
X15463D01*
X14807Y80280D01*
X18743Y77000D02*
Y77656D01*
X19399D01*
Y77000D01*
X18743D01*
X24647D02*
X22023D01*
X24647Y79624D01*
Y80280D01*
X23991Y80936D01*
X22679D01*
X22023Y80280D01*
X25958Y77000D02*
Y77656D01*
X26614D01*
Y77000D01*
X25958D01*
X29238D02*
X30550D01*
X29894D01*
Y80936D01*
X29238Y80280D01*
X34486Y77000D02*
Y80936D01*
X32518Y78968D01*
X35142D01*
D35*
X117700Y83000D02*
D03*
X125000D02*
D03*
X117850Y75500D02*
D03*
X125150D02*
D03*
X117850Y69000D02*
D03*
X125150D02*
D03*
X162350Y80500D02*
D03*
X169650D02*
D03*
X162350Y73000D02*
D03*
X169650D02*
D03*
X80350Y6200D02*
D03*
X87650D02*
D03*
X169350Y6000D02*
D03*
X176650D02*
D03*
D36*
X125000Y43750D02*
D03*
D37*
Y57250D02*
D03*
D38*
X95625Y54403D02*
D03*
Y52434D02*
D03*
Y46529D02*
D03*
Y44561D02*
D03*
X111373Y46529D02*
D03*
Y44561D02*
D03*
Y48498D02*
D03*
X95625D02*
D03*
X111373Y50466D02*
D03*
X95625D02*
D03*
X111373Y54403D02*
D03*
Y52434D02*
D03*
X158874Y25079D02*
D03*
Y27047D02*
D03*
Y32953D02*
D03*
Y34921D02*
D03*
X143126Y32953D02*
D03*
Y34921D02*
D03*
Y30984D02*
D03*
X158874D02*
D03*
X143126Y29016D02*
D03*
X158874D02*
D03*
X143126Y25079D02*
D03*
Y27047D02*
D03*
D39*
X106452Y41608D02*
D03*
X108421Y57356D02*
D03*
X106452D02*
D03*
X104484D02*
D03*
X98578Y41608D02*
D03*
X100547D02*
D03*
X102515D02*
D03*
X104484D02*
D03*
X100547Y57356D02*
D03*
X108421Y41608D02*
D03*
X102515Y57356D02*
D03*
X98578D02*
D03*
X148047Y37874D02*
D03*
X146079Y22126D02*
D03*
X148047D02*
D03*
X150016D02*
D03*
X155921Y37874D02*
D03*
X153953D02*
D03*
X151984D02*
D03*
X150016D02*
D03*
X153953Y22126D02*
D03*
X146079Y37874D02*
D03*
X151984Y22126D02*
D03*
X155921D02*
D03*
D40*
X103500Y49500D02*
D03*
X150999Y29982D02*
D03*
D41*
X194720Y49000D02*
D03*
Y54000D02*
D03*
Y59000D02*
D03*
Y64000D02*
D03*
X173500D02*
D03*
Y59000D02*
D03*
Y54000D02*
D03*
Y49000D02*
D03*
X194720Y26000D02*
D03*
Y31000D02*
D03*
Y36000D02*
D03*
Y41000D02*
D03*
X173500D02*
D03*
Y36000D02*
D03*
Y31000D02*
D03*
Y26000D02*
D03*
X83129Y65000D02*
D03*
Y60000D02*
D03*
Y55000D02*
D03*
Y50000D02*
D03*
X61909D02*
D03*
Y55000D02*
D03*
Y60000D02*
D03*
Y65000D02*
D03*
X83129Y41000D02*
D03*
Y36000D02*
D03*
Y31000D02*
D03*
Y26000D02*
D03*
X61909D02*
D03*
Y31000D02*
D03*
Y36000D02*
D03*
Y41000D02*
D03*
D42*
X187629Y56500D02*
D03*
Y33500D02*
D03*
X69000Y57500D02*
D03*
Y33500D02*
D03*
D43*
X63000Y6000D02*
D03*
X194500D02*
D03*
D44*
X70000D02*
D03*
X187500D02*
D03*
D45*
X143500Y61000D02*
D03*
X136600D02*
D03*
X157000Y44500D02*
D03*
X163900D02*
D03*
X164000Y51000D02*
D03*
X157100D02*
D03*
X123400Y19000D02*
D03*
X116500D02*
D03*
X100500Y34500D02*
D03*
X93600D02*
D03*
X93500Y28500D02*
D03*
X100400D02*
D03*
D46*
X165750Y61500D02*
D03*
X93750Y19000D02*
D03*
D47*
X152250Y61500D02*
D03*
X107250Y19000D02*
D03*
D48*
X108000Y35000D02*
D03*
Y28100D02*
D03*
X114500D02*
D03*
Y35000D02*
D03*
X121000Y28100D02*
D03*
Y35000D02*
D03*
X149000Y45500D02*
D03*
Y52400D02*
D03*
X142500Y52500D02*
D03*
Y45600D02*
D03*
X136000Y45500D02*
D03*
Y52400D02*
D03*
D49*
X156500Y70264D02*
D03*
Y72823D02*
D03*
Y75382D02*
D03*
Y77941D02*
D03*
Y80500D02*
D03*
Y83059D02*
D03*
Y85618D02*
D03*
X131303Y70264D02*
D03*
Y72823D02*
D03*
Y75382D02*
D03*
Y77941D02*
D03*
Y80500D02*
D03*
Y83059D02*
D03*
D50*
Y85618D02*
D03*
D51*
X221500Y40591D02*
D03*
X216500D02*
D03*
X211500D02*
D03*
X206500D02*
D03*
Y19371D02*
D03*
X211500D02*
D03*
X216500D02*
D03*
X221500D02*
D03*
X206264Y47780D02*
D03*
X211264D02*
D03*
X216264D02*
D03*
X221264D02*
D03*
Y69000D02*
D03*
X216264D02*
D03*
X211264D02*
D03*
X206264D02*
D03*
X37764D02*
D03*
X42764D02*
D03*
X47764D02*
D03*
X52764D02*
D03*
Y47780D02*
D03*
X47764D02*
D03*
X42764D02*
D03*
X37764D02*
D03*
X53000Y19371D02*
D03*
X48000D02*
D03*
X43000D02*
D03*
X38000D02*
D03*
Y40591D02*
D03*
X43000D02*
D03*
X48000D02*
D03*
X53000D02*
D03*
D52*
X214000Y33500D02*
D03*
X213764Y54871D02*
D03*
X45264D02*
D03*
X45500Y33500D02*
D03*
D53*
X48000Y100890D02*
D03*
D54*
Y87110D02*
D03*
D55*
X242000Y100000D02*
D03*
X242500Y13478D02*
D03*
X17500Y100500D02*
D03*
X18500Y12500D02*
D03*
D56*
X152000Y105500D02*
D03*
Y95500D02*
D03*
X142000Y105500D02*
D03*
Y95500D02*
D03*
X132000Y105500D02*
D03*
D57*
Y95500D02*
D03*
D58*
X247000Y56209D02*
D03*
Y36524D02*
D03*
X12500Y34657D02*
D03*
Y54343D02*
D03*
X78000Y99000D02*
D03*
X97685D02*
D03*
D59*
X179996Y97500D02*
D03*
X217004D02*
D03*
X198500D02*
D03*
M02*
